<svg width="84" height="17" viewBox="0 0 84 17" fill="none" xmlns="http://www.w3.org/2000/svg">
<path d="M7.17857 1.68314C7.57634 1.11022 8.42366 1.11022 8.82143 1.68315L10.6413 4.30432C10.7701 4.48985 10.9579 4.6263 11.1741 4.69148L14.2294 5.61225C14.8972 5.81351 15.159 6.61936 14.7371 7.17471L12.8065 9.71545C12.6699 9.89528 12.5981 10.1161 12.603 10.3419L12.6714 13.5321C12.6864 14.2294 12.0009 14.7275 11.3423 14.4978L8.32934 13.4469C8.11608 13.3725 7.88392 13.3725 7.67066 13.4469L4.65771 14.4978C3.99914 14.7275 3.31365 14.2294 3.3286 13.5321L3.39702 10.3419C3.40186 10.1161 3.33012 9.89528 3.19348 9.71545L1.26295 7.1747C0.84098 6.61936 1.10282 5.81351 1.77062 5.61225L4.82586 4.69148C5.04211 4.6263 5.22993 4.48984 5.35874 4.30432L7.17857 1.68314Z" fill="#00AEFF"/>
<path d="M7.17857 1.68314C7.57634 1.11022 8.42366 1.11022 8.82143 1.68315L10.6413 4.30432C10.7701 4.48985 10.9579 4.6263 11.1741 4.69148L14.2294 5.61225C14.8972 5.81351 15.159 6.61936 14.7371 7.17471L12.8065 9.71545C12.6699 9.89528 12.5981 10.1161 12.603 10.3419L12.6714 13.5321C12.6864 14.2294 12.0009 14.7275 11.3423 14.4978L8.32934 13.4469C8.11608 13.3725 7.88392 13.3725 7.67066 13.4469L4.65771 14.4978C3.99914 14.7275 3.31365 14.2294 3.3286 13.5321L3.39702 10.3419C3.40186 10.1161 3.33012 9.89528 3.19348 9.71545L1.26295 7.1747C0.84098 6.61936 1.10282 5.81351 1.77062 5.61225L4.82586 4.69148C5.04211 4.6263 5.22993 4.48984 5.35874 4.30432L7.17857 1.68314Z" fill="#00AEFF"/>
<path d="M24.1786 1.68314C24.5763 1.11022 25.4237 1.11022 25.8214 1.68315L27.6413 4.30432C27.7701 4.48985 27.9579 4.6263 28.1741 4.69148L31.2294 5.61225C31.8972 5.81351 32.159 6.61936 31.7371 7.17471L29.8065 9.71545C29.6699 9.89528 29.5981 10.1161 29.603 10.3419L29.6714 13.5321C29.6864 14.2294 29.0009 14.7275 28.3423 14.4978L25.3293 13.4469C25.1161 13.3725 24.8839 13.3725 24.6707 13.4469L21.6577 14.4978C20.9991 14.7275 20.3136 14.2294 20.3286 13.5321L20.397 10.3419C20.4019 10.1161 20.3301 9.89528 20.1935 9.71545L18.2629 7.1747C17.841 6.61936 18.1028 5.81351 18.7706 5.61225L21.8259 4.69148C22.0421 4.6263 22.2299 4.48984 22.3587 4.30432L24.1786 1.68314Z" fill="#00AEFF"/>
<path d="M24.1786 1.68314C24.5763 1.11022 25.4237 1.11022 25.8214 1.68315L27.6413 4.30432C27.7701 4.48985 27.9579 4.6263 28.1741 4.69148L31.2294 5.61225C31.8972 5.81351 32.159 6.61936 31.7371 7.17471L29.8065 9.71545C29.6699 9.89528 29.5981 10.1161 29.603 10.3419L29.6714 13.5321C29.6864 14.2294 29.0009 14.7275 28.3423 14.4978L25.3293 13.4469C25.1161 13.3725 24.8839 13.3725 24.6707 13.4469L21.6577 14.4978C20.9991 14.7275 20.3136 14.2294 20.3286 13.5321L20.397 10.3419C20.4019 10.1161 20.3301 9.89528 20.1935 9.71545L18.2629 7.1747C17.841 6.61936 18.1028 5.81351 18.7706 5.61225L21.8259 4.69148C22.0421 4.6263 22.2299 4.48984 22.3587 4.30432L24.1786 1.68314Z" fill="#00AEFF"/>
<path d="M41.1786 1.68314C41.5763 1.11022 42.4237 1.11022 42.8214 1.68315L44.6413 4.30432C44.7701 4.48985 44.9579 4.6263 45.1741 4.69148L48.2294 5.61225C48.8972 5.81351 49.159 6.61936 48.7371 7.17471L46.8065 9.71545C46.6699 9.89528 46.5981 10.1161 46.603 10.3419L46.6714 13.5321C46.6864 14.2294 46.0009 14.7275 45.3423 14.4978L42.3293 13.4469C42.1161 13.3725 41.8839 13.3725 41.6707 13.4469L38.6577 14.4978C37.9991 14.7275 37.3136 14.2294 37.3286 13.5321L37.397 10.3419C37.4019 10.1161 37.3301 9.89528 37.1935 9.71545L35.2629 7.1747C34.841 6.61936 35.1028 5.81351 35.7706 5.61225L38.8259 4.69148C39.0421 4.6263 39.2299 4.48984 39.3587 4.30432L41.1786 1.68314Z" fill="#00AEFF"/>
<path d="M41.1786 1.68314C41.5763 1.11022 42.4237 1.11022 42.8214 1.68315L44.6413 4.30432C44.7701 4.48985 44.9579 4.6263 45.1741 4.69148L48.2294 5.61225C48.8972 5.81351 49.159 6.61936 48.7371 7.17471L46.8065 9.71545C46.6699 9.89528 46.5981 10.1161 46.603 10.3419L46.6714 13.5321C46.6864 14.2294 46.0009 14.7275 45.3423 14.4978L42.3293 13.4469C42.1161 13.3725 41.8839 13.3725 41.6707 13.4469L38.6577 14.4978C37.9991 14.7275 37.3136 14.2294 37.3286 13.5321L37.397 10.3419C37.4019 10.1161 37.3301 9.89528 37.1935 9.71545L35.2629 7.1747C34.841 6.61936 35.1028 5.81351 35.7706 5.61225L38.8259 4.69148C39.0421 4.6263 39.2299 4.48984 39.3587 4.30432L41.1786 1.68314Z" fill="#00AEFF"/>
<path opacity="0.4" d="M58.1786 1.68314C58.5763 1.11022 59.4237 1.11022 59.8214 1.68315L61.6413 4.30432C61.7701 4.48985 61.9579 4.6263 62.1741 4.69148L65.2294 5.61225C65.8972 5.81351 66.159 6.61936 65.7371 7.17471L63.8065 9.71545C63.6699 9.89528 63.5981 10.1161 63.603 10.3419L63.6714 13.5321C63.6864 14.2294 63.0009 14.7275 62.3423 14.4978L59.3293 13.4469C59.1161 13.3725 58.8839 13.3725 58.6707 13.4469L55.6577 14.4978C54.9991 14.7275 54.3136 14.2294 54.3286 13.5321L54.397 10.3419C54.4019 10.1161 54.3301 9.89528 54.1935 9.71545L52.2629 7.1747C51.841 6.61936 52.1028 5.81351 52.7706 5.61225L55.8259 4.69148C56.0421 4.6263 56.2299 4.48984 56.3587 4.30432L58.1786 1.68314Z" fill="#B9D9FC"/>
<path opacity="0.4" d="M75.1786 1.68314C75.5763 1.11022 76.4237 1.11022 76.8214 1.68315L78.6413 4.30432C78.7701 4.48985 78.9579 4.6263 79.1741 4.69148L82.2294 5.61225C82.8972 5.81351 83.159 6.61936 82.7371 7.17471L80.8065 9.71545C80.6699 9.89528 80.5981 10.1161 80.603 10.3419L80.6714 13.5321C80.6864 14.2294 80.0009 14.7275 79.3423 14.4978L76.3293 13.4469C76.1161 13.3725 75.8839 13.3725 75.6707 13.4469L72.6577 14.4978C71.9991 14.7275 71.3136 14.2294 71.3286 13.5321L71.397 10.3419C71.4019 10.1161 71.3301 9.89528 71.1935 9.71545L69.2629 7.1747C68.841 6.61936 69.1028 5.81351 69.7706 5.61225L72.8259 4.69148C73.0421 4.6263 73.2299 4.48984 73.3587 4.30432L75.1786 1.68314Z" fill="#B9D9FC"/>
</svg>
