<svg width="50" height="50" viewBox="0 0 50 50" fill="none" xmlns="http://www.w3.org/2000/svg">
<circle cx="25" cy="25" r="22.5" fill="#00AEFF" stroke="#B9D9FC" stroke-width="5"/>
<path d="M13.0732 22.251C11.833 22.9736 11.0225 23.335 10.6416 23.335C10.417 23.335 10.2363 23.2666 10.0996 23.1299C9.96289 22.9932 9.89453 22.7832 9.89453 22.5C9.89453 22.168 10.1387 21.9043 10.627 21.709C12.7754 20.8594 14.5137 19.7266 15.8418 18.3105C16.1152 18.0078 16.3936 17.8564 16.6768 17.8564C16.96 17.8564 17.1748 17.9297 17.3213 18.0762C17.4385 18.1934 17.4971 18.3447 17.4971 18.5303C17.4873 18.6182 17.458 18.7061 17.4092 18.7939C18.8936 20.1025 20.5977 21.0059 22.5215 21.5039C23.2441 21.6895 23.6055 21.9824 23.6055 22.3828C23.6055 22.6758 23.5322 22.8955 23.3857 23.042C23.2393 23.1885 23.0391 23.2617 22.7852 23.2617C22.1309 23.2617 21.1641 22.9248 19.8848 22.251C19.875 22.4658 19.7578 22.6221 19.5332 22.7197C19.416 22.7686 19.2842 22.793 19.1377 22.793H13.8057C13.5518 22.793 13.3613 22.7295 13.2344 22.6025C13.1465 22.5146 13.0928 22.3975 13.0732 22.251ZM18.5664 21.4893C17.873 21.0303 17.1699 20.4736 16.457 19.8193C15.7734 20.4443 15.0654 21.001 14.333 21.4893H18.5664ZM19.2402 26.6162C19.0254 26.5088 18.918 26.3086 18.918 26.0156C18.918 25.918 18.9424 25.8154 18.9912 25.708C19.0498 25.6006 19.1182 25.498 19.1963 25.4004C19.2744 25.293 19.3281 25.2197 19.3574 25.1807C19.4551 25.0342 19.5137 24.9268 19.5332 24.8584C19.5137 24.8584 19.4941 24.8584 19.4746 24.8584H12.2529C11.9697 24.8584 11.7646 24.7949 11.6377 24.668C11.5107 24.541 11.4473 24.375 11.4473 24.1699C11.4473 23.9648 11.5107 23.7988 11.6377 23.6719C11.7744 23.5352 11.9795 23.4668 12.2529 23.4668H20.2803C20.7393 23.4668 21.0615 23.5645 21.2471 23.7598C21.3838 23.8867 21.4521 24.0576 21.4521 24.2725C21.4521 24.4971 21.1592 25.0488 20.5732 25.9277C20.2314 26.4355 19.9189 26.6895 19.6357 26.6895C19.4795 26.6895 19.3477 26.665 19.2402 26.6162ZM11.4326 29.8682V28.0518C11.4326 27.5439 11.5596 27.1729 11.8135 26.9385C12.0576 26.7139 12.4434 26.6016 12.9707 26.6016H20.4854C21.1396 26.6016 21.5791 26.7773 21.8037 27.1289C21.9502 27.3535 22.0234 27.6611 22.0234 28.0518V29.8682C22.0234 30.376 21.8965 30.7422 21.6426 30.9668C21.3984 31.1914 21.0127 31.3037 20.4854 31.3037H12.9707C12.4141 31.3037 12.0186 31.1865 11.7842 30.9521C11.5498 30.7178 11.4326 30.3564 11.4326 29.8682ZM12.9414 29.5752C12.9414 29.7998 13.0586 29.9121 13.293 29.9121H20.1484C20.2754 29.9121 20.3633 29.8877 20.4121 29.8389C20.4707 29.7803 20.5 29.6924 20.5 29.5752V28.3447C20.5 28.2275 20.4707 28.1396 20.4121 28.0811C20.3535 28.0225 20.2656 27.9932 20.1484 27.9932H13.293C13.0586 27.9932 12.9414 28.1104 12.9414 28.3447V29.5752ZM33.748 26.792C32.918 26.792 32.5029 26.4258 32.5029 25.6934C32.5029 25.6445 32.5029 25.5957 32.5029 25.5469V22.6172C32.5029 22.0898 32.6885 21.7334 33.0596 21.5479C33.2354 21.46 33.4502 21.416 33.7041 21.416H34.7002V19.8633H34.5098C33.9531 20.6543 33.5039 21.1523 33.1621 21.3574C33.0547 21.4355 32.9424 21.4746 32.8252 21.4746C32.6201 21.4746 32.4639 21.4209 32.3564 21.3135C32.2393 21.1963 32.1807 21.0303 32.1807 20.8154C32.1807 20.6494 32.2783 20.4639 32.4736 20.2588C33.1377 19.5459 33.6162 18.9062 33.9092 18.3398C34.0752 18.0273 34.3047 17.8711 34.5977 17.8711C34.8223 17.8711 34.9932 17.9297 35.1104 18.0469C35.2275 18.1641 35.2861 18.3057 35.2861 18.4717C35.2861 18.54 35.2666 18.6182 35.2275 18.7061H39.3145C39.5391 18.7061 39.7051 18.7646 39.8125 18.8818C39.9199 18.9795 39.9736 19.1211 39.9736 19.3066C39.9736 19.4727 39.9199 19.6094 39.8125 19.7168C39.7148 19.8145 39.5488 19.8633 39.3145 19.8633H35.9453V20.083H38.5674C38.7627 20.083 38.9092 20.1367 39.0068 20.2441C39.1143 20.3418 39.168 20.4736 39.168 20.6396C39.168 20.7959 39.1191 20.9229 39.0215 21.0205C38.9238 21.1182 38.7725 21.167 38.5674 21.167H35.9453V21.416H38.1719C38.6992 21.416 39.0557 21.6016 39.2412 21.9727C39.3291 22.1484 39.373 22.3633 39.373 22.6172V25.5908C39.373 25.9814 39.2705 26.2793 39.0654 26.4844C38.8604 26.6895 38.5625 26.792 38.1719 26.792H33.748ZM28.123 26.748C27.2441 26.748 26.8047 26.3623 26.8047 25.5908C26.8047 25.5322 26.8047 25.4785 26.8047 25.4297V19.5557C26.8047 18.6865 27.1904 18.252 27.9619 18.252C28.0205 18.252 28.0742 18.252 28.123 18.252H32.0928C32.3271 18.252 32.5078 18.3105 32.6348 18.4277C32.7422 18.5449 32.7959 18.6963 32.7959 18.8818C32.7959 19.0674 32.7422 19.2188 32.6348 19.3359C32.5078 19.4531 32.3271 19.5117 32.0928 19.5117H30.8037V20.5957H31.1699C31.5605 20.5957 31.8584 20.6982 32.0635 20.9033C32.2686 21.1084 32.3711 21.4062 32.3711 21.7969V23.1006C32.3711 23.501 32.2686 23.8037 32.0635 24.0088C31.8682 24.2041 31.5801 24.3018 31.1992 24.3018H30.8037V25.4736H31.8438C32.0781 25.4736 32.2539 25.5322 32.3711 25.6494C32.4883 25.7666 32.5469 25.9229 32.5469 26.1182C32.5469 26.3037 32.4932 26.4502 32.3857 26.5576C32.2393 26.6846 32.0586 26.748 31.8438 26.748H28.123ZM29.4854 19.5117H28.416C28.3379 19.5117 28.2842 19.5264 28.2549 19.5557C28.2061 19.6045 28.1816 19.6729 28.1816 19.7607V20.5957H29.4854V19.5117ZM28.1816 21.8115V23.0859H30.8184C30.8965 23.0859 30.9502 23.0713 30.9795 23.042C31.0088 23.0127 31.0234 22.959 31.0234 22.8809V22.0166C31.0234 21.9385 31.0137 21.8896 30.9941 21.8701C30.9551 21.8311 30.8965 21.8115 30.8184 21.8115H28.1816ZM37.9229 22.5H33.9678C33.8994 22.5 33.8555 22.5098 33.8359 22.5293C33.7969 22.5684 33.7773 22.627 33.7773 22.7051V25.4883C33.7773 25.5859 33.8115 25.6543 33.8799 25.6934C33.8994 25.7031 33.9287 25.708 33.9678 25.708H37.9229C37.9814 25.708 38.0254 25.6934 38.0547 25.6641C38.084 25.6348 38.0986 25.5762 38.0986 25.4883V22.7051C38.0986 22.5879 38.0596 22.5195 37.9814 22.5C37.9619 22.5 37.9424 22.5 37.9229 22.5ZM35.1396 22.7197V22.6611C35.1396 22.5244 35.1787 22.417 35.2568 22.3389C35.3154 22.2803 35.4131 22.2363 35.5498 22.207H35.5645C35.6621 22.207 35.8232 22.2607 36.0479 22.3682C36.3994 22.5439 36.5801 22.7344 36.5898 22.9395V22.9688C36.5898 23.1055 36.541 23.2129 36.4434 23.291C36.3555 23.3691 36.248 23.4082 36.1211 23.4082C36.0039 23.4082 35.8086 23.3203 35.5352 23.1445C35.4082 23.0762 35.3154 23.0127 35.2568 22.9541C35.1982 22.8857 35.1592 22.8076 35.1396 22.7197ZM34.2021 22.3242C34.2314 22.3242 34.2705 22.3242 34.3193 22.3242L35.4619 23.0713L36.0186 23.4814C36.3408 23.1885 36.5898 22.9443 36.7656 22.749C37.0195 22.4561 37.2295 22.3096 37.3955 22.3096C37.5713 22.3096 37.7129 22.3633 37.8203 22.4707C37.8984 22.5488 37.9375 22.6465 37.9375 22.7637C37.9375 22.8613 37.9082 22.959 37.8496 23.0566C37.6738 23.3301 37.3418 23.6719 36.8535 24.082C37.4395 24.5312 37.8154 24.8535 37.9814 25.0488C38.0986 25.1953 38.1572 25.3223 38.1572 25.4297C38.1572 25.5859 38.1035 25.7178 37.9961 25.8252C37.8984 25.9229 37.7715 25.9717 37.6152 25.9717C37.498 25.9717 37.3711 25.9229 37.2344 25.8252C37.1562 25.7568 37.0684 25.6738 36.9707 25.5762C36.707 25.3125 36.3945 25.0391 36.0332 24.7559C35.5254 25.1465 35.125 25.4297 34.832 25.6055C34.5488 25.7812 34.334 25.8691 34.1875 25.8691C34.041 25.8691 33.9189 25.8252 33.8213 25.7373C33.7334 25.6396 33.6895 25.5078 33.6895 25.3418C33.6895 25.1758 33.8018 25.0195 34.0264 24.873C34.124 24.8145 34.2559 24.7461 34.4219 24.668C34.6172 24.5703 34.876 24.3994 35.1982 24.1553L34.2168 23.4814C34.1875 23.4521 34.1436 23.4229 34.085 23.3936C33.9678 23.3154 33.8848 23.2471 33.8359 23.1885C33.748 23.0811 33.7041 22.9639 33.7041 22.8369C33.7041 22.6904 33.7529 22.5684 33.8506 22.4707C33.9482 22.373 34.0654 22.3242 34.2021 22.3242ZM33.6016 23.833C33.6016 23.6475 33.6797 23.5205 33.8359 23.4521C33.8945 23.4229 33.9482 23.4082 33.9971 23.4082C34.0557 23.4082 34.0947 23.4131 34.1143 23.4229C34.1436 23.4229 34.168 23.4229 34.1875 23.4229C34.3145 23.4619 34.4805 23.5547 34.6855 23.7012C34.9102 23.8574 35.0225 24.0283 35.0225 24.2139C35.0225 24.3408 34.9736 24.4482 34.876 24.5361C34.7783 24.6143 34.6807 24.6533 34.583 24.6533C34.4854 24.6533 34.3828 24.6191 34.2754 24.5508C34.0508 24.4141 33.8799 24.292 33.7627 24.1846C33.6553 24.0674 33.6016 23.9502 33.6016 23.833ZM38.2451 24.4189C38.2451 24.5264 38.1963 24.624 38.0986 24.7119C38.0107 24.79 37.918 24.8291 37.8203 24.8291C37.7227 24.8291 37.6299 24.8047 37.542 24.7559C37.4541 24.6973 37.3613 24.6338 37.2637 24.5654C37.166 24.4873 37.0879 24.4238 37.0293 24.375C36.9121 24.2578 36.8535 24.1455 36.8535 24.0381C36.8535 23.8916 36.8975 23.7793 36.9854 23.7012C37.0732 23.623 37.1709 23.584 37.2783 23.584C37.3955 23.584 37.5176 23.623 37.6445 23.7012C37.8887 23.8477 38.0498 23.9746 38.1279 24.082C38.2061 24.1895 38.2451 24.3018 38.2451 24.4189ZM28.1816 25.2393C28.1816 25.3174 28.2012 25.376 28.2402 25.415C28.2793 25.4541 28.3379 25.4736 28.416 25.4736H29.4854V24.3018H28.1816V25.2393ZM36.8535 25.5322C36.8535 25.6592 36.8047 25.7617 36.707 25.8398C36.6191 25.918 36.5264 25.957 36.4287 25.957C36.2822 25.957 36.082 25.8594 35.8281 25.6641C35.7305 25.5957 35.6475 25.5225 35.5791 25.4443C35.501 25.3564 35.4619 25.2588 35.4619 25.1514C35.4619 25.0244 35.5059 24.9219 35.5938 24.8438C35.6816 24.7656 35.7842 24.7266 35.9014 24.7266C36.0771 24.7266 36.3164 24.8584 36.6191 25.1221C36.6582 25.1514 36.6973 25.1855 36.7363 25.2246C36.8145 25.3027 36.8535 25.4053 36.8535 25.5322ZM39.9004 30.0293C40.0273 30.1562 40.0908 30.3223 40.0908 30.5273C40.0908 30.7324 40.0273 30.8936 39.9004 31.0107C39.7734 31.1279 39.6025 31.1865 39.3877 31.1865H27.1123C26.8779 31.1865 26.6973 31.123 26.5703 30.9961C26.4531 30.8789 26.3945 30.7178 26.3945 30.5127C26.3945 30.3076 26.4531 30.1465 26.5703 30.0293C26.6875 29.9121 26.8682 29.8535 27.1123 29.8535H27.8594V28.4033C27.8594 28.0029 27.9668 27.6953 28.1816 27.4805C28.4062 27.2559 28.7188 27.1436 29.1191 27.1436H37.3662C37.7764 27.1436 38.0889 27.2559 38.3037 27.4805C38.5283 27.6953 38.6406 28.0029 38.6406 28.4033V29.8535H39.3877C39.6123 29.8535 39.7832 29.9121 39.9004 30.0293ZM31.0088 28.4326H29.6465C29.5391 28.4326 29.4561 28.4619 29.3975 28.5205C29.3486 28.5693 29.3242 28.6426 29.3242 28.7402V29.8535H31.0088V28.4326ZM34.085 28.4326H32.4004V29.8535H34.085V28.4326ZM37.1758 28.7402C37.1758 28.584 37.1221 28.4863 37.0146 28.4473C36.9756 28.4375 36.9268 28.4326 36.8682 28.4326H35.4619V29.8535H37.1758V28.7402Z" fill="white"/>
</svg>
