<svg width="156" height="169" viewBox="0 0 156 169" fill="none" xmlns="http://www.w3.org/2000/svg">
<circle cx="63" cy="63" r="63" fill="#F8CDCD"/>
<mask id="mask0_9042_39803" style="mask-type:alpha" maskUnits="userSpaceOnUse" x="0" y="0" width="126" height="126">
<circle cx="63" cy="63" r="63" fill="#D9D9D9"/>
</mask>
<g mask="url(#mask0_9042_39803)">
<path d="M85.8996 45.8409C83.8971 38.6618 74.7249 34.2928 68.6988 36.636C67.812 36.9814 66.9391 37.4622 66.0476 37.8543C64.2738 38.6385 64.2738 36.3093 60.0495 37.8543C59.1393 38.1904 55.7038 40.1975 54.8169 39.8521C53.6733 39.4087 51.6335 40.6176 50.4852 40.4449C45.5794 39.6981 41.8218 40.0248 40.1975 45.8409C36.4726 59.1767 45.5747 84.8914 55.4004 84.8914C60.4416 84.8914 57.8836 75.6959 62.9948 75.6959C63.0135 75.6959 63.0322 75.6959 63.0555 75.6959C63.0742 75.6959 63.0929 75.6959 63.1162 75.6959C68.2274 75.6959 65.6695 84.8914 70.7107 84.8914C80.5363 84.8914 89.6338 59.1767 85.9136 45.8409H85.8996Z" fill="#FFF7F0"/>
<mask id="mask1_9042_39803" style="mask-type:luminance" maskUnits="userSpaceOnUse" x="39" y="36" width="48" height="49">
<path d="M85.9015 45.8409C83.8991 38.6618 74.7269 34.2928 68.7008 36.636C67.8139 36.9814 66.941 37.4622 66.0495 37.8543C64.2758 38.6385 64.2758 36.3093 60.0514 37.8543C59.1412 38.1904 55.7057 40.1975 54.8189 39.8521C53.6753 39.4087 51.6355 40.6176 50.4872 40.4449C45.5814 39.6981 41.8238 40.0248 40.1994 45.8409C36.4745 59.1767 45.5767 84.8914 55.4023 84.8914C60.4435 84.8914 57.8856 75.6959 62.9968 75.6959C63.0155 75.6959 63.0341 75.6959 63.0575 75.6959C63.0762 75.6959 63.0948 75.6959 63.1182 75.6959C68.2294 75.6959 65.6714 84.8914 70.7126 84.8914C80.5383 84.8914 89.6357 59.1767 85.9155 45.8409H85.9015Z" fill="white"/>
</mask>
<g mask="url(#mask1_9042_39803)">
<path d="M79.9612 66.6013C79.6205 66.6013 79.2844 66.6153 78.953 66.6387C75.8956 66.8581 72.8569 66.3119 70.0236 65.1543C67.2323 64.0154 64.0489 63.3713 60.6741 63.3713C59.3624 63.3713 58.0788 63.4693 56.8371 63.656C54.2885 64.0387 51.6419 63.4133 49.6208 61.8122C49.1213 61.4155 48.5565 61.1914 47.959 61.1914C45.9286 61.1914 44.2855 63.7493 44.2855 66.9094C44.2855 67.0961 44.2902 67.2782 44.3042 67.4602C44.3882 68.8045 44.0195 70.1208 43.2166 71.1991C41.5175 73.4863 40.542 76.1376 40.542 78.9709C40.542 87.5876 49.5554 94.5706 60.6787 94.5706C68.5906 94.5706 75.4289 91.0324 78.7243 85.8932C78.9857 85.4871 79.4244 85.2444 79.9052 85.2491C79.9286 85.2491 79.9472 85.2491 79.9706 85.2491C86.2534 85.2491 91.3459 81.0761 91.3459 75.9229C91.3459 70.7697 86.2534 66.5967 79.9706 66.5967L79.9612 66.6013Z" fill="url(#paint0_linear_9042_39803)"/>
<path d="M44.6077 34.9439C41.359 40.5125 46.6569 44.3401 48.5473 45.115C52.0948 46.5666 51.32 43.5933 53.1777 42.4497C56.3145 40.5125 59.6566 42.4963 61.337 46.5666C62.8587 50.2495 62.602 56.537 63.6989 56.2569C63.6989 56.2569 64.7771 53.1248 64.8565 48.9939C64.8938 47.0334 64.7118 44.9936 64.2917 43.1778C62.4713 35.3033 76.7033 34.7012 76.7033 34.7012L44.6077 34.9486V34.9439Z" fill="#E0CEBD"/>
</g>
<path d="M79.9519 56.7983C79.0697 53.8669 75.0414 51.6777 72.0307 51.6777C67.2742 51.6777 64.5296 53.7409 63.0452 53.9183C61.5656 53.7409 58.8209 51.6777 54.0598 51.6777C51.0491 51.6777 47.0208 53.8669 46.1386 56.7983C44.4115 62.5396 46.9555 72.538 50.2696 79.9317C51.7913 83.3252 56.6317 83.7966 56.0716 80.1978C55.0027 73.3548 59.0169 70.7316 63.0406 70.6055C67.0642 70.7316 71.0785 73.3548 70.0096 80.1978C69.4494 83.7966 74.2899 83.3205 75.8116 79.9317C79.1257 72.538 81.6743 62.5443 79.9425 56.7983H79.9519Z" fill="#E0CEBD"/>
<path d="M47.2176 75.7754H78.7777C94.3527 75.7754 107 88.4153 107 103.981V121.205C107 123.912 104.8 126.111 102.091 126.111H23.9088C21.2004 126.111 19 123.912 19 121.205V103.981C19 88.4153 31.6474 75.7754 47.2223 75.7754H47.2176Z" fill="#FFA09E"/>
</g>
<path d="M115 168C137.091 168 155 150.091 155 128C155 105.909 137.091 88 115 88C92.9086 88 75 105.909 75 128C75 150.091 92.9086 168 115 168Z" fill="white" stroke="#00AEFF" stroke-width="2" stroke-miterlimit="10"/>
<mask id="mask2_9042_39803" style="mask-type:luminance" maskUnits="userSpaceOnUse" x="75" y="88" width="80" height="80">
<path d="M115 168C137.091 168 155 150.091 155 128C155 105.909 137.091 88 115 88C92.9086 88 75 105.909 75 128C75 150.091 92.9086 168 115 168Z" fill="white"/>
</mask>
<g mask="url(#mask2_9042_39803)">
<path d="M133.441 118.736C131.779 112.783 124.179 109.166 119.185 111.107C118.453 111.392 117.728 111.788 116.989 112.117C115.517 112.769 113.306 112.754 112.017 112.117C111.292 111.758 110.553 111.392 109.82 111.107C104.827 109.166 97.2265 112.783 95.5644 118.736C92.4819 129.785 100.024 151.099 108.166 151.099C112.346 151.099 110.223 143.477 114.455 143.477C114.47 143.477 114.484 143.477 114.506 143.477C114.521 143.477 114.536 143.477 114.558 143.477C118.797 143.477 116.674 151.099 120.847 151.099C128.989 151.099 136.531 129.785 133.448 118.736H133.441Z" fill="#FFD1D1" stroke="#00AEFF" stroke-width="2" stroke-miterlimit="10"/>
<path d="M102.14 128.549H126.867C139.072 128.549 148.979 138.455 148.979 150.661V164.163C148.979 166.286 147.258 168.007 145.135 168.007H83.8792C81.7558 168.007 80.0352 166.286 80.0352 164.163V150.661C80.0352 138.455 89.9418 128.549 102.148 128.549H102.14Z" fill="#00AEFF"/>
<path d="M144.968 111.936C141.256 111.496 140.348 110.596 139.909 106.876C139.872 106.591 139.455 106.591 139.418 106.876C138.979 110.589 138.078 111.496 134.359 111.936C134.073 111.972 134.073 112.39 134.359 112.426C138.071 112.866 138.979 113.766 139.418 117.486C139.455 117.771 139.872 117.771 139.909 117.486C140.348 113.774 141.249 112.866 144.968 112.426C145.254 112.39 145.254 111.972 144.968 111.936Z" fill="#00AEFF"/>
<path d="M89.5034 122.302C87.2409 122.039 86.6917 121.482 86.4208 119.22C86.3988 119.044 86.1426 119.044 86.1206 119.22C85.857 121.482 85.3005 122.031 83.038 122.302C82.8623 122.324 82.8623 122.58 83.038 122.602C85.3005 122.866 85.8497 123.423 86.1206 125.685C86.1426 125.861 86.3988 125.861 86.4208 125.685C86.6844 123.423 87.2409 122.873 89.5034 122.602C89.6791 122.58 89.6791 122.324 89.5034 122.302Z" fill="#00AEFF"/>
<path d="M106.762 96.588C106.762 99.5681 110.225 101.984 114.508 101.984C118.792 101.984 122.255 99.5681 122.255 96.588C122.255 96.1048 122.16 95.6362 121.984 95.1969C121.896 94.9699 121.677 94.8088 121.435 94.8234C118.828 94.9845 117.086 96.5954 114.809 96.5954C112.531 96.5954 110.254 94.9699 107.552 94.8234C107.34 94.8088 107.135 94.9333 107.055 95.131C106.864 95.5922 106.762 96.0828 106.762 96.588Z" fill="white" stroke="#00AEFF" stroke-width="2" stroke-linecap="round" stroke-linejoin="round"/>
<path d="M133.441 118.736C132.394 114.994 129.011 112.183 125.394 111.092C125.313 115.287 120.473 118.677 114.499 118.677C108.524 118.677 103.684 115.295 103.603 111.092C99.9864 112.183 96.6037 114.994 95.5566 118.736C92.4741 129.785 100.016 151.099 108.158 151.099C112.339 151.099 110.215 143.477 114.447 143.477C114.462 143.477 114.477 143.477 114.499 143.477C114.513 143.477 114.528 143.477 114.55 143.477C118.789 143.477 116.666 151.099 120.839 151.099C128.981 151.099 136.523 129.785 133.441 118.736Z" fill="white" stroke="#00AEFF" stroke-width="2" stroke-linecap="round" stroke-linejoin="round"/>
<path d="M114.508 103.881V109.306" stroke="#00AEFF" stroke-width="2" stroke-linecap="round" stroke-linejoin="round"/>
<path d="M112.488 106.664L114.509 109.373" stroke="#00AEFF" stroke-width="2" stroke-linecap="round" stroke-linejoin="round"/>
<path d="M116.521 106.664L114.508 109.373" stroke="#00AEFF" stroke-width="2" stroke-linecap="round" stroke-linejoin="round"/>
</g>
<defs>
<linearGradient id="paint0_linear_9042_39803" x1="65.9393" y1="94.5706" x2="65.9393" y2="61.1914" gradientUnits="userSpaceOnUse">
<stop stop-color="#E0CEBD"/>
<stop offset="1" stop-color="#FFF7F0"/>
</linearGradient>
</defs>
</svg>
