<svg width="19" height="18" viewBox="0 0 19 18" fill="none" xmlns="http://www.w3.org/2000/svg">
<path d="M16.5593 18C16.4783 18 16.3973 18 16.3163 17.9901C12.1337 17.5954 8.23464 15.8388 5.2572 13.0263C2.28989 10.2039 0.436588 6.50329 0.0112398 2.54605C-0.0191422 2.23026 0.0112398 1.91447 0.112513 1.60855C0.213787 1.3125 0.385951 1.03618 0.608753 0.799342C0.851809 0.552632 1.1455 0.345395 1.46958 0.207237C1.81391 0.0690789 2.16836 0 2.52282 0H5.61166C6.15853 0 6.68516 0.157895 7.13076 0.463816C7.57636 0.769737 7.90044 1.19408 8.0726 1.6875L9.07521 4.52961C9.22712 4.96382 9.24737 5.42763 9.13597 5.87171C9.02457 6.31579 8.78152 6.72039 8.43719 7.04605L7.95107 7.5C8.75113 8.68421 9.8145 9.68092 11.0703 10.4408L11.5463 9.98684C11.8906 9.66118 12.316 9.43421 12.7919 9.33553C13.2578 9.22697 13.754 9.24671 14.2098 9.39474L17.2075 10.352C17.724 10.5099 18.1797 10.8257 18.4936 11.25C18.8076 11.6645 18.9797 12.1678 18.9899 12.6908V15.6118C19 16.2336 18.7468 16.8355 18.2911 17.2796C17.8354 17.7237 17.2075 17.9901 16.5492 18H16.5593ZM2.52282 1.64803C2.41142 1.64803 2.30002 1.66776 2.18862 1.70724C2.08734 1.74671 1.98607 1.81579 1.91518 1.89474C1.85442 1.96382 1.80378 2.04276 1.7734 2.12171C1.74301 2.21053 1.73289 2.29934 1.74301 2.38816C2.12785 5.9704 3.79886 9.31579 6.49274 11.8618C9.17648 14.4079 12.7109 15.9967 16.4985 16.3618H16.5593C16.6505 16.3618 16.7416 16.3421 16.8226 16.3026C16.9036 16.2632 16.9847 16.2138 17.0454 16.1546C17.1872 16.0066 17.2682 15.8092 17.2682 15.6118V12.6908C17.2682 12.523 17.2075 12.3454 17.1062 12.2072C16.9948 12.0691 16.853 11.9605 16.6808 11.9112L13.6831 10.9638C13.5312 10.9145 13.3692 10.9046 13.2072 10.9441C13.0451 10.9836 12.9033 11.0526 12.7919 11.1612L12.316 11.6151C11.9919 11.9211 11.5564 12.0987 11.0905 12.0987C10.7462 12.0987 10.412 12 10.1285 11.8125C8.68024 10.9342 7.44471 9.76974 6.51299 8.39803C6.30032 8.08224 6.19904 7.70724 6.23955 7.34211C6.28006 6.96711 6.45223 6.62171 6.73579 6.35526L7.2219 5.89145C7.33331 5.78289 7.41432 5.64474 7.45483 5.49671C7.49534 5.34868 7.48522 5.19079 7.43458 5.05263L6.43197 2.21053C6.37121 2.04276 6.25981 1.90461 6.11802 1.80592C5.96611 1.70724 5.79395 1.64803 5.61166 1.64803H2.52282ZM18.129 6.57237C17.8961 6.57237 17.6834 6.48355 17.5214 6.33553C17.3594 6.17763 17.2682 5.97039 17.2682 5.75329C17.2682 4.66776 16.8125 3.62171 15.9922 2.85197C15.182 2.08224 14.0781 1.64803 12.9236 1.64803C12.6907 1.64803 12.478 1.55921 12.3058 1.41118C12.1438 1.25329 12.0526 1.04605 12.0526 0.828947C12.0526 0.611842 12.1438 0.404605 12.3058 0.246711C12.4679 0.0888158 12.6907 0.00986842 12.9236 0.00986842C14.5338 0.00986842 16.0732 0.621711 17.2176 1.69737C18.3518 2.77303 19 4.23355 19 5.76316C19 5.98026 18.9089 6.1875 18.7468 6.34539C18.5848 6.50329 18.362 6.58224 18.129 6.58224V6.57237ZM14.6655 6.57237C14.4326 6.57237 14.2199 6.48355 14.0477 6.33553C13.8857 6.17763 13.7945 5.97039 13.7945 5.75329C13.7945 5.53618 13.7034 5.32895 13.5414 5.17105C13.3793 5.01316 13.1565 4.93421 12.9236 4.93421C12.6907 4.93421 12.478 4.8454 12.3058 4.69737C12.1438 4.53947 12.0526 4.33224 12.0526 4.11513C12.0526 3.89803 12.1438 3.69079 12.3058 3.53289C12.4679 3.375 12.6907 3.29605 12.9236 3.29605C13.6123 3.29605 14.2705 3.55263 14.7668 4.01645C15.2529 4.48026 15.5263 5.10197 15.5263 5.76316C15.5263 5.87171 15.5061 5.98026 15.4554 6.07895C15.4149 6.17763 15.344 6.26645 15.263 6.34539C15.182 6.42434 15.0908 6.48355 14.9794 6.52303C14.8782 6.5625 14.7566 6.58224 14.6452 6.58224L14.6655 6.57237Z" fill="#FC1682"/>
</svg>
