<svg width="22" height="22" viewBox="0 0 22 22" fill="none" xmlns="http://www.w3.org/2000/svg">
<path d="M0 21.3491L1.53175 15.6588C0.296432 13.4421 -0.096041 10.8554 0.426351 8.37338C0.948743 5.89136 2.35096 3.68049 4.37569 2.14646C6.40042 0.612436 8.91186 -0.141843 11.4491 0.0220373C13.9864 0.185917 16.3794 1.25696 18.1888 3.03864C19.9983 4.82031 21.103 7.1931 21.3001 9.72159C21.4972 12.2501 20.7736 14.7647 19.2619 16.8039C17.7503 18.8432 15.5522 20.2703 13.0708 20.8235C10.5894 21.3766 7.99125 21.0186 5.75311 19.8153L0 21.3491ZM6.03052 17.6859L6.38632 17.8964C8.00744 18.8549 9.9009 19.2515 11.7716 19.0245C13.6423 18.7975 15.3852 17.9596 16.7286 16.6414C18.0721 15.3232 18.9406 13.5988 19.199 11.7368C19.4573 9.87482 19.0908 7.97992 18.1567 6.34739C17.2226 4.71485 15.7733 3.43637 14.0347 2.7112C12.2961 1.98602 10.3658 1.85488 8.54466 2.33821C6.72353 2.82153 5.11383 3.89218 3.96642 5.3833C2.81901 6.87442 2.19834 8.70225 2.20114 10.582C2.19961 12.1405 2.63175 13.669 3.44946 14.9971L3.67258 15.364L2.81625 18.54L6.03052 17.6859Z" fill="white"/>
<path fill-rule="evenodd" clip-rule="evenodd" d="M14.666 12.0431C14.4575 11.8753 14.2132 11.7572 13.952 11.6978C13.6907 11.6384 13.4193 11.6392 13.1584 11.7002C12.7664 11.8626 12.5132 12.4762 12.2599 12.783C12.2065 12.8565 12.128 12.9081 12.0392 12.928C11.9503 12.948 11.8573 12.9349 11.7774 12.8912C10.3424 12.3306 9.13948 11.3025 8.36416 9.97388C8.29803 9.89097 8.26673 9.7857 8.27685 9.68023C8.28698 9.57477 8.33773 9.47734 8.41843 9.40845C8.70092 9.12951 8.90834 8.78401 9.02148 8.40392C9.04661 7.98467 8.95031 7.56706 8.74408 7.20088C8.58465 6.68752 8.28122 6.23041 7.86966 5.88356C7.65738 5.78833 7.42202 5.7564 7.19195 5.79162C6.96189 5.82684 6.74696 5.92771 6.57309 6.08206C6.27125 6.34182 6.03166 6.66581 5.87198 7.03016C5.7123 7.39452 5.63659 7.78996 5.65042 8.18737C5.65136 8.41054 5.67971 8.63275 5.73485 8.84904C5.87489 9.36869 6.09023 9.86517 6.37409 10.3228C6.57888 10.6733 6.80233 11.0126 7.04347 11.3393C7.82717 12.4124 8.81229 13.3235 9.94415 14.0221C10.5121 14.3771 11.1192 14.6657 11.7533 14.8823C12.412 15.1801 13.1393 15.2944 13.858 15.2131C14.2674 15.1513 14.6553 14.99 14.9876 14.7435C15.3199 14.497 15.5864 14.1729 15.7636 13.7995C15.8677 13.574 15.8993 13.3219 15.8541 13.0777C15.7455 12.5784 15.0761 12.2837 14.666 12.0431Z" fill="white"/>
</svg>
