<svg width="133" height="40" viewBox="0 0 133 40" fill="none" xmlns="http://www.w3.org/2000/svg">
<path d="M19.0199 36.1094C19.2387 36.2643 19.348 36.4375 19.348 36.6289C19.348 36.7565 19.307 36.8796 19.225 36.998C19.1065 37.1803 18.947 37.2715 18.7465 37.2715C18.6098 37.2715 18.4685 37.2214 18.3227 37.1211C17.8122 36.7565 17.3428 36.3555 16.9145 35.918C16.4861 35.4805 16.1534 35.0794 15.9164 34.7148H15.8891C15.4698 35.1979 14.9594 35.6628 14.3578 36.1094C13.7654 36.5651 13.1319 36.9342 12.4574 37.2168C12.348 37.2624 12.2478 37.2852 12.1566 37.2852C12.0564 37.2852 11.9652 37.2578 11.8832 37.2031C11.8012 37.1484 11.7419 37.071 11.7055 36.9707C11.6781 36.8887 11.6645 36.8158 11.6645 36.752C11.6645 36.5332 11.7875 36.3646 12.0336 36.2461C12.6898 35.9271 13.296 35.5671 13.852 35.166C14.4171 34.7559 14.8682 34.3503 15.2055 33.9492V33.9219C14.5492 32.9557 14.1345 31.6204 13.9613 29.916H13.9066C13.7426 30.3079 13.5603 30.6497 13.3598 30.9414C13.2322 31.1328 13.0863 31.2285 12.9223 31.2285C12.822 31.2285 12.74 31.2057 12.6762 31.1602C12.5395 31.0872 12.4711 30.9642 12.4711 30.791C12.4711 30.709 12.503 30.6042 12.5668 30.4766C12.9861 29.7201 13.3279 28.9499 13.5922 28.166C13.8565 27.373 14.0844 26.4342 14.2758 25.3496C14.3305 25.0488 14.4991 24.8984 14.7816 24.8984C14.9822 24.8984 15.128 24.9531 15.2191 25.0625C15.3194 25.1719 15.3604 25.3132 15.3422 25.4863C15.2966 25.7871 15.2328 26.1335 15.1508 26.5254C15.0687 26.9082 14.973 27.2409 14.8637 27.5234H18.8012C18.9743 27.5234 19.1111 27.569 19.2113 27.6602C19.3207 27.7422 19.3754 27.8698 19.3754 28.043C19.3754 28.2161 19.3207 28.3483 19.2113 28.4395C19.1111 28.5306 18.9743 28.5762 18.8012 28.5762H18.1312C18.0674 29.7702 17.9125 30.8001 17.6664 31.666C17.4294 32.5319 17.0603 33.293 16.559 33.9492V33.9766C17.0694 34.6328 17.8897 35.3438 19.0199 36.1094ZM13.1547 34.1816C13.182 34.2454 13.1957 34.3092 13.1957 34.373C13.1957 34.5827 13.018 34.7513 12.6625 34.8789C12.1703 35.043 11.6508 35.2116 11.1039 35.3848C10.557 35.5488 10.0922 35.6855 9.70937 35.7949C8.36953 36.1686 7.6039 36.3555 7.4125 36.3555C7.21198 36.3555 7.0707 36.3145 6.98867 36.2324C6.90664 36.1504 6.86562 36.0137 6.86562 35.8223C6.86562 35.6764 6.9112 35.5625 7.00234 35.4805C7.09349 35.3893 7.24388 35.321 7.45351 35.2754L7.78164 35.1934V29.0957C7.78164 28.6855 7.95026 28.4805 8.2875 28.4805C8.62474 28.4805 8.79336 28.6855 8.79336 29.0957V34.9336L9.88711 34.6465V26.7031H7.79531C7.39427 26.7031 7.19375 26.5391 7.19375 26.2109C7.19375 26.0469 7.23932 25.9238 7.33047 25.8418C7.43073 25.7598 7.58568 25.7188 7.79531 25.7188H12.5668C12.977 25.7188 13.182 25.8828 13.182 26.2109C13.182 26.5391 12.977 26.7031 12.5668 26.7031H10.9535V29.6016H11.9789C12.1703 29.6016 12.3116 29.638 12.4027 29.7109C12.503 29.7839 12.5531 29.9023 12.5531 30.0664C12.5531 30.4036 12.3572 30.5723 11.9652 30.5723H10.9535V34.3594L12.3617 33.9629C12.5167 33.9173 12.6397 33.8945 12.7309 33.8945C12.9405 33.8945 13.0818 33.9902 13.1547 34.1816ZM15.9711 33.0742C16.2992 32.5365 16.5544 31.9076 16.7367 31.1875C16.919 30.4583 17.0284 29.5879 17.0648 28.5762H14.768C14.8044 29.5879 14.9092 30.4401 15.0824 31.1328C15.2647 31.8255 15.5381 32.4727 15.9027 33.0742H15.9711ZM24.5215 29.0137V29.5469C24.5215 31.5612 24.3848 33.293 24.1113 34.7422C23.8288 36.2552 23.4095 37.0117 22.8535 37.0117C22.4525 37.0117 22.252 36.8021 22.252 36.3828C22.252 36.2461 22.3203 36.041 22.457 35.7676C23.0495 34.61 23.3457 32.4863 23.3457 29.3965L23.3047 27.3594C23.2956 26.5391 23.7285 26.1289 24.6035 26.1289H28.2676V25.3633C28.2676 25.026 28.4772 24.8574 28.8965 24.8574C29.3066 24.8574 29.5117 25.026 29.5117 25.3633V26.1289H33.9551C34.3926 26.1289 34.6113 26.3021 34.6113 26.6484C34.6113 27.0039 34.3926 27.1816 33.9551 27.1816H25.041C24.6855 27.1816 24.5078 27.3685 24.5078 27.7422L24.5215 29.0137ZM27.9531 27.9609C27.9531 28.1797 27.7298 28.7676 27.2832 29.7246V36.6426C27.2832 37.0801 27.1009 37.2988 26.7363 37.2988C26.5449 37.2988 26.4036 37.2441 26.3125 37.1348C26.2305 37.0345 26.1895 36.8704 26.1895 36.6426V31.9121C25.9342 32.4134 25.7109 32.7871 25.5195 33.0332C25.3372 33.2702 25.1732 33.3887 25.0273 33.3887C24.7266 33.3887 24.5762 33.2064 24.5762 32.8418C24.5762 32.6868 24.6628 32.4954 24.8359 32.2676C25.5286 31.347 26.1439 30.0299 26.6816 28.3164C26.8548 27.7331 27.0827 27.4414 27.3652 27.4414C27.7572 27.4414 27.9531 27.6146 27.9531 27.9609ZM34.0918 29.7109C34.4746 29.7109 34.666 29.8841 34.666 30.2305C34.666 30.5859 34.4746 30.7637 34.0918 30.7637H33.1074V35.6719C33.1074 36.2005 32.9844 36.5924 32.7383 36.8477C32.5013 37.0938 32.1139 37.2168 31.5762 37.2168H30.7285C30.528 37.2168 30.373 37.1667 30.2637 37.0664C30.1543 36.9661 30.0996 36.8249 30.0996 36.6426C30.0996 36.2507 30.3092 36.0547 30.7285 36.0547H31.4531C31.8177 36.0547 31.9954 35.877 31.9863 35.5215V30.7637H28.4453C28.0352 30.7637 27.8301 30.5859 27.8301 30.2305C27.8301 29.8841 28.0352 29.7109 28.4453 29.7109H31.9863V28.207C31.9863 27.7513 32.1732 27.5234 32.5469 27.5234C32.9206 27.5234 33.1074 27.7513 33.1074 28.207V29.7109H34.0918ZM30.5371 33.7852C30.5371 34.1406 30.3503 34.3184 29.9766 34.3184C29.8672 34.3184 29.7715 34.2956 29.6895 34.25C29.6165 34.1953 29.5391 34.0996 29.457 33.9629L28.7598 32.8145C28.5775 32.5228 28.4863 32.3359 28.4863 32.2539C28.4863 31.9258 28.6686 31.7617 29.0332 31.7617C29.252 31.7617 29.5527 32.0625 29.9355 32.6641C30.3366 33.293 30.5371 33.6667 30.5371 33.7852ZM38.65 37.2031C38.2307 37.2031 38.0211 36.998 38.0211 36.5879C38.0211 36.2142 38.2307 36.0273 38.65 36.0273H39.0602C39.3974 36.0273 39.566 35.8542 39.566 35.5078V32.7051C38.7548 32.9329 38.3036 33.0469 38.2125 33.0469C37.8388 33.0469 37.652 32.8555 37.652 32.4727C37.652 32.1445 37.898 31.9349 38.3902 31.8438L39.566 31.5566V28.5488H38.3492C38.1305 28.5488 37.9664 28.5078 37.857 28.4258C37.7568 28.3346 37.7066 28.1979 37.7066 28.0156C37.7066 27.6602 37.9208 27.4824 38.3492 27.4824H39.566V25.5137C39.566 25.0762 39.7529 24.8574 40.1266 24.8574C40.5003 24.8574 40.6871 25.0762 40.6871 25.5137V27.4824H41.4664C41.913 27.4824 42.1363 27.6602 42.1363 28.0156C42.1363 28.3711 41.913 28.5488 41.4664 28.5488H40.6871V31.2695L41.4117 31.0508L41.5895 31.0234C41.7626 30.9961 41.8948 31.028 41.9859 31.1191C42.0771 31.2103 42.1227 31.3424 42.1227 31.5156C42.1227 31.7344 42.0133 31.8939 41.7945 31.9941C41.6122 32.0762 41.2431 32.2038 40.6871 32.377V35.8359C40.7236 36.3099 40.6279 36.6562 40.4 36.875C40.1721 37.0938 39.8075 37.2031 39.3062 37.2031H38.65ZM43.941 30.2988C43.5035 30.2897 43.1754 30.1895 42.9566 29.998C42.7379 29.8066 42.6285 29.5514 42.6285 29.2324V25.5957C42.6285 25.1491 42.8108 24.9258 43.1754 24.9258C43.54 24.9258 43.7223 25.1491 43.7223 25.5957V26.6484C45.4631 26.3385 46.9443 25.9603 48.1656 25.5137C48.4208 25.4134 48.6031 25.3633 48.7125 25.3633C48.8583 25.3633 48.9905 25.4271 49.109 25.5547C49.2275 25.7005 49.2867 25.8464 49.2867 25.9922C49.2867 26.2201 49.1819 26.375 48.9723 26.457C47.9514 26.8672 46.2014 27.25 43.7223 27.6055V28.7812C43.7223 28.8997 43.7587 28.9954 43.8316 29.0684C43.9046 29.1413 44.0003 29.1823 44.1187 29.1914C44.456 29.2096 44.9618 29.2188 45.6363 29.2188L47.1402 29.2324C47.5868 29.2324 47.9241 29.2279 48.152 29.2188C48.3889 29.2005 48.5484 29.1641 48.6305 29.1094C48.8219 28.9818 48.9267 28.722 48.9449 28.3301C48.954 28.1478 49.0042 28.0111 49.0953 27.9199C49.1956 27.8197 49.3323 27.7695 49.5055 27.7695C49.9156 27.7695 50.1207 27.9564 50.1207 28.3301C50.1207 29.123 49.9566 29.6426 49.6285 29.8887C49.2822 30.153 48.7034 30.2897 47.8922 30.2988C47.4273 30.3079 46.7118 30.3125 45.7457 30.3125C44.9801 30.3125 44.3785 30.3079 43.941 30.2988ZM43.9 37.0391C43.4716 37.0391 43.1572 36.9434 42.9566 36.752C42.7561 36.5605 42.6695 36.2552 42.6969 35.8359V32.377C42.6969 31.9395 42.7926 31.625 42.984 31.4336C43.1754 31.2331 43.4807 31.1465 43.9 31.1738H48.1793C48.6168 31.1738 48.9358 31.2695 49.1363 31.4609C49.3368 31.6523 49.4234 31.9622 49.3961 32.3906V35.8223C49.3961 36.2598 49.3004 36.5788 49.109 36.7793C48.9176 36.9798 48.6077 37.0664 48.1793 37.0391H43.9ZM48.2887 32.6777C48.2887 32.5137 48.2431 32.3906 48.152 32.3086C48.0608 32.2174 47.9332 32.1719 47.7691 32.1719H44.3238C43.9866 32.1719 43.818 32.3405 43.818 32.6777V33.5938H48.2887V32.6777ZM47.7691 36.041C48.1155 36.041 48.2887 35.877 48.2887 35.5488V34.5645H43.818V35.5625C43.818 35.8815 43.9866 36.041 44.3238 36.041H47.7691ZM53.8996 29.4922C53.5168 29.4922 53.3254 29.278 53.3254 28.8496V27.6465C53.3254 27.1452 53.4302 26.8034 53.6398 26.6211C53.9042 26.3932 54.2505 26.2839 54.6789 26.293H58.5891V25.459C58.5891 25.0671 58.7941 24.8711 59.2043 24.8711C59.6145 24.8711 59.8195 25.0671 59.8195 25.459V26.293H63.9621C64.3723 26.293 64.7004 26.4023 64.9465 26.6211C65.1561 26.8216 65.2609 27.1452 65.2609 27.5918V28.8496C65.2609 29.0684 65.2154 29.2324 65.1242 29.3418C65.0331 29.4421 64.8872 29.4922 64.6867 29.4922C64.3221 29.4922 64.1398 29.278 64.1398 28.8496V27.8789C64.1398 27.6875 64.0897 27.5462 63.9895 27.4551C63.8983 27.3548 63.7616 27.3092 63.5793 27.3184H55.007C54.6424 27.3184 54.4647 27.5052 54.4738 27.8789V28.8496C54.4738 29.278 54.2824 29.4922 53.8996 29.4922ZM64.7961 35.7812C65.2701 35.7721 65.507 35.9635 65.507 36.3555C65.507 36.7383 65.2564 36.9297 64.7551 36.9297C62.5858 36.9297 61.0181 36.8796 60.052 36.7793C59.0858 36.679 58.229 36.4375 57.4816 36.0547C56.8163 35.7083 56.274 35.1979 55.8547 34.5234L55.8273 34.5371C55.5721 35.1387 55.2121 35.7266 54.7473 36.3008C54.3098 36.8385 53.9452 37.1074 53.6535 37.1074C53.2798 37.1074 53.093 36.9206 53.093 36.5469C53.093 36.3919 53.2889 36.1322 53.6809 35.7676C54.6197 34.8926 55.1984 33.5755 55.4172 31.8164C55.4445 31.5885 55.5083 31.4199 55.6086 31.3105C55.718 31.1921 55.8547 31.1328 56.0187 31.1328C56.3924 31.1328 56.5793 31.3197 56.5793 31.6934C56.5793 32.0124 56.4608 32.582 56.2238 33.4023C56.9257 34.5326 57.7642 35.2344 58.7395 35.5078V29.834H55.4992C55.0799 29.834 54.8703 29.6608 54.8703 29.3145C54.8703 28.9863 55.0799 28.8223 55.4992 28.8223H63.0871C63.5155 28.8223 63.7297 28.9863 63.7297 29.3145C63.7297 29.6608 63.5155 29.834 63.0871 29.834H59.8469V32.0078H63.1281C63.5656 32.0078 63.7844 32.1855 63.7844 32.541C63.7844 32.8965 63.5656 33.0742 63.1281 33.0742H59.8469V35.6855C60.6398 35.7767 61.5604 35.8223 62.6086 35.8223L64.7961 35.7812ZM73.5926 29.6289C74.1395 29.6289 74.4129 29.8477 74.4129 30.2852C74.4129 30.431 74.3947 30.5632 74.3582 30.6816C74.2853 30.9642 74.1668 31.2878 74.0027 31.6523C73.8478 32.0078 73.6746 32.3542 73.4832 32.6914C73.3738 32.8737 73.2417 32.9648 73.0867 32.9648C73.0138 32.9648 72.9318 32.9421 72.8406 32.8965C72.6857 32.8145 72.6082 32.696 72.6082 32.541C72.6082 32.4408 72.631 32.3451 72.6766 32.2539C72.9044 31.7708 73.0958 31.3105 73.2508 30.873C73.269 30.8184 73.2781 30.7773 73.2781 30.75C73.2781 30.6589 73.2098 30.6133 73.073 30.6133H71.8836V35.8496C71.8836 36.3053 71.7833 36.6426 71.5828 36.8613C71.3823 37.0801 71.0633 37.1895 70.6258 37.1895H69.6551C69.5001 37.1895 69.368 37.1439 69.2586 37.0527C69.1583 36.9616 69.1082 36.8294 69.1082 36.6562C69.1082 36.2917 69.2905 36.1094 69.6551 36.1094H70.5027C70.7306 36.1094 70.8445 35.9954 70.8445 35.7676V30.6133H69.1219C68.9122 30.6133 68.7573 30.5723 68.657 30.4902C68.5659 30.4082 68.5203 30.2852 68.5203 30.1211C68.5203 29.957 68.5659 29.834 68.657 29.752C68.7573 29.6699 68.9122 29.6289 69.1219 29.6289H71.5281C71.2729 29.401 70.8582 29.0592 70.284 28.6035L69.7234 28.1387C69.5776 28.0202 69.5047 27.8926 69.5047 27.7559C69.5047 27.6738 69.532 27.5918 69.5867 27.5098C69.6687 27.3822 69.7872 27.3184 69.9422 27.3184C70.0151 27.3184 70.0971 27.3411 70.1883 27.3867C70.4617 27.5417 70.8445 27.7969 71.3367 28.1523C71.8471 27.6419 72.2436 27.1589 72.5262 26.7031C72.5535 26.6576 72.5672 26.6211 72.5672 26.5938C72.5672 26.5482 72.549 26.5117 72.5125 26.4844C72.476 26.457 72.4259 26.4434 72.3621 26.4434H69.327C68.9259 26.4434 68.7254 26.2793 68.7254 25.9512C68.7254 25.623 68.9259 25.459 69.327 25.459H72.991C73.2553 25.459 73.465 25.5182 73.6199 25.6367C73.784 25.7552 73.866 25.9147 73.866 26.1152C73.866 26.2702 73.8159 26.4388 73.7156 26.6211C73.4969 27.0039 73.2325 27.373 72.9227 27.7285C72.6219 28.0749 72.3165 28.3802 72.0066 28.6445L72.3074 28.9043C72.4168 28.9954 72.4715 29.1139 72.4715 29.2598C72.4715 29.3874 72.4259 29.5104 72.3348 29.6289H73.5926ZM74.8367 26.457C74.4995 26.457 74.3309 26.293 74.3309 25.9648C74.3309 25.6458 74.4995 25.4863 74.8367 25.4863H80.1961C80.5516 25.4863 80.7293 25.6458 80.7293 25.9648C80.7293 26.293 80.5516 26.457 80.1961 26.457H78.0086L77.7215 27.7148H79.2391C79.5672 27.7148 79.8178 27.806 79.991 27.9883C80.1733 28.1615 80.2645 28.4121 80.2645 28.7402V33.6895C80.2645 34.0176 80.1733 34.2728 79.991 34.4551C79.8178 34.6283 79.5672 34.7148 79.2391 34.7148H75.698C75.3699 34.7148 75.1147 34.6283 74.9324 34.4551C74.7592 34.2728 74.6727 34.0176 74.6727 33.6895V28.7402C74.6727 28.4121 74.7592 28.1615 74.9324 27.9883C75.1147 27.806 75.3699 27.7148 75.698 27.7148H76.6961L76.9148 26.457H74.8367ZM76.1082 28.6172C75.9715 28.6172 75.8667 28.6582 75.7937 28.7402C75.7208 28.8132 75.6844 28.9134 75.6844 29.041V29.7109H79.2527V29.0547C79.2527 28.763 79.1069 28.6172 78.8152 28.6172H76.1082ZM79.2527 31.6934V30.6133H75.6844V31.6934H79.2527ZM79.2527 32.5957H75.6844V33.3887C75.6844 33.6712 75.8256 33.8125 76.1082 33.8125H78.8152C79.1069 33.8125 79.2527 33.6667 79.2527 33.375V32.5957ZM80.3055 36.0547C80.506 36.1458 80.6609 36.2461 80.7703 36.3555C80.8797 36.474 80.9344 36.5879 80.9344 36.6973C80.9344 36.8887 80.8888 37.0254 80.7977 37.1074C80.7065 37.1986 80.5652 37.2441 80.3738 37.2441C80.1642 37.2441 79.713 36.9935 79.0203 36.4922C78.3276 35.9909 77.9812 35.6263 77.9812 35.3984C77.9812 35.0703 78.159 34.9062 78.5145 34.9062C78.6512 34.9062 78.797 34.9792 78.952 35.125C79.4441 35.5534 79.8953 35.8633 80.3055 36.0547ZM76.3816 34.9336C76.728 34.9336 76.9012 35.0977 76.9012 35.4258C76.9012 35.6628 76.6551 35.9453 76.1629 36.2734C75.6707 36.6107 75.2469 36.8659 74.8914 37.0391C74.5542 37.2031 74.2716 37.2852 74.0437 37.2852C73.7156 37.2852 73.5516 37.0938 73.5516 36.7109C73.5516 36.6016 73.6017 36.5013 73.702 36.4102C73.8022 36.3281 73.9572 36.2461 74.1668 36.1641C74.6316 35.9727 75.0555 35.7448 75.4383 35.4805C75.8575 35.1888 76.1082 35.0247 76.1902 34.9883C76.2631 34.9518 76.327 34.9336 76.3816 34.9336ZM86.6957 37.3535C86.3493 37.3535 86.1762 37.1393 86.1762 36.7109V31.543L84.727 31.707L84.3715 31.7344C84.1892 31.7435 84.0525 31.7025 83.9613 31.6113C83.8793 31.5202 83.8383 31.3835 83.8383 31.2012C83.8383 30.8913 84.0115 30.7227 84.3578 30.6953L85.2055 30.6543H85.2738L86.1488 29.4785C85.5655 29.0137 84.9594 28.5671 84.3305 28.1387C84.0844 27.9746 83.9613 27.8014 83.9613 27.6191C83.9613 27.2819 84.1254 27.1133 84.4535 27.1133C84.572 27.1133 84.7315 27.1816 84.932 27.3184L85.0961 27.4551C85.4516 26.8991 85.8298 26.1745 86.2309 25.2812C86.3585 24.9896 86.5453 24.8438 86.7914 24.8438C87.1651 24.8438 87.352 25.0306 87.352 25.4043C87.352 25.7689 86.837 26.612 85.807 27.9336L86.7094 28.6035L87.6937 27.0449C87.8214 26.8444 87.9353 26.6986 88.0355 26.6074C88.1449 26.5072 88.2543 26.457 88.3637 26.457C88.7191 26.457 88.8969 26.6302 88.8969 26.9766C88.8969 27.1224 88.6098 27.6009 88.0355 28.4121C87.2881 29.4512 86.7641 30.153 86.4633 30.5176L86.3676 30.5996H86.5043L88.1996 30.4629L88.0629 30.1211C87.99 29.9297 87.9535 29.8066 87.9535 29.752C87.9535 29.4785 88.0948 29.3418 88.3773 29.3418C88.5779 29.3418 88.7556 29.5286 88.9105 29.9023L89.0883 30.3125L89.348 30.9551C89.4848 31.3197 89.5531 31.5247 89.5531 31.5703C89.5531 31.8893 89.3891 32.0488 89.0609 32.0488C88.8148 32.0488 88.6417 31.8848 88.5414 31.5566L88.4594 31.2832L87.2289 31.4473V36.7109C87.2289 37.1393 87.0512 37.3535 86.6957 37.3535ZM92.4652 37.1621C91.9822 37.1621 91.7406 36.9616 91.7406 36.5605C91.7406 36.1686 91.9685 35.9727 92.4242 35.9727L93.1352 35.9863C93.9099 36.0046 94.352 35.6719 94.4613 34.9883L94.5844 33.6758L94.8168 28.9453C94.835 28.5716 94.6436 28.3848 94.2426 28.3848H91.0297C90.4555 29.6061 90.0134 30.2168 89.7035 30.2168C89.5212 30.2168 89.3845 30.1758 89.2934 30.0938C89.2113 30.0026 89.1703 29.8659 89.1703 29.6836C89.1703 29.5833 89.2432 29.4238 89.3891 29.2051C90.0271 28.2389 90.5056 27.1087 90.8246 25.8145C90.9796 25.1947 91.1983 24.8848 91.4809 24.8848C91.6814 24.8848 91.8272 24.9349 91.9184 25.0352C92.0095 25.1263 92.0551 25.2676 92.0551 25.459C92.0551 25.7051 91.8637 26.3294 91.4809 27.332H94.5023C95.4229 27.332 95.8832 27.7057 95.8832 28.4531L95.8695 29.1914C95.8422 30.9141 95.7784 32.3815 95.6781 33.5938C95.5779 34.7604 95.4594 35.5534 95.3227 35.9727C95.1768 36.4284 94.9262 36.7383 94.5707 36.9023C94.197 37.0755 93.4952 37.1621 92.4652 37.1621ZM92.2328 33.7578C91.9685 33.7578 91.7497 33.5482 91.5766 33.1289C91.3305 32.5273 91.0798 32.0033 90.8246 31.5566C90.8155 31.5384 90.7836 31.4792 90.7289 31.3789C90.6742 31.2786 90.6469 31.2012 90.6469 31.1465C90.6469 30.8001 90.8246 30.627 91.1801 30.627C91.4079 30.627 91.6404 30.8184 91.8773 31.2012C92.4971 32.1947 92.807 32.8691 92.807 33.2246C92.807 33.5801 92.6156 33.7578 92.2328 33.7578ZM84.3441 36.082C84.171 36.082 84.0434 36.0365 83.9613 35.9453C83.8793 35.8542 83.8383 35.7174 83.8383 35.5352C83.8383 35.4258 83.8839 35.2799 83.975 35.0977C84.2576 34.5143 84.4216 33.7578 84.4672 32.8281C84.4854 32.4271 84.654 32.2266 84.973 32.2266C85.2829 32.2266 85.4379 32.3906 85.4379 32.7188C85.4379 33.6758 85.2465 34.6419 84.8637 35.6172C84.7361 35.9271 84.5629 36.082 84.3441 36.082ZM89.0336 35.7402C88.8695 35.7402 88.7374 35.681 88.6371 35.5625C88.5368 35.4349 88.473 35.2572 88.4457 35.0293C88.3819 34.5189 88.3227 34.0996 88.268 33.7715C88.2042 33.416 88.1358 33.1426 88.0629 32.9512L88.0082 32.7051C88.0082 32.4134 88.1586 32.2676 88.4594 32.2676C88.6964 32.2676 88.865 32.4271 88.9652 32.7461C89.348 33.9857 89.5395 34.8151 89.5395 35.2344C89.5395 35.5716 89.3708 35.7402 89.0336 35.7402ZM102.902 29.5195C103.103 29.5195 103.249 29.6289 103.34 29.8477C103.732 30.7135 103.928 31.2878 103.928 31.5703C103.928 31.8438 103.777 31.9805 103.477 31.9805C103.294 31.9805 103.126 31.7663 102.971 31.3379L102.232 31.4336L102.191 31.4473V36.7793C102.191 37.153 102.027 37.3398 101.699 37.3398C101.371 37.3398 101.207 37.153 101.207 36.7793V31.543L99.7305 31.6934C99.5755 31.7116 99.4525 31.6751 99.3613 31.584C99.2793 31.4837 99.2383 31.347 99.2383 31.1738C99.2383 30.9186 99.3796 30.7591 99.6621 30.6953L100.291 30.6543L101.152 29.3418L100.988 29.1777C100.551 28.7402 100.127 28.3711 99.7168 28.0703C99.4616 27.8789 99.334 27.7012 99.334 27.5371C99.334 27.2181 99.4798 27.0586 99.7715 27.0586C99.89 27.0586 100.049 27.1315 100.25 27.2773C100.596 26.6758 100.874 26.097 101.084 25.541C101.257 25.0671 101.471 24.8301 101.727 24.8301C102.118 24.8301 102.314 24.9896 102.314 25.3086C102.314 25.4727 102.205 25.7598 101.986 26.1699C101.768 26.571 101.421 27.127 100.947 27.8379L101.672 28.4941L102.588 26.8535C102.652 26.7441 102.729 26.6576 102.82 26.5938C102.911 26.5299 103.003 26.498 103.094 26.498C103.467 26.498 103.654 26.6576 103.654 26.9766C103.654 27.1497 103.076 28.0885 101.918 29.793L101.385 30.5449L101.289 30.6406L102.711 30.5586L102.588 30.2168C102.524 30.0436 102.492 29.9297 102.492 29.875C102.492 29.638 102.629 29.5195 102.902 29.5195ZM110.066 25.4727C110.932 25.3997 111.342 25.8053 111.297 26.6895V36C111.297 36.8294 110.905 37.2441 110.121 37.2441H109.246C108.836 37.2441 108.631 37.071 108.631 36.7246C108.631 36.3874 108.827 36.2188 109.219 36.2188H109.834C110.126 36.2188 110.281 36.0638 110.299 35.7539V26.9219C110.299 26.7669 110.253 26.6484 110.162 26.5664C110.08 26.4753 109.962 26.4297 109.807 26.4297H105.664C105.518 26.4297 105.4 26.4707 105.309 26.5527C105.227 26.6348 105.186 26.7533 105.186 26.9082V36.7383C105.186 37.1029 105.021 37.2852 104.693 37.2852C104.374 37.2852 104.215 37.1029 104.215 36.7383V26.6895C104.142 25.8053 104.552 25.3997 105.445 25.4727H110.066ZM105.363 29.4785C105.363 29.1686 105.532 29.0137 105.869 29.0137H107.975L108.521 27.0996C108.604 26.8171 108.772 26.6758 109.027 26.6758C109.365 26.6758 109.533 26.8125 109.533 27.0859C109.533 27.332 109.31 27.9746 108.863 29.0137H109.52C109.884 29.0137 110.066 29.1732 110.066 29.4922C110.066 29.8021 109.884 29.957 109.52 29.957H105.842C105.523 29.957 105.363 29.7975 105.363 29.4785ZM106.703 28.8086C106.512 28.8086 106.361 28.6628 106.252 28.3711C106.015 27.7513 105.896 27.3822 105.896 27.2637C105.896 26.972 106.065 26.8262 106.402 26.8262C106.594 26.8262 106.785 27.0312 106.977 27.4414C107.159 27.8333 107.25 28.1432 107.25 28.3711C107.25 28.6628 107.068 28.8086 106.703 28.8086ZM109.807 34.8516C109.807 35.0065 109.747 35.1296 109.629 35.2207C109.51 35.3118 109.342 35.362 109.123 35.3711L107.988 35.3848C107.25 35.3939 106.758 35.321 106.512 35.166C106.284 35.0202 106.161 34.7695 106.143 34.4141V32.2949H105.842C105.514 32.2949 105.35 32.1354 105.35 31.8164C105.35 31.5065 105.514 31.3516 105.842 31.3516H107.277V30.6406C107.277 30.3307 107.437 30.1758 107.756 30.1758C108.066 30.1758 108.221 30.3307 108.221 30.6406V31.3516H109.547C109.893 31.3516 110.066 31.5111 110.066 31.8301C110.066 32.14 109.893 32.2949 109.547 32.2949H107.1V33.8945C107.1 34.0495 107.141 34.1725 107.223 34.2637C107.314 34.3457 107.437 34.3867 107.592 34.3867L108.604 34.4004L109.273 34.373C109.629 34.3548 109.807 34.5143 109.807 34.8516ZM100.182 32.2539C100.473 32.2539 100.619 32.4453 100.619 32.8281C100.619 33.293 100.51 34.0677 100.291 35.1523C100.173 35.763 99.972 36.0684 99.6895 36.0684C99.3796 36.0684 99.2246 35.918 99.2246 35.6172C99.2246 35.4896 99.2656 35.3255 99.3477 35.125C99.5755 34.5143 99.7031 33.7396 99.7305 32.8008C99.7396 32.4362 99.89 32.2539 100.182 32.2539ZM103.832 35.2617C103.85 35.4167 103.818 35.5352 103.736 35.6172C103.654 35.6992 103.531 35.7402 103.367 35.7402C103.185 35.7402 103.057 35.6673 102.984 35.5215L102.588 32.6504C102.561 32.4134 102.693 32.2949 102.984 32.2949C103.13 32.2949 103.244 32.3451 103.326 32.4453C103.354 32.4818 103.395 32.6276 103.449 32.8828C103.513 33.1289 103.581 33.4479 103.654 33.8398L103.832 35.2617ZM121.406 36.8066C120.968 36.8066 120.649 36.7109 120.449 36.5195C120.248 36.3372 120.162 36.0365 120.189 35.6172V32.2402C120.189 31.8118 120.285 31.502 120.476 31.3105C120.668 31.11 120.977 31.0234 121.406 31.0508H122.404V25.4453C122.404 25.0625 122.591 24.8711 122.964 24.8711C123.338 24.8711 123.525 25.0625 123.525 25.4453V27.4277H126.451C126.897 27.4277 127.121 27.6055 127.121 27.9609C127.121 28.3164 126.897 28.4941 126.451 28.4941H123.525V31.0508H125.316C125.754 31.0508 126.068 31.1465 126.259 31.3379C126.46 31.5202 126.546 31.8255 126.519 32.2539V35.6035C126.519 36.041 126.423 36.3555 126.232 36.5469C126.05 36.7474 125.744 36.834 125.316 36.8066H121.406ZM115.295 28.3164C114.884 28.3164 114.679 28.1341 114.679 27.7695C114.679 27.4141 114.884 27.2363 115.295 27.2363H116.949V25.541C116.949 25.14 117.136 24.9395 117.509 24.9395C117.883 24.9395 118.07 25.14 118.07 25.541V27.2363H119.629C120.048 27.2363 120.257 27.4186 120.257 27.7832C120.257 28.1387 120.048 28.3164 119.629 28.3164H115.295ZM115.24 35.8086C114.848 35.8086 114.652 35.5944 114.652 35.166C114.652 34.8926 114.78 34.7103 115.035 34.6191L117.578 34.1133L117.865 32.459L118.302 29.2461C118.339 28.9089 118.512 28.7402 118.822 28.7402C119.214 28.7402 119.41 28.9043 119.41 29.2324L118.507 33.8945L118.877 33.7852C119.123 33.7122 119.3 33.6758 119.41 33.6758C119.72 33.6758 119.875 33.8444 119.875 34.1816C119.875 34.4368 119.756 34.6055 119.519 34.6875C119.282 34.7786 118.535 34.9883 117.277 35.3164C116.019 35.6445 115.34 35.8086 115.24 35.8086ZM116.156 33.457C115.846 33.457 115.668 33.2246 115.623 32.7598C115.559 32.0579 115.431 30.987 115.24 29.5469C115.194 29.1732 115.363 28.9863 115.746 28.9863C115.974 28.9863 116.138 29.1276 116.238 29.4102L116.375 30.1758L116.689 32.9648C116.707 33.1289 116.671 33.252 116.58 33.334C116.489 33.416 116.347 33.457 116.156 33.457ZM124.879 35.7812C125.234 35.7812 125.421 35.5898 125.439 35.207V32.6504C125.439 32.2858 125.252 32.0944 124.879 32.0762H121.816C121.461 32.0762 121.274 32.263 121.255 32.6367V35.2207C121.255 35.5762 121.442 35.763 121.816 35.7812H124.879Z" fill="#4D4D4D"/>
<rect width="133" height="22" rx="2" fill="#00A752"/>
<path d="M7.60516 12.0078C7.42286 12.0078 7.2907 11.9622 7.20867 11.8711C7.12664 11.7799 7.08562 11.6341 7.08562 11.4336C7.08562 11.2878 7.12208 11.1693 7.195 11.0781C7.2588 10.9961 7.52768 10.8822 8.00164 10.7363C9.52378 10.2624 10.8773 9.5332 12.0622 8.54883H7.82391C7.40464 8.54883 7.195 8.37565 7.195 8.0293C7.195 7.69206 7.40464 7.52344 7.82391 7.52344H12.7184V6.375L8.54852 6.51172C8.20216 6.52083 8.02898 6.34766 8.02898 5.99219C8.02898 5.65495 8.24773 5.48633 8.68523 5.48633C10.2074 5.48633 11.8708 5.4362 13.6755 5.33594C15.4346 5.23568 16.5557 5.11263 17.0387 4.9668L17.4489 4.89844C17.8591 4.89844 18.0641 5.10807 18.0641 5.52734C18.0641 5.76432 17.8636 5.92383 17.4626 6.00586C17.2621 6.04232 16.2959 6.11979 14.5641 6.23828L13.7848 6.30664V7.52344H18.7887C19.208 7.52344 19.4177 7.69206 19.4177 8.0293C19.4177 8.37565 19.208 8.54883 18.7887 8.54883H14.4137C15.6078 9.52409 17.098 10.2396 18.8845 10.6953C19.3311 10.8047 19.5544 11.0052 19.5544 11.2969C19.5544 11.707 19.363 11.9121 18.9802 11.9121C18.4697 11.9121 17.5082 11.5247 16.0954 10.75C15.2295 10.2669 14.4593 9.70182 13.7848 9.05469V10.627C13.7848 11.0098 13.6071 11.2012 13.2516 11.2012C12.8962 11.2012 12.7184 11.0098 12.7184 10.627V9.08203C11.9164 9.82031 10.9229 10.4993 9.73797 11.1191C8.60776 11.7116 7.89682 12.0078 7.60516 12.0078ZM10.1208 16.875C9.14552 16.9479 8.69435 16.4922 8.76727 15.5078V12.6641C8.76727 12.1719 8.87208 11.8164 9.08172 11.5977C9.30047 11.3698 9.64682 11.2741 10.1208 11.3105H16.4919C16.9841 11.3105 17.3395 11.4199 17.5583 11.6387C17.7861 11.8483 17.8818 12.1901 17.8454 12.6641V15.5078C17.8454 16 17.736 16.36 17.5173 16.5879C17.3076 16.8158 16.9658 16.9115 16.4919 16.875H10.1208ZM16.738 12.7188C16.738 12.4362 16.5967 12.2949 16.3141 12.2949H10.2985C10.016 12.2949 9.87469 12.4362 9.87469 12.7188V13.5801H16.738V12.7188ZM16.2321 15.9043C16.3962 15.9043 16.5192 15.8633 16.6012 15.7812C16.6924 15.6901 16.738 15.5671 16.738 15.4121V14.5371H9.87469V15.4121C9.87469 15.5671 9.9157 15.6901 9.99773 15.7812C10.0889 15.8633 10.2165 15.9043 10.3805 15.9043H16.2321ZM30.1566 14.3047V15.5078C30.1566 15.7904 30.4438 15.9316 31.018 15.9316H32.6449C34.0941 15.9316 34.9646 15.8815 35.2563 15.7812C35.475 15.7083 35.6117 15.4531 35.6664 15.0156C35.7211 14.569 35.9216 14.3457 36.268 14.3457C36.6599 14.3457 36.8559 14.5143 36.8559 14.8516C36.8559 15.6628 36.6872 16.2233 36.35 16.5332C36.0219 16.834 34.9737 16.9844 33.2055 16.9844C31.3917 16.9844 30.2979 16.9479 29.9242 16.875C29.3865 16.7656 29.1085 16.4603 29.0902 15.959V12.418C28.6801 12.7917 28.3702 12.9785 28.1605 12.9785C27.796 12.9785 27.6137 12.7917 27.6137 12.418C27.6137 12.2266 27.7458 12.0488 28.0102 11.8848C28.8396 11.3652 29.5095 10.6862 30.0199 9.84766H28.0922C27.8826 9.84766 27.7276 9.8112 27.6273 9.73828C27.5362 9.65625 27.4906 9.52865 27.4906 9.35547C27.4906 9.01823 27.6911 8.84961 28.0922 8.84961H30.0063V7.29102H28.7211C28.3109 7.29102 28.1059 7.12695 28.1059 6.79883C28.1059 6.46159 28.3109 6.29297 28.7211 6.29297H30.0063V5.48633C30.0063 5.05794 30.184 4.84375 30.5395 4.84375C30.904 4.84375 31.0863 5.05794 31.0863 5.48633V6.29297H33.4105V5.47266C33.4105 5.04427 33.5883 4.83008 33.9438 4.83008C34.3083 4.83008 34.4906 5.04427 34.4906 5.47266V6.29297H35.9262C36.3272 6.29297 36.5277 6.46159 36.5277 6.79883C36.5277 7.12695 36.3272 7.29102 35.9262 7.29102H34.4906V8.84961H36.5961C37.0063 8.84961 37.2113 9.01823 37.2113 9.35547C37.2113 9.68359 37.0063 9.84766 36.5961 9.84766H34.4906C34.9555 10.5495 35.7849 11.2057 36.9789 11.8164C37.225 11.9349 37.348 12.099 37.348 12.3086C37.348 12.6732 37.1749 12.8555 36.8285 12.8555C36.4001 12.8555 35.794 12.5137 35.0102 11.8301V13.2656C35.0102 13.6393 34.9236 13.9128 34.7504 14.0859C34.5863 14.25 34.3266 14.3229 33.9711 14.3047H30.1566ZM26.3695 6.4707C25.9047 6.23372 25.6723 6.00586 25.6723 5.78711C25.6723 5.39518 25.8819 5.19922 26.3012 5.19922C26.5017 5.19922 26.8253 5.31771 27.2719 5.55469C27.7276 5.79167 27.9555 6.02865 27.9555 6.26562C27.9555 6.67578 27.7641 6.88086 27.3813 6.88086C27.2536 6.88086 26.9164 6.74414 26.3695 6.4707ZM31.0863 7.29102V8.84961H33.4105V7.29102H31.0863ZM25.9457 9.99805C25.3533 9.75195 25.057 9.50586 25.057 9.25977C25.057 8.85872 25.2621 8.6582 25.6723 8.6582C25.7725 8.6582 26.087 8.75846 26.6156 8.95898C27.1078 9.15039 27.3539 9.39648 27.3539 9.69727C27.3539 10.0983 27.1671 10.2988 26.7934 10.2988C26.7204 10.2988 26.4379 10.1986 25.9457 9.99805ZM34.2992 11.1602C33.8799 10.6953 33.5701 10.2578 33.3695 9.84766H31.1547C30.8995 10.3672 30.6215 10.8047 30.3207 11.1602H34.2992ZM26.9711 11.9395C27.2992 11.9395 27.4633 12.1035 27.4633 12.4316C27.4633 12.696 27.2628 13.457 26.8617 14.7148C26.7341 15.0977 26.6703 15.2891 26.6703 15.2891C26.3786 16.2279 26.21 16.7337 26.1645 16.8066C26.0551 16.9889 25.8956 17.0801 25.6859 17.0801C25.2667 17.0801 25.057 16.8659 25.057 16.4375C25.057 16.3737 25.0935 16.2461 25.1664 16.0547C25.6586 14.888 26.0824 13.6393 26.4379 12.3086C26.5017 12.0625 26.6794 11.9395 26.9711 11.9395ZM33.9438 12.377C33.9438 12.1855 33.848 12.0898 33.6566 12.0898H30.5531C30.4255 12.0898 30.3253 12.1263 30.2523 12.1992C30.1885 12.263 30.1566 12.3587 30.1566 12.4863V13.3613H33.5473C33.7934 13.3613 33.9255 13.2292 33.9438 12.9648V12.377ZM54.8956 16.1641C54.9685 16.2096 55.0187 16.2643 55.046 16.3281C55.0825 16.3919 55.1007 16.4785 55.1007 16.5879C55.1007 16.998 54.8774 17.2031 54.4308 17.2031C54.13 17.2031 53.5102 17.0299 52.5714 16.6836C50.2472 15.8268 48.8253 14.3913 48.3058 12.377H45.7491V15.7402C47.0981 15.5215 48.128 15.321 48.839 15.1387L49.1261 15.084C49.281 15.0566 49.3995 15.0931 49.4816 15.1934C49.5636 15.2936 49.6046 15.4349 49.6046 15.6172C49.6046 15.8997 49.4178 16.0911 49.0441 16.1914C48.8253 16.2552 48.3514 16.3646 47.6222 16.5195C47.1756 16.6198 46.6743 16.7109 46.1183 16.793L45.257 16.9434C44.2544 17.1165 43.6437 17.2031 43.4249 17.2031C43.0148 17.2031 42.8097 17.0117 42.8097 16.6289C42.8097 16.4557 42.878 16.319 43.0148 16.2188C43.1606 16.1185 43.3657 16.0547 43.63 16.0273C43.9581 16 44.3045 15.959 44.6691 15.9043V12.377H43.2745C42.8644 12.377 42.6593 12.2129 42.6593 11.8848C42.6593 11.7116 42.7094 11.584 42.8097 11.502C42.9099 11.4199 43.0649 11.3789 43.2745 11.3789H44.6691V6.59375C44.6691 6.12891 44.7693 5.79622 44.9698 5.5957C45.1704 5.39518 45.4894 5.30404 45.9269 5.32227H53.4601C53.8702 5.32227 54.0753 5.48633 54.0753 5.81445C54.0753 6.15169 53.8702 6.32031 53.4601 6.32031H46.3507C45.9497 6.32031 45.7491 6.52083 45.7491 6.92188V7.35938H53.0499C53.4236 7.35938 53.6105 7.52799 53.6105 7.86523C53.6105 8.20247 53.4236 8.37109 53.0499 8.37109H45.7491V9.30078H53.0499C53.4236 9.30078 53.6105 9.4694 53.6105 9.80664C53.6105 10.1439 53.4236 10.3125 53.0499 10.3125H45.7491V11.3789H54.4855C54.9047 11.3789 55.1144 11.5475 55.1144 11.8848C55.1144 12.2129 54.9047 12.377 54.4855 12.377H49.3722C49.6639 13.252 50.1196 13.9583 50.7394 14.4961C50.7758 14.4688 50.8214 14.4368 50.8761 14.4004C50.9308 14.3639 50.99 14.3184 51.0538 14.2637C51.7101 13.7897 52.2023 13.4297 52.5304 13.1836C52.8038 12.9831 53.0135 12.8464 53.1593 12.7734C53.3142 12.6914 53.4555 12.6504 53.5831 12.6504C53.7654 12.6504 53.9067 12.7005 54.007 12.8008C54.1072 12.901 54.1528 13.0423 54.1437 13.2246C54.1254 13.3796 53.9021 13.6074 53.4738 13.9082C53.0454 14.209 52.4301 14.5553 51.628 14.9473L51.4777 15.0156C52.0245 15.3346 52.7081 15.5944 53.5284 15.7949C54.367 15.9863 54.8227 16.1094 54.8956 16.1641ZM72.2381 8.9043C72.6574 8.9043 72.867 9.07292 72.867 9.41016C72.867 9.73828 72.6574 9.90234 72.2381 9.90234H67.5077L65.5116 11.1738H70.201C70.675 11.1738 71.0122 11.2741 71.2127 11.4746C71.4133 11.666 71.5135 11.9987 71.5135 12.4727V15.6582C71.5135 16.123 71.4087 16.4557 71.1991 16.6562C70.9985 16.8568 70.6659 16.957 70.201 16.957H64.158C63.6841 16.957 63.3468 16.8568 63.1463 16.6562C62.9458 16.4557 62.8455 16.123 62.8455 15.6582V12.7871C62.3534 13.0514 61.9341 13.2611 61.5877 13.416C61.2414 13.571 61.0181 13.6484 60.9178 13.6484C60.7446 13.6484 60.617 13.6074 60.535 13.5254C60.453 13.4342 60.412 13.293 60.412 13.1016C60.412 12.8555 60.5669 12.6732 60.8768 12.5547C62.4172 11.9714 64.1079 11.0872 65.9491 9.90234H61.0545C60.6444 9.90234 60.4393 9.73372 60.4393 9.39648C60.4393 9.06836 60.6444 8.9043 61.0545 8.9043H65.1698V7.31836H62.408C61.9979 7.31836 61.7928 7.1543 61.7928 6.82617C61.7928 6.48893 61.9979 6.32031 62.408 6.32031H65.1698V5.4043C65.1698 5.0306 65.3521 4.84375 65.7166 4.84375C66.0812 4.84375 66.2635 5.0306 66.2635 5.4043V6.32031H68.7245C69.1346 6.32031 69.3397 6.48438 69.3397 6.8125C69.3397 7.14974 69.1346 7.31836 68.7245 7.31836H66.2635V8.9043H67.3299C68.6242 7.92904 69.7362 6.90365 70.6659 5.82812C70.8846 5.57292 71.0897 5.44531 71.2811 5.44531C71.4452 5.44531 71.5773 5.48633 71.6776 5.56836C71.7778 5.65039 71.828 5.75521 71.828 5.88281C71.828 5.99219 71.8143 6.08333 71.787 6.15625C71.7687 6.22005 71.7232 6.29297 71.6502 6.375C70.9575 7.14062 70.0142 7.98372 68.8202 8.9043H72.2381ZM70.4061 12.7324C70.4061 12.3678 70.2238 12.1855 69.8592 12.1855H64.3084C64.0441 12.1855 63.912 12.3132 63.912 12.5684V13.5664H70.4061V12.7324ZM70.4061 14.5234H63.912V15.3848C63.912 15.5579 63.9575 15.6947 64.0487 15.7949C64.1489 15.8952 64.2857 15.9453 64.4588 15.9453H69.8592C70.0324 15.9453 70.1646 15.8952 70.2557 15.7949C70.356 15.6947 70.4061 15.5579 70.4061 15.3848V14.5234ZM79.6548 10.9551C79.2629 10.9551 78.9758 10.873 78.7935 10.709C78.6203 10.5358 78.5474 10.2624 78.5748 9.88867V6.15625C78.5748 5.76432 78.6568 5.48177 78.8209 5.30859C78.994 5.13542 79.272 5.0625 79.6548 5.08984H84.0709C84.3808 5.08984 84.5357 5.22201 84.5357 5.48633C84.5357 5.74154 84.3808 5.86914 84.0709 5.86914H79.9283C79.7004 5.86914 79.5865 5.98763 79.5865 6.22461V9.83398C79.5865 10.0801 79.7004 10.2031 79.9283 10.2031H83.9068C84.2349 10.2031 84.399 10.3262 84.399 10.5723C84.399 10.6908 84.3534 10.7865 84.2623 10.8594C84.1802 10.9232 84.0617 10.9551 83.9068 10.9551H79.6548ZM84.9459 7.75586C84.6542 7.75586 84.5084 7.61458 84.5084 7.33203C84.5084 7.21354 84.636 7.05404 84.8912 6.85352C85.0826 6.63477 85.1828 6.32943 85.192 5.9375C85.2102 5.41797 85.4836 5.1582 86.0123 5.1582H87.6666C88.2317 5.1582 88.5142 5.44076 88.5142 6.00586V6.45703C88.5142 6.63021 88.6555 6.72591 88.938 6.74414H89.1705C89.4439 6.74414 89.5897 6.56185 89.608 6.19727C89.6262 5.96029 89.7766 5.8418 90.0591 5.8418C90.3417 5.8418 90.483 5.9694 90.483 6.22461C90.483 7.08138 90.0819 7.51432 89.2798 7.52344H88.7056C88.022 7.52344 87.6711 7.31836 87.6529 6.9082V6.30664C87.6529 6.09701 87.5344 5.98307 87.2974 5.96484H86.272C86.108 5.96484 86.0032 6.13802 85.9576 6.48438C85.912 6.82161 85.7798 7.11328 85.5611 7.35938C85.3241 7.6237 85.119 7.75586 84.9459 7.75586ZM82.3345 8.45312C82.2981 8.55339 82.2479 8.6582 82.1841 8.76758C82.2115 8.75846 82.2571 8.75391 82.3209 8.75391C82.4849 8.75391 82.8358 8.86328 83.3736 9.08203C83.8476 9.27344 84.0845 9.46029 84.0845 9.64258C84.0845 9.87956 83.9433 9.99805 83.6607 9.99805C83.5149 9.99805 83.2961 9.90234 83.0045 9.71094C82.8222 9.59245 82.567 9.46029 82.2388 9.31445C82.0839 9.25977 82.0019 9.17773 81.9927 9.06836C81.7284 9.41471 81.3319 9.71094 80.8033 9.95703C80.5936 10.0482 80.4296 10.0938 80.3111 10.0938C80.1926 10.0938 80.0969 10.0618 80.024 9.99805C79.9511 9.92513 79.9146 9.82487 79.9146 9.69727C79.9146 9.50586 80.024 9.38281 80.2427 9.32812C80.9172 9.14583 81.341 8.85417 81.5142 8.45312H80.3248C80.1972 8.45312 80.0969 8.42578 80.024 8.37109C79.9511 8.30729 79.9146 8.2207 79.9146 8.11133C79.9146 8.00195 79.9511 7.91992 80.024 7.86523C80.0969 7.80143 80.1972 7.76953 80.3248 7.76953H81.6783C81.7056 7.64193 81.7284 7.44141 81.7466 7.16797H80.858C80.6575 7.41406 80.4843 7.53711 80.3384 7.53711C80.1015 7.53711 79.983 7.41862 79.983 7.18164C79.983 7.14518 79.9966 7.09505 80.024 7.03125C80.0513 6.95833 80.0923 6.89453 80.147 6.83984C80.2655 6.69401 80.425 6.47982 80.6255 6.19727C80.7349 6.04232 80.858 5.96484 80.9947 5.96484C81.2499 5.96484 81.3775 6.05143 81.3775 6.22461C81.3775 6.28841 81.3456 6.38411 81.2818 6.51172H83.5923C83.8567 6.51172 83.9888 6.62109 83.9888 6.83984C83.9888 7.05859 83.8567 7.16797 83.5923 7.16797H82.567C82.567 7.29557 82.5487 7.49609 82.5123 7.76953H83.9205C84.0481 7.76953 84.1483 7.80143 84.2213 7.86523C84.2942 7.91992 84.3306 8.00195 84.3306 8.11133C84.3306 8.2207 84.2942 8.30729 84.2213 8.37109C84.1483 8.42578 84.0481 8.45312 83.9205 8.45312H82.3345ZM84.522 10.7363C84.522 10.6178 84.5539 10.5267 84.6177 10.4629C84.6907 10.3991 84.8091 10.349 84.9732 10.3125C85.5383 10.2031 85.9485 10.0755 86.2037 9.92969C85.593 9.54688 85.2877 9.26888 85.2877 9.0957C85.2877 9.00456 85.3196 8.93164 85.3834 8.87695C85.4472 8.81315 85.5292 8.78125 85.6295 8.78125C85.7297 8.78125 85.8209 8.80404 85.9029 8.84961C85.994 8.88607 86.1125 8.95898 86.2584 9.06836C86.5865 9.30534 86.8645 9.47852 87.0923 9.58789C87.6028 9.3418 88.0311 9.08203 88.3775 8.80859C88.4231 8.76302 88.4459 8.72656 88.4459 8.69922C88.4459 8.63542 88.3957 8.60352 88.2955 8.60352H85.0552C84.7636 8.60352 84.6177 8.48047 84.6177 8.23438C84.6177 7.98828 84.7636 7.86523 85.0552 7.86523H89.0201C89.567 7.86523 89.8404 8.03385 89.8404 8.37109C89.8404 8.69922 89.2388 9.21419 88.0357 9.91602C88.6373 10.0801 89.289 10.1803 89.9908 10.2168C90.328 10.2259 90.4966 10.3626 90.4966 10.627C90.4966 10.9277 90.3326 11.0781 90.0045 11.0781C89.2388 11.0781 88.2727 10.8503 87.106 10.3945C86.6229 10.6224 86.19 10.7956 85.8072 10.9141C85.4335 11.0326 85.1555 11.0918 84.9732 11.0918C84.8091 11.0918 84.6907 11.0645 84.6177 11.0098C84.5539 10.946 84.522 10.8548 84.522 10.7363ZM90.2779 11.3789C90.4328 11.3789 90.5559 11.4154 90.647 11.4883C90.7382 11.5612 90.7838 11.6615 90.7838 11.7891C90.7838 12.0443 90.6151 12.1719 90.2779 12.1719H85.9302V12.623H88.6509C89.0429 12.623 89.3254 12.7096 89.4986 12.8828C89.6809 13.056 89.7584 13.3294 89.731 13.7031V15.9727C89.731 16.3646 89.6444 16.6517 89.4713 16.834C89.2981 17.0163 89.0246 17.0938 88.6509 17.0664H80.2701C79.8782 17.0664 79.591 16.9798 79.4088 16.8066C79.2356 16.6335 79.1627 16.3555 79.19 15.9727V13.7031C79.19 13.3112 79.2766 13.0286 79.4498 12.8555C79.6229 12.6732 79.8964 12.5957 80.2701 12.623H82.5396L82.567 12.1719H78.6568C78.4927 12.1719 78.3651 12.1354 78.274 12.0625C78.192 11.9896 78.1509 11.8893 78.1509 11.7617C78.1509 11.5065 78.3196 11.3789 78.6568 11.3789H90.2779ZM84.9732 12.623V12.1719H83.5103L83.483 12.623H84.9732ZM85.9302 13.3887V13.7031C85.9302 13.8945 86.0852 13.9902 86.3951 13.9902H86.9693C87.2427 13.9902 87.3977 13.931 87.4341 13.8125C87.5162 13.5846 87.6757 13.4707 87.9127 13.4707C88.2043 13.4707 88.3502 13.6029 88.3502 13.8672C88.3502 14.4049 87.9491 14.6738 87.147 14.6738H86.1216C85.7479 14.6738 85.4608 14.6191 85.2603 14.5098C85.0689 14.4004 84.9732 14.2454 84.9732 14.0449V13.3887H83.3052C83.1503 13.8079 82.813 14.1634 82.2935 14.4551C81.774 14.7559 81.3638 14.9062 81.063 14.9062C80.7805 14.9062 80.6392 14.7604 80.6392 14.4688C80.6392 14.3685 80.6666 14.291 80.7213 14.2363C80.7851 14.1725 80.8808 14.1224 81.0084 14.0859C81.7011 13.9219 82.1431 13.6895 82.3345 13.3887H80.6119C80.3658 13.3887 80.2427 13.5072 80.2427 13.7441V15.0293H88.6783V13.7441C88.6783 13.6348 88.6464 13.5482 88.5826 13.4844C88.5279 13.4206 88.4413 13.3887 88.3228 13.3887H85.9302ZM88.6646 15.7402H80.2427V15.918C80.2427 16.1641 80.3658 16.2871 80.6119 16.2871H88.3091C88.5461 16.2871 88.6646 16.1641 88.6646 15.918V15.7402ZM99.0071 9C99.0071 10.7227 98.8841 12.1992 98.638 13.4297C98.4283 14.4779 97.9863 15.485 97.3118 16.4512C97.0566 16.8158 96.8242 16.998 96.6145 16.998C96.4231 16.998 96.2819 16.9479 96.1907 16.8477C96.0996 16.7474 96.054 16.5924 96.054 16.3828C96.054 16.2461 96.136 16.0729 96.3001 15.8633C97.1022 14.8971 97.6126 13.6165 97.8313 12.0215L96.888 12.6777C96.733 12.778 96.61 12.8281 96.5188 12.8281C96.1542 12.8281 95.972 12.6367 95.972 12.2539C95.972 12.0716 96.0722 11.9167 96.2727 11.7891L97.886 10.9277C97.9042 10.2897 97.9134 9.8112 97.9134 9.49219V8.97266V7.07227C97.9134 6.38867 98.2552 6.04688 98.9388 6.04688H102.603V5.41797C102.603 5.02604 102.812 4.83008 103.232 4.83008C103.642 4.83008 103.847 5.02604 103.847 5.41797V6.04688H107.825C108.199 6.04688 108.386 6.20638 108.386 6.52539C108.386 6.8444 108.199 7.00391 107.825 7.00391H99.3489C99.121 7.00391 99.0071 7.11784 99.0071 7.3457V9ZM96.4915 9.25977C96.3365 8.74023 96.1907 8.13867 96.054 7.45508C96.0175 7.30013 96.0449 7.16797 96.136 7.05859C96.2363 6.94922 96.373 6.89453 96.5462 6.89453C96.7558 6.89453 96.9062 7.01302 96.9973 7.25C97.0885 7.47786 97.1751 7.77409 97.2571 8.13867C97.3483 8.49414 97.4121 8.79948 97.4485 9.05469C97.4667 9.22786 97.444 9.36003 97.3802 9.45117C97.3164 9.5332 97.207 9.59245 97.052 9.62891C97.0247 9.63802 96.9837 9.64258 96.929 9.64258C96.7011 9.64258 96.5553 9.51497 96.4915 9.25977ZM108.058 11.2148C108.304 11.3333 108.427 11.4883 108.427 11.6797C108.427 11.7617 108.409 11.8392 108.372 11.9121C108.272 12.1309 108.117 12.2402 107.908 12.2402C107.835 12.2402 107.743 12.2174 107.634 12.1719C107.388 12.0534 107.11 11.8939 106.8 11.6934V13.3613C106.8 14.054 106.449 14.4004 105.747 14.4004H104.175V16.2598C104.175 16.5879 104.079 16.8385 103.888 17.0117C103.706 17.194 103.45 17.2852 103.122 17.2852H102.029C101.846 17.2852 101.71 17.2441 101.618 17.1621C101.536 17.0892 101.495 16.9707 101.495 16.8066C101.495 16.4785 101.673 16.3145 102.029 16.3145H102.685C102.967 16.3145 103.109 16.1777 103.109 15.9043V14.4004H101.482C100.789 14.4004 100.443 14.054 100.443 13.3613V11.748C100.151 11.9395 99.8867 12.0716 99.6497 12.1445C99.5585 12.1628 99.4947 12.1719 99.4583 12.1719C99.3307 12.1719 99.2304 12.1354 99.1575 12.0625C99.0846 11.9805 99.0481 11.8757 99.0481 11.748C99.0481 11.6478 99.08 11.5612 99.1438 11.4883C99.2167 11.4062 99.3307 11.3242 99.4856 11.2422C99.832 11.0508 100.174 10.8229 100.511 10.5586L99.9095 10.0117C99.7545 9.875 99.677 9.7474 99.677 9.62891C99.677 9.35547 99.8229 9.21875 100.115 9.21875C100.297 9.21875 100.657 9.45573 101.195 9.92969C101.441 9.68359 101.691 9.3737 101.947 9H99.8411C99.4765 9 99.2942 8.84505 99.2942 8.53516C99.2942 8.20703 99.4765 8.04297 99.8411 8.04297H102.48L102.685 7.53711C102.803 7.24544 102.99 7.09961 103.245 7.09961C103.419 7.09961 103.555 7.13607 103.656 7.20898C103.756 7.2819 103.806 7.38672 103.806 7.52344C103.806 7.64193 103.756 7.8151 103.656 8.04297H107.607C107.971 8.04297 108.154 8.20703 108.154 8.53516C108.154 8.84505 107.971 9 107.607 9H105.283C105.556 9.38281 105.87 9.73372 106.226 10.0527L106.691 9.51953C106.855 9.33724 107.01 9.24609 107.156 9.24609C107.484 9.26432 107.648 9.41016 107.648 9.68359C107.648 9.88411 107.406 10.1849 106.923 10.5859C107.242 10.7865 107.62 10.9961 108.058 11.2148ZM103.15 9C102.794 9.52865 102.443 9.97526 102.097 10.3398H105.269C104.895 9.91146 104.599 9.46484 104.38 9H103.15ZM105.775 11.4883C105.775 11.3242 105.684 11.2331 105.501 11.2148H101.769C101.577 11.2148 101.482 11.306 101.482 11.4883V11.9121H105.775V11.4883ZM105.775 12.7598H101.482V13.1426C101.482 13.3978 101.609 13.5254 101.865 13.5254H105.406C105.652 13.5254 105.775 13.3978 105.775 13.1426V12.7598ZM101.687 14.9199C101.769 15.0111 101.81 15.1159 101.81 15.2344C101.81 15.3802 101.741 15.5169 101.605 15.6445C101.34 15.8815 101.031 16.0957 100.675 16.2871C99.9641 16.6608 99.4583 16.8477 99.1575 16.8477C99.0026 16.8477 98.8841 16.8021 98.802 16.7109C98.72 16.6198 98.679 16.5059 98.679 16.3691C98.679 16.2598 98.72 16.1595 98.802 16.0684C98.8932 15.9772 99.0117 15.9089 99.1575 15.8633C99.7773 15.6628 100.37 15.3438 100.935 14.9062C101.072 14.7969 101.204 14.7422 101.331 14.7422C101.477 14.7422 101.596 14.8014 101.687 14.9199ZM107.88 15.8223C107.999 15.8587 108.085 15.918 108.14 16C108.204 16.0911 108.236 16.1914 108.236 16.3008C108.236 16.4557 108.176 16.5879 108.058 16.6973C107.949 16.8158 107.807 16.8568 107.634 16.8203C107.297 16.7383 106.9 16.5742 106.445 16.3281C105.989 16.082 105.611 15.8359 105.31 15.5898C105.173 15.4805 105.105 15.3529 105.105 15.207C105.105 15.0977 105.15 14.9974 105.241 14.9062C105.333 14.8151 105.428 14.7695 105.529 14.7695C105.647 14.7695 105.784 14.8197 105.939 14.9199C106.194 15.084 106.508 15.2526 106.882 15.4258C107.265 15.599 107.598 15.7311 107.88 15.8223ZM125.633 12.623C126.043 12.7962 126.248 13.015 126.248 13.2793C126.248 13.6895 126.057 13.8945 125.674 13.8945C125.537 13.8945 125.327 13.8216 125.045 13.6758C124.771 13.5208 124.393 13.2839 123.91 12.9648C122.999 12.3633 122.215 11.5977 121.559 10.668H118.168C117.995 10.9414 117.803 11.1921 117.594 11.4199C117.393 11.6478 117.097 11.9531 116.705 12.3359C116.769 12.3177 116.892 12.3086 117.074 12.3086H122.242C123.126 12.3086 123.568 12.6823 123.568 13.4297C123.568 13.8763 123.509 14.4733 123.391 15.2207C123.263 16.0137 123.026 16.5423 122.68 16.8066C122.306 17.0801 121.714 17.2168 120.902 17.2168C120.401 17.2168 120.15 17.0072 120.15 16.5879C120.15 16.2051 120.314 16.0137 120.643 16.0137L121.271 16.0273C121.6 16.0273 121.846 15.9271 122.01 15.7266C122.156 15.5443 122.265 15.0339 122.338 14.1953L122.379 13.6758C122.397 13.4388 122.251 13.3203 121.941 13.3203H119.33C119.175 14.2865 118.956 14.9837 118.674 15.4121C118.318 15.9408 117.794 16.3691 117.102 16.6973C116.391 17.0345 115.798 17.2031 115.324 17.2031C114.941 17.2031 114.75 17.0026 114.75 16.6016C114.75 16.3372 114.928 16.1686 115.283 16.0957C116.523 15.877 117.348 15.4258 117.758 14.7422C117.931 14.4596 118.068 13.9857 118.168 13.3203H116.965C116.773 13.3203 116.618 13.2793 116.5 13.1973C116.391 13.1152 116.336 13.0013 116.336 12.8555C116.336 12.7734 116.34 12.7142 116.35 12.6777C115.867 13.1426 115.447 13.4935 115.092 13.7305C114.736 13.9583 114.467 14.0723 114.285 14.0723C114.103 14.0723 113.962 14.0267 113.861 13.9355C113.77 13.8353 113.725 13.7031 113.725 13.5391C113.725 13.2839 113.88 13.0651 114.189 12.8828C114.782 12.5456 115.27 12.2174 115.652 11.8984C116.035 11.5703 116.418 11.1602 116.801 10.668H114.463C114.062 10.668 113.861 10.5039 113.861 10.1758C113.861 9.83854 114.062 9.66992 114.463 9.66992H117.539C117.831 9.21419 118.068 8.76302 118.25 8.31641H115.119C114.709 8.31641 114.504 8.14779 114.504 7.81055C114.504 7.47331 114.709 7.30469 115.119 7.30469H118.592C118.729 6.83073 118.861 6.25195 118.988 5.56836C119.079 5.0944 119.307 4.85742 119.672 4.85742C120.018 4.85742 120.191 5.02148 120.191 5.34961C120.191 5.66862 120.041 6.32031 119.74 7.30469H124.867C125.277 7.30469 125.482 7.47331 125.482 7.81055C125.482 8.14779 125.277 8.31641 124.867 8.31641H121.545C121.764 8.91797 121.955 9.36914 122.119 9.66992H125.51C125.929 9.66992 126.139 9.83854 126.139 10.1758C126.139 10.5039 125.929 10.668 125.51 10.668H122.83C123.532 11.4883 124.466 12.14 125.633 12.623ZM122.707 7.08594C122.333 7.08594 122.146 6.92188 122.146 6.59375C122.146 6.47526 122.21 6.30208 122.338 6.07422L122.707 5.44531C122.862 5.17188 123.067 5.03516 123.322 5.03516C123.723 5.03516 123.924 5.21745 123.924 5.58203C123.924 5.71875 123.783 6.0013 123.5 6.42969C123.217 6.86719 122.953 7.08594 122.707 7.08594ZM115.57 5.9375C115.452 5.78255 115.393 5.65039 115.393 5.54102C115.393 5.23112 115.589 5.07617 115.98 5.07617C116.199 5.07617 116.409 5.21289 116.609 5.48633C116.746 5.67773 116.906 5.91016 117.088 6.18359C117.197 6.32943 117.252 6.47982 117.252 6.63477C117.252 6.76237 117.202 6.86719 117.102 6.94922C117.01 7.03125 116.865 7.07227 116.664 7.07227C116.436 7.07227 116.236 6.93099 116.062 6.64844L115.57 5.9375ZM119.398 8.31641C119.225 8.78125 119.016 9.23242 118.77 9.66992H121.012C120.839 9.30534 120.67 8.85417 120.506 8.31641H119.398Z" fill="white"/>
</svg>
