<svg width="368" height="214" viewBox="0 0 368 214" fill="none" xmlns="http://www.w3.org/2000/svg">
<mask id="path-1-outside-1_12860_52133" maskUnits="userSpaceOnUse" x="36" y="55" width="332" height="125" fill="black">
<rect fill="white" x="36" y="55" width="332" height="125"/>
<path d="M40.1711 143.008C40.1711 140.827 40.8254 139.082 42.134 137.773C43.4426 136.465 45.0565 135.811 46.9758 135.811C47.9354 135.811 49.0695 136.072 50.3781 136.596C57.27 140.173 64.0311 141.961 70.6613 141.961C80.4321 141.961 87.106 140.129 90.6828 136.465C93.3 133.935 94.6086 130.14 94.6086 125.08C94.6086 120.107 92.951 116.225 89.6359 113.434C86.4081 110.555 81.828 109.115 75.8957 109.115C68.8293 109.115 62.3736 110.947 56.5285 114.611C56.5285 114.611 56.0051 114.873 54.9582 115.396C53.9113 116.007 52.6463 116.312 51.1633 116.312C48.0226 116.312 45.4491 115.309 43.4426 113.303C41.785 111.645 40.9562 109.595 40.9562 107.152C40.9562 106.367 41.0435 105.233 41.218 103.75C41.218 103.75 43.1808 92.1471 47.1066 68.9414C47.4556 66.6732 48.3716 64.7975 49.8547 63.3145C51.425 61.8314 53.3443 61.0898 55.6125 61.0898H97.6183C99.6249 61.0898 101.326 61.7878 102.722 63.1836C104.118 64.5794 104.816 66.2806 104.816 68.2871C104.816 70.2064 104.118 71.8639 102.722 73.2598C101.239 74.6556 99.5376 75.3535 97.6183 75.3535H62.2863C61.7629 75.3535 61.4139 75.4408 61.2394 75.6152C61.065 75.7897 60.9341 76.0951 60.8469 76.5312L57.4445 98.7773C63.6385 95.9857 70.356 94.5898 77.5969 94.5898C89.6359 94.5898 98.4907 98.6901 104.161 106.891C107.825 112.125 109.657 118.406 109.657 125.734C109.657 135.243 106.386 142.833 99.843 148.504C93.3872 154.087 84.1835 156.879 72.2316 156.879C61.3267 156.879 51.7303 154.262 43.4426 149.027C42.3957 148.329 41.5669 147.544 40.9562 146.672C40.4328 145.712 40.1711 144.491 40.1711 143.008ZM114.211 169.834C114.211 167.827 115.084 166.301 116.829 165.254C119.009 163.945 120.58 162.506 121.539 160.936C122.237 159.714 122.674 158.013 122.848 155.832C120.842 155.658 119.097 154.829 117.614 153.346C115.869 151.601 114.996 149.507 114.996 147.064V146.279C114.996 143.837 115.869 141.743 117.614 139.998C119.358 138.253 121.452 137.381 123.895 137.381H125.204C127.559 137.381 129.522 138.21 131.092 139.867C133.011 141.961 134.058 144.622 134.233 147.85C134.32 148.46 134.364 149.464 134.364 150.859C134.364 152.168 134.276 153.302 134.102 154.262C133.142 160.63 131.441 165.472 128.998 168.787C127.341 170.968 125.247 172.844 122.717 174.414C121.758 175.025 120.667 175.33 119.446 175.33C118.05 175.33 116.829 174.763 115.782 173.629C114.735 172.495 114.211 171.23 114.211 169.834ZM175.689 59.7812C187.554 59.7812 196.714 64.0996 203.17 72.7363C209.712 81.2858 212.984 93.1504 212.984 108.33C212.984 125.952 208.709 139.038 200.16 147.588C193.966 153.782 185.896 156.879 175.951 156.879C163.999 156.879 154.839 152.561 148.47 143.924C142.102 135.2 138.918 123.335 138.918 108.33C138.918 93.3249 142.102 81.5039 148.47 72.8672C154.839 64.1432 163.912 59.7812 175.689 59.7812ZM197.935 108.33C197.935 94.8079 195.013 85.1243 189.168 79.2793C185.678 75.7897 181.272 74.0449 175.951 74.0449C169.059 74.0449 163.65 77.0111 159.724 82.9434C155.886 88.7884 153.966 97.2507 153.966 108.33C153.966 121.939 156.889 131.667 162.734 137.512C166.224 141.001 170.629 142.746 175.951 142.746C182.843 142.746 188.208 139.824 192.046 133.979C195.972 128.046 197.935 119.497 197.935 108.33ZM251.169 59.7812C263.033 59.7812 272.193 64.0996 278.649 72.7363C285.192 81.2858 288.464 93.1504 288.464 108.33C288.464 125.952 284.189 139.038 275.639 147.588C269.445 153.782 261.376 156.879 251.43 156.879C239.479 156.879 230.318 152.561 223.95 143.924C217.581 135.2 214.397 123.335 214.397 108.33C214.397 93.3249 217.581 81.5039 223.95 72.8672C230.318 64.1432 239.391 59.7812 251.169 59.7812ZM273.415 108.33C273.415 94.8079 270.492 85.1243 264.647 79.2793C261.158 75.7897 256.752 74.0449 251.43 74.0449C244.539 74.0449 239.13 77.0111 235.204 82.9434C231.365 88.7884 229.446 97.2507 229.446 108.33C229.446 121.939 232.369 131.667 238.214 137.512C241.703 141.001 246.109 142.746 251.43 142.746C258.322 142.746 263.688 139.824 267.526 133.979C271.452 128.046 273.415 119.497 273.415 108.33ZM326.648 59.7812C338.513 59.7812 347.673 64.0996 354.129 72.7363C360.672 81.2858 363.943 93.1504 363.943 108.33C363.943 125.952 359.669 139.038 351.119 147.588C344.925 153.782 336.855 156.879 326.91 156.879C314.958 156.879 305.798 152.561 299.43 143.924C293.061 135.2 289.877 123.335 289.877 108.33C289.877 93.3249 293.061 81.5039 299.43 72.8672C305.798 64.1432 314.871 59.7812 326.648 59.7812ZM348.895 108.33C348.895 94.8079 345.972 85.1243 340.127 79.2793C336.637 75.7897 332.232 74.0449 326.91 74.0449C320.018 74.0449 314.609 77.0111 310.684 82.9434C306.845 88.7884 304.926 97.2507 304.926 108.33C304.926 121.939 307.848 131.667 313.693 137.512C317.183 141.001 321.589 142.746 326.91 142.746C333.802 142.746 339.167 139.824 343.006 133.979C346.932 128.046 348.895 119.497 348.895 108.33Z"/>
</mask>
<path d="M40.1711 143.008C40.1711 140.827 40.8254 139.082 42.134 137.773C43.4426 136.465 45.0565 135.811 46.9758 135.811C47.9354 135.811 49.0695 136.072 50.3781 136.596C57.27 140.173 64.0311 141.961 70.6613 141.961C80.4321 141.961 87.106 140.129 90.6828 136.465C93.3 133.935 94.6086 130.14 94.6086 125.08C94.6086 120.107 92.951 116.225 89.6359 113.434C86.4081 110.555 81.828 109.115 75.8957 109.115C68.8293 109.115 62.3736 110.947 56.5285 114.611C56.5285 114.611 56.0051 114.873 54.9582 115.396C53.9113 116.007 52.6463 116.312 51.1633 116.312C48.0226 116.312 45.4491 115.309 43.4426 113.303C41.785 111.645 40.9562 109.595 40.9562 107.152C40.9562 106.367 41.0435 105.233 41.218 103.75C41.218 103.75 43.1808 92.1471 47.1066 68.9414C47.4556 66.6732 48.3716 64.7975 49.8547 63.3145C51.425 61.8314 53.3443 61.0898 55.6125 61.0898H97.6183C99.6249 61.0898 101.326 61.7878 102.722 63.1836C104.118 64.5794 104.816 66.2806 104.816 68.2871C104.816 70.2064 104.118 71.8639 102.722 73.2598C101.239 74.6556 99.5376 75.3535 97.6183 75.3535H62.2863C61.7629 75.3535 61.4139 75.4408 61.2394 75.6152C61.065 75.7897 60.9341 76.0951 60.8469 76.5312L57.4445 98.7773C63.6385 95.9857 70.356 94.5898 77.5969 94.5898C89.6359 94.5898 98.4907 98.6901 104.161 106.891C107.825 112.125 109.657 118.406 109.657 125.734C109.657 135.243 106.386 142.833 99.843 148.504C93.3872 154.087 84.1835 156.879 72.2316 156.879C61.3267 156.879 51.7303 154.262 43.4426 149.027C42.3957 148.329 41.5669 147.544 40.9562 146.672C40.4328 145.712 40.1711 144.491 40.1711 143.008ZM114.211 169.834C114.211 167.827 115.084 166.301 116.829 165.254C119.009 163.945 120.58 162.506 121.539 160.936C122.237 159.714 122.674 158.013 122.848 155.832C120.842 155.658 119.097 154.829 117.614 153.346C115.869 151.601 114.996 149.507 114.996 147.064V146.279C114.996 143.837 115.869 141.743 117.614 139.998C119.358 138.253 121.452 137.381 123.895 137.381H125.204C127.559 137.381 129.522 138.21 131.092 139.867C133.011 141.961 134.058 144.622 134.233 147.85C134.32 148.46 134.364 149.464 134.364 150.859C134.364 152.168 134.276 153.302 134.102 154.262C133.142 160.63 131.441 165.472 128.998 168.787C127.341 170.968 125.247 172.844 122.717 174.414C121.758 175.025 120.667 175.33 119.446 175.33C118.05 175.33 116.829 174.763 115.782 173.629C114.735 172.495 114.211 171.23 114.211 169.834ZM175.689 59.7812C187.554 59.7812 196.714 64.0996 203.17 72.7363C209.712 81.2858 212.984 93.1504 212.984 108.33C212.984 125.952 208.709 139.038 200.16 147.588C193.966 153.782 185.896 156.879 175.951 156.879C163.999 156.879 154.839 152.561 148.47 143.924C142.102 135.2 138.918 123.335 138.918 108.33C138.918 93.3249 142.102 81.5039 148.47 72.8672C154.839 64.1432 163.912 59.7812 175.689 59.7812ZM197.935 108.33C197.935 94.8079 195.013 85.1243 189.168 79.2793C185.678 75.7897 181.272 74.0449 175.951 74.0449C169.059 74.0449 163.65 77.0111 159.724 82.9434C155.886 88.7884 153.966 97.2507 153.966 108.33C153.966 121.939 156.889 131.667 162.734 137.512C166.224 141.001 170.629 142.746 175.951 142.746C182.843 142.746 188.208 139.824 192.046 133.979C195.972 128.046 197.935 119.497 197.935 108.33ZM251.169 59.7812C263.033 59.7812 272.193 64.0996 278.649 72.7363C285.192 81.2858 288.464 93.1504 288.464 108.33C288.464 125.952 284.189 139.038 275.639 147.588C269.445 153.782 261.376 156.879 251.43 156.879C239.479 156.879 230.318 152.561 223.95 143.924C217.581 135.2 214.397 123.335 214.397 108.33C214.397 93.3249 217.581 81.5039 223.95 72.8672C230.318 64.1432 239.391 59.7812 251.169 59.7812ZM273.415 108.33C273.415 94.8079 270.492 85.1243 264.647 79.2793C261.158 75.7897 256.752 74.0449 251.43 74.0449C244.539 74.0449 239.13 77.0111 235.204 82.9434C231.365 88.7884 229.446 97.2507 229.446 108.33C229.446 121.939 232.369 131.667 238.214 137.512C241.703 141.001 246.109 142.746 251.43 142.746C258.322 142.746 263.688 139.824 267.526 133.979C271.452 128.046 273.415 119.497 273.415 108.33ZM326.648 59.7812C338.513 59.7812 347.673 64.0996 354.129 72.7363C360.672 81.2858 363.943 93.1504 363.943 108.33C363.943 125.952 359.669 139.038 351.119 147.588C344.925 153.782 336.855 156.879 326.91 156.879C314.958 156.879 305.798 152.561 299.43 143.924C293.061 135.2 289.877 123.335 289.877 108.33C289.877 93.3249 293.061 81.5039 299.43 72.8672C305.798 64.1432 314.871 59.7812 326.648 59.7812ZM348.895 108.33C348.895 94.8079 345.972 85.1243 340.127 79.2793C336.637 75.7897 332.232 74.0449 326.91 74.0449C320.018 74.0449 314.609 77.0111 310.684 82.9434C306.845 88.7884 304.926 97.2507 304.926 108.33C304.926 121.939 307.848 131.667 313.693 137.512C317.183 141.001 321.589 142.746 326.91 142.746C333.802 142.746 339.167 139.824 343.006 133.979C346.932 128.046 348.895 119.497 348.895 108.33Z" fill="url(#paint0_linear_12860_52133)"/>
<path d="M40.1711 143.008C40.1711 140.827 40.8254 139.082 42.134 137.773C43.4426 136.465 45.0565 135.811 46.9758 135.811C47.9354 135.811 49.0695 136.072 50.3781 136.596C57.27 140.173 64.0311 141.961 70.6613 141.961C80.4321 141.961 87.106 140.129 90.6828 136.465C93.3 133.935 94.6086 130.14 94.6086 125.08C94.6086 120.107 92.951 116.225 89.6359 113.434C86.4081 110.555 81.828 109.115 75.8957 109.115C68.8293 109.115 62.3736 110.947 56.5285 114.611C56.5285 114.611 56.0051 114.873 54.9582 115.396C53.9113 116.007 52.6463 116.312 51.1633 116.312C48.0226 116.312 45.4491 115.309 43.4426 113.303C41.785 111.645 40.9562 109.595 40.9562 107.152C40.9562 106.367 41.0435 105.233 41.218 103.75C41.218 103.75 43.1808 92.1471 47.1066 68.9414C47.4556 66.6732 48.3716 64.7975 49.8547 63.3145C51.425 61.8314 53.3443 61.0898 55.6125 61.0898H97.6183C99.6249 61.0898 101.326 61.7878 102.722 63.1836C104.118 64.5794 104.816 66.2806 104.816 68.2871C104.816 70.2064 104.118 71.8639 102.722 73.2598C101.239 74.6556 99.5376 75.3535 97.6183 75.3535H62.2863C61.7629 75.3535 61.4139 75.4408 61.2394 75.6152C61.065 75.7897 60.9341 76.0951 60.8469 76.5312L57.4445 98.7773C63.6385 95.9857 70.356 94.5898 77.5969 94.5898C89.6359 94.5898 98.4907 98.6901 104.161 106.891C107.825 112.125 109.657 118.406 109.657 125.734C109.657 135.243 106.386 142.833 99.843 148.504C93.3872 154.087 84.1835 156.879 72.2316 156.879C61.3267 156.879 51.7303 154.262 43.4426 149.027C42.3957 148.329 41.5669 147.544 40.9562 146.672C40.4328 145.712 40.1711 144.491 40.1711 143.008ZM114.211 169.834C114.211 167.827 115.084 166.301 116.829 165.254C119.009 163.945 120.58 162.506 121.539 160.936C122.237 159.714 122.674 158.013 122.848 155.832C120.842 155.658 119.097 154.829 117.614 153.346C115.869 151.601 114.996 149.507 114.996 147.064V146.279C114.996 143.837 115.869 141.743 117.614 139.998C119.358 138.253 121.452 137.381 123.895 137.381H125.204C127.559 137.381 129.522 138.21 131.092 139.867C133.011 141.961 134.058 144.622 134.233 147.85C134.32 148.46 134.364 149.464 134.364 150.859C134.364 152.168 134.276 153.302 134.102 154.262C133.142 160.63 131.441 165.472 128.998 168.787C127.341 170.968 125.247 172.844 122.717 174.414C121.758 175.025 120.667 175.33 119.446 175.33C118.05 175.33 116.829 174.763 115.782 173.629C114.735 172.495 114.211 171.23 114.211 169.834ZM175.689 59.7812C187.554 59.7812 196.714 64.0996 203.17 72.7363C209.712 81.2858 212.984 93.1504 212.984 108.33C212.984 125.952 208.709 139.038 200.16 147.588C193.966 153.782 185.896 156.879 175.951 156.879C163.999 156.879 154.839 152.561 148.47 143.924C142.102 135.2 138.918 123.335 138.918 108.33C138.918 93.3249 142.102 81.5039 148.47 72.8672C154.839 64.1432 163.912 59.7812 175.689 59.7812ZM197.935 108.33C197.935 94.8079 195.013 85.1243 189.168 79.2793C185.678 75.7897 181.272 74.0449 175.951 74.0449C169.059 74.0449 163.65 77.0111 159.724 82.9434C155.886 88.7884 153.966 97.2507 153.966 108.33C153.966 121.939 156.889 131.667 162.734 137.512C166.224 141.001 170.629 142.746 175.951 142.746C182.843 142.746 188.208 139.824 192.046 133.979C195.972 128.046 197.935 119.497 197.935 108.33ZM251.169 59.7812C263.033 59.7812 272.193 64.0996 278.649 72.7363C285.192 81.2858 288.464 93.1504 288.464 108.33C288.464 125.952 284.189 139.038 275.639 147.588C269.445 153.782 261.376 156.879 251.43 156.879C239.479 156.879 230.318 152.561 223.95 143.924C217.581 135.2 214.397 123.335 214.397 108.33C214.397 93.3249 217.581 81.5039 223.95 72.8672C230.318 64.1432 239.391 59.7812 251.169 59.7812ZM273.415 108.33C273.415 94.8079 270.492 85.1243 264.647 79.2793C261.158 75.7897 256.752 74.0449 251.43 74.0449C244.539 74.0449 239.13 77.0111 235.204 82.9434C231.365 88.7884 229.446 97.2507 229.446 108.33C229.446 121.939 232.369 131.667 238.214 137.512C241.703 141.001 246.109 142.746 251.43 142.746C258.322 142.746 263.688 139.824 267.526 133.979C271.452 128.046 273.415 119.497 273.415 108.33ZM326.648 59.7812C338.513 59.7812 347.673 64.0996 354.129 72.7363C360.672 81.2858 363.943 93.1504 363.943 108.33C363.943 125.952 359.669 139.038 351.119 147.588C344.925 153.782 336.855 156.879 326.91 156.879C314.958 156.879 305.798 152.561 299.43 143.924C293.061 135.2 289.877 123.335 289.877 108.33C289.877 93.3249 293.061 81.5039 299.43 72.8672C305.798 64.1432 314.871 59.7812 326.648 59.7812ZM348.895 108.33C348.895 94.8079 345.972 85.1243 340.127 79.2793C336.637 75.7897 332.232 74.0449 326.91 74.0449C320.018 74.0449 314.609 77.0111 310.684 82.9434C306.845 88.7884 304.926 97.2507 304.926 108.33C304.926 121.939 307.848 131.667 313.693 137.512C317.183 141.001 321.589 142.746 326.91 142.746C333.802 142.746 339.167 139.824 343.006 133.979C346.932 128.046 348.895 119.497 348.895 108.33Z" fill="url(#paint1_linear_12860_52133)" fill-opacity="0.3"/>
<path d="M50.3781 136.596L52.2207 133.045L52.0462 132.955L51.8637 132.882L50.3781 136.596ZM90.6828 136.465L87.9027 133.589L87.861 133.629L87.8205 133.671L90.6828 136.465ZM89.6359 113.434L86.9735 116.419L87.0159 116.457L87.0594 116.493L89.6359 113.434ZM56.5285 114.611L58.3174 118.189L58.4897 118.103L58.653 118L56.5285 114.611ZM54.9582 115.396L53.1693 111.819L53.054 111.876L52.9427 111.941L54.9582 115.396ZM43.4426 113.303L40.6141 116.131L43.4426 113.303ZM41.218 103.75L37.274 103.083L37.2572 103.182L37.2454 103.283L41.218 103.75ZM47.1066 68.9414L51.0506 69.6086L51.0556 69.5792L51.0601 69.5496L47.1066 68.9414ZM49.8547 63.3145L47.1082 60.4064L47.0666 60.4456L47.0262 60.486L49.8547 63.3145ZM102.722 73.2598L105.463 76.1726L105.507 76.131L105.55 76.0882L102.722 73.2598ZM60.8469 76.5312L56.9245 75.7468L56.9066 75.8363L56.8928 75.9265L60.8469 76.5312ZM57.4445 98.7773L53.4905 98.1726L52.3777 105.448L59.0881 102.424L57.4445 98.7773ZM104.161 106.891L100.871 109.166L100.878 109.175L100.884 109.184L104.161 106.891ZM99.843 148.504L102.46 151.529L102.463 151.527L99.843 148.504ZM43.4426 149.027L41.2238 152.356L41.2648 152.383L41.3066 152.409L43.4426 149.027ZM40.9562 146.672L37.4447 148.587L37.5514 148.783L37.6793 148.966L40.9562 146.672ZM44.1711 143.008C44.1711 141.684 44.5367 141.028 44.9624 140.602L39.3055 134.945C37.114 137.137 36.1711 139.97 36.1711 143.008H44.1711ZM44.9624 140.602C45.4903 140.074 46.0734 139.811 46.9758 139.811V131.811C44.0396 131.811 41.3948 132.856 39.3055 134.945L44.9624 140.602ZM46.9758 139.811C47.2469 139.811 47.8547 139.894 48.8926 140.31L51.8637 132.882C50.2843 132.25 48.6239 131.811 46.9758 131.811V139.811ZM48.5355 140.146C55.8993 143.968 63.2883 145.961 70.6613 145.961V137.961C64.7739 137.961 58.6408 136.377 52.2207 133.045L48.5355 140.146ZM70.6613 145.961C80.6375 145.961 88.7702 144.15 93.5451 139.259L87.8205 133.671C85.4417 136.107 80.2268 137.961 70.6613 137.961V145.961ZM93.4629 139.341C97.1239 135.802 98.6086 130.792 98.6086 125.08H90.6086C90.6086 129.488 89.476 132.068 87.9027 133.589L93.4629 139.341ZM98.6086 125.08C98.6086 119.122 96.5688 114.042 92.2125 110.374L87.0594 116.493C89.3333 118.408 90.6086 121.093 90.6086 125.08H98.6086ZM92.2984 110.448C88.1036 106.707 82.4431 105.115 75.8957 105.115V113.115C81.2129 113.115 84.7125 114.402 86.9735 116.419L92.2984 110.448ZM75.8957 105.115C68.0971 105.115 60.9019 107.149 54.404 111.222L58.653 118C63.8452 114.746 69.5615 113.115 75.8957 113.115V105.115ZM56.5285 114.611C54.7396 111.034 54.7396 111.034 54.7396 111.034C54.7396 111.034 54.7396 111.034 54.7396 111.034C54.7396 111.034 54.7396 111.034 54.7396 111.034C54.7396 111.034 54.7396 111.034 54.7396 111.034C54.7395 111.034 54.7395 111.034 54.7395 111.034C54.7395 111.034 54.7395 111.034 54.7394 111.034C54.7394 111.034 54.7394 111.034 54.7394 111.034C54.7393 111.034 54.7393 111.034 54.7393 111.034C54.7392 111.034 54.7392 111.034 54.7392 111.034C54.7391 111.034 54.7391 111.034 54.7391 111.034C54.739 111.034 54.739 111.034 54.7389 111.034C54.7389 111.034 54.7388 111.034 54.7388 111.034C54.7387 111.034 54.7387 111.034 54.7386 111.034C54.7386 111.034 54.7385 111.034 54.7385 111.034C54.7384 111.034 54.7384 111.034 54.7383 111.034C54.7382 111.034 54.7382 111.034 54.7381 111.034C54.7381 111.034 54.738 111.034 54.7379 111.034C54.7378 111.035 54.7378 111.035 54.7377 111.035C54.7376 111.035 54.7376 111.035 54.7375 111.035C54.7374 111.035 54.7373 111.035 54.7373 111.035C54.7372 111.035 54.7371 111.035 54.737 111.035C54.7369 111.035 54.7368 111.035 54.7367 111.035C54.7367 111.035 54.7366 111.035 54.7365 111.035C54.7364 111.035 54.7363 111.035 54.7362 111.035C54.7361 111.035 54.736 111.035 54.7359 111.035C54.7358 111.036 54.7357 111.036 54.7356 111.036C54.7355 111.036 54.7354 111.036 54.7353 111.036C54.7352 111.036 54.7351 111.036 54.735 111.036C54.7348 111.036 54.7347 111.036 54.7346 111.036C54.7345 111.036 54.7344 111.036 54.7343 111.036C54.7341 111.036 54.734 111.036 54.7339 111.036C54.7338 111.037 54.7336 111.037 54.7335 111.037C54.7334 111.037 54.7333 111.037 54.7331 111.037C54.733 111.037 54.7329 111.037 54.7327 111.037C54.7326 111.037 54.7325 111.037 54.7323 111.037C54.7322 111.037 54.732 111.037 54.7319 111.038C54.7317 111.038 54.7316 111.038 54.7314 111.038C54.7313 111.038 54.7312 111.038 54.731 111.038C54.7308 111.038 54.7307 111.038 54.7305 111.038C54.7304 111.038 54.7302 111.038 54.7301 111.038C54.7299 111.038 54.7297 111.039 54.7296 111.039C54.7294 111.039 54.7292 111.039 54.7291 111.039C54.7289 111.039 54.7287 111.039 54.7286 111.039C54.7284 111.039 54.7282 111.039 54.7281 111.039C54.7279 111.04 54.7277 111.04 54.7275 111.04C54.7273 111.04 54.7272 111.04 54.727 111.04C54.7268 111.04 54.7266 111.04 54.7264 111.04C54.7262 111.04 54.726 111.04 54.7258 111.041C54.7257 111.041 54.7255 111.041 54.7253 111.041C54.7251 111.041 54.7249 111.041 54.7247 111.041C54.7245 111.041 54.7243 111.041 54.7241 111.041C54.7239 111.042 54.7237 111.042 54.7235 111.042C54.7232 111.042 54.723 111.042 54.7228 111.042C54.7226 111.042 54.7224 111.042 54.7222 111.042C54.722 111.042 54.7217 111.043 54.7215 111.043C54.7213 111.043 54.7211 111.043 54.7209 111.043C54.7206 111.043 54.7204 111.043 54.7202 111.043C54.72 111.043 54.7197 111.044 54.7195 111.044C54.7193 111.044 54.719 111.044 54.7188 111.044C54.7186 111.044 54.7183 111.044 54.7181 111.044C54.7178 111.045 54.7176 111.045 54.7174 111.045C54.7171 111.045 54.7169 111.045 54.7166 111.045C54.7164 111.045 54.7161 111.045 54.7159 111.046C54.7156 111.046 54.7154 111.046 54.7151 111.046C54.7149 111.046 54.7146 111.046 54.7143 111.046C54.7141 111.046 54.7138 111.047 54.7136 111.047C54.7133 111.047 54.713 111.047 54.7128 111.047C54.7125 111.047 54.7122 111.047 54.712 111.047C54.7117 111.048 54.7114 111.048 54.7111 111.048C54.7109 111.048 54.7106 111.048 54.7103 111.048C54.71 111.048 54.7097 111.049 54.7095 111.049C54.7092 111.049 54.7089 111.049 54.7086 111.049C54.7083 111.049 54.708 111.049 54.7077 111.05C54.7074 111.05 54.7071 111.05 54.7068 111.05C54.7066 111.05 54.7063 111.05 54.706 111.05C54.7057 111.051 54.7054 111.051 54.705 111.051C54.7047 111.051 54.7044 111.051 54.7041 111.051C54.7038 111.052 54.7035 111.052 54.7032 111.052C54.7029 111.052 54.7026 111.052 54.7023 111.052C54.7019 111.052 54.7016 111.053 54.7013 111.053C54.701 111.053 54.7007 111.053 54.7003 111.053C54.7 111.053 54.6997 111.054 54.6994 111.054C54.699 111.054 54.6987 111.054 54.6984 111.054C54.6981 111.054 54.6977 111.055 54.6974 111.055C54.697 111.055 54.6967 111.055 54.6964 111.055C54.696 111.055 54.6957 111.056 54.6953 111.056C54.695 111.056 54.6947 111.056 54.6943 111.056C54.694 111.056 54.6936 111.057 54.6933 111.057C54.6929 111.057 54.6926 111.057 54.6922 111.057C54.6918 111.058 54.6915 111.058 54.6911 111.058C54.6908 111.058 54.6904 111.058 54.69 111.058C54.6897 111.059 54.6893 111.059 54.6889 111.059C54.6886 111.059 54.6882 111.059 54.6878 111.06C54.6875 111.06 54.6871 111.06 54.6867 111.06C54.6863 111.06 54.686 111.06 54.6856 111.061C54.6852 111.061 54.6848 111.061 54.6844 111.061C54.6841 111.061 54.6837 111.062 54.6833 111.062C54.6829 111.062 54.6825 111.062 54.6821 111.062C54.6817 111.063 54.6813 111.063 54.6809 111.063C54.6805 111.063 54.6801 111.063 54.6797 111.064C54.6793 111.064 54.6789 111.064 54.6785 111.064C54.6781 111.064 54.6777 111.065 54.6773 111.065C54.6769 111.065 54.6765 111.065 54.6761 111.065C54.6757 111.066 54.6753 111.066 54.6749 111.066C54.6744 111.066 54.674 111.066 54.6736 111.067C54.6732 111.067 54.6728 111.067 54.6723 111.067C54.6719 111.067 54.6715 111.068 54.6711 111.068C54.6706 111.068 54.6702 111.068 54.6698 111.069C54.6693 111.069 54.6689 111.069 54.6685 111.069C54.668 111.069 54.6676 111.07 54.6672 111.07C54.6667 111.07 54.6663 111.07 54.6658 111.071C54.6654 111.071 54.665 111.071 54.6645 111.071C54.6641 111.071 54.6636 111.072 54.6632 111.072C54.6627 111.072 54.6623 111.072 54.6618 111.073C54.6613 111.073 54.6609 111.073 54.6604 111.073C54.66 111.073 54.6595 111.074 54.659 111.074C54.6586 111.074 54.6581 111.074 54.6576 111.075C54.6572 111.075 54.6567 111.075 54.6562 111.075C54.6558 111.076 54.6553 111.076 54.6548 111.076C54.6543 111.076 54.6539 111.077 54.6534 111.077C54.6529 111.077 54.6524 111.077 54.6519 111.077C54.6515 111.078 54.651 111.078 54.6505 111.078C54.65 111.078 54.6495 111.079 54.649 111.079C54.6485 111.079 54.648 111.079 54.6475 111.08C54.647 111.08 54.6466 111.08 54.6461 111.08C54.6456 111.081 54.6451 111.081 54.6445 111.081C54.644 111.081 54.6435 111.082 54.643 111.082C54.6425 111.082 54.642 111.082 54.6415 111.083C54.641 111.083 54.6405 111.083 54.64 111.083C54.6394 111.084 54.6389 111.084 54.6384 111.084C54.6379 111.084 54.6374 111.085 54.6369 111.085C54.6363 111.085 54.6358 111.086 54.6353 111.086C54.6347 111.086 54.6342 111.086 54.6337 111.087C54.6332 111.087 54.6326 111.087 54.6321 111.087C54.6316 111.088 54.631 111.088 54.6305 111.088C54.6299 111.088 54.6294 111.089 54.6289 111.089C54.6283 111.089 54.6278 111.09 54.6272 111.09C54.6267 111.09 54.6261 111.09 54.6256 111.091C54.625 111.091 54.6245 111.091 54.6239 111.091C54.6234 111.092 54.6228 111.092 54.6222 111.092C54.6217 111.093 54.6211 111.093 54.6206 111.093C54.62 111.093 54.6194 111.094 54.6189 111.094C54.6183 111.094 54.6177 111.095 54.6172 111.095C54.6166 111.095 54.616 111.095 54.6154 111.096C54.6149 111.096 54.6143 111.096 54.6137 111.097C54.6131 111.097 54.6125 111.097 54.612 111.097C54.6114 111.098 54.6108 111.098 54.6102 111.098C54.6096 111.099 54.609 111.099 54.6084 111.099C54.6078 111.1 54.6073 111.1 54.6067 111.1C54.6061 111.1 54.6055 111.101 54.6049 111.101C54.6043 111.101 54.6037 111.102 54.6031 111.102C54.6025 111.102 54.6019 111.103 54.6012 111.103C54.6006 111.103 54.6 111.103 54.5994 111.104C54.5988 111.104 54.5982 111.104 54.5976 111.105C54.597 111.105 54.5964 111.105 54.5957 111.106C54.5951 111.106 54.5945 111.106 54.5939 111.107C54.5932 111.107 54.5926 111.107 54.592 111.107C54.5914 111.108 54.5907 111.108 54.5901 111.108C54.5895 111.109 54.5888 111.109 54.5882 111.109C54.5876 111.11 54.5869 111.11 54.5863 111.11C54.5857 111.111 54.585 111.111 54.5844 111.111C54.5837 111.112 54.5831 111.112 54.5824 111.112C54.5818 111.113 54.5811 111.113 54.5805 111.113C54.5798 111.114 54.5792 111.114 54.5785 111.114C54.5779 111.115 54.5772 111.115 54.5766 111.115C54.5759 111.115 54.5752 111.116 54.5746 111.116C54.5739 111.116 54.5733 111.117 54.5726 111.117C54.5719 111.117 54.5713 111.118 54.5706 111.118C54.5699 111.118 54.5692 111.119 54.5686 111.119C54.5679 111.12 54.5672 111.12 54.5665 111.12C54.5659 111.121 54.5652 111.121 54.5645 111.121C54.5638 111.122 54.5631 111.122 54.5624 111.122C54.5617 111.123 54.5611 111.123 54.5604 111.123C54.5597 111.124 54.559 111.124 54.5583 111.124C54.5576 111.125 54.5569 111.125 54.5562 111.125C54.5555 111.126 54.5548 111.126 54.5541 111.126C54.5534 111.127 54.5527 111.127 54.552 111.127C54.5513 111.128 54.5506 111.128 54.5499 111.129C54.5491 111.129 54.5484 111.129 54.5477 111.13C54.547 111.13 54.5463 111.13 54.5456 111.131C54.5448 111.131 54.5441 111.131 54.5434 111.132C54.5427 111.132 54.542 111.132 54.5412 111.133C54.5405 111.133 54.5398 111.134 54.539 111.134C54.5383 111.134 54.5376 111.135 54.5368 111.135C54.5361 111.135 54.5354 111.136 54.5346 111.136C54.5339 111.136 54.5332 111.137 54.5324 111.137C54.5317 111.138 54.5309 111.138 54.5302 111.138C54.5294 111.139 54.5287 111.139 54.5279 111.139C54.5272 111.14 54.5264 111.14 54.5257 111.141C54.5249 111.141 54.5242 111.141 54.5234 111.142C54.5226 111.142 54.5219 111.143 54.5211 111.143C54.5204 111.143 54.5196 111.144 54.5188 111.144C54.5181 111.144 54.5173 111.145 54.5165 111.145C54.5157 111.146 54.515 111.146 54.5142 111.146C54.5134 111.147 54.5126 111.147 54.5119 111.148C54.5111 111.148 54.5103 111.148 54.5095 111.149C54.5087 111.149 54.508 111.149 54.5072 111.15C54.5064 111.15 54.5056 111.151 54.5048 111.151C54.504 111.151 54.5032 111.152 54.5024 111.152C54.5016 111.153 54.5008 111.153 54.5 111.153C54.4992 111.154 54.4984 111.154 54.4976 111.155C54.4968 111.155 54.496 111.155 54.4952 111.156C54.4944 111.156 54.4936 111.157 54.4928 111.157C54.492 111.157 54.4912 111.158 54.4904 111.158C54.4895 111.159 54.4887 111.159 54.4879 111.159C54.4871 111.16 54.4863 111.16 54.4854 111.161C54.4846 111.161 54.4838 111.162 54.483 111.162C54.4821 111.162 54.4813 111.163 54.4805 111.163C54.4797 111.164 54.4788 111.164 54.478 111.164C54.4772 111.165 54.4763 111.165 54.4755 111.166C54.4746 111.166 54.4738 111.167 54.473 111.167C54.4721 111.167 54.4713 111.168 54.4704 111.168C54.4696 111.169 54.4687 111.169 54.4679 111.17C54.467 111.17 54.4662 111.17 54.4653 111.171C54.4645 111.171 54.4636 111.172 54.4627 111.172C54.4619 111.172 54.461 111.173 54.4602 111.173C54.4593 111.174 54.4584 111.174 54.4576 111.175C54.4567 111.175 54.4558 111.176 54.455 111.176C54.4541 111.176 54.4532 111.177 54.4523 111.177C54.4515 111.178 54.4506 111.178 54.4497 111.179C54.4488 111.179 54.448 111.179 54.4471 111.18C54.4462 111.18 54.4453 111.181 54.4444 111.181C54.4435 111.182 54.4426 111.182 54.4418 111.183C54.4409 111.183 54.44 111.183 54.4391 111.184C54.4382 111.184 54.4373 111.185 54.4364 111.185C54.4355 111.186 54.4346 111.186 54.4337 111.187C54.4328 111.187 54.4319 111.188 54.431 111.188C54.4301 111.188 54.4292 111.189 54.4283 111.189C54.4273 111.19 54.4264 111.19 54.4255 111.191C54.4246 111.191 54.4237 111.192 54.4228 111.192C54.4218 111.193 54.4209 111.193 54.42 111.193C54.4191 111.194 54.4182 111.194 54.4172 111.195C54.4163 111.195 54.4154 111.196 54.4144 111.196C54.4135 111.197 54.4126 111.197 54.4116 111.198C54.4107 111.198 54.4098 111.199 54.4088 111.199C54.4079 111.199 54.407 111.2 54.406 111.2C54.4051 111.201 54.4041 111.201 54.4032 111.202C54.4022 111.202 54.4013 111.203 54.4003 111.203C54.3994 111.204 54.3984 111.204 54.3975 111.205C54.3965 111.205 54.3956 111.206 54.3946 111.206C54.3937 111.207 54.3927 111.207 54.3917 111.208C54.3908 111.208 54.3898 111.209 54.3888 111.209C54.3879 111.21 54.3869 111.21 54.3859 111.21C54.385 111.211 54.384 111.211 54.383 111.212C54.382 111.212 54.3811 111.213 54.3801 111.213C54.3791 111.214 54.3781 111.214 54.3771 111.215C54.3762 111.215 54.3752 111.216 54.3742 111.216C54.3732 111.217 54.3722 111.217 54.3712 111.218C54.3702 111.218 54.3692 111.219 54.3682 111.219C54.3673 111.22 54.3663 111.22 54.3653 111.221C54.3643 111.221 54.3633 111.222 54.3623 111.222C54.3613 111.223 54.3602 111.223 54.3592 111.224C54.3582 111.224 54.3572 111.225 54.3562 111.225C54.3552 111.226 54.3542 111.226 54.3532 111.227C54.3522 111.227 54.3512 111.228 54.3501 111.228C54.3491 111.229 54.3481 111.229 54.3471 111.23C54.346 111.23 54.345 111.231 54.344 111.231C54.343 111.232 54.3419 111.232 54.3409 111.233C54.3399 111.234 54.3389 111.234 54.3378 111.235C54.3368 111.235 54.3357 111.236 54.3347 111.236C54.3337 111.237 54.3326 111.237 54.3316 111.238C54.3305 111.238 54.3295 111.239 54.3285 111.239C54.3274 111.24 54.3264 111.24 54.3253 111.241C54.3243 111.241 54.3232 111.242 54.3222 111.242C54.3211 111.243 54.32 111.243 54.319 111.244C54.3179 111.244 54.3169 111.245 54.3158 111.246C54.3147 111.246 54.3137 111.247 54.3126 111.247C54.3115 111.248 54.3105 111.248 54.3094 111.249C54.3083 111.249 54.3073 111.25 54.3062 111.25C54.3051 111.251 54.304 111.251 54.303 111.252C54.3019 111.253 54.3008 111.253 54.2997 111.254C54.2986 111.254 54.2976 111.255 54.2965 111.255C54.2954 111.256 54.2943 111.256 54.2932 111.257C54.2921 111.257 54.291 111.258 54.2899 111.258C54.2888 111.259 54.2877 111.26 54.2866 111.26C54.2855 111.261 54.2844 111.261 54.2833 111.262C54.2822 111.262 54.2811 111.263 54.28 111.263C54.2789 111.264 54.2778 111.265 54.2767 111.265C54.2756 111.266 54.2745 111.266 54.2734 111.267C54.2722 111.267 54.2711 111.268 54.27 111.268C54.2689 111.269 54.2678 111.27 54.2667 111.27C54.2655 111.271 54.2644 111.271 54.2633 111.272C54.2622 111.272 54.261 111.273 54.2599 111.273C54.2588 111.274 54.2576 111.275 54.2565 111.275C54.2554 111.276 54.2542 111.276 54.2531 111.277C54.252 111.277 54.2508 111.278 54.2497 111.279C54.2485 111.279 54.2474 111.28 54.2462 111.28C54.2451 111.281 54.2439 111.281 54.2428 111.282C54.2416 111.283 54.2405 111.283 54.2393 111.284C54.2382 111.284 54.237 111.285 54.2359 111.286C54.2347 111.286 54.2335 111.287 54.2324 111.287C54.2312 111.288 54.2301 111.288 54.2289 111.289C54.2277 111.29 54.2266 111.29 54.2254 111.291C54.2242 111.291 54.223 111.292 54.2219 111.293C54.2207 111.293 54.2195 111.294 54.2183 111.294C54.2172 111.295 54.216 111.295 54.2148 111.296C54.2136 111.297 54.2124 111.297 54.2113 111.298C54.2101 111.298 54.2089 111.299 54.2077 111.3C54.2065 111.3 54.2053 111.301 54.2041 111.301C54.2029 111.302 54.2017 111.303 54.2005 111.303C54.1993 111.304 54.1981 111.304 54.1969 111.305C54.1957 111.306 54.1945 111.306 54.1933 111.307C54.1921 111.307 54.1909 111.308 54.1897 111.309C54.1885 111.309 54.1873 111.31 54.1861 111.31C54.1848 111.311 54.1836 111.312 54.1824 111.312C54.1812 111.313 54.18 111.313 54.1787 111.314C54.1775 111.315 54.1763 111.315 54.1751 111.316C54.1738 111.317 54.1726 111.317 54.1714 111.318C54.1702 111.318 54.1689 111.319 54.1677 111.32C54.1665 111.32 54.1652 111.321 54.164 111.321C54.1627 111.322 54.1615 111.323 54.1603 111.323C54.159 111.324 54.1578 111.325 54.1565 111.325C54.1553 111.326 54.154 111.326 54.1528 111.327C54.1515 111.328 54.1503 111.328 54.149 111.329C54.1478 111.33 54.1465 111.33 54.1453 111.331C54.144 111.331 54.1427 111.332 54.1415 111.333C54.1402 111.333 54.139 111.334 54.1377 111.335C54.1364 111.335 54.1352 111.336 54.1339 111.336C54.1326 111.337 54.1313 111.338 54.1301 111.338C54.1288 111.339 54.1275 111.34 54.1262 111.34C54.125 111.341 54.1237 111.342 54.1224 111.342C54.1211 111.343 54.1198 111.344 54.1186 111.344C54.1173 111.345 54.116 111.345 54.1147 111.346C54.1134 111.347 54.1121 111.347 54.1108 111.348C54.1095 111.349 54.1082 111.349 54.1069 111.35C54.1056 111.351 54.1043 111.351 54.103 111.352C54.1017 111.353 54.1004 111.353 54.0991 111.354C54.0978 111.355 54.0965 111.355 54.0952 111.356C54.0939 111.357 54.0926 111.357 54.0913 111.358C54.0899 111.358 54.0886 111.359 54.0873 111.36C54.086 111.36 54.0847 111.361 54.0833 111.362C54.082 111.362 54.0807 111.363 54.0794 111.364C54.0781 111.364 54.0767 111.365 54.0754 111.366C54.0741 111.366 54.0727 111.367 54.0714 111.368C54.0701 111.368 54.0687 111.369 54.0674 111.37C54.0661 111.37 54.0647 111.371 54.0634 111.372C54.062 111.372 54.0607 111.373 54.0593 111.374C54.058 111.374 54.0566 111.375 54.0553 111.376C54.0539 111.376 54.0526 111.377 54.0512 111.378C54.0499 111.378 54.0485 111.379 54.0472 111.38C54.0458 111.381 54.0445 111.381 54.0431 111.382C54.0417 111.383 54.0404 111.383 54.039 111.384C54.0376 111.385 54.0363 111.385 54.0349 111.386C54.0335 111.387 54.0322 111.387 54.0308 111.388C54.0294 111.389 54.028 111.389 54.0267 111.39C54.0253 111.391 54.0239 111.391 54.0225 111.392C54.0211 111.393 54.0198 111.394 54.0184 111.394C54.017 111.395 54.0156 111.396 54.0142 111.396C54.0128 111.397 54.0114 111.398 54.01 111.398C54.0086 111.399 54.0072 111.4 54.0058 111.401C54.0044 111.401 54.003 111.402 54.0016 111.403C54.0002 111.403 53.9988 111.404 53.9974 111.405C53.996 111.405 53.9946 111.406 53.9932 111.407C53.9918 111.408 53.9904 111.408 53.989 111.409C53.9876 111.41 53.9861 111.41 53.9847 111.411C53.9833 111.412 53.9819 111.412 53.9805 111.413C53.979 111.414 53.9776 111.415 53.9762 111.415C53.9748 111.416 53.9733 111.417 53.9719 111.417C53.9705 111.418 53.9691 111.419 53.9676 111.42C53.9662 111.42 53.9647 111.421 53.9633 111.422C53.9619 111.423 53.9604 111.423 53.959 111.424C53.9575 111.425 53.9561 111.425 53.9547 111.426C53.9532 111.427 53.9518 111.428 53.9503 111.428C53.9489 111.429 53.9474 111.43 53.946 111.43C53.9445 111.431 53.9431 111.432 53.9416 111.433C53.9401 111.433 53.9387 111.434 53.9372 111.435C53.9358 111.436 53.9343 111.436 53.9328 111.437C53.9314 111.438 53.9299 111.438 53.9284 111.439C53.927 111.44 53.9255 111.441 53.924 111.441C53.9225 111.442 53.9211 111.443 53.9196 111.444C53.9181 111.444 53.9166 111.445 53.9151 111.446C53.9137 111.447 53.9122 111.447 53.9107 111.448C53.9092 111.449 53.9077 111.45 53.9062 111.45C53.9047 111.451 53.9032 111.452 53.9018 111.453C53.9003 111.453 53.8988 111.454 53.8973 111.455C53.8958 111.456 53.8943 111.456 53.8928 111.457C53.8913 111.458 53.8898 111.459 53.8883 111.459C53.8868 111.46 53.8852 111.461 53.8837 111.462C53.8822 111.462 53.8807 111.463 53.8792 111.464C53.8777 111.465 53.8762 111.465 53.8747 111.466C53.8731 111.467 53.8716 111.468 53.8701 111.468C53.8686 111.469 53.8671 111.47 53.8655 111.471C53.864 111.471 53.8625 111.472 53.8609 111.473C53.8594 111.474 53.8579 111.475 53.8563 111.475C53.8548 111.476 53.8533 111.477 53.8517 111.478C53.8502 111.478 53.8487 111.479 53.8471 111.48C53.8456 111.481 53.844 111.481 53.8425 111.482C53.8409 111.483 53.8394 111.484 53.8379 111.485C53.8363 111.485 53.8347 111.486 53.8332 111.487C53.8316 111.488 53.8301 111.488 53.8285 111.489C53.827 111.49 53.8254 111.491 53.8239 111.492C53.8223 111.492 53.8207 111.493 53.8192 111.494C53.8176 111.495 53.816 111.495 53.8145 111.496C53.8129 111.497 53.8113 111.498 53.8097 111.499C53.8082 111.499 53.8066 111.5 53.805 111.501C53.8034 111.502 53.8019 111.503 53.8003 111.503C53.7987 111.504 53.7971 111.505 53.7955 111.506C53.7939 111.506 53.7924 111.507 53.7908 111.508C53.7892 111.509 53.7876 111.51 53.786 111.51C53.7844 111.511 53.7828 111.512 53.7812 111.513C53.7796 111.514 53.778 111.514 53.7764 111.515C53.7748 111.516 53.7732 111.517 53.7716 111.518C53.77 111.518 53.7684 111.519 53.7668 111.52C53.7652 111.521 53.7636 111.522 53.7619 111.522C53.7603 111.523 53.7587 111.524 53.7571 111.525C53.7555 111.526 53.7539 111.527 53.7522 111.527C53.7506 111.528 53.749 111.529 53.7474 111.53C53.7457 111.531 53.7441 111.531 53.7425 111.532C53.7409 111.533 53.7392 111.534 53.7376 111.535C53.736 111.535 53.7343 111.536 53.7327 111.537C53.731 111.538 53.7294 111.539 53.7278 111.54C53.7261 111.54 53.7245 111.541 53.7228 111.542C53.7212 111.543 53.7195 111.544 53.7179 111.544C53.7162 111.545 53.7146 111.546 53.7129 111.547C53.7113 111.548 53.7096 111.549 53.708 111.549C53.7063 111.55 53.7047 111.551 53.703 111.552C53.7013 111.553 53.6997 111.554 53.698 111.554C53.6963 111.555 53.6947 111.556 53.693 111.557C53.6913 111.558 53.6897 111.559 53.688 111.559C53.6863 111.56 53.6846 111.561 53.683 111.562C53.6813 111.563 53.6796 111.564 53.6779 111.564C53.6762 111.565 53.6746 111.566 53.6729 111.567C53.6712 111.568 53.6695 111.569 53.6678 111.57C53.6661 111.57 53.6644 111.571 53.6627 111.572C53.661 111.573 53.6594 111.574 53.6577 111.575C53.656 111.575 53.6543 111.576 53.6526 111.577C53.6509 111.578 53.6492 111.579 53.6474 111.58C53.6457 111.581 53.644 111.581 53.6423 111.582C53.6406 111.583 53.6389 111.584 53.6372 111.585C53.6355 111.586 53.6338 111.587 53.632 111.587C53.6303 111.588 53.6286 111.589 53.6269 111.59C53.6252 111.591 53.6234 111.592 53.6217 111.593C53.62 111.593 53.6183 111.594 53.6165 111.595C53.6148 111.596 53.6131 111.597 53.6113 111.598C53.6096 111.599 53.6079 111.6 53.6061 111.6C53.6044 111.601 53.6027 111.602 53.6009 111.603C53.5992 111.604 53.5974 111.605 53.5957 111.606C53.5939 111.606 53.5922 111.607 53.5905 111.608C53.5887 111.609 53.587 111.61 53.5852 111.611C53.5834 111.612 53.5817 111.613 53.5799 111.613C53.5782 111.614 53.5764 111.615 53.5747 111.616C53.5729 111.617 53.5711 111.618 53.5694 111.619C53.5676 111.62 53.5658 111.621 53.5641 111.621C53.5623 111.622 53.5605 111.623 53.5588 111.624C53.557 111.625 53.5552 111.626 53.5534 111.627C53.5516 111.628 53.5499 111.629 53.5481 111.629C53.5463 111.63 53.5445 111.631 53.5427 111.632C53.541 111.633 53.5392 111.634 53.5374 111.635C53.5356 111.636 53.5338 111.637 53.532 111.637C53.5302 111.638 53.5284 111.639 53.5266 111.64C53.5248 111.641 53.523 111.642 53.5212 111.643C53.5194 111.644 53.5176 111.645 53.5158 111.646C53.514 111.646 53.5122 111.647 53.5104 111.648C53.5086 111.649 53.5068 111.65 53.505 111.651C53.5031 111.652 53.5013 111.653 53.4995 111.654C53.4977 111.655 53.4959 111.656 53.4941 111.656C53.4922 111.657 53.4904 111.658 53.4886 111.659C53.4868 111.66 53.4849 111.661 53.4831 111.662C53.4813 111.663 53.4794 111.664 53.4776 111.665C53.4758 111.666 53.4739 111.666 53.4721 111.667C53.4703 111.668 53.4684 111.669 53.4666 111.67C53.4648 111.671 53.4629 111.672 53.4611 111.673C53.4592 111.674 53.4574 111.675 53.4555 111.676C53.4537 111.677 53.4518 111.678 53.45 111.678C53.4481 111.679 53.4463 111.68 53.4444 111.681C53.4425 111.682 53.4407 111.683 53.4388 111.684C53.437 111.685 53.4351 111.686 53.4332 111.687C53.4314 111.688 53.4295 111.689 53.4276 111.69C53.4258 111.691 53.4239 111.691 53.422 111.692C53.4202 111.693 53.4183 111.694 53.4164 111.695C53.4145 111.696 53.4126 111.697 53.4108 111.698C53.4089 111.699 53.407 111.7 53.4051 111.701C53.4032 111.702 53.4013 111.703 53.3995 111.704C53.3976 111.705 53.3957 111.706 53.3938 111.707C53.3919 111.708 53.39 111.708 53.3881 111.709C53.3862 111.71 53.3843 111.711 53.3824 111.712C53.3805 111.713 53.3786 111.714 53.3767 111.715C53.3748 111.716 53.3729 111.717 53.371 111.718C53.3691 111.719 53.3671 111.72 53.3652 111.721C53.3633 111.722 53.3614 111.723 53.3595 111.724C53.3576 111.725 53.3557 111.726 53.3537 111.727C53.3518 111.728 53.3499 111.728 53.348 111.729C53.346 111.73 53.3441 111.731 53.3422 111.732C53.3403 111.733 53.3383 111.734 53.3364 111.735C53.3345 111.736 53.3325 111.737 53.3306 111.738C53.3287 111.739 53.3267 111.74 53.3248 111.741C53.3228 111.742 53.3209 111.743 53.3189 111.744C53.317 111.745 53.3151 111.746 53.3131 111.747C53.3112 111.748 53.3092 111.749 53.3073 111.75C53.3053 111.751 53.3033 111.752 53.3014 111.753C53.2994 111.754 53.2975 111.755 53.2955 111.756C53.2935 111.757 53.2916 111.758 53.2896 111.759C53.2877 111.76 53.2857 111.761 53.2837 111.762C53.2818 111.763 53.2798 111.764 53.2778 111.765C53.2758 111.766 53.2739 111.767 53.2719 111.768C53.2699 111.768 53.2679 111.769 53.2659 111.77C53.264 111.771 53.262 111.772 53.26 111.773C53.258 111.774 53.256 111.775 53.254 111.776C53.2521 111.777 53.2501 111.778 53.2481 111.779C53.2461 111.78 53.2441 111.781 53.2421 111.782C53.2401 111.783 53.2381 111.784 53.2361 111.785C53.2341 111.786 53.2321 111.787 53.2301 111.788C53.2281 111.789 53.2261 111.79 53.2241 111.791C53.222 111.792 53.22 111.793 53.218 111.794C53.216 111.795 53.214 111.796 53.212 111.797C53.21 111.798 53.2079 111.799 53.2059 111.8C53.2039 111.801 53.2019 111.803 53.1999 111.804C53.1978 111.805 53.1958 111.806 53.1938 111.807C53.1917 111.808 53.1897 111.809 53.1877 111.81C53.1857 111.811 53.1836 111.812 53.1816 111.813C53.1795 111.814 53.1775 111.815 53.1755 111.816C53.1734 111.817 53.1714 111.818 53.1693 111.819L56.747 118.974C56.7491 118.973 56.7511 118.972 56.7532 118.971C56.7552 118.97 56.7573 118.969 56.7593 118.968C56.7613 118.967 56.7634 118.966 56.7654 118.965C56.7674 118.964 56.7695 118.963 56.7715 118.962C56.7735 118.961 56.7755 118.96 56.7776 118.959C56.7796 118.958 56.7816 118.957 56.7836 118.956C56.7857 118.955 56.7877 118.954 56.7897 118.953C56.7917 118.952 56.7937 118.951 56.7957 118.95C56.7977 118.949 56.7998 118.948 56.8018 118.947C56.8038 118.946 56.8058 118.945 56.8078 118.944C56.8098 118.943 56.8118 118.942 56.8138 118.941C56.8158 118.94 56.8178 118.939 56.8198 118.938C56.8218 118.937 56.8238 118.936 56.8258 118.935C56.8278 118.934 56.8298 118.933 56.8317 118.932C56.8337 118.931 56.8357 118.93 56.8377 118.929C56.8397 118.928 56.8417 118.927 56.8437 118.926C56.8456 118.925 56.8476 118.924 56.8496 118.923C56.8516 118.922 56.8535 118.921 56.8555 118.92C56.8575 118.919 56.8595 118.918 56.8614 118.917C56.8634 118.916 56.8654 118.915 56.8673 118.914C56.8693 118.913 56.8713 118.912 56.8732 118.911C56.8752 118.91 56.8771 118.909 56.8791 118.908C56.8811 118.907 56.883 118.906 56.885 118.905C56.8869 118.904 56.8889 118.903 56.8908 118.902C56.8928 118.901 56.8947 118.9 56.8967 118.899C56.8986 118.898 56.9005 118.897 56.9025 118.896C56.9044 118.896 56.9064 118.895 56.9083 118.894C56.9102 118.893 56.9122 118.892 56.9141 118.891C56.916 118.89 56.918 118.889 56.9199 118.888C56.9218 118.887 56.9238 118.886 56.9257 118.885C56.9276 118.884 56.9295 118.883 56.9314 118.882C56.9334 118.881 56.9353 118.88 56.9372 118.879C56.9391 118.878 56.941 118.877 56.9429 118.876C56.9449 118.875 56.9468 118.874 56.9487 118.873C56.9506 118.872 56.9525 118.871 56.9544 118.871C56.9563 118.87 56.9582 118.869 56.9601 118.868C56.962 118.867 56.9639 118.866 56.9658 118.865C56.9677 118.864 56.9696 118.863 56.9715 118.862C56.9734 118.861 56.9753 118.86 56.9772 118.859C56.9791 118.858 56.9809 118.857 56.9828 118.856C56.9847 118.855 56.9866 118.854 56.9885 118.853C56.9904 118.853 56.9922 118.852 56.9941 118.851C56.996 118.85 56.9979 118.849 56.9997 118.848C57.0016 118.847 57.0035 118.846 57.0053 118.845C57.0072 118.844 57.0091 118.843 57.0109 118.842C57.0128 118.841 57.0147 118.84 57.0165 118.839C57.0184 118.839 57.0203 118.838 57.0221 118.837C57.024 118.836 57.0258 118.835 57.0277 118.834C57.0295 118.833 57.0314 118.832 57.0332 118.831C57.0351 118.83 57.0369 118.829 57.0388 118.828C57.0406 118.827 57.0425 118.826 57.0443 118.826C57.0461 118.825 57.048 118.824 57.0498 118.823C57.0517 118.822 57.0535 118.821 57.0553 118.82C57.0572 118.819 57.059 118.818 57.0608 118.817C57.0626 118.816 57.0645 118.815 57.0663 118.815C57.0681 118.814 57.0699 118.813 57.0718 118.812C57.0736 118.811 57.0754 118.81 57.0772 118.809C57.079 118.808 57.0809 118.807 57.0827 118.806C57.0845 118.805 57.0863 118.805 57.0881 118.804C57.0899 118.803 57.0917 118.802 57.0935 118.801C57.0953 118.8 57.0971 118.799 57.0989 118.798C57.1007 118.797 57.1025 118.796 57.1043 118.796C57.1061 118.795 57.1079 118.794 57.1097 118.793C57.1115 118.792 57.1133 118.791 57.1151 118.79C57.1169 118.789 57.1187 118.788 57.1204 118.787C57.1222 118.787 57.124 118.786 57.1258 118.785C57.1276 118.784 57.1294 118.783 57.1311 118.782C57.1329 118.781 57.1347 118.78 57.1365 118.779C57.1382 118.779 57.14 118.778 57.1418 118.777C57.1435 118.776 57.1453 118.775 57.1471 118.774C57.1488 118.773 57.1506 118.772 57.1524 118.772C57.1541 118.771 57.1559 118.77 57.1576 118.769C57.1594 118.768 57.1612 118.767 57.1629 118.766C57.1647 118.765 57.1664 118.765 57.1682 118.764C57.1699 118.763 57.1717 118.762 57.1734 118.761C57.1751 118.76 57.1769 118.759 57.1786 118.758C57.1804 118.758 57.1821 118.757 57.1838 118.756C57.1856 118.755 57.1873 118.754 57.1891 118.753C57.1908 118.752 57.1925 118.751 57.1942 118.751C57.196 118.75 57.1977 118.749 57.1994 118.748C57.2012 118.747 57.2029 118.746 57.2046 118.745C57.2063 118.745 57.208 118.744 57.2098 118.743C57.2115 118.742 57.2132 118.741 57.2149 118.74C57.2166 118.739 57.2183 118.739 57.22 118.738C57.2217 118.737 57.2235 118.736 57.2252 118.735C57.2269 118.734 57.2286 118.733 57.2303 118.733C57.232 118.732 57.2337 118.731 57.2354 118.73C57.2371 118.729 57.2388 118.728 57.2405 118.727C57.2421 118.727 57.2438 118.726 57.2455 118.725C57.2472 118.724 57.2489 118.723 57.2506 118.722C57.2523 118.722 57.254 118.721 57.2556 118.72C57.2573 118.719 57.259 118.718 57.2607 118.717C57.2624 118.717 57.264 118.716 57.2657 118.715C57.2674 118.714 57.269 118.713 57.2707 118.712C57.2724 118.712 57.2741 118.711 57.2757 118.71C57.2774 118.709 57.279 118.708 57.2807 118.707C57.2824 118.707 57.284 118.706 57.2857 118.705C57.2873 118.704 57.289 118.703 57.2907 118.702C57.2923 118.702 57.294 118.701 57.2956 118.7C57.2973 118.699 57.2989 118.698 57.3005 118.697C57.3022 118.697 57.3038 118.696 57.3055 118.695C57.3071 118.694 57.3088 118.693 57.3104 118.693C57.312 118.692 57.3137 118.691 57.3153 118.69C57.3169 118.689 57.3186 118.688 57.3202 118.688C57.3218 118.687 57.3235 118.686 57.3251 118.685C57.3267 118.684 57.3283 118.684 57.3299 118.683C57.3316 118.682 57.3332 118.681 57.3348 118.68C57.3364 118.68 57.338 118.679 57.3397 118.678C57.3413 118.677 57.3429 118.676 57.3445 118.675C57.3461 118.675 57.3477 118.674 57.3493 118.673C57.3509 118.672 57.3525 118.671 57.3541 118.671C57.3557 118.67 57.3573 118.669 57.3589 118.668C57.3605 118.667 57.3621 118.667 57.3637 118.666C57.3653 118.665 57.3669 118.664 57.3685 118.663C57.3701 118.663 57.3717 118.662 57.3732 118.661C57.3748 118.66 57.3764 118.66 57.378 118.659C57.3796 118.658 57.3811 118.657 57.3827 118.656C57.3843 118.656 57.3859 118.655 57.3875 118.654C57.389 118.653 57.3906 118.652 57.3922 118.652C57.3937 118.651 57.3953 118.65 57.3969 118.649C57.3984 118.648 57.4 118.648 57.4016 118.647C57.4031 118.646 57.4047 118.645 57.4062 118.645C57.4078 118.644 57.4094 118.643 57.4109 118.642C57.4125 118.641 57.414 118.641 57.4156 118.64C57.4171 118.639 57.4187 118.638 57.4202 118.638C57.4217 118.637 57.4233 118.636 57.4248 118.635C57.4264 118.635 57.4279 118.634 57.4295 118.633C57.431 118.632 57.4325 118.631 57.4341 118.631C57.4356 118.63 57.4371 118.629 57.4387 118.628C57.4402 118.628 57.4417 118.627 57.4432 118.626C57.4448 118.625 57.4463 118.625 57.4478 118.624C57.4493 118.623 57.4508 118.622 57.4524 118.622C57.4539 118.621 57.4554 118.62 57.4569 118.619C57.4584 118.619 57.4599 118.618 57.4614 118.617C57.463 118.616 57.4645 118.615 57.466 118.615C57.4675 118.614 57.469 118.613 57.4705 118.612C57.472 118.612 57.4735 118.611 57.475 118.61C57.4765 118.609 57.478 118.609 57.4795 118.608C57.481 118.607 57.4824 118.606 57.4839 118.606C57.4854 118.605 57.4869 118.604 57.4884 118.604C57.4899 118.603 57.4914 118.602 57.4929 118.601C57.4943 118.601 57.4958 118.6 57.4973 118.599C57.4988 118.598 57.5002 118.598 57.5017 118.597C57.5032 118.596 57.5047 118.595 57.5061 118.595C57.5076 118.594 57.5091 118.593 57.5105 118.592C57.512 118.592 57.5135 118.591 57.5149 118.59C57.5164 118.59 57.5178 118.589 57.5193 118.588C57.5208 118.587 57.5222 118.587 57.5237 118.586C57.5251 118.585 57.5266 118.584 57.528 118.584C57.5295 118.583 57.5309 118.582 57.5324 118.582C57.5338 118.581 57.5353 118.58 57.5367 118.579C57.5381 118.579 57.5396 118.578 57.541 118.577C57.5425 118.576 57.5439 118.576 57.5453 118.575C57.5468 118.574 57.5482 118.574 57.5496 118.573C57.5511 118.572 57.5525 118.571 57.5539 118.571C57.5553 118.57 57.5568 118.569 57.5582 118.569C57.5596 118.568 57.561 118.567 57.5624 118.566C57.5639 118.566 57.5653 118.565 57.5667 118.564C57.5681 118.564 57.5695 118.563 57.5709 118.562C57.5723 118.562 57.5737 118.561 57.5751 118.56C57.5765 118.559 57.5779 118.559 57.5794 118.558C57.5808 118.557 57.5822 118.557 57.5836 118.556C57.5849 118.555 57.5863 118.555 57.5877 118.554C57.5891 118.553 57.5905 118.552 57.5919 118.552C57.5933 118.551 57.5947 118.55 57.5961 118.55C57.5975 118.549 57.5988 118.548 57.6002 118.548C57.6016 118.547 57.603 118.546 57.6044 118.546C57.6057 118.545 57.6071 118.544 57.6085 118.543C57.6099 118.543 57.6112 118.542 57.6126 118.541C57.614 118.541 57.6153 118.54 57.6167 118.539C57.6181 118.539 57.6194 118.538 57.6208 118.537C57.6222 118.537 57.6235 118.536 57.6249 118.535C57.6262 118.535 57.6276 118.534 57.629 118.533C57.6303 118.533 57.6317 118.532 57.633 118.531C57.6344 118.531 57.6357 118.53 57.637 118.529C57.6384 118.529 57.6397 118.528 57.6411 118.527C57.6424 118.527 57.6438 118.526 57.6451 118.525C57.6464 118.524 57.6478 118.524 57.6491 118.523C57.6504 118.522 57.6518 118.522 57.6531 118.521C57.6544 118.52 57.6558 118.52 57.6571 118.519C57.6584 118.519 57.6597 118.518 57.6611 118.517C57.6624 118.517 57.6637 118.516 57.665 118.515C57.6663 118.515 57.6677 118.514 57.669 118.513C57.6703 118.513 57.6716 118.512 57.6729 118.511C57.6742 118.511 57.6755 118.51 57.6768 118.509C57.6781 118.509 57.6794 118.508 57.6807 118.507C57.682 118.507 57.6833 118.506 57.6846 118.505C57.6859 118.505 57.6872 118.504 57.6885 118.503C57.6898 118.503 57.6911 118.502 57.6924 118.502C57.6937 118.501 57.695 118.5 57.6963 118.5C57.6975 118.499 57.6988 118.498 57.7001 118.498C57.7014 118.497 57.7027 118.496 57.704 118.496C57.7052 118.495 57.7065 118.494 57.7078 118.494C57.7091 118.493 57.7103 118.493 57.7116 118.492C57.7129 118.491 57.7141 118.491 57.7154 118.49C57.7167 118.489 57.7179 118.489 57.7192 118.488C57.7205 118.487 57.7217 118.487 57.723 118.486C57.7242 118.486 57.7255 118.485 57.7267 118.484C57.728 118.484 57.7292 118.483 57.7305 118.482C57.7317 118.482 57.733 118.481 57.7342 118.481C57.7355 118.48 57.7367 118.479 57.738 118.479C57.7392 118.478 57.7405 118.477 57.7417 118.477C57.7429 118.476 57.7442 118.476 57.7454 118.475C57.7466 118.474 57.7479 118.474 57.7491 118.473C57.7503 118.473 57.7516 118.472 57.7528 118.471C57.754 118.471 57.7552 118.47 57.7565 118.469C57.7577 118.469 57.7589 118.468 57.7601 118.468C57.7613 118.467 57.7625 118.466 57.7638 118.466C57.765 118.465 57.7662 118.465 57.7674 118.464C57.7686 118.463 57.7698 118.463 57.771 118.462C57.7722 118.462 57.7734 118.461 57.7746 118.46C57.7758 118.46 57.777 118.459 57.7782 118.459C57.7794 118.458 57.7806 118.457 57.7818 118.457C57.783 118.456 57.7842 118.456 57.7854 118.455C57.7866 118.454 57.7878 118.454 57.789 118.453C57.7901 118.453 57.7913 118.452 57.7925 118.451C57.7937 118.451 57.7949 118.45 57.7961 118.45C57.7972 118.449 57.7984 118.449 57.7996 118.448C57.8008 118.447 57.8019 118.447 57.8031 118.446C57.8043 118.446 57.8054 118.445 57.8066 118.444C57.8078 118.444 57.8089 118.443 57.8101 118.443C57.8113 118.442 57.8124 118.442 57.8136 118.441C57.8147 118.44 57.8159 118.44 57.817 118.439C57.8182 118.439 57.8194 118.438 57.8205 118.437C57.8217 118.437 57.8228 118.436 57.8239 118.436C57.8251 118.435 57.8262 118.435 57.8274 118.434C57.8285 118.433 57.8297 118.433 57.8308 118.432C57.8319 118.432 57.8331 118.431 57.8342 118.431C57.8353 118.43 57.8365 118.429 57.8376 118.429C57.8387 118.428 57.8399 118.428 57.841 118.427C57.8421 118.427 57.8432 118.426 57.8444 118.426C57.8455 118.425 57.8466 118.424 57.8477 118.424C57.8488 118.423 57.85 118.423 57.8511 118.422C57.8522 118.422 57.8533 118.421 57.8544 118.421C57.8555 118.42 57.8566 118.419 57.8577 118.419C57.8588 118.418 57.8599 118.418 57.861 118.417C57.8621 118.417 57.8632 118.416 57.8643 118.416C57.8654 118.415 57.8665 118.414 57.8676 118.414C57.8687 118.413 57.8698 118.413 57.8709 118.412C57.872 118.412 57.8731 118.411 57.8742 118.411C57.8753 118.41 57.8763 118.41 57.8774 118.409C57.8785 118.408 57.8796 118.408 57.8807 118.407C57.8817 118.407 57.8828 118.406 57.8839 118.406C57.885 118.405 57.886 118.405 57.8871 118.404C57.8882 118.404 57.8893 118.403 57.8903 118.403C57.8914 118.402 57.8924 118.401 57.8935 118.401C57.8946 118.4 57.8956 118.4 57.8967 118.399C57.8977 118.399 57.8988 118.398 57.8999 118.398C57.9009 118.397 57.902 118.397 57.903 118.396C57.9041 118.396 57.9051 118.395 57.9062 118.395C57.9072 118.394 57.9083 118.394 57.9093 118.393C57.9103 118.393 57.9114 118.392 57.9124 118.392C57.9135 118.391 57.9145 118.39 57.9155 118.39C57.9166 118.389 57.9176 118.389 57.9186 118.388C57.9197 118.388 57.9207 118.387 57.9217 118.387C57.9227 118.386 57.9238 118.386 57.9248 118.385C57.9258 118.385 57.9268 118.384 57.9278 118.384C57.9289 118.383 57.9299 118.383 57.9309 118.382C57.9319 118.382 57.9329 118.381 57.9339 118.381C57.9349 118.38 57.9359 118.38 57.937 118.379C57.938 118.379 57.939 118.378 57.94 118.378C57.941 118.377 57.942 118.377 57.943 118.376C57.944 118.376 57.945 118.375 57.946 118.375C57.9469 118.374 57.9479 118.374 57.9489 118.373C57.9499 118.373 57.9509 118.372 57.9519 118.372C57.9529 118.371 57.9539 118.371 57.9549 118.37C57.9558 118.37 57.9568 118.369 57.9578 118.369C57.9588 118.368 57.9597 118.368 57.9607 118.367C57.9617 118.367 57.9627 118.366 57.9636 118.366C57.9646 118.365 57.9656 118.365 57.9665 118.364C57.9675 118.364 57.9685 118.363 57.9694 118.363C57.9704 118.363 57.9714 118.362 57.9723 118.362C57.9733 118.361 57.9742 118.361 57.9752 118.36C57.9761 118.36 57.9771 118.359 57.978 118.359C57.979 118.358 57.9799 118.358 57.9809 118.357C57.9818 118.357 57.9828 118.356 57.9837 118.356C57.9847 118.355 57.9856 118.355 57.9865 118.354C57.9875 118.354 57.9884 118.354 57.9894 118.353C57.9903 118.353 57.9912 118.352 57.9922 118.352C57.9931 118.351 57.994 118.351 57.9949 118.35C57.9959 118.35 57.9968 118.349 57.9977 118.349C57.9986 118.348 57.9996 118.348 58.0005 118.347C58.0014 118.347 58.0023 118.347 58.0032 118.346C58.0041 118.346 58.005 118.345 58.006 118.345C58.0069 118.344 58.0078 118.344 58.0087 118.343C58.0096 118.343 58.0105 118.342 58.0114 118.342C58.0123 118.342 58.0132 118.341 58.0141 118.341C58.015 118.34 58.0159 118.34 58.0168 118.339C58.0177 118.339 58.0186 118.338 58.0195 118.338C58.0204 118.338 58.0212 118.337 58.0221 118.337C58.023 118.336 58.0239 118.336 58.0248 118.335C58.0257 118.335 58.0266 118.334 58.0274 118.334C58.0283 118.334 58.0292 118.333 58.0301 118.333C58.0309 118.332 58.0318 118.332 58.0327 118.331C58.0335 118.331 58.0344 118.331 58.0353 118.33C58.0361 118.33 58.037 118.329 58.0379 118.329C58.0387 118.328 58.0396 118.328 58.0405 118.327C58.0413 118.327 58.0422 118.327 58.043 118.326C58.0439 118.326 58.0447 118.325 58.0456 118.325C58.0464 118.324 58.0473 118.324 58.0481 118.324C58.049 118.323 58.0498 118.323 58.0507 118.322C58.0515 118.322 58.0523 118.322 58.0532 118.321C58.054 118.321 58.0549 118.32 58.0557 118.32C58.0565 118.319 58.0574 118.319 58.0582 118.319C58.059 118.318 58.0599 118.318 58.0607 118.317C58.0615 118.317 58.0623 118.317 58.0632 118.316C58.064 118.316 58.0648 118.315 58.0656 118.315C58.0664 118.314 58.0673 118.314 58.0681 118.314C58.0689 118.313 58.0697 118.313 58.0705 118.312C58.0713 118.312 58.0721 118.312 58.0729 118.311C58.0737 118.311 58.0745 118.31 58.0753 118.31C58.0761 118.31 58.0769 118.309 58.0777 118.309C58.0785 118.308 58.0793 118.308 58.0801 118.308C58.0809 118.307 58.0817 118.307 58.0825 118.306C58.0833 118.306 58.0841 118.306 58.0849 118.305C58.0857 118.305 58.0865 118.304 58.0872 118.304C58.088 118.304 58.0888 118.303 58.0896 118.303C58.0904 118.303 58.0911 118.302 58.0919 118.302C58.0927 118.301 58.0935 118.301 58.0942 118.301C58.095 118.3 58.0958 118.3 58.0965 118.299C58.0973 118.299 58.0981 118.299 58.0988 118.298C58.0996 118.298 58.1004 118.298 58.1011 118.297C58.1019 118.297 58.1026 118.296 58.1034 118.296C58.1041 118.296 58.1049 118.295 58.1056 118.295C58.1064 118.295 58.1071 118.294 58.1079 118.294C58.1086 118.293 58.1094 118.293 58.1101 118.293C58.1109 118.292 58.1116 118.292 58.1123 118.292C58.1131 118.291 58.1138 118.291 58.1146 118.29C58.1153 118.29 58.116 118.29 58.1167 118.289C58.1175 118.289 58.1182 118.289 58.1189 118.288C58.1197 118.288 58.1204 118.288 58.1211 118.287C58.1218 118.287 58.1226 118.286 58.1233 118.286C58.124 118.286 58.1247 118.285 58.1254 118.285C58.1261 118.285 58.1269 118.284 58.1276 118.284C58.1283 118.284 58.129 118.283 58.1297 118.283C58.1304 118.283 58.1311 118.282 58.1318 118.282C58.1325 118.281 58.1332 118.281 58.1339 118.281C58.1346 118.28 58.1353 118.28 58.136 118.28C58.1367 118.279 58.1374 118.279 58.1381 118.279C58.1388 118.278 58.1395 118.278 58.1401 118.278C58.1408 118.277 58.1415 118.277 58.1422 118.277C58.1429 118.276 58.1436 118.276 58.1442 118.276C58.1449 118.275 58.1456 118.275 58.1463 118.275C58.1469 118.274 58.1476 118.274 58.1483 118.274C58.149 118.273 58.1496 118.273 58.1503 118.273C58.151 118.272 58.1516 118.272 58.1523 118.272C58.153 118.271 58.1536 118.271 58.1543 118.271C58.1549 118.27 58.1556 118.27 58.1562 118.27C58.1569 118.269 58.1576 118.269 58.1582 118.269C58.1589 118.268 58.1595 118.268 58.1601 118.268C58.1608 118.267 58.1614 118.267 58.1621 118.267C58.1627 118.266 58.1634 118.266 58.164 118.266C58.1646 118.265 58.1653 118.265 58.1659 118.265C58.1666 118.264 58.1672 118.264 58.1678 118.264C58.1684 118.263 58.1691 118.263 58.1697 118.263C58.1703 118.263 58.171 118.262 58.1716 118.262C58.1722 118.262 58.1728 118.261 58.1734 118.261C58.1741 118.261 58.1747 118.26 58.1753 118.26C58.1759 118.26 58.1765 118.259 58.1771 118.259C58.1777 118.259 58.1784 118.259 58.179 118.258C58.1796 118.258 58.1802 118.258 58.1808 118.257C58.1814 118.257 58.182 118.257 58.1826 118.256C58.1832 118.256 58.1838 118.256 58.1844 118.256C58.185 118.255 58.1856 118.255 58.1861 118.255C58.1867 118.254 58.1873 118.254 58.1879 118.254C58.1885 118.253 58.1891 118.253 58.1897 118.253C58.1903 118.253 58.1908 118.252 58.1914 118.252C58.192 118.252 58.1926 118.251 58.1931 118.251C58.1937 118.251 58.1943 118.251 58.1949 118.25C58.1954 118.25 58.196 118.25 58.1966 118.249C58.1971 118.249 58.1977 118.249 58.1983 118.249C58.1988 118.248 58.1994 118.248 58.1999 118.248C58.2005 118.247 58.2011 118.247 58.2016 118.247C58.2022 118.247 58.2027 118.246 58.2033 118.246C58.2038 118.246 58.2044 118.246 58.2049 118.245C58.2055 118.245 58.206 118.245 58.2066 118.244C58.2071 118.244 58.2076 118.244 58.2082 118.244C58.2087 118.243 58.2093 118.243 58.2098 118.243C58.2103 118.243 58.2109 118.242 58.2114 118.242C58.2119 118.242 58.2125 118.241 58.213 118.241C58.2135 118.241 58.214 118.241 58.2146 118.24C58.2151 118.24 58.2156 118.24 58.2161 118.24C58.2166 118.239 58.2172 118.239 58.2177 118.239C58.2182 118.239 58.2187 118.238 58.2192 118.238C58.2197 118.238 58.2202 118.238 58.2207 118.237C58.2212 118.237 58.2218 118.237 58.2223 118.237C58.2228 118.236 58.2233 118.236 58.2238 118.236C58.2243 118.236 58.2248 118.235 58.2253 118.235C58.2257 118.235 58.2262 118.235 58.2267 118.234C58.2272 118.234 58.2277 118.234 58.2282 118.234C58.2287 118.233 58.2292 118.233 58.2297 118.233C58.2301 118.233 58.2306 118.232 58.2311 118.232C58.2316 118.232 58.2321 118.232 58.2325 118.231C58.233 118.231 58.2335 118.231 58.2339 118.231C58.2344 118.231 58.2349 118.23 58.2354 118.23C58.2358 118.23 58.2363 118.23 58.2368 118.229C58.2372 118.229 58.2377 118.229 58.2381 118.229C58.2386 118.228 58.2391 118.228 58.2395 118.228C58.24 118.228 58.2404 118.228 58.2409 118.227C58.2413 118.227 58.2418 118.227 58.2422 118.227C58.2427 118.226 58.2431 118.226 58.2436 118.226C58.244 118.226 58.2444 118.225 58.2449 118.225C58.2453 118.225 58.2458 118.225 58.2462 118.225C58.2466 118.224 58.2471 118.224 58.2475 118.224C58.2479 118.224 58.2483 118.224 58.2488 118.223C58.2492 118.223 58.2496 118.223 58.2501 118.223C58.2505 118.222 58.2509 118.222 58.2513 118.222C58.2517 118.222 58.2522 118.222 58.2526 118.221C58.253 118.221 58.2534 118.221 58.2538 118.221C58.2542 118.221 58.2546 118.22 58.255 118.22C58.2554 118.22 58.2558 118.22 58.2563 118.22C58.2567 118.219 58.2571 118.219 58.2575 118.219C58.2579 118.219 58.2583 118.219 58.2586 118.218C58.259 118.218 58.2594 118.218 58.2598 118.218C58.2602 118.218 58.2606 118.217 58.261 118.217C58.2614 118.217 58.2618 118.217 58.2622 118.217C58.2625 118.216 58.2629 118.216 58.2633 118.216C58.2637 118.216 58.2641 118.216 58.2644 118.216C58.2648 118.215 58.2652 118.215 58.2655 118.215C58.2659 118.215 58.2663 118.215 58.2667 118.214C58.267 118.214 58.2674 118.214 58.2678 118.214C58.2681 118.214 58.2685 118.213 58.2688 118.213C58.2692 118.213 58.2696 118.213 58.2699 118.213C58.2703 118.213 58.2706 118.212 58.271 118.212C58.2713 118.212 58.2717 118.212 58.272 118.212C58.2724 118.212 58.2727 118.211 58.2731 118.211C58.2734 118.211 58.2737 118.211 58.2741 118.211C58.2744 118.211 58.2748 118.21 58.2751 118.21C58.2754 118.21 58.2758 118.21 58.2761 118.21C58.2764 118.21 58.2768 118.209 58.2771 118.209C58.2774 118.209 58.2777 118.209 58.2781 118.209C58.2784 118.209 58.2787 118.208 58.279 118.208C58.2793 118.208 58.2797 118.208 58.28 118.208C58.2803 118.208 58.2806 118.207 58.2809 118.207C58.2812 118.207 58.2815 118.207 58.2818 118.207C58.2821 118.207 58.2825 118.206 58.2828 118.206C58.2831 118.206 58.2834 118.206 58.2837 118.206C58.284 118.206 58.2843 118.206 58.2846 118.205C58.2849 118.205 58.2851 118.205 58.2854 118.205C58.2857 118.205 58.286 118.205 58.2863 118.205C58.2866 118.204 58.2869 118.204 58.2872 118.204C58.2874 118.204 58.2877 118.204 58.288 118.204C58.2883 118.204 58.2886 118.203 58.2888 118.203C58.2891 118.203 58.2894 118.203 58.2897 118.203C58.2899 118.203 58.2902 118.203 58.2905 118.202C58.2907 118.202 58.291 118.202 58.2913 118.202C58.2915 118.202 58.2918 118.202 58.292 118.202C58.2923 118.202 58.2926 118.201 58.2928 118.201C58.2931 118.201 58.2933 118.201 58.2936 118.201C58.2938 118.201 58.2941 118.201 58.2943 118.201C58.2946 118.2 58.2948 118.2 58.2951 118.2C58.2953 118.2 58.2956 118.2 58.2958 118.2C58.296 118.2 58.2963 118.2 58.2965 118.199C58.2967 118.199 58.297 118.199 58.2972 118.199C58.2974 118.199 58.2977 118.199 58.2979 118.199C58.2981 118.199 58.2983 118.199 58.2986 118.198C58.2988 118.198 58.299 118.198 58.2992 118.198C58.2995 118.198 58.2997 118.198 58.2999 118.198C58.3001 118.198 58.3003 118.198 58.3005 118.197C58.3007 118.197 58.301 118.197 58.3012 118.197C58.3014 118.197 58.3016 118.197 58.3018 118.197C58.302 118.197 58.3022 118.197 58.3024 118.197C58.3026 118.196 58.3028 118.196 58.303 118.196C58.3032 118.196 58.3034 118.196 58.3036 118.196C58.3037 118.196 58.3039 118.196 58.3041 118.196C58.3043 118.196 58.3045 118.195 58.3047 118.195C58.3049 118.195 58.305 118.195 58.3052 118.195C58.3054 118.195 58.3056 118.195 58.3058 118.195C58.3059 118.195 58.3061 118.195 58.3063 118.195C58.3065 118.194 58.3066 118.194 58.3068 118.194C58.307 118.194 58.3071 118.194 58.3073 118.194C58.3075 118.194 58.3076 118.194 58.3078 118.194C58.3079 118.194 58.3081 118.194 58.3082 118.194C58.3084 118.194 58.3086 118.193 58.3087 118.193C58.3089 118.193 58.309 118.193 58.3092 118.193C58.3093 118.193 58.3095 118.193 58.3096 118.193C58.3097 118.193 58.3099 118.193 58.31 118.193C58.3102 118.193 58.3103 118.193 58.3104 118.192C58.3106 118.192 58.3107 118.192 58.3108 118.192C58.311 118.192 58.3111 118.192 58.3112 118.192C58.3114 118.192 58.3115 118.192 58.3116 118.192C58.3117 118.192 58.3118 118.192 58.312 118.192C58.3121 118.192 58.3122 118.192 58.3123 118.192C58.3124 118.191 58.3125 118.191 58.3127 118.191C58.3128 118.191 58.3129 118.191 58.313 118.191C58.3131 118.191 58.3132 118.191 58.3133 118.191C58.3134 118.191 58.3135 118.191 58.3136 118.191C58.3137 118.191 58.3138 118.191 58.3139 118.191C58.314 118.191 58.3141 118.191 58.3142 118.191C58.3143 118.191 58.3144 118.191 58.3145 118.19C58.3145 118.19 58.3146 118.19 58.3147 118.19C58.3148 118.19 58.3149 118.19 58.315 118.19C58.315 118.19 58.3151 118.19 58.3152 118.19C58.3153 118.19 58.3153 118.19 58.3154 118.19C58.3155 118.19 58.3156 118.19 58.3156 118.19C58.3157 118.19 58.3158 118.19 58.3158 118.19C58.3159 118.19 58.316 118.19 58.316 118.19C58.3161 118.19 58.3161 118.19 58.3162 118.19C58.3162 118.19 58.3163 118.19 58.3163 118.19C58.3164 118.19 58.3164 118.189 58.3165 118.189C58.3165 118.189 58.3166 118.189 58.3166 118.189C58.3167 118.189 58.3167 118.189 58.3168 118.189C58.3168 118.189 58.3168 118.189 58.3169 118.189C58.3169 118.189 58.3169 118.189 58.317 118.189C58.317 118.189 58.317 118.189 58.3171 118.189C58.3171 118.189 58.3171 118.189 58.3171 118.189C58.3172 118.189 58.3172 118.189 58.3172 118.189C58.3172 118.189 58.3172 118.189 58.3173 118.189C58.3173 118.189 58.3173 118.189 58.3173 118.189C58.3173 118.189 58.3173 118.189 58.3173 118.189C58.3173 118.189 58.3173 118.189 58.3174 118.189C58.3174 118.189 58.3174 118.189 56.5285 114.611ZM52.9427 111.941C52.6308 112.123 52.0959 112.312 51.1633 112.312V120.312C53.1968 120.312 55.1918 119.891 56.9737 118.852L52.9427 111.941ZM51.1633 112.312C48.9593 112.312 47.4439 111.647 46.271 110.474L40.6141 116.131C43.4543 118.971 47.086 120.312 51.1633 120.312V112.312ZM46.271 110.474C45.398 109.601 44.9562 108.584 44.9562 107.152H36.9562C36.9562 110.606 38.172 113.689 40.6141 116.131L46.271 110.474ZM44.9562 107.152C44.9562 106.606 45.0212 105.657 45.1906 104.217L37.2454 103.283C37.0658 104.809 36.9562 106.129 36.9562 107.152H44.9562ZM41.218 103.75C45.1619 104.417 45.1619 104.417 45.1619 104.417C45.162 104.417 45.162 104.417 45.162 104.417C45.162 104.417 45.1621 104.416 45.1621 104.416C45.1622 104.416 45.1622 104.415 45.1623 104.415C45.1625 104.414 45.1624 104.414 45.1627 104.412C45.1632 104.409 45.1628 104.412 45.1634 104.409C45.1642 104.404 45.1659 104.394 45.1677 104.383C45.1681 104.38 45.1806 104.307 45.1849 104.281C45.1932 104.232 45.1825 104.295 45.191 104.245C45.1966 104.212 45.1887 104.259 45.1944 104.225C45.1949 104.222 45.1955 104.219 45.1961 104.215C45.1967 104.212 45.1973 104.208 45.1979 104.205C45.2017 104.182 45.1976 104.206 45.2015 104.183C45.21 104.133 45.1969 104.211 45.2054 104.16C45.2282 104.025 45.1906 104.248 45.2137 104.111C45.2741 103.754 45.1897 104.253 45.2539 103.873C45.2735 103.758 45.2401 103.955 45.2598 103.839C45.2831 103.701 45.2424 103.942 45.2658 103.803C45.2707 103.774 45.2732 103.759 45.2784 103.729C45.2861 103.683 45.2771 103.736 45.2849 103.69C45.2893 103.664 45.2872 103.676 45.2917 103.65C45.2928 103.644 45.294 103.637 45.2951 103.63C45.2963 103.623 45.2974 103.616 45.2986 103.609C45.2998 103.602 45.3009 103.595 45.3021 103.589C45.3033 103.582 45.3045 103.574 45.3057 103.567C45.3406 103.361 45.2853 103.688 45.3204 103.48C45.3217 103.473 45.3229 103.465 45.3242 103.458C45.3255 103.45 45.3268 103.443 45.3281 103.435C45.3293 103.428 45.3306 103.42 45.3319 103.412C45.3332 103.404 45.3346 103.397 45.3359 103.389C45.3587 103.254 45.321 103.477 45.3439 103.342C45.3472 103.322 45.3486 103.314 45.352 103.293C45.3534 103.285 45.3548 103.277 45.3562 103.269C45.3576 103.261 45.359 103.252 45.3604 103.244C45.3794 103.132 45.3499 103.306 45.3689 103.193C45.3699 103.188 45.4389 102.78 45.4437 102.752C45.4454 102.742 45.4471 102.732 45.4488 102.722C45.4504 102.712 45.4521 102.702 45.4539 102.692C45.4556 102.681 45.4573 102.671 45.459 102.661C45.4607 102.651 45.4624 102.641 45.4642 102.63C45.4659 102.62 45.4677 102.61 45.4694 102.6C45.4712 102.589 45.4729 102.579 45.4747 102.568C45.4765 102.558 45.4782 102.547 45.48 102.537C45.4818 102.526 45.4836 102.516 45.4854 102.505C45.5484 102.133 45.466 102.62 45.53 102.242C45.5872 101.904 45.4959 102.443 45.5533 102.104C45.5806 101.943 45.538 102.194 45.5653 102.033C45.5672 102.022 45.5754 101.973 45.5774 101.961C45.5934 101.866 45.5859 101.911 45.6022 101.815C45.6152 101.738 45.6144 101.742 45.6277 101.664C45.6307 101.646 45.7302 101.058 45.737 101.018C45.7394 101.004 45.7418 100.99 45.7442 100.975C45.7466 100.961 45.749 100.947 45.7514 100.932C45.7933 100.685 45.7242 101.094 45.7661 100.846C45.7757 100.789 45.7712 100.815 45.7809 100.758C45.7878 100.718 45.789 100.71 45.7959 100.67C45.7984 100.655 45.801 100.64 45.8035 100.625C45.806 100.61 45.8086 100.595 45.8111 100.58C45.8135 100.565 45.824 100.504 45.8265 100.489C45.8641 100.267 45.8044 100.619 45.842 100.397C45.8558 100.316 45.8439 100.386 45.8577 100.304C45.8604 100.289 45.863 100.273 45.8657 100.257C45.8683 100.242 45.871 100.226 45.8737 100.21C45.8763 100.194 45.879 100.179 45.8817 100.163C45.8844 100.147 45.887 100.131 45.8897 100.115C45.9145 99.9687 45.8975 100.069 45.9224 99.9217C45.9521 99.7466 45.9094 99.9988 45.9391 99.8234C45.9419 99.8069 45.9446 99.7904 45.9474 99.7739C45.9502 99.7573 45.9531 99.7407 45.9559 99.7241C45.9587 99.7074 45.9615 99.6908 45.9643 99.674C45.9672 99.6573 45.97 99.6405 45.9728 99.6237C45.9757 99.6069 45.9785 99.59 45.9814 99.5731C45.9843 99.5562 45.9871 99.5392 45.99 99.5223C46.0164 99.3665 45.9983 99.4733 46.0249 99.3162C46.0304 99.2834 46.0547 99.14 46.0605 99.1058C46.0635 99.0881 46.0665 99.0704 46.0695 99.0526C46.0725 99.0348 46.0755 99.017 46.0785 98.9991C46.1353 98.6633 46.0399 99.2274 46.0968 98.8913C46.1248 98.7256 46.1055 98.8396 46.1338 98.6724C46.1922 98.3269 46.094 98.9073 46.1526 98.5614C46.1934 98.3198 46.1306 98.6914 46.1715 98.4494C46.1747 98.4306 46.1779 98.4118 46.1811 98.3929C46.1843 98.3741 46.1875 98.3552 46.1907 98.3362C46.1939 98.3173 46.1971 98.2983 46.2003 98.2793C46.2035 98.2602 46.2067 98.2412 46.21 98.222C46.2138 98.1993 46.2842 97.783 46.289 97.7546C46.2922 97.7358 46.306 97.6543 46.3093 97.6351C46.3327 97.4966 46.3062 97.6535 46.3297 97.5146C46.3739 97.2528 46.3059 97.6551 46.3502 97.3929C46.3537 97.3726 46.3571 97.3522 46.3606 97.3317C46.3641 97.3113 46.3675 97.2908 46.371 97.2702C46.3745 97.2497 46.3779 97.2291 46.3814 97.2085C46.3849 97.1879 46.3884 97.1672 46.3919 97.1465C46.3954 97.1258 46.3989 97.105 46.4025 97.0842C46.406 97.0634 46.4095 97.0426 46.413 97.0217C46.4166 97.0008 46.4201 96.9798 46.4237 96.9589C46.4272 96.9379 46.4308 96.9168 46.4343 96.8958C46.4379 96.8747 46.4415 96.8536 46.4451 96.8324C46.4486 96.8113 46.4522 96.7901 46.4558 96.7688C46.4602 96.7431 46.5382 96.2818 46.5435 96.2504C46.5575 96.168 46.6192 95.8032 46.6341 95.7151C46.6379 95.6924 46.6418 95.6697 46.6456 95.6469C46.6495 95.6242 46.6533 95.6014 46.6572 95.5786C46.661 95.5557 46.6649 95.5328 46.6688 95.5099C46.6727 95.487 46.6766 95.464 46.6805 95.441C46.6843 95.418 46.6882 95.3949 46.6922 95.3718C46.6961 95.3487 46.7 95.3256 46.7039 95.3024C46.7624 94.9563 46.6689 95.5091 46.7275 95.1627C46.7945 94.767 46.7082 95.2772 46.7753 94.8801C46.7878 94.8062 46.7869 94.8115 46.7995 94.7372C46.8194 94.6197 46.8039 94.7112 46.8239 94.5933C46.8392 94.5027 46.9068 94.1032 46.9231 94.0069C46.9272 93.9821 46.9314 93.9573 46.9357 93.9324C46.9399 93.9076 46.9441 93.8826 46.9483 93.8577C46.9513 93.8401 46.9707 93.7252 46.9737 93.7074C46.9778 93.6834 46.9952 93.5803 46.9993 93.556C47.0127 93.4772 47.0117 93.4827 47.0251 93.4036C47.0305 93.372 47.1238 92.8204 47.1301 92.7832C47.1827 92.4723 47.1844 92.4623 47.2379 92.1458C47.308 91.7313 47.2775 91.9116 47.3486 91.4915C47.3533 91.4638 47.358 91.4362 47.3626 91.4085C47.3673 91.3808 47.372 91.353 47.3767 91.3252C47.3812 91.2987 47.4005 91.1847 47.405 91.1579C47.4098 91.1299 47.4145 91.1019 47.4193 91.0739C47.424 91.0458 47.4288 91.0177 47.4335 90.9895C47.4383 90.9614 47.443 90.9332 47.4478 90.905C47.4526 90.8767 47.4574 90.8484 47.4622 90.8201C47.467 90.7918 47.4718 90.7634 47.4766 90.735C47.4814 90.7066 47.4862 90.6781 47.491 90.6496C47.5069 90.5559 47.5041 90.5722 47.52 90.4781C47.5617 90.2317 47.5367 90.3795 47.5786 90.1318C47.6078 89.9595 47.6086 89.9549 47.6379 89.7812C47.6448 89.7407 47.6909 89.4683 47.698 89.4264C47.7165 89.317 47.7097 89.3572 47.7282 89.2474C47.7333 89.2175 47.7384 89.1875 47.7434 89.1575C47.7485 89.1275 47.7536 89.0975 47.7587 89.0674C47.7889 88.8889 47.7897 88.8839 47.8202 88.7041C47.8577 88.482 47.8445 88.56 47.8823 88.3365C47.917 88.1314 47.9103 88.1712 47.9452 87.9647C47.9882 87.7106 48.1572 86.7118 48.204 86.435C48.2116 86.3902 48.2627 86.0883 48.2705 86.042C48.2743 86.0198 48.3337 85.6684 48.3377 85.6447C48.3828 85.378 48.3603 85.5113 48.4056 85.2432C48.4471 84.9978 48.4326 85.0841 48.4743 84.8374C48.5206 84.5637 48.7059 83.4681 48.7561 83.1717C48.8053 82.8809 48.9963 81.7516 49.0494 81.4381C49.0579 81.3873 49.1157 81.0462 49.1245 80.9941C49.1308 80.9569 49.1371 80.9197 49.1434 80.8824C49.1497 80.8451 49.156 80.8078 49.1623 80.7705C49.1686 80.7331 49.175 80.6957 49.1813 80.6583C49.1876 80.6208 49.194 80.5833 49.2003 80.5458C49.2135 80.4678 49.2634 80.1726 49.2769 80.0933C49.3236 79.8171 49.3072 79.914 49.3541 79.6365C49.4082 79.3167 49.4558 79.0356 49.5109 78.7102C49.5372 78.5541 49.524 78.6323 49.5505 78.4759C49.5571 78.4368 49.5637 78.3977 49.5704 78.3584C49.577 78.3192 49.5836 78.28 49.5903 78.2407C49.5924 78.228 49.668 77.781 49.6704 77.7669C49.7243 77.4487 49.6972 77.6085 49.7513 77.2889C49.7784 77.1287 49.7648 77.2088 49.792 77.0483C49.7988 77.0081 49.8056 76.9678 49.8124 76.9276C49.8192 76.8873 49.8261 76.847 49.8329 76.8066C49.8899 76.4694 49.9402 76.1722 49.9982 75.8293C50.026 75.6649 50.0121 75.747 50.04 75.5823C50.047 75.5411 50.054 75.4998 50.061 75.4584C50.068 75.4171 50.075 75.3757 50.082 75.3343C50.0842 75.3208 50.1639 74.8499 50.1664 74.835C50.1735 74.7932 50.1806 74.7514 50.1877 74.7095C50.1947 74.6677 50.2018 74.6257 50.2089 74.5838C50.216 74.5418 50.2231 74.4998 50.2302 74.4578C50.2374 74.4157 50.2445 74.3736 50.2516 74.3315C50.2763 74.1853 50.3125 73.9713 50.3375 73.8237C50.3975 73.4691 50.4505 73.1557 50.5115 72.7954C50.5368 72.6456 50.5739 72.4262 50.5995 72.2749C50.6019 72.2607 50.6857 71.7658 50.6883 71.7502C50.6957 71.7063 50.7032 71.6623 50.7106 71.6183C50.718 71.5743 50.7255 71.5303 50.733 71.4862C50.7655 71.2937 50.7452 71.414 50.7778 71.2211C50.8037 71.0677 50.8418 70.8427 50.868 70.6879C50.8705 70.6733 50.9562 70.1664 50.9589 70.1504C50.9708 70.0804 50.9928 69.9503 51.0047 69.88C51.0123 69.8349 51.02 69.7897 51.0276 69.7445C51.0353 69.6992 51.0429 69.6539 51.0506 69.6086L43.1627 68.2742C43.1174 68.5421 43.1161 68.5495 43.071 68.816C43.0288 69.0658 43.0221 69.1051 42.9801 69.3535C42.9173 69.7247 42.9524 69.5169 42.8899 69.8867C42.8782 69.9556 42.8566 70.0833 42.845 70.1518C42.8376 70.1958 42.8301 70.2399 42.8227 70.2839C42.8152 70.3279 42.8078 70.3718 42.8004 70.4157C42.6864 71.0893 42.5597 71.8384 42.4496 72.4893C42.3602 73.0177 42.3669 72.9779 42.2785 73.5006C42.2714 73.5424 42.2644 73.5841 42.2573 73.6258C42.2503 73.6675 42.2432 73.7091 42.2362 73.7507C42.2252 73.8155 42.2049 73.9355 42.194 73.9999C42.1696 74.1441 42.1764 74.104 42.1521 74.2479C42.1451 74.2891 42.1381 74.3304 42.1312 74.3715C42.1242 74.4127 42.1172 74.4538 42.1103 74.4949C42.0862 74.6371 41.9681 75.3356 41.945 75.4722C41.9011 75.7316 41.9479 75.4547 41.9041 75.7138C41.8973 75.754 41.8905 75.7942 41.8837 75.8343C41.8769 75.8744 41.8701 75.9144 41.8634 75.9544C41.8199 76.2116 41.8663 75.9372 41.8229 76.194C41.8192 76.2155 41.7861 76.4113 41.7825 76.4325C41.6793 77.0425 41.5656 77.7146 41.4662 78.3021C41.3857 78.7781 41.392 78.741 41.3124 79.2114C41.306 79.2489 41.2997 79.2864 41.2934 79.3238C41.287 79.3613 41.2807 79.3987 41.2744 79.436C41.2712 79.4551 41.2397 79.6409 41.2366 79.6596C41.1896 79.937 41.2081 79.8278 41.1614 80.1037C41.103 80.4494 41.0709 80.6389 41.0134 80.979C40.9678 81.2485 40.9858 81.1422 40.9404 81.4103C40.9105 81.587 40.934 81.4479 40.9042 81.6243C40.877 81.7851 40.8953 81.6768 40.8682 81.8373C40.8622 81.8727 40.8562 81.9081 40.8502 81.9434C40.8442 81.9787 40.8383 82.014 40.8323 82.0492C40.8204 82.1193 40.8084 82.1904 40.7966 82.2601C40.796 82.2639 40.7617 82.4664 40.7611 82.4699C40.7524 82.5215 40.7345 82.6274 40.7258 82.6786C40.6708 83.0037 40.6404 83.1836 40.5864 83.503C40.5482 83.7288 40.487 84.0901 40.4498 84.3103C40.4442 84.3436 40.4385 84.3768 40.4329 84.41C40.4273 84.4432 40.4217 84.4764 40.4161 84.5095C40.4025 84.5897 40.3961 84.6277 40.3826 84.7076C40.382 84.7112 40.3498 84.9013 40.3492 84.9046C40.3437 84.9374 40.3382 84.9701 40.3326 85.0028C40.3271 85.0354 40.3216 85.068 40.3161 85.1006C40.297 85.2135 40.2034 85.7667 40.1853 85.874C40.1806 85.9018 40.0611 86.6081 40.0573 86.6303C40.052 86.6614 40.0468 86.6926 40.0415 86.7236C40.0363 86.7547 40.031 86.7857 40.0258 86.8167C39.9899 87.029 40.0303 86.7901 39.9944 87.0021C39.9884 87.0375 39.9692 87.1513 39.9632 87.1864C39.9581 87.217 39.9529 87.2476 39.9477 87.2781C39.9425 87.3087 39.9374 87.3392 39.9322 87.3696C39.8534 87.8358 39.8879 87.6315 39.81 88.092C39.7269 88.5835 39.7729 88.3115 39.6907 88.7973C39.6858 88.8264 39.6809 88.8554 39.676 88.8843C39.6711 88.9132 39.6662 88.9422 39.6613 88.971C39.6564 88.9999 39.6516 89.0287 39.6467 89.0575C39.6418 89.0862 39.637 89.1149 39.6321 89.1436C39.5849 89.4226 39.6212 89.2081 39.5743 89.4857C39.5695 89.514 39.5647 89.5423 39.5599 89.5705C39.5551 89.5988 39.5504 89.627 39.5456 89.6551C39.4944 89.9577 39.5682 89.5213 39.5171 89.8235C39.5124 89.8515 39.5077 89.8794 39.5029 89.9073C39.4982 89.9352 39.4935 89.963 39.4888 89.9908C39.4546 90.1931 39.4948 89.9551 39.4607 90.157C39.4025 90.5008 39.4908 89.9788 39.4327 90.3222C39.4098 90.4581 39.4279 90.3509 39.405 90.4863C39.4004 90.5136 39.3958 90.5408 39.3912 90.568C39.3866 90.5952 39.382 90.6223 39.3774 90.6494C39.3471 90.8282 39.3802 90.633 39.35 90.8114C39.3275 90.9444 39.3452 90.8397 39.3228 90.9723C39.3182 90.9991 39.3137 91.0258 39.3092 91.0524C39.3047 91.079 39.3002 91.1056 39.2957 91.1322C39.2912 91.1588 39.2867 91.1853 39.2823 91.2117C39.2778 91.2382 39.2733 91.2646 39.2688 91.291C39.2644 91.3174 39.2599 91.3437 39.2555 91.37C39.251 91.3963 39.2466 91.4226 39.2422 91.4488C39.2114 91.6304 39.2198 91.5808 39.1893 91.7611C39.159 91.9403 39.1673 91.8913 39.1372 92.0691C39.0998 92.29 39.1487 92.001 39.1114 92.2216C39.1071 92.2469 39.1029 92.2722 39.0986 92.2974C39.0943 92.3226 39.0901 92.3478 39.0858 92.3729C39.0813 92.3997 39.0394 92.6471 39.0351 92.6725C39.0267 92.7221 39.0184 92.7715 39.0101 92.8207C39.0059 92.8453 39.0017 92.8699 38.9976 92.8944C38.9934 92.9189 38.9893 92.9434 38.9852 92.9678C38.9493 93.1796 38.9962 92.9024 38.9605 93.1139C38.9462 93.1981 38.9501 93.175 38.9359 93.2589C38.8707 93.6447 38.8076 94.0175 38.7462 94.3806C38.623 95.1085 38.5089 95.783 38.4011 96.4202C38.3093 96.9632 38.3339 96.8177 38.2459 97.338C38.2092 97.5545 38.2082 97.5606 38.1725 97.7714C38.1693 97.7904 38.1399 97.9641 38.137 97.9817C38.1289 98.0295 38.1099 98.1415 38.1021 98.1878C37.9147 99.2957 37.7681 100.162 37.642 100.907C37.5886 101.223 37.5191 101.634 37.481 101.859C37.4796 101.868 37.4782 101.876 37.4767 101.884C37.4753 101.893 37.4739 101.901 37.4725 101.91C37.4697 101.926 37.4669 101.943 37.4641 101.959C37.4626 101.968 37.4492 102.047 37.448 102.055C37.4306 102.157 37.4496 102.045 37.4325 102.146C37.4312 102.153 37.43 102.161 37.4287 102.168C37.4275 102.175 37.4263 102.183 37.425 102.19C37.4166 102.24 37.4262 102.183 37.4178 102.233C37.3941 102.373 37.3858 102.422 37.366 102.539C37.3618 102.564 37.3477 102.647 37.3444 102.666C37.3382 102.703 37.3407 102.688 37.3347 102.724C37.3118 102.859 37.3485 102.643 37.3258 102.777C37.3112 102.863 37.3077 102.883 37.297 102.947C37.2947 102.96 37.2882 102.999 37.2869 103.006C37.28 103.048 37.2897 102.99 37.283 103.03C37.2823 103.034 37.2802 103.046 37.2797 103.049C37.2789 103.054 37.2778 103.06 37.2772 103.064C37.2771 103.065 37.2769 103.066 37.2767 103.067C37.2765 103.068 37.2764 103.069 37.2762 103.07C37.2759 103.071 37.2757 103.073 37.2754 103.074C37.2751 103.077 37.2745 103.08 37.2744 103.081C37.2742 103.081 37.2741 103.082 37.2741 103.082C37.2741 103.082 37.274 103.083 37.274 103.083C37.274 103.083 37.274 103.083 41.218 103.75ZM51.0601 69.5496C51.2926 68.0388 51.8587 66.9673 52.6831 66.1429L47.0262 60.486C44.8845 62.6278 43.6186 65.3076 43.1531 68.3332L51.0601 69.5496ZM52.6012 66.2225C53.3889 65.4785 54.3091 65.0898 55.6125 65.0898V57.0898C52.3794 57.0898 49.4611 58.1842 47.1082 60.4064L52.6012 66.2225ZM55.6125 65.0898H97.6183V57.0898H55.6125V65.0898ZM97.6183 65.0898C98.5836 65.0898 99.2615 65.3801 99.8934 66.012L105.55 60.3552C103.391 58.1954 100.666 57.0898 97.6183 57.0898V65.0898ZM99.8934 66.012C100.525 66.644 100.816 67.3219 100.816 68.2871H108.816C108.816 65.2393 107.71 62.5149 105.55 60.3552L99.8934 66.012ZM100.816 68.2871C100.816 69.1121 100.563 69.7617 99.8934 70.4313L105.55 76.0882C107.672 73.9662 108.816 71.3006 108.816 68.2871H100.816ZM99.9804 70.347C99.1894 71.0914 98.4522 71.3535 97.6183 71.3535V79.3535C100.623 79.3535 103.288 78.2198 105.463 76.1726L99.9804 70.347ZM97.6183 71.3535H62.2863V79.3535H97.6183V71.3535ZM62.2863 71.3535C61.8315 71.3535 61.2616 71.3885 60.6619 71.5384C60.0864 71.6822 59.1937 72.0041 58.411 72.7868L64.0679 78.4437C63.4596 79.0519 62.8287 79.2429 62.6022 79.2995C62.3514 79.3622 62.2177 79.3535 62.2863 79.3535V71.3535ZM58.411 72.7868C57.3864 73.8115 57.0587 75.0758 56.9245 75.7468L64.7692 77.3157C64.7755 77.284 64.7602 77.3799 64.687 77.5508C64.6173 77.7135 64.4415 78.07 64.0679 78.4437L58.411 72.7868ZM56.8928 75.9265L53.4905 98.1726L61.3985 99.3821L64.8009 77.136L56.8928 75.9265ZM59.0881 102.424C64.732 99.8804 70.8848 98.5898 77.5969 98.5898V90.5898C69.8272 90.5898 62.5451 92.091 55.8009 95.1306L59.0881 102.424ZM77.5969 98.5898C88.6329 98.5898 96.1084 102.278 100.871 109.166L107.451 104.616C100.873 95.1025 90.6389 90.5898 77.5969 90.5898V98.5898ZM100.884 109.184C104.011 113.651 105.657 119.102 105.657 125.734H113.657C113.657 117.71 111.64 110.599 107.438 104.597L100.884 109.184ZM105.657 125.734C105.657 134.212 102.797 140.651 97.2232 145.481L102.463 151.527C109.975 145.016 113.657 136.275 113.657 125.734H105.657ZM97.2263 145.478C91.7421 150.222 83.6047 152.879 72.2316 152.879V160.879C84.7622 160.879 95.0324 157.953 102.46 151.529L97.2263 145.478ZM72.2316 152.879C61.995 152.879 53.1566 150.432 45.5785 145.645L41.3066 152.409C50.304 158.092 60.6584 160.879 72.2316 160.879V152.879ZM45.6614 145.699C44.9548 145.228 44.5118 144.776 44.2332 144.378L37.6793 148.966C38.622 150.312 39.8366 151.431 41.2238 152.356L45.6614 145.699ZM44.4678 144.756C44.3588 144.557 44.1711 144.05 44.1711 143.008H36.1711C36.1711 144.932 36.5068 146.868 37.4447 148.587L44.4678 144.756ZM121.539 160.936L124.953 163.021L124.983 162.971L125.012 162.92L121.539 160.936ZM122.848 155.832L126.835 156.151L127.152 152.191L123.195 151.847L122.848 155.832ZM131.092 139.867L134.041 137.164L134.019 137.14L133.996 137.116L131.092 139.867ZM134.233 147.85L130.239 148.066L130.248 148.241L130.273 148.415L134.233 147.85ZM134.102 154.262L130.166 153.546L130.156 153.606L130.147 153.666L134.102 154.262ZM128.998 168.787L132.183 171.207L132.201 171.184L132.219 171.16L128.998 168.787ZM122.717 174.414L120.608 171.016L120.589 171.027L120.57 171.039L122.717 174.414ZM118.211 169.834C118.211 169.427 118.294 169.247 118.339 169.169C118.385 169.088 118.509 168.911 118.886 168.684L114.771 161.824C111.842 163.581 110.211 166.398 110.211 169.834H118.211ZM118.886 168.684C121.421 167.163 123.553 165.312 124.953 163.021L118.126 158.85C117.607 159.699 116.598 160.727 114.771 161.824L118.886 168.684ZM125.012 162.92C126.119 160.983 126.637 158.626 126.835 156.151L118.861 155.513C118.71 157.4 118.355 158.445 118.066 158.951L125.012 162.92ZM123.195 151.847C122.167 151.758 121.29 151.365 120.442 150.517L114.785 156.174C116.904 158.293 119.516 159.557 122.502 159.817L123.195 151.847ZM120.442 150.517C119.439 149.514 118.996 148.434 118.996 147.064H110.996C110.996 150.58 112.299 153.688 114.785 156.174L120.442 150.517ZM118.996 147.064V146.279H110.996V147.064H118.996ZM118.996 146.279C118.996 144.91 119.439 143.83 120.442 142.826L114.785 137.17C112.299 139.656 110.996 142.764 110.996 146.279H118.996ZM120.442 142.826C121.445 141.823 122.525 141.381 123.895 141.381V133.381C120.379 133.381 117.272 134.683 114.785 137.17L120.442 142.826ZM123.895 141.381H125.204V133.381H123.895V141.381ZM125.204 141.381C126.5 141.381 127.4 141.786 128.188 142.618L133.996 137.116C131.644 134.633 128.618 133.381 125.204 133.381V141.381ZM128.144 142.57C129.351 143.887 130.107 145.628 130.239 148.066L138.227 147.634C138.01 143.616 136.672 140.034 134.041 137.164L128.144 142.57ZM130.273 148.415C130.317 148.721 130.364 149.477 130.364 150.859H138.364C138.364 149.45 138.323 148.199 138.193 147.284L130.273 148.415ZM130.364 150.859C130.364 152.004 130.286 152.887 130.166 153.546L138.037 154.977C138.267 153.717 138.364 152.332 138.364 150.859H130.364ZM130.147 153.666C129.234 159.719 127.677 163.837 125.778 166.414L132.219 171.16C135.205 167.107 137.05 161.541 138.057 154.858L130.147 153.666ZM125.814 166.367C124.477 168.126 122.759 169.68 120.608 171.016L124.827 177.813C127.735 176.007 130.205 173.81 132.183 171.207L125.814 166.367ZM120.57 171.039C120.3 171.211 119.965 171.33 119.446 171.33V179.33C121.369 179.33 123.216 178.838 124.865 177.789L120.57 171.039ZM119.446 171.33C119.291 171.33 119.099 171.326 118.721 170.916L112.842 176.342C114.558 178.2 116.809 179.33 119.446 179.33V171.33ZM118.721 170.916C118.278 170.436 118.211 170.115 118.211 169.834H110.211C110.211 172.345 111.192 174.554 112.842 176.342L118.721 170.916ZM203.17 72.7363L199.966 75.1311L199.979 75.1493L199.993 75.1673L203.17 72.7363ZM200.16 147.588L197.331 144.759L200.16 147.588ZM148.47 143.924L145.24 146.282L145.245 146.29L145.251 146.298L148.47 143.924ZM148.47 72.8672L151.69 75.2411L151.695 75.2334L151.701 75.2256L148.47 72.8672ZM159.724 82.9434L156.388 80.7359L156.381 80.7476L159.724 82.9434ZM192.046 133.979L188.711 131.771L188.703 131.783L192.046 133.979ZM175.689 63.7812C186.438 63.7812 194.348 67.6163 199.966 75.1311L206.373 70.3415C199.079 60.5829 188.669 55.7812 175.689 55.7812V63.7812ZM199.993 75.1673C205.822 82.7835 208.984 93.6777 208.984 108.33H216.984C216.984 92.6231 213.603 79.7881 206.346 70.3053L199.993 75.1673ZM208.984 108.33C208.984 125.377 204.846 137.245 197.331 144.759L202.988 150.416C212.572 140.832 216.984 126.528 216.984 108.33H208.984ZM197.331 144.759C191.991 150.1 184.992 152.879 175.951 152.879V160.879C186.801 160.879 195.94 157.464 202.988 150.416L197.331 144.759ZM175.951 152.879C165.103 152.879 157.21 149.037 151.69 141.55L145.251 146.298C152.467 156.084 162.895 160.879 175.951 160.879V152.879ZM151.701 141.565C145.994 133.747 142.918 122.809 142.918 108.33H134.918C134.918 123.861 138.21 136.653 145.24 146.282L151.701 141.565ZM142.918 108.33C142.918 93.8477 145.995 82.9642 151.69 75.2411L145.251 70.4933C138.209 80.0436 134.918 92.8021 134.918 108.33H142.918ZM151.701 75.2256C157.241 67.6371 165.055 63.7812 175.689 63.7812V55.7812C162.769 55.7812 152.437 60.6494 145.24 70.5087L151.701 75.2256ZM201.935 108.33C201.935 94.3901 198.948 83.4031 191.996 76.4509L186.339 82.1077C191.077 86.8456 193.935 95.2258 193.935 108.33H201.935ZM191.996 76.4509C187.694 72.1486 182.241 70.0449 175.951 70.0449V78.0449C180.303 78.0449 183.662 79.4308 186.339 82.1077L191.996 76.4509ZM175.951 70.0449C167.666 70.0449 161.026 73.7276 156.388 80.7359L163.06 85.1508C166.274 80.2946 170.452 78.0449 175.951 78.0449V70.0449ZM156.381 80.7476C151.931 87.5233 149.966 96.8883 149.966 108.33H157.966C157.966 97.613 159.84 90.0535 163.068 85.1391L156.381 80.7476ZM149.966 108.33C149.966 122.348 152.95 133.384 159.906 140.34L165.562 134.683C160.828 129.949 157.966 121.53 157.966 108.33H149.966ZM159.906 140.34C164.208 144.642 169.66 146.746 175.951 146.746V138.746C171.598 138.746 168.239 137.36 165.562 134.683L159.906 140.34ZM175.951 146.746C184.214 146.746 190.825 143.125 195.39 136.174L188.703 131.783C185.591 136.522 181.472 138.746 175.951 138.746V146.746ZM195.382 136.186C199.923 129.324 201.935 119.87 201.935 108.33H193.935C193.935 119.124 192.021 126.768 188.711 131.771L195.382 136.186ZM278.649 72.7363L275.445 75.1311L275.459 75.1493L275.473 75.1673L278.649 72.7363ZM275.639 147.588L272.811 144.759L275.639 147.588ZM223.95 143.924L220.719 146.282L220.725 146.29L220.731 146.298L223.95 143.924ZM223.95 72.8672L227.169 75.2411L227.175 75.2334L227.181 75.2256L223.95 72.8672ZM235.204 82.9434L231.868 80.7359L231.86 80.7476L235.204 82.9434ZM267.526 133.979L264.19 131.771L264.183 131.783L267.526 133.979ZM251.169 63.7812C261.918 63.7812 269.828 67.6163 275.445 75.1311L281.853 70.3415C274.559 60.5829 264.149 55.7812 251.169 55.7812V63.7812ZM275.473 75.1673C281.301 82.7835 284.464 93.6777 284.464 108.33H292.464C292.464 92.6231 289.083 79.7881 281.826 70.3053L275.473 75.1673ZM284.464 108.33C284.464 125.377 280.326 137.245 272.811 144.759L278.468 150.416C288.052 140.832 292.464 126.528 292.464 108.33H284.464ZM272.811 144.759C267.471 150.1 260.471 152.879 251.43 152.879V160.879C262.28 160.879 271.42 157.464 278.468 150.416L272.811 144.759ZM251.43 152.879C240.582 152.879 232.69 149.037 227.169 141.55L220.731 146.298C227.947 156.084 238.375 160.879 251.43 160.879V152.879ZM227.181 141.565C221.473 133.747 218.397 122.809 218.397 108.33H210.397C210.397 123.861 213.69 136.653 220.719 146.282L227.181 141.565ZM218.397 108.33C218.397 93.8477 221.475 82.9642 227.169 75.2411L220.731 70.4933C213.688 80.0436 210.397 92.8021 210.397 108.33H218.397ZM227.181 75.2256C232.72 67.6371 240.534 63.7812 251.169 63.7812V55.7812C238.248 55.7812 227.917 60.6494 220.719 70.5087L227.181 75.2256ZM277.415 108.33C277.415 94.3901 274.428 83.4031 267.476 76.4509L261.819 82.1077C266.557 86.8456 269.415 95.2258 269.415 108.33H277.415ZM267.476 76.4509C263.173 72.1486 257.721 70.0449 251.43 70.0449V78.0449C255.783 78.0449 259.142 79.4308 261.819 82.1077L267.476 76.4509ZM251.43 70.0449C243.145 70.0449 236.506 73.7276 231.868 80.7359L238.54 85.1508C241.753 80.2946 245.932 78.0449 251.43 78.0449V70.0449ZM231.86 80.7476C227.411 87.5233 225.446 96.8883 225.446 108.33H233.446C233.446 97.613 235.32 90.0535 238.547 85.1391L231.86 80.7476ZM225.446 108.33C225.446 122.348 228.429 133.384 235.385 140.34L241.042 134.683C236.308 129.949 233.446 121.53 233.446 108.33H225.446ZM235.385 140.34C239.687 144.642 245.14 146.746 251.43 146.746V138.746C247.078 138.746 243.719 137.36 241.042 134.683L235.385 140.34ZM251.43 146.746C259.693 146.746 266.305 143.125 270.87 136.174L264.183 131.783C261.071 136.522 256.951 138.746 251.43 138.746V146.746ZM270.862 136.186C275.403 129.324 277.415 119.87 277.415 108.33H269.415C269.415 119.124 267.501 126.768 264.19 131.771L270.862 136.186ZM354.129 72.7363L350.925 75.1311L350.939 75.1493L350.952 75.1673L354.129 72.7363ZM351.119 147.588L348.291 144.759L351.119 147.588ZM299.43 143.924L296.199 146.282L296.205 146.29L296.21 146.298L299.43 143.924ZM299.43 72.8672L302.649 75.2411L302.655 75.2334L302.66 75.2256L299.43 72.8672ZM310.684 82.9434L307.348 80.7359L307.34 80.7476L310.684 82.9434ZM343.006 133.979L339.67 131.771L339.662 131.783L343.006 133.979ZM326.648 63.7812C337.398 63.7812 345.308 67.6163 350.925 75.1311L357.333 70.3415C350.038 60.5829 339.628 55.7812 326.648 55.7812V63.7812ZM350.952 75.1673C356.781 82.7835 359.943 93.6777 359.943 108.33H367.943C367.943 92.6231 364.563 79.7881 357.305 70.3053L350.952 75.1673ZM359.943 108.33C359.943 125.377 355.805 137.245 348.291 144.759L353.948 150.416C363.532 140.832 367.943 126.528 367.943 108.33H359.943ZM348.291 144.759C342.951 150.1 335.951 152.879 326.91 152.879V160.879C337.76 160.879 346.9 157.464 353.948 150.416L348.291 144.759ZM326.91 152.879C316.062 152.879 308.17 149.037 302.649 141.55L296.21 146.298C303.427 156.084 313.855 160.879 326.91 160.879V152.879ZM302.66 141.565C296.953 133.747 293.877 122.809 293.877 108.33H285.877C285.877 123.861 289.169 136.653 296.199 146.282L302.66 141.565ZM293.877 108.33C293.877 93.8477 296.954 82.9642 302.649 75.2411L296.21 70.4933C289.168 80.0436 285.877 92.8021 285.877 108.33H293.877ZM302.66 75.2256C308.2 67.6371 316.014 63.7812 326.648 63.7812V55.7812C313.728 55.7812 303.396 60.6494 296.199 70.5087L302.66 75.2256ZM352.895 108.33C352.895 94.3901 349.908 83.4031 342.955 76.4509L337.299 82.1077C342.036 86.8456 344.895 95.2258 344.895 108.33H352.895ZM342.955 76.4509C338.653 72.1486 333.201 70.0449 326.91 70.0449V78.0449C331.263 78.0449 334.622 79.4308 337.299 82.1077L342.955 76.4509ZM326.91 70.0449C318.625 70.0449 311.986 73.7276 307.348 80.7359L314.019 85.1508C317.233 80.2946 321.412 78.0449 326.91 78.0449V70.0449ZM307.34 80.7476C302.89 87.5233 300.926 96.8883 300.926 108.33H308.926C308.926 97.613 310.8 90.0535 314.027 85.1391L307.34 80.7476ZM300.926 108.33C300.926 122.348 303.909 133.384 310.865 140.34L316.522 134.683C311.788 129.949 308.926 121.53 308.926 108.33H300.926ZM310.865 140.34C315.167 144.642 320.619 146.746 326.91 146.746V138.746C322.558 138.746 319.199 137.36 316.522 134.683L310.865 140.34ZM326.91 146.746C335.173 146.746 341.784 143.125 346.349 136.174L339.662 131.783C336.55 136.522 332.431 138.746 326.91 138.746V146.746ZM346.342 136.186C350.883 129.324 352.895 119.87 352.895 108.33H344.895C344.895 119.124 342.981 126.768 339.67 131.771L346.342 136.186Z" fill="#D32B17" mask="url(#path-1-outside-1_12860_52133)"/>
<circle cx="23" cy="137" r="22" fill="url(#paint2_linear_12860_52133)" stroke="#D32B17" stroke-width="2"/>
<path d="M25.1152 147.322V153.223C25.1152 153.94 24.9297 154.484 24.5586 154.855C24.1875 155.227 23.6556 155.412 22.9629 155.412C22.2702 155.412 21.7383 155.227 21.3672 154.855C20.9961 154.484 20.8105 153.94 20.8105 153.223V147.322H11.6816C10.9395 147.322 10.3952 147.137 10.0488 146.766C9.72721 146.469 9.56641 146.048 9.56641 145.504C9.56641 144.96 9.73958 144.514 10.0859 144.168C10.4323 143.822 10.9642 143.648 11.6816 143.648H20.8105V141.162H11.6816C10.9642 141.162 10.4323 140.989 10.0859 140.643C9.73958 140.296 9.56641 139.851 9.56641 139.307C9.56641 138.762 9.72721 138.329 10.0488 138.008C10.4199 137.637 10.9642 137.451 11.6816 137.451H18.3984L9.90039 127.098C9.5293 126.603 9.34375 126.17 9.34375 125.799C9.34375 125.23 9.50456 124.785 9.82617 124.463C10.1478 124.141 10.6302 123.98 11.2734 123.98C12.0156 123.98 12.696 124.339 13.3145 125.057L22.9629 136.857L32.5742 125.057C33.2174 124.339 33.873 123.98 34.541 123.98C35.2337 123.98 35.7533 124.154 36.0996 124.5C36.4212 124.822 36.582 125.255 36.582 125.799C36.582 126.17 36.3717 126.615 35.9512 127.135L27.5273 137.451H34.1699C34.9121 137.451 35.4564 137.624 35.8027 137.971C36.1491 138.317 36.3223 138.762 36.3223 139.307C36.3223 139.851 36.1615 140.284 35.8398 140.605C35.4688 140.977 34.9121 141.162 34.1699 141.162H25.1152V143.648H34.1699C34.9121 143.648 35.4564 143.822 35.8027 144.168C36.1491 144.514 36.3223 144.96 36.3223 145.504C36.3223 146.048 36.1615 146.469 35.8398 146.766C35.4935 147.137 34.9368 147.322 34.1699 147.322H25.1152Z" fill="#D32B17"/>
<defs>
<linearGradient id="paint0_linear_12860_52133" x1="368" y1="37.7774" x2="78.9562" y2="241.444" gradientUnits="userSpaceOnUse">
<stop stop-color="#CFA359"/>
<stop offset="0.5" stop-color="#F5E6AD"/>
<stop offset="0.954106" stop-color="#CFA359"/>
</linearGradient>
<linearGradient id="paint1_linear_12860_52133" x1="169.252" y1="2.01038e-06" x2="206.643" y2="218.3" gradientUnits="userSpaceOnUse">
<stop offset="0.275" stop-color="#CFA358" stop-opacity="0"/>
<stop offset="0.2751" stop-color="white"/>
<stop offset="0.67" stop-color="#CFA358" stop-opacity="0"/>
<stop offset="0.6701" stop-color="white"/>
</linearGradient>
<linearGradient id="paint2_linear_12860_52133" x1="45" y1="122.767" x2="-2.2414" y2="144.031" gradientUnits="userSpaceOnUse">
<stop stop-color="#CFA359"/>
<stop offset="0.5" stop-color="#F5E6AD"/>
<stop offset="0.954106" stop-color="#CFA359"/>
</linearGradient>
</defs>
</svg>
