<svg width="174" height="32" viewBox="0 0 174 32" fill="none" xmlns="http://www.w3.org/2000/svg">
<g clip-path="url(#clip0_12723_52092)">
<path d="M166.91 0H6.22C6.22 3.44 3.43 6.22 0 6.22V25.33C3.44 25.33 6.22 28.12 6.22 31.55H166.91C166.91 28.11 169.7 25.33 173.13 25.33V6.22C169.69 6.22 166.91 3.43 166.91 0Z" fill="url(#paint0_linear_12723_52092)"/>
<g style="mix-blend-mode:lighten">
<path d="M7.64 29.56C6.95 26.63 4.77 24.32 2 23.58V7.98C4.76 7.25 6.95 4.93 7.64 2H165.72C166.41 4.93 168.59 7.24 171.36 7.98V23.58C168.6 24.31 166.41 26.63 165.72 29.56H7.64Z" fill="url(#paint1_linear_12723_52092)"/>
<path d="M7.64 29.56C6.95 26.63 4.77 24.32 2 23.58V7.98C4.76 7.25 6.95 4.93 7.64 2H165.72C166.41 4.93 168.59 7.24 171.36 7.98V23.58C168.6 24.31 166.41 26.63 165.72 29.56H7.64Z" stroke="white" stroke-width="0.5"/>
</g>
<path d="M16.9336 8.21875C16.9336 6.80078 17.5924 6.0918 18.9102 6.0918C18.9531 6.0918 19.0033 6.0918 19.0605 6.0918H21.8105C22.584 6.0918 23.1283 6.25651 23.4434 6.58594C23.6725 6.80078 23.7871 7.0944 23.7871 7.4668C23.7871 8.02539 23.2285 9.47201 22.1113 11.8066C21.7819 12.4798 21.6172 12.9238 21.6172 13.1387C21.6172 13.196 21.653 13.2962 21.7246 13.4395C21.7962 13.5827 21.9323 13.776 22.1328 14.0195C22.5339 14.4922 22.8418 15.0579 23.0566 15.7168C23.2572 16.2897 23.3574 16.9128 23.3574 17.5859C23.3574 18.7747 23.071 19.6556 22.498 20.2285C21.9681 20.7585 21.209 21.0234 20.2207 21.0234C19.8197 21.0234 19.5117 20.916 19.2969 20.7012C19.168 20.5723 19.082 20.4076 19.0391 20.207V24.1172C19.0391 24.5326 18.9388 24.8333 18.7383 25.0195C18.5521 25.2201 18.3014 25.3203 17.9863 25.3203C17.6712 25.3203 17.4134 25.2201 17.2129 25.0195C17.0267 24.8333 16.9336 24.5326 16.9336 24.1172V8.21875ZM19.5547 8.13281C19.2396 8.13281 19.0677 8.29753 19.0391 8.62695V19.4551C19.1107 19.2116 19.2467 19.0254 19.4473 18.8965C19.5046 18.8535 19.5762 18.8249 19.6621 18.8105C19.748 18.7819 19.8411 18.7604 19.9414 18.7461C20.0703 18.7174 20.2279 18.696 20.4141 18.6816C20.6146 18.653 20.7363 18.6315 20.7793 18.6172C21.1374 18.4883 21.3164 18.0586 21.3164 17.3281C21.3164 16.2396 20.8509 15.1081 19.9199 13.9336C19.7337 13.6901 19.6406 13.4108 19.6406 13.0957C19.6406 12.9811 19.6621 12.8594 19.7051 12.7305C19.7624 12.5872 19.834 12.3939 19.9199 12.1504C20.0059 11.8926 20.2135 11.3984 20.543 10.668C20.8867 9.9375 21.1016 9.4362 21.1875 9.16406C21.3451 8.73438 21.4238 8.4694 21.4238 8.36914L21.3809 8.21875C21.3236 8.16146 21.2018 8.13281 21.0156 8.13281H19.5547ZM21.6602 23.752C21.6602 23.4655 21.7891 23.2148 22.0469 23C22.2904 22.7995 22.627 22.6419 23.0566 22.5273L24.0234 22.2266V8.39062C24.0234 7.61719 24.2168 7.05143 24.6035 6.69336C25.0189 6.30664 25.5846 6.11328 26.3008 6.11328H32.4668C33.2832 6.11328 33.8991 6.32812 34.3145 6.75781C34.6582 7.08724 34.8301 7.63151 34.8301 8.39062V13.5469C34.8301 14.2917 34.6439 14.9004 34.2715 15.373C33.8275 15.7454 33.2546 15.9316 32.5527 15.9316C32.5241 15.9316 32.4954 15.9316 32.4668 15.9316H30.2324C30.3613 16.9199 30.6335 17.8294 31.0488 18.6602C31.4355 18.388 31.8079 18.0872 32.166 17.7578C32.5241 17.4284 32.9896 16.9772 33.5625 16.4043C33.7344 16.2324 33.8919 16.1035 34.0352 16.0176C34.1927 15.9316 34.3431 15.8887 34.4863 15.8887C34.8444 15.8887 35.1165 15.9889 35.3027 16.1895C35.5033 16.3757 35.6035 16.6621 35.6035 17.0488C35.6035 17.278 35.4316 17.5645 35.0879 17.9082C34.515 18.4668 33.498 19.2188 32.0371 20.1641C32.8965 21.181 33.9922 21.9974 35.3242 22.6133C35.8255 22.8424 36.0762 23.2005 36.0762 23.6875C36.0762 24.0599 35.9688 24.3464 35.7539 24.5469C35.5534 24.7617 35.2598 24.8691 34.873 24.8691C34.515 24.8691 33.9134 24.5755 33.0684 23.9883C30.1895 21.9831 28.5924 19.2975 28.2773 15.9316H26.1074V21.5391L28.6426 20.6152L28.8574 20.5723H28.8789C29.1654 20.5723 29.3945 20.6582 29.5664 20.8301C29.7383 21.002 29.8242 21.2741 29.8242 21.6465C29.8242 21.9186 29.7383 22.1406 29.5664 22.3125C29.3086 22.5417 28.6712 22.8496 27.6543 23.2363C27.0527 23.4655 26.6302 23.6374 26.3867 23.752C25.9141 23.9525 25.3411 24.1745 24.668 24.418C23.5508 24.776 22.9134 24.9551 22.7559 24.9551C22.7415 24.9551 22.7344 24.9551 22.7344 24.9551C22.4049 24.9551 22.14 24.8548 21.9395 24.6543C21.7533 24.4681 21.6602 24.1673 21.6602 23.752ZM32.7031 8.79883C32.7031 8.56966 32.653 8.40495 32.5527 8.30469C32.4525 8.20443 32.2878 8.1543 32.0586 8.1543H26.752C26.5228 8.1543 26.3581 8.20443 26.2578 8.30469C26.1576 8.40495 26.1074 8.56966 26.1074 8.79883V9.98047H32.7031V8.79883ZM26.1074 13.8906H32.0586C32.2878 13.8906 32.4525 13.8405 32.5527 13.7402C32.653 13.64 32.7031 13.4753 32.7031 13.2461V12H26.1074V13.8906ZM46.5691 8.04688V6.62891C46.5691 5.88411 46.8126 5.41862 47.2996 5.23242C47.4285 5.18945 47.5717 5.16797 47.7293 5.16797C48.2163 5.16797 48.5385 5.36133 48.6961 5.74805C48.782 5.94857 48.825 6.54297 48.825 7.53125V12.0215C48.825 13.7832 48.782 15.2227 48.6961 16.3398C48.6245 17.4714 48.4526 18.5169 48.1805 19.4766C47.9083 20.4362 47.4858 21.3027 46.9129 22.0762C46.297 22.8783 45.3732 23.5801 44.1414 24.1816C43.5685 24.4538 43.0672 24.6686 42.6375 24.8262C42.2221 24.998 41.8927 25.084 41.6492 25.084C41.2768 25.084 40.9975 24.9909 40.8113 24.8047C40.6251 24.6185 40.532 24.3607 40.532 24.0312C40.532 23.444 40.8615 23.0501 41.5203 22.8496C42.9526 22.4199 44.0053 21.8685 44.6785 21.1953C45.0652 20.7943 45.3875 20.3145 45.6453 19.7559L41.3914 20.5078C41.1766 20.5508 40.9689 20.5365 40.7684 20.4648C40.6251 20.4219 40.5034 20.3359 40.4031 20.207C40.2456 20.0208 40.1668 19.7702 40.1668 19.4551C40.1668 19.1686 40.2671 18.9323 40.4676 18.7461C40.6824 18.5456 40.9617 18.4167 41.3055 18.3594L46.3328 17.5859C46.4474 16.9414 46.519 16.1107 46.5477 15.0938H42.4871C42.0431 15.0938 41.7137 14.9935 41.4988 14.793C41.2983 14.5781 41.198 14.3132 41.198 13.998C41.198 13.6686 41.2911 13.4108 41.4773 13.2246C41.6922 13.0098 42.0288 12.9023 42.4871 12.9023H46.5691V10.2383H41.95C41.4917 10.2383 41.1479 10.1237 40.9188 9.89453C40.7326 9.70833 40.6395 9.45768 40.6395 9.14258C40.6395 8.81315 40.7326 8.5625 40.9188 8.39062C41.1336 8.16146 41.4773 8.04688 41.95 8.04688H46.5691ZM60.1688 19.2402C60.2117 19.3691 60.2332 19.498 60.2332 19.627C60.2332 19.7559 60.226 19.8633 60.2117 19.9492C60.1688 20.1354 60.0828 20.293 59.9539 20.4219C59.7247 20.651 59.3738 20.7656 58.9012 20.7656H53.8523V24.1387C53.8523 24.5254 53.7521 24.819 53.5516 25.0195C53.351 25.2201 53.0646 25.3203 52.6922 25.3203C52.3484 25.3203 52.0763 25.2201 51.8758 25.0195C51.6753 24.819 51.575 24.5254 51.575 24.1387V6.47852C51.575 6.07747 51.6753 5.77669 51.8758 5.57617C52.0763 5.37565 52.3556 5.27539 52.7137 5.27539C53.0717 5.27539 53.351 5.37565 53.5516 5.57617C53.7521 5.77669 53.8523 6.07747 53.8523 6.47852V8.04688H58.5145C58.9728 8.04688 59.3094 8.1543 59.5242 8.36914C59.7104 8.55534 59.8035 8.80599 59.8035 9.12109C59.8035 9.59375 59.6173 9.92318 59.2449 10.1094C59.0444 10.1953 58.8009 10.2383 58.5145 10.2383H53.8523V13.1387H57.9344C58.3927 13.1387 58.7293 13.2461 58.9441 13.4609C59.1303 13.6471 59.2234 13.9049 59.2234 14.2344C59.2234 14.5638 59.116 14.8359 58.9012 15.0508C58.7007 15.2513 58.3784 15.3516 57.9344 15.3516H53.8523V18.5527H58.9012C59.5743 18.5527 59.9969 18.7819 60.1688 19.2402ZM70.4898 8.92773C70.676 9.09961 70.7691 9.35026 70.7691 9.67969C70.7691 9.99479 70.4827 11.1263 69.9098 13.0742H76.7203V8.36914H66.7516C66.107 8.36914 65.706 8.1543 65.5484 7.72461C65.5055 7.5957 65.484 7.45964 65.484 7.31641C65.484 7.0013 65.5771 6.75065 65.7633 6.56445C65.9781 6.34961 66.3076 6.24219 66.7516 6.24219H82.1344C82.607 6.24219 82.9508 6.35677 83.1656 6.58594C83.3518 6.75781 83.4449 7.0013 83.4449 7.31641C83.4449 7.76042 83.2587 8.06836 82.8863 8.24023C82.6858 8.32617 82.4352 8.36914 82.1344 8.36914H79.0621V13.0742H82.9723C83.4306 13.0742 83.7672 13.1816 83.982 13.3965C84.1682 13.5827 84.2613 13.8333 84.2613 14.1484C84.2613 14.4492 84.1682 14.6927 83.982 14.8789C83.7672 15.0938 83.4306 15.2012 82.9723 15.2012H79.0621V22.5918C79.0621 23.4798 78.8473 24.1315 78.4176 24.5469C77.9879 24.9622 77.3863 25.1699 76.6129 25.1699H74.5719C74.2138 25.1699 73.9202 25.0625 73.691 24.8477C73.4762 24.6328 73.3688 24.3392 73.3688 23.9668C73.3688 23.7806 73.3902 23.6302 73.4332 23.5156C73.4905 23.3294 73.5764 23.179 73.691 23.0645C73.9202 22.8496 74.2138 22.7422 74.5719 22.7422H76.1188C76.3193 22.7422 76.4625 22.6992 76.5484 22.6133C76.6487 22.513 76.706 22.3698 76.7203 22.1836V16.5332C75.5745 17.7507 74.4072 18.8105 73.2184 19.7129C72.1585 20.5007 70.7691 21.3457 69.0504 22.248C67.4892 23.0645 66.5081 23.4727 66.107 23.4727C65.7203 23.4727 65.4195 23.3652 65.2047 23.1504C65.0042 22.9499 64.9039 22.6491 64.9039 22.248C64.9039 21.6751 65.2548 21.2669 65.9566 21.0234C69.4944 19.7917 72.5953 17.8509 75.2594 15.2012H69.1793C68.8642 15.9889 68.5777 16.5189 68.3199 16.791C68.0621 17.0488 67.7828 17.1777 67.482 17.1777C67.1526 17.1777 66.8733 17.0632 66.6441 16.834C66.4579 16.6478 66.3648 16.4186 66.3648 16.1465C66.3648 16.0033 66.3935 15.8672 66.4508 15.7383C66.6656 15.1797 66.9951 14.2057 67.4391 12.8164C67.8974 11.4128 68.2483 10.3099 68.4918 9.50781C68.5634 9.26432 68.6995 9.05664 68.9 8.88477C69.1148 8.69857 69.3655 8.60547 69.652 8.60547C69.9671 8.60547 70.2249 8.69141 70.4254 8.86328L70.4898 8.92773ZM104.487 6.00586C104.487 6.10612 104.408 6.37826 104.25 6.82227H107.688C108.017 6.82227 108.268 6.9082 108.44 7.08008C108.612 7.25195 108.698 7.48112 108.698 7.76758C108.698 8.03971 108.612 8.26172 108.44 8.43359C108.282 8.59115 108.032 8.66992 107.688 8.66992H103.455L103.176 9.16406H106.914C107.215 9.16406 107.444 9.24284 107.602 9.40039C107.76 9.55794 107.838 9.76562 107.838 10.0234C107.838 10.2812 107.752 10.4889 107.58 10.6465C107.409 10.7897 107.187 10.8613 106.914 10.8613H105.432V11.5918H107.731C108.189 11.5918 108.483 11.7708 108.612 12.1289C108.64 12.2292 108.655 12.3438 108.655 12.4727C108.655 12.7448 108.576 12.9596 108.418 13.1172C108.261 13.2747 108.032 13.3535 107.731 13.3535H101.586C101.271 13.3535 101.035 13.2747 100.877 13.1172C100.763 13.0026 100.691 12.8522 100.662 12.666C100.362 12.9095 100.09 13.0312 99.8461 13.0312C99.6026 13.0312 99.4092 12.9811 99.266 12.8809L99.1586 13.0312C98.9724 13.2031 98.7217 13.2891 98.4066 13.2891C98.1918 13.2891 97.848 13.0957 97.3754 12.709C97.0173 12.4082 96.8025 12.222 96.7309 12.1504C96.473 11.8926 96.3441 11.6491 96.3441 11.4199C96.3441 11.1191 96.4229 10.89 96.5805 10.7324C96.7523 10.5605 96.9958 10.4746 97.3109 10.4746C97.5544 10.4746 97.9626 10.6895 98.5355 11.1191C98.7361 11.2624 98.9079 11.4056 99.0512 11.5488C99.1371 11.3913 99.2517 11.248 99.3949 11.1191C99.5525 10.9902 99.6957 10.8613 99.8246 10.7324C99.9535 10.6035 100.082 10.4603 100.211 10.3027C100.355 10.1452 100.491 9.97331 100.62 9.78711C100.892 9.44336 101.135 9.07096 101.35 8.66992H100.362C100.018 8.66992 99.7602 8.58398 99.5883 8.41211C99.4164 8.24023 99.3305 8.01823 99.3305 7.74609C99.3305 7.45964 99.4236 7.23763 99.6098 7.08008C99.8103 6.9082 100.061 6.82227 100.362 6.82227H102.145L102.403 6.04883C102.474 5.80534 102.582 5.61198 102.725 5.46875C102.926 5.26823 103.169 5.16797 103.455 5.16797C103.828 5.16797 104.1 5.25391 104.272 5.42578C104.415 5.56901 104.487 5.76237 104.487 6.00586ZM103.455 11.5918V10.8613H102.145C101.959 11.1335 101.787 11.377 101.629 11.5918H103.455ZM96.1293 15.7168C96.1436 15.8171 96.1508 15.9245 96.1508 16.0391V23.0859C96.1508 23.7878 95.9717 24.3105 95.6137 24.6543C95.2699 25.0124 94.7686 25.1914 94.1098 25.1914H93.4437C93.057 25.1914 92.7706 25.0983 92.5844 24.9121C92.3982 24.7259 92.3051 24.4824 92.3051 24.1816C92.3051 23.8809 92.391 23.6374 92.5629 23.4512C92.7491 23.2793 93.0284 23.1934 93.4008 23.1934H93.8305C93.9451 23.1934 94.0238 23.1647 94.0668 23.1074C94.1241 23.0645 94.1527 22.9857 94.1527 22.8711V21.6895H91.9613V24.2676C91.9613 24.6257 91.8682 24.8978 91.682 25.084C91.5102 25.2559 91.2667 25.3418 90.9516 25.3418C90.6508 25.3418 90.4073 25.2487 90.2211 25.0625C90.0492 24.8906 89.9633 24.6257 89.9633 24.2676V16.0391C89.9633 16.0104 89.9633 15.9818 89.9633 15.9531C89.8773 15.9674 89.7842 15.9746 89.684 15.9746C89.598 15.9746 89.5121 15.9674 89.4262 15.9531C89.24 15.9102 89.0896 15.8171 88.975 15.6738C88.8031 15.4876 88.7172 15.237 88.7172 14.9219V13.1172C88.7172 12.6302 88.8389 12.265 89.0824 12.0215C89.2543 11.8639 89.4763 11.7637 89.7484 11.7207V7.78906C89.7484 7.1875 89.906 6.72917 90.2211 6.41406C90.5505 6.08464 91.0232 5.91992 91.6391 5.91992H94.475C95.0909 5.91992 95.5564 6.07747 95.8715 6.39258C96.1866 6.70768 96.3441 7.17318 96.3441 7.78906V11.7207C96.5876 11.778 96.7881 11.8854 96.9457 12.043C97.1749 12.2578 97.2895 12.5801 97.2895 13.0098V14.6855C97.2895 15.015 97.1964 15.2728 97.0102 15.459C96.8383 15.6309 96.5948 15.7168 96.2797 15.7168C96.2224 15.7168 96.1723 15.7168 96.1293 15.7168ZM96.516 7.14453C96.516 6.85807 96.5948 6.63607 96.7523 6.47852C96.9242 6.30664 97.1605 6.2207 97.4613 6.2207C97.6332 6.2207 97.8337 6.28516 98.0629 6.41406C98.3064 6.54297 98.5427 6.72201 98.7719 6.95117C99.2159 7.39518 99.4737 7.72461 99.5453 7.93945C99.5596 7.99674 99.5668 8.05404 99.5668 8.11133C99.5668 8.42643 99.4809 8.66992 99.309 8.8418C99.1371 9.01367 98.9008 9.09961 98.6 9.09961C98.3135 9.09961 98.0342 8.9707 97.7621 8.71289C97.3324 8.31185 97.0889 8.08984 97.0316 8.04688C96.6879 7.6888 96.516 7.38802 96.516 7.14453ZM91.8324 7.83203C91.7751 7.83203 91.7393 7.83919 91.725 7.85352C91.682 7.89648 91.6605 7.97526 91.6605 8.08984V11.6992H92.0043V10.3672C92.0043 9.85156 92.1404 9.45768 92.4125 9.18555C92.699 8.89909 93.1143 8.75586 93.6586 8.75586H94.475V8.08984C94.475 7.98958 94.4535 7.92513 94.4105 7.89648C94.3819 7.85352 94.3246 7.83203 94.2387 7.83203H91.8324ZM93.9594 10.5176C93.8878 10.5176 93.8376 10.5319 93.809 10.5605C93.7803 10.5892 93.766 10.6393 93.766 10.7109V11.6992H94.475V10.5176H93.9594ZM94.3461 14.2559C94.7185 14.2559 95.0336 14.3203 95.2914 14.4492V13.7832C95.2914 13.7259 95.2842 13.6901 95.2699 13.6758C95.2556 13.6471 95.227 13.6328 95.184 13.6328H90.8227C90.7797 13.6328 90.7439 13.6471 90.7152 13.6758C90.7009 13.6901 90.6866 13.7331 90.6723 13.8047V14.5352C90.9587 14.349 91.324 14.2559 91.768 14.2559H94.3461ZM107.774 20.3574C107.774 21.7754 107.144 22.4844 105.883 22.4844C105.797 22.4844 105.718 22.4844 105.647 22.4844H104.895C104.551 22.4844 104.293 22.3984 104.121 22.2266C103.95 22.0547 103.864 21.8184 103.864 21.5176C103.864 21.2025 103.95 20.959 104.121 20.7871C104.293 20.6152 104.537 20.5293 104.852 20.5293H105.368C105.511 20.5293 105.611 20.5007 105.668 20.4434C105.74 20.3717 105.776 20.25 105.776 20.0781V19.7988H102.446V21.5605C102.446 22.248 102.123 22.5918 101.479 22.5918C101.192 22.5918 100.963 22.5059 100.791 22.334C100.62 22.1621 100.534 21.9043 100.534 21.5605V15.3945C100.534 14.8216 100.684 14.3848 100.985 14.084C101.286 13.7832 101.722 13.6328 102.295 13.6328H105.991C106.578 13.6328 107.022 13.7832 107.323 14.084C107.623 14.3848 107.774 14.8216 107.774 15.3945V20.3574ZM105.776 16.0176V15.6953C105.776 15.5951 105.754 15.5234 105.711 15.4805C105.668 15.4375 105.597 15.416 105.496 15.416H102.746C102.632 15.416 102.553 15.4375 102.51 15.4805C102.467 15.5234 102.446 15.5951 102.446 15.6953V16.0176H105.776ZM108.655 23.709C108.655 24.4395 108.139 24.8047 107.108 24.8047C105.375 24.7904 103.993 24.7474 102.961 24.6758C101.944 24.6185 101.235 24.5111 100.834 24.3535C100.118 24.0957 99.4952 23.6732 98.9652 23.0859C98.421 23.6159 97.9698 24.0026 97.6117 24.2461C97.268 24.5039 96.9887 24.6328 96.7738 24.6328C96.4444 24.6328 96.1794 24.5326 95.9789 24.332C95.7927 24.1458 95.6996 23.8594 95.6996 23.4727C95.6996 23.2721 95.7927 23.0788 95.9789 22.8926C96.1794 22.7064 96.4444 22.513 96.7738 22.3125L97.8266 21.6465V17.6719C97.8266 17.5716 97.8194 17.5143 97.8051 17.5C97.7764 17.4714 97.7048 17.4499 97.5902 17.4355H97.1391C96.8526 17.4355 96.6234 17.3496 96.4516 17.1777C96.2797 17.0059 96.1937 16.748 96.1937 16.4043C96.1937 16.0892 96.2868 15.8385 96.473 15.6523C96.6592 15.4661 96.9385 15.373 97.3109 15.373H98.1273C98.6716 15.373 99.087 15.5163 99.3734 15.8027C99.6599 16.0892 99.8031 16.5189 99.8031 17.0918V21.3887C100.104 21.8613 100.526 22.2122 101.071 22.4414C101.672 22.6849 102.897 22.8066 104.745 22.8066C106.635 22.735 107.595 22.6992 107.623 22.6992C107.953 22.6992 108.211 22.7852 108.397 22.957C108.569 23.1432 108.655 23.3939 108.655 23.709ZM94.1527 16.4258C94.1527 16.3255 94.1384 16.2611 94.1098 16.2324C94.0668 16.1895 94.0023 16.168 93.9164 16.168H92.2836C92.1547 16.168 92.0687 16.1895 92.0258 16.2324C91.9828 16.2754 91.9613 16.3398 91.9613 16.4258V17.0273H94.1527V16.4258ZM102.446 17.6719V18.1445H105.776V17.6719H102.446ZM91.9613 19.7988H94.1527V18.918H91.9613V19.7988ZM129.997 13.7617C127.792 14.0339 124.261 14.3346 119.405 14.6641H119.384C119.355 14.6641 119.305 14.6641 119.234 14.6641C119.176 14.6641 119.098 14.6569 118.997 14.6426C118.768 14.6139 118.575 14.5208 118.417 14.3633C118.202 14.1484 118.095 13.8548 118.095 13.4824C118.095 13.11 118.238 12.8164 118.525 12.6016C118.654 12.5013 118.84 12.4368 119.083 12.4082C119.456 12.3652 120.007 12.3294 120.738 12.3008C121.224 11.1836 121.933 9.30729 122.864 6.67188C123.094 6.02734 123.359 5.61198 123.659 5.42578C123.817 5.33984 123.989 5.29688 124.175 5.29688C124.576 5.29688 124.877 5.39714 125.077 5.59766C125.264 5.78385 125.357 6.04883 125.357 6.39258C125.357 6.50716 125.328 6.65039 125.271 6.82227C125.228 6.99414 125.156 7.23763 125.056 7.55273C124.956 7.86784 124.769 8.34766 124.497 8.99219L123.853 10.5176C123.581 11.1908 123.344 11.7637 123.144 12.2363L128.945 11.8066L127.849 10.1309C127.577 9.71549 127.441 9.40039 127.441 9.18555C127.441 8.78451 127.577 8.50521 127.849 8.34766C128.021 8.2474 128.228 8.19727 128.472 8.19727C128.973 8.19727 129.818 9.10677 131.007 10.9258C131.823 12.1432 132.353 13.0098 132.597 13.5254C132.74 13.7975 132.812 14.0267 132.812 14.2129C132.812 14.7428 132.626 15.1009 132.253 15.2871C132.081 15.373 131.874 15.416 131.63 15.416C131.501 15.416 131.387 15.3874 131.286 15.3301C131.129 15.2585 130.993 15.1582 130.878 15.0293L130.771 14.9219C130.527 14.6497 130.269 14.263 129.997 13.7617ZM114.314 6.95117C114.314 6.46419 114.493 6.13477 114.851 5.96289C115.023 5.87695 115.238 5.83398 115.495 5.83398C115.796 5.83398 116.405 6.08464 117.321 6.58594C118.267 7.10156 118.739 7.61003 118.739 8.11133C118.739 8.4694 118.639 8.7487 118.439 8.94922C118.238 9.14974 117.952 9.25 117.579 9.25C117.364 9.25 117.114 9.1569 116.827 8.9707L115.796 8.41211C115.238 8.09701 114.851 7.83203 114.636 7.61719C114.421 7.40234 114.314 7.18034 114.314 6.95117ZM113.218 12.3867C113.218 12.0143 113.318 11.7279 113.519 11.5273C113.719 11.3268 113.999 11.2266 114.357 11.2266C114.6 11.2266 115.216 11.4414 116.204 11.8711C117.25 12.3438 117.773 12.8594 117.773 13.418C117.773 13.8047 117.672 14.0983 117.472 14.2988C117.271 14.4993 116.999 14.5996 116.655 14.5996C116.455 14.5996 116.018 14.4206 115.345 14.0625L114.335 13.6113C113.59 13.2819 113.218 12.8737 113.218 12.3867ZM119.534 22.9141C119.534 22.8568 119.534 22.7995 119.534 22.7422V17.7148C119.534 16.9844 119.706 16.4401 120.05 16.082C120.365 15.7669 120.831 15.6094 121.446 15.6094C121.504 15.6094 121.561 15.6094 121.618 15.6094H129.181C129.94 15.6094 130.484 15.7812 130.814 16.125C131.143 16.4544 131.308 16.9271 131.308 17.543C131.308 17.6003 131.308 17.6576 131.308 17.7148V22.7422C131.308 23.487 131.136 24.0312 130.792 24.375C130.477 24.6758 130.019 24.8262 129.417 24.8262C129.346 24.8262 129.267 24.8262 129.181 24.8262H121.618C120.874 24.8262 120.329 24.6543 119.986 24.3105C119.685 23.9954 119.534 23.5299 119.534 22.9141ZM113.562 24.5684C113.461 24.4681 113.383 24.3464 113.325 24.2031C113.282 24.0599 113.261 23.9167 113.261 23.7734C113.261 23.6445 113.297 23.487 113.368 23.3008C113.483 23 113.655 22.6348 113.884 22.2051C114.299 21.4173 114.822 20.2428 115.452 18.6816C115.481 18.61 115.51 18.5384 115.538 18.4668C115.553 18.4095 115.574 18.3379 115.603 18.252C115.646 18.1517 115.674 18.0872 115.689 18.0586C115.717 18.0013 115.746 17.9368 115.775 17.8652C115.818 17.7507 115.846 17.6576 115.861 17.5859C115.932 17.3138 116.061 17.0918 116.247 16.9199C116.448 16.7337 116.67 16.6406 116.913 16.6406C117.429 16.6406 117.773 16.7982 117.945 17.1133C118.016 17.2565 118.052 17.4141 118.052 17.5859C118.052 18.1159 117.372 19.9635 116.011 23.1289C115.739 23.7734 115.46 24.2389 115.173 24.5254C114.944 24.7546 114.708 24.8691 114.464 24.8691C114.063 24.8691 113.762 24.7689 113.562 24.5684ZM129.073 22.0117V18.4238C129.073 18.123 129.03 17.9297 128.945 17.8438C128.859 17.7578 128.672 17.7148 128.386 17.7148H122.456C122.17 17.7148 121.984 17.7578 121.898 17.8438C121.812 17.9297 121.769 18.123 121.769 18.4238V22.0117C121.769 22.1693 121.783 22.2982 121.812 22.3984C121.84 22.4987 121.869 22.5632 121.898 22.5918C121.984 22.6777 122.17 22.7207 122.456 22.7207H128.386C128.672 22.7207 128.859 22.6777 128.945 22.5918C129.03 22.5059 129.073 22.3125 129.073 22.0117ZM142.188 12C142.188 14.7214 141.994 17.056 141.607 19.0039C141.264 20.6797 140.555 22.291 139.48 23.8379C139.036 24.4824 138.607 24.8047 138.191 24.8047C137.819 24.8047 137.54 24.6973 137.354 24.4824C137.167 24.2819 137.074 23.9883 137.074 23.6016C137.074 23.3151 137.225 22.9928 137.525 22.6348C138.657 21.2598 139.409 19.4694 139.781 17.2637L138.75 17.9727C138.464 18.1589 138.227 18.252 138.041 18.252C137.497 18.252 137.153 18.0299 137.01 17.5859C136.967 17.457 136.945 17.3281 136.945 17.1992C136.945 17.056 136.96 16.9414 136.988 16.8555C137.06 16.5977 137.239 16.3685 137.525 16.168L139.953 14.8789C139.982 13.9479 139.996 13.2461 139.996 12.7734V8.9707C139.996 8.36914 140.154 7.91081 140.469 7.5957C140.784 7.2806 141.242 7.12305 141.844 7.12305H147.365V6.37109C147.365 6.01302 147.465 5.73372 147.666 5.5332C147.881 5.31836 148.189 5.21094 148.59 5.21094C148.991 5.21094 149.292 5.3112 149.492 5.51172C149.693 5.71224 149.793 5.9987 149.793 6.37109V7.12305H155.809C156.31 7.12305 156.646 7.28776 156.818 7.61719C156.89 7.76042 156.926 7.92513 156.926 8.11133C156.926 8.41211 156.833 8.6556 156.646 8.8418C156.475 9.01367 156.195 9.09961 155.809 9.09961H142.488C142.374 9.09961 142.295 9.12109 142.252 9.16406C142.209 9.20703 142.188 9.28581 142.188 9.40039V12ZM137.053 9.37891C137.053 9.14974 137.139 8.94206 137.311 8.75586C137.511 8.55534 137.769 8.45508 138.084 8.45508C138.528 8.45508 138.836 8.69141 139.008 9.16406C139.194 9.63672 139.38 10.2884 139.566 11.1191C139.681 11.6921 139.738 12.0501 139.738 12.1934C139.738 12.3223 139.731 12.4368 139.717 12.5371C139.688 12.6803 139.609 12.8164 139.48 12.9453C139.366 13.0742 139.187 13.1673 138.943 13.2246C138.872 13.2389 138.779 13.2461 138.664 13.2461C138.421 13.2461 138.22 13.1745 138.062 13.0312C137.919 12.8737 137.819 12.6875 137.762 12.4727C137.518 11.6562 137.289 10.7038 137.074 9.61523C137.06 9.5293 137.053 9.45052 137.053 9.37891ZM155.766 13.0742C155.766 13.418 155.443 13.8835 154.799 14.4707C155.229 14.7285 155.723 14.9935 156.281 15.2656C156.453 15.3659 156.596 15.4661 156.711 15.5664C156.897 15.7526 156.99 15.9674 156.99 16.2109C156.99 16.3828 156.954 16.5404 156.883 16.6836C156.811 16.8268 156.732 16.9486 156.646 17.0488C156.446 17.235 156.21 17.3281 155.938 17.3281C155.794 17.3281 155.615 17.2852 155.4 17.1992C155.114 17.056 154.792 16.877 154.434 16.6621V18.8535C154.434 19.4551 154.276 19.9206 153.961 20.25C153.632 20.5651 153.159 20.7227 152.543 20.7227H150.309V23.4082C150.309 23.9954 150.137 24.4466 149.793 24.7617C149.449 25.0911 148.991 25.2559 148.418 25.2559H146.699C146.212 25.2559 145.89 25.0983 145.732 24.7832C145.661 24.64 145.625 24.4681 145.625 24.2676C145.625 23.8379 145.79 23.5371 146.119 23.3652C146.277 23.2936 146.47 23.2578 146.699 23.2578H147.73C147.888 23.2578 148.003 23.222 148.074 23.1504C148.132 23.0931 148.16 22.9928 148.16 22.8496V20.7227H145.84C145.009 20.7227 144.458 20.4362 144.186 19.8633C144.042 19.5911 143.971 19.2546 143.971 18.8535V16.748C143.412 17.0632 142.975 17.2207 142.66 17.2207C142.388 17.2207 142.173 17.1348 142.016 16.9629C141.858 16.791 141.779 16.5905 141.779 16.3613C141.779 16.0892 141.872 15.8672 142.059 15.6953C142.173 15.5664 142.402 15.4089 142.746 15.2227C143.104 15.0365 143.505 14.7715 143.949 14.4277C143.405 13.9408 143.126 13.6901 143.111 13.6758C142.882 13.4466 142.768 13.2174 142.768 12.9883C142.768 12.6302 142.896 12.3796 143.154 12.2363C142.825 12.222 142.574 12.1289 142.402 11.957C142.245 11.7852 142.166 11.556 142.166 11.2695C142.166 10.7826 142.374 10.4674 142.789 10.3242C142.932 10.2812 143.09 10.2598 143.262 10.2598H147.258L147.516 9.61523C147.745 9.05664 148.11 8.77734 148.611 8.77734C148.998 8.77734 149.292 8.8776 149.492 9.07812C149.65 9.23568 149.729 9.4362 149.729 9.67969C149.729 9.83724 149.686 10.0306 149.6 10.2598H155.465C155.837 10.2598 156.109 10.3529 156.281 10.5391C156.467 10.7109 156.561 10.9473 156.561 11.248C156.561 11.5488 156.467 11.7923 156.281 11.9785C156.109 12.1504 155.837 12.2363 155.465 12.2363H155.207C155.579 12.3796 155.766 12.6589 155.766 13.0742ZM153.273 13.3105L153.854 12.666C154.054 12.4512 154.233 12.3079 154.391 12.2363H152.285C152.586 12.623 152.915 12.9811 153.273 13.3105ZM144.143 12.2363C144.458 12.3939 144.866 12.6947 145.367 13.1387C145.611 12.8809 145.861 12.5801 146.119 12.2363H144.143ZM150.244 12.2363H148.59C148.174 12.8522 147.759 13.3965 147.344 13.8691H151.297C150.867 13.3392 150.516 12.7949 150.244 12.2363ZM146.291 15.7168C146.205 15.7168 146.148 15.7311 146.119 15.7598C146.09 15.7884 146.076 15.8385 146.076 15.9102V16.3398H152.35V15.9102L152.307 15.7812C152.278 15.7526 152.221 15.7311 152.135 15.7168H146.291ZM146.076 18.1445V18.5098C146.076 18.5527 146.076 18.5885 146.076 18.6172C146.09 18.6458 146.098 18.6745 146.098 18.7031C146.112 18.7461 146.133 18.7747 146.162 18.7891C146.219 18.8464 146.312 18.875 146.441 18.875H152.006C152.135 18.875 152.221 18.8535 152.264 18.8105C152.321 18.7533 152.35 18.653 152.35 18.5098V18.1445H146.076ZM142.145 24.5684C141.858 24.5684 141.629 24.4681 141.457 24.2676C141.285 24.0814 141.199 23.8594 141.199 23.6016C141.199 23.3438 141.285 23.1289 141.457 22.957C141.643 22.7708 141.865 22.6419 142.123 22.5703C143.068 22.2552 143.971 21.7611 144.83 21.0879C145.088 20.8874 145.346 20.7871 145.604 20.7871C145.904 20.7871 146.148 20.9089 146.334 21.1523C146.506 21.3385 146.592 21.5534 146.592 21.7969C146.592 22.0977 146.456 22.3698 146.184 22.6133C145.754 23 145.253 23.3509 144.68 23.666C144.107 23.9668 143.613 24.1888 143.197 24.332C142.796 24.4896 142.445 24.5684 142.145 24.5684ZM156.689 23.4727C156.689 23.7878 156.575 24.0527 156.346 24.2676C156.174 24.4538 155.959 24.5469 155.701 24.5469C155.615 24.5469 155.529 24.5397 155.443 24.5254C154.899 24.3822 154.262 24.11 153.531 23.709C152.801 23.3223 152.192 22.9355 151.705 22.5488C151.433 22.3197 151.297 22.0547 151.297 21.7539C151.297 21.5104 151.39 21.2956 151.576 21.1094C151.762 20.9232 151.97 20.8301 152.199 20.8301C152.428 20.8301 152.686 20.9232 152.973 21.1094C153.359 21.3529 153.846 21.6107 154.434 21.8828C155.021 22.1549 155.529 22.3626 155.959 22.5059C156.202 22.5775 156.382 22.7064 156.496 22.8926C156.625 23.0645 156.689 23.2578 156.689 23.4727Z" fill="#603813"/>
</g>
<defs>
<linearGradient id="paint0_linear_12723_52092" x1="0" y1="15.78" x2="173.13" y2="15.78" gradientUnits="userSpaceOnUse">
<stop stop-color="#CC9D52"/>
<stop offset="0.5" stop-color="#F7EBA5"/>
<stop offset="1" stop-color="#CC9D52"/>
</linearGradient>
<linearGradient id="paint1_linear_12723_52092" x1="171.36" y1="6.86516" x2="146.082" y2="76.7847" gradientUnits="userSpaceOnUse">
<stop stop-color="#CFA359"/>
<stop offset="0.5" stop-color="#F5E6AD"/>
<stop offset="0.954106" stop-color="#CFA359"/>
</linearGradient>
<clipPath id="clip0_12723_52092">
<rect width="173.13" height="31.56" fill="white"/>
</clipPath>
</defs>
</svg>
