<svg width="190" height="214" viewBox="0 0 190 214" fill="none" xmlns="http://www.w3.org/2000/svg">
<mask id="path-1-outside-1_12751_53483" maskUnits="userSpaceOnUse" x="34" y="55" width="156" height="106" fill="black">
<rect fill="white" x="34" y="55" width="156" height="106"/>
<path d="M109.469 125.604C109.469 131.274 108.117 136.508 105.412 141.307C102.533 146.279 98.4766 150.118 93.2422 152.822C88.0951 155.527 82.2064 156.879 75.5762 156.879C64.7585 156.879 56.2526 153.782 50.0586 147.588C42.1198 139.649 38.1504 126.607 38.1504 108.461C38.1504 100.871 39.459 93.3249 42.0762 85.8223C44.7806 77.9707 49.1426 71.6895 55.1621 66.9785C61.2689 62.1803 68.7715 59.7812 77.6699 59.7812C82.3809 59.7812 86.612 60.3047 90.3633 61.3516C94.1146 62.3112 97.8223 63.707 101.486 65.5391C102.969 66.3242 104.06 67.5892 104.758 69.334C105.02 70.1191 105.15 70.9043 105.15 71.6895C105.15 73.6087 104.452 75.2663 103.057 76.6621C101.748 77.9707 100.134 78.625 98.2148 78.625C97.168 78.625 96.2083 78.4505 95.3359 78.1016C90.1016 75.6589 84.5182 74.4375 78.5859 74.4375C70.1237 74.4375 63.8861 77.3164 59.873 83.0742C56.2962 88.1341 54.028 94.3717 53.0684 101.787C59.2624 96.1165 67.5501 93.2812 77.9316 93.2812C87.179 93.2812 94.6816 96.1602 100.439 101.918C104.452 105.931 107.157 110.86 108.553 116.705C109.163 119.497 109.469 122.463 109.469 125.604ZM94.4199 125.342C94.4199 119.671 92.8496 115.222 89.709 111.994C86.5684 108.854 82.1628 107.283 76.4922 107.283C65.9362 107.283 58.2155 111.645 53.3301 120.369C54.5514 127.785 56.9941 133.368 60.6582 137.119C64.3223 140.783 69.3385 142.615 75.707 142.615C80.418 142.615 84.431 141.35 87.7461 138.82C89.5781 137.512 91.0612 135.898 92.1953 133.979C93.6784 131.361 94.4199 128.482 94.4199 125.342ZM168.198 104.928C179.452 109.813 185.079 118.101 185.079 129.791C185.079 134.415 183.814 138.777 181.284 142.877C178.754 147.239 174.654 150.685 168.984 153.215C163.4 155.658 156.508 156.879 148.308 156.879C140.107 156.879 133.303 155.57 127.894 152.953C122.572 150.423 118.603 147.108 115.986 143.008C113.368 138.908 112.06 134.502 112.06 129.791C112.06 118.101 117.687 109.813 128.941 104.928C125.626 103.27 122.877 101.089 120.696 98.3848C117.818 94.7207 116.378 90.3151 116.378 85.168C116.378 80.9805 117.469 77.0547 119.65 73.3906C121.918 69.2031 125.495 65.888 130.38 63.4453C135.353 61.0026 141.416 59.7812 148.57 59.7812C156.072 59.7812 162.179 61.0026 166.89 63.4453C171.514 65.888 174.96 69.0723 177.228 72.998C179.583 76.8366 180.761 80.8932 180.761 85.168C180.761 92.1471 178.057 97.7741 172.648 102.049C171.339 103.183 169.856 104.143 168.198 104.928ZM165.712 85.9531C165.712 82.1146 164.229 79.0612 161.263 76.793C158.21 74.5247 153.978 73.3906 148.57 73.3906C142.288 73.3906 137.621 74.9173 134.568 77.9707C132.474 80.0645 131.427 82.7253 131.427 85.9531C131.427 89.5299 132.823 92.4961 135.614 94.8516C138.493 97.2943 142.812 98.5156 148.57 98.5156C154.851 98.5156 159.474 97.0326 162.441 94.0664C164.622 91.8854 165.712 89.181 165.712 85.9531ZM170.03 128.482C170.03 123.597 168.024 119.715 164.011 116.836C159.998 113.87 154.851 112.387 148.57 112.387C142.288 112.387 137.098 113.87 132.997 116.836C129.071 119.715 127.109 123.597 127.109 128.482C127.109 130.402 127.807 132.495 129.202 134.764C130.773 137.294 133.128 139.344 136.269 140.914C139.584 142.484 143.728 143.27 148.7 143.27C156.203 143.27 161.961 141.263 165.974 137.25C167.282 135.941 168.329 134.458 169.114 132.801C169.725 131.318 170.03 129.878 170.03 128.482Z"/>
</mask>
<path d="M109.469 125.604C109.469 131.274 108.117 136.508 105.412 141.307C102.533 146.279 98.4766 150.118 93.2422 152.822C88.0951 155.527 82.2064 156.879 75.5762 156.879C64.7585 156.879 56.2526 153.782 50.0586 147.588C42.1198 139.649 38.1504 126.607 38.1504 108.461C38.1504 100.871 39.459 93.3249 42.0762 85.8223C44.7806 77.9707 49.1426 71.6895 55.1621 66.9785C61.2689 62.1803 68.7715 59.7812 77.6699 59.7812C82.3809 59.7812 86.612 60.3047 90.3633 61.3516C94.1146 62.3112 97.8223 63.707 101.486 65.5391C102.969 66.3242 104.06 67.5892 104.758 69.334C105.02 70.1191 105.15 70.9043 105.15 71.6895C105.15 73.6087 104.452 75.2663 103.057 76.6621C101.748 77.9707 100.134 78.625 98.2148 78.625C97.168 78.625 96.2083 78.4505 95.3359 78.1016C90.1016 75.6589 84.5182 74.4375 78.5859 74.4375C70.1237 74.4375 63.8861 77.3164 59.873 83.0742C56.2962 88.1341 54.028 94.3717 53.0684 101.787C59.2624 96.1165 67.5501 93.2812 77.9316 93.2812C87.179 93.2812 94.6816 96.1602 100.439 101.918C104.452 105.931 107.157 110.86 108.553 116.705C109.163 119.497 109.469 122.463 109.469 125.604ZM94.4199 125.342C94.4199 119.671 92.8496 115.222 89.709 111.994C86.5684 108.854 82.1628 107.283 76.4922 107.283C65.9362 107.283 58.2155 111.645 53.3301 120.369C54.5514 127.785 56.9941 133.368 60.6582 137.119C64.3223 140.783 69.3385 142.615 75.707 142.615C80.418 142.615 84.431 141.35 87.7461 138.82C89.5781 137.512 91.0612 135.898 92.1953 133.979C93.6784 131.361 94.4199 128.482 94.4199 125.342ZM168.198 104.928C179.452 109.813 185.079 118.101 185.079 129.791C185.079 134.415 183.814 138.777 181.284 142.877C178.754 147.239 174.654 150.685 168.984 153.215C163.4 155.658 156.508 156.879 148.308 156.879C140.107 156.879 133.303 155.57 127.894 152.953C122.572 150.423 118.603 147.108 115.986 143.008C113.368 138.908 112.06 134.502 112.06 129.791C112.06 118.101 117.687 109.813 128.941 104.928C125.626 103.27 122.877 101.089 120.696 98.3848C117.818 94.7207 116.378 90.3151 116.378 85.168C116.378 80.9805 117.469 77.0547 119.65 73.3906C121.918 69.2031 125.495 65.888 130.38 63.4453C135.353 61.0026 141.416 59.7812 148.57 59.7812C156.072 59.7812 162.179 61.0026 166.89 63.4453C171.514 65.888 174.96 69.0723 177.228 72.998C179.583 76.8366 180.761 80.8932 180.761 85.168C180.761 92.1471 178.057 97.7741 172.648 102.049C171.339 103.183 169.856 104.143 168.198 104.928ZM165.712 85.9531C165.712 82.1146 164.229 79.0612 161.263 76.793C158.21 74.5247 153.978 73.3906 148.57 73.3906C142.288 73.3906 137.621 74.9173 134.568 77.9707C132.474 80.0645 131.427 82.7253 131.427 85.9531C131.427 89.5299 132.823 92.4961 135.614 94.8516C138.493 97.2943 142.812 98.5156 148.57 98.5156C154.851 98.5156 159.474 97.0326 162.441 94.0664C164.622 91.8854 165.712 89.181 165.712 85.9531ZM170.03 128.482C170.03 123.597 168.024 119.715 164.011 116.836C159.998 113.87 154.851 112.387 148.57 112.387C142.288 112.387 137.098 113.87 132.997 116.836C129.071 119.715 127.109 123.597 127.109 128.482C127.109 130.402 127.807 132.495 129.202 134.764C130.773 137.294 133.128 139.344 136.269 140.914C139.584 142.484 143.728 143.27 148.7 143.27C156.203 143.27 161.961 141.263 165.974 137.25C167.282 135.941 168.329 134.458 169.114 132.801C169.725 131.318 170.03 129.878 170.03 128.482Z" fill="url(#paint0_linear_12751_53483)"/>
<path d="M109.469 125.604C109.469 131.274 108.117 136.508 105.412 141.307C102.533 146.279 98.4766 150.118 93.2422 152.822C88.0951 155.527 82.2064 156.879 75.5762 156.879C64.7585 156.879 56.2526 153.782 50.0586 147.588C42.1198 139.649 38.1504 126.607 38.1504 108.461C38.1504 100.871 39.459 93.3249 42.0762 85.8223C44.7806 77.9707 49.1426 71.6895 55.1621 66.9785C61.2689 62.1803 68.7715 59.7812 77.6699 59.7812C82.3809 59.7812 86.612 60.3047 90.3633 61.3516C94.1146 62.3112 97.8223 63.707 101.486 65.5391C102.969 66.3242 104.06 67.5892 104.758 69.334C105.02 70.1191 105.15 70.9043 105.15 71.6895C105.15 73.6087 104.452 75.2663 103.057 76.6621C101.748 77.9707 100.134 78.625 98.2148 78.625C97.168 78.625 96.2083 78.4505 95.3359 78.1016C90.1016 75.6589 84.5182 74.4375 78.5859 74.4375C70.1237 74.4375 63.8861 77.3164 59.873 83.0742C56.2962 88.1341 54.028 94.3717 53.0684 101.787C59.2624 96.1165 67.5501 93.2812 77.9316 93.2812C87.179 93.2812 94.6816 96.1602 100.439 101.918C104.452 105.931 107.157 110.86 108.553 116.705C109.163 119.497 109.469 122.463 109.469 125.604ZM94.4199 125.342C94.4199 119.671 92.8496 115.222 89.709 111.994C86.5684 108.854 82.1628 107.283 76.4922 107.283C65.9362 107.283 58.2155 111.645 53.3301 120.369C54.5514 127.785 56.9941 133.368 60.6582 137.119C64.3223 140.783 69.3385 142.615 75.707 142.615C80.418 142.615 84.431 141.35 87.7461 138.82C89.5781 137.512 91.0612 135.898 92.1953 133.979C93.6784 131.361 94.4199 128.482 94.4199 125.342ZM168.198 104.928C179.452 109.813 185.079 118.101 185.079 129.791C185.079 134.415 183.814 138.777 181.284 142.877C178.754 147.239 174.654 150.685 168.984 153.215C163.4 155.658 156.508 156.879 148.308 156.879C140.107 156.879 133.303 155.57 127.894 152.953C122.572 150.423 118.603 147.108 115.986 143.008C113.368 138.908 112.06 134.502 112.06 129.791C112.06 118.101 117.687 109.813 128.941 104.928C125.626 103.27 122.877 101.089 120.696 98.3848C117.818 94.7207 116.378 90.3151 116.378 85.168C116.378 80.9805 117.469 77.0547 119.65 73.3906C121.918 69.2031 125.495 65.888 130.38 63.4453C135.353 61.0026 141.416 59.7812 148.57 59.7812C156.072 59.7812 162.179 61.0026 166.89 63.4453C171.514 65.888 174.96 69.0723 177.228 72.998C179.583 76.8366 180.761 80.8932 180.761 85.168C180.761 92.1471 178.057 97.7741 172.648 102.049C171.339 103.183 169.856 104.143 168.198 104.928ZM165.712 85.9531C165.712 82.1146 164.229 79.0612 161.263 76.793C158.21 74.5247 153.978 73.3906 148.57 73.3906C142.288 73.3906 137.621 74.9173 134.568 77.9707C132.474 80.0645 131.427 82.7253 131.427 85.9531C131.427 89.5299 132.823 92.4961 135.614 94.8516C138.493 97.2943 142.812 98.5156 148.57 98.5156C154.851 98.5156 159.474 97.0326 162.441 94.0664C164.622 91.8854 165.712 89.181 165.712 85.9531ZM170.03 128.482C170.03 123.597 168.024 119.715 164.011 116.836C159.998 113.87 154.851 112.387 148.57 112.387C142.288 112.387 137.098 113.87 132.997 116.836C129.071 119.715 127.109 123.597 127.109 128.482C127.109 130.402 127.807 132.495 129.202 134.764C130.773 137.294 133.128 139.344 136.269 140.914C139.584 142.484 143.728 143.27 148.7 143.27C156.203 143.27 161.961 141.263 165.974 137.25C167.282 135.941 168.329 134.458 169.114 132.801C169.725 131.318 170.03 129.878 170.03 128.482Z" fill="url(#paint1_linear_12751_53483)" fill-opacity="0.3"/>
<path d="M105.412 141.307L108.874 143.311L108.885 143.291L108.897 143.271L105.412 141.307ZM93.2422 152.822L91.4061 149.269L91.3939 149.275L91.3817 149.281L93.2422 152.822ZM42.0762 85.8223L45.853 87.1398L45.8556 87.1323L45.8581 87.1249L42.0762 85.8223ZM55.1621 66.9785L57.6273 70.1285L57.6334 70.1238L55.1621 66.9785ZM90.3633 61.3516L89.2881 65.2043L89.3299 65.216L89.3719 65.2268L90.3633 61.3516ZM101.486 65.5391L103.358 62.0039L103.317 61.9822L103.275 61.9614L101.486 65.5391ZM104.758 69.334L108.553 68.0691L108.515 67.9576L108.472 67.8484L104.758 69.334ZM95.3359 78.1016L93.6444 81.7263L93.7461 81.7738L93.8504 81.8155L95.3359 78.1016ZM59.873 83.0742L63.1394 85.3832L63.147 85.3723L63.1546 85.3614L59.873 83.0742ZM53.0684 101.787L49.1014 101.274L47.6968 112.128L55.7694 104.737L53.0684 101.787ZM100.439 101.918L103.268 99.0895L100.439 101.918ZM108.553 116.705L112.46 115.85L112.452 115.813L112.443 115.776L108.553 116.705ZM89.709 111.994L92.5759 109.205L92.5568 109.185L92.5374 109.166L89.709 111.994ZM53.3301 120.369L49.8401 118.415L49.1556 119.637L49.3833 121.019L53.3301 120.369ZM60.6582 137.119L57.7967 139.914L57.8131 139.931L57.8298 139.948L60.6582 137.119ZM87.7461 138.82L85.4211 135.565L85.3697 135.602L85.3194 135.641L87.7461 138.82ZM92.1953 133.979L95.639 136.013L95.6575 135.982L95.6754 135.951L92.1953 133.979ZM105.469 125.604C105.469 130.607 104.284 135.162 101.928 139.343L108.897 143.271C111.949 137.855 113.469 131.941 113.469 125.604H105.469ZM101.95 139.302C99.4644 143.596 95.98 146.905 91.4061 149.269L95.0783 156.376C100.973 153.33 105.602 148.962 108.874 143.311L101.95 139.302ZM91.3817 149.281C86.8844 151.644 81.6499 152.879 75.5762 152.879V160.879C82.7628 160.879 89.3057 159.409 95.1027 156.363L91.3817 149.281ZM75.5762 152.879C65.555 152.879 58.1626 150.035 52.887 144.759L47.2302 150.416C54.3426 157.529 63.9619 160.879 75.5762 160.879V152.879ZM52.887 144.759C46.0482 137.921 42.1504 126.172 42.1504 108.461H34.1504C34.1504 127.041 38.1914 141.378 47.2302 150.416L52.887 144.759ZM42.1504 108.461C42.1504 101.34 43.3765 94.2389 45.853 87.1398L38.2994 84.5048C35.5414 92.4109 34.1504 100.402 34.1504 108.461H42.1504ZM45.8581 87.1249C48.3337 79.9376 52.2683 74.3226 57.6273 70.1285L52.6969 63.8285C46.0168 69.0564 41.2274 76.0038 38.2942 84.5196L45.8581 87.1249ZM57.6334 70.1238C62.9347 65.9585 69.5307 63.7812 77.6699 63.7812V55.7812C68.0123 55.7812 59.603 58.4022 52.6908 63.8332L57.6334 70.1238ZM77.6699 63.7812C82.0907 63.7812 85.951 64.2731 89.2881 65.2043L91.4385 57.4988C87.273 56.3363 82.6711 55.7812 77.6699 55.7812V63.7812ZM89.3719 65.2268C92.8321 66.1119 96.2733 67.4047 99.6975 69.1168L103.275 61.9614C99.3713 60.0094 95.397 58.5105 91.3546 57.4764L89.3719 65.2268ZM99.6148 69.0742C100.159 69.3624 100.653 69.8421 101.044 70.8195L108.472 67.8484C107.467 65.3363 105.78 63.286 103.358 62.0039L99.6148 69.0742ZM100.963 70.5989C101.096 70.9984 101.15 71.357 101.15 71.6895H109.15C109.15 70.4516 108.943 69.2399 108.553 68.0691L100.963 70.5989ZM101.15 71.6895C101.15 72.5145 100.898 73.1641 100.228 73.8337L105.885 79.4905C108.007 77.3685 109.15 74.703 109.15 71.6895H101.15ZM100.228 73.8337C99.7003 74.3616 99.1172 74.625 98.2148 74.625V82.625C101.151 82.625 103.796 81.5798 105.885 79.4905L100.228 73.8337ZM98.2148 74.625C97.6188 74.625 97.1704 74.5272 96.8215 74.3877L93.8504 81.8155C95.2463 82.3738 96.7171 82.625 98.2148 82.625V74.625ZM97.0275 74.4768C91.2489 71.7802 85.0865 70.4375 78.5859 70.4375V78.4375C83.95 78.4375 88.9542 79.5375 93.6444 81.7263L97.0275 74.4768ZM78.5859 70.4375C69.1217 70.4375 61.5119 73.7272 56.5915 80.787L63.1546 85.3614C66.2602 80.9056 71.1257 78.4375 78.5859 78.4375V70.4375ZM56.6067 80.7653C52.5832 86.4571 50.1276 93.3443 49.1014 101.274L57.0353 102.3C57.9284 95.3992 60.0092 89.8112 63.1394 85.3832L56.6067 80.7653ZM55.7694 104.737C61.0619 99.8922 68.3029 97.2812 77.9316 97.2812V89.2812C66.7973 89.2812 57.4628 92.3409 50.3673 98.8368L55.7694 104.737ZM77.9316 97.2812C86.2748 97.2812 92.7073 99.8427 97.611 104.746L103.268 99.0895C96.656 92.4776 88.0832 89.2812 77.9316 89.2812V97.2812ZM97.611 104.746C101.07 108.205 103.427 112.464 104.662 117.634L112.443 115.776C110.886 109.256 107.835 103.657 103.268 99.0895L97.611 104.746ZM104.645 117.56C105.189 120.045 105.469 122.722 105.469 125.604H113.469C113.469 122.203 113.138 118.949 112.46 115.85L104.645 117.56ZM98.4199 125.342C98.4199 118.913 96.6192 113.36 92.5759 109.205L86.8421 114.784C89.08 117.084 90.4199 120.43 90.4199 125.342H98.4199ZM92.5374 109.166C88.4539 105.082 82.9157 103.283 76.4922 103.283V111.283C81.4098 111.283 84.6829 112.625 86.8806 114.823L92.5374 109.166ZM76.4922 103.283C64.5879 103.283 55.4802 108.343 49.8401 118.415L56.8201 122.324C60.9508 114.947 67.2845 111.283 76.4922 111.283V103.283ZM49.3833 121.019C50.6825 128.907 53.3602 135.372 57.7967 139.914L63.5197 134.324C60.6281 131.364 58.4204 126.662 57.2769 119.719L49.3833 121.019ZM57.8298 139.948C62.4086 144.526 68.5357 146.615 75.707 146.615V138.615C70.1413 138.615 66.2359 137.04 63.4866 134.291L57.8298 139.948ZM75.707 146.615C81.1755 146.615 86.0713 145.13 90.1728 142L85.3194 135.641C82.7907 137.57 79.6604 138.615 75.707 138.615V146.615ZM90.071 142.075C92.3523 140.446 94.2182 138.418 95.639 136.013L88.7516 131.944C87.9041 133.378 86.8039 134.578 85.4211 135.565L90.071 142.075ZM95.6754 135.951C97.5145 132.705 98.4199 129.142 98.4199 125.342H90.4199C90.4199 127.823 89.8422 130.018 88.7152 132.006L95.6754 135.951ZM168.198 104.928L166.486 101.313L158.519 105.087L166.606 108.597L168.198 104.928ZM181.284 142.877L177.88 140.777L177.852 140.823L177.824 140.87L181.284 142.877ZM168.984 153.215L170.587 156.879L170.6 156.874L170.613 156.868L168.984 153.215ZM127.894 152.953L129.636 149.352L129.624 149.346L129.611 149.341L127.894 152.953ZM128.941 104.928L130.533 108.597L138.396 105.184L130.729 101.35L128.941 104.928ZM120.696 98.3848L117.551 100.856L117.567 100.876L117.583 100.896L120.696 98.3848ZM119.65 73.3906L123.087 75.4366L123.128 75.367L123.167 75.2958L119.65 73.3906ZM130.38 63.4453L128.616 59.8551L128.604 59.8613L128.591 59.8676L130.38 63.4453ZM166.89 63.4453L168.758 59.9085L168.745 59.9014L168.731 59.8943L166.89 63.4453ZM177.228 72.998L173.764 74.9992L173.791 75.045L173.818 75.0901L177.228 72.998ZM172.648 102.049L170.167 98.9106L170.096 98.9668L170.028 99.0261L172.648 102.049ZM161.263 76.793L163.693 73.6155L163.671 73.5986L163.648 73.582L161.263 76.793ZM135.614 94.8516L138.202 91.8015L138.194 91.7944L135.614 94.8516ZM164.011 116.836L161.633 120.053L161.656 120.07L161.679 120.086L164.011 116.836ZM132.997 116.836L130.653 113.595L130.642 113.603L130.632 113.61L132.997 116.836ZM129.202 134.764L125.796 136.86L125.8 136.867L125.804 136.873L129.202 134.764ZM136.269 140.914L134.48 144.492L134.518 144.511L134.556 144.529L136.269 140.914ZM169.114 132.801L172.729 134.513L172.774 134.42L172.813 134.324L169.114 132.801ZM166.606 108.597C171.694 110.806 175.249 113.666 177.55 117.054C179.842 120.43 181.079 124.61 181.079 129.791H189.079C189.079 123.282 187.503 117.473 184.168 112.561C180.842 107.662 175.957 103.935 169.791 101.259L166.606 108.597ZM181.079 129.791C181.079 133.641 180.038 137.28 177.88 140.777L184.689 144.977C187.591 140.274 189.079 135.189 189.079 129.791H181.079ZM177.824 140.87C175.806 144.351 172.437 147.294 167.354 149.562L170.613 156.868C176.871 154.076 181.703 150.127 184.745 144.884L177.824 140.87ZM167.38 149.55C162.445 151.709 156.137 152.879 148.308 152.879V160.879C156.88 160.879 164.356 159.606 170.587 156.879L167.38 149.55ZM148.308 152.879C140.502 152.879 134.341 151.629 129.636 149.352L126.152 156.554C132.264 159.512 139.712 160.879 148.308 160.879V152.879ZM129.611 149.341C124.823 147.064 121.493 144.202 119.357 140.856L112.614 145.16C115.713 150.015 120.321 153.782 126.176 156.566L129.611 149.341ZM119.357 140.856C117.136 137.376 116.06 133.714 116.06 129.791H108.06C108.06 135.29 109.6 140.439 112.614 145.16L119.357 140.856ZM116.06 129.791C116.06 124.61 117.297 120.43 119.589 117.054C121.89 113.666 125.445 110.806 130.533 108.597L127.348 101.259C121.182 103.935 116.297 107.662 112.971 112.561C109.636 117.473 108.06 123.282 108.06 129.791H116.06ZM130.729 101.35C127.892 99.9315 125.607 98.1024 123.81 95.8738L117.583 100.896C120.148 104.076 123.359 106.609 127.152 108.505L130.729 101.35ZM123.842 95.9135C121.575 93.0285 120.378 89.5182 120.378 85.168H112.378C112.378 91.112 114.06 96.4129 117.551 100.856L123.842 95.9135ZM120.378 85.168C120.378 81.7144 121.267 78.4936 123.087 75.4366L116.212 71.3447C113.67 75.6157 112.378 80.2465 112.378 85.168H120.378ZM123.167 75.2958C124.989 71.9323 127.906 69.1545 132.169 67.023L128.591 59.8676C123.083 62.6216 118.847 66.4739 116.132 71.4855L123.167 75.2958ZM132.144 67.0355C136.432 64.9292 141.855 63.7812 148.57 63.7812V55.7812C140.976 55.7812 134.274 57.0761 128.616 59.8551L132.144 67.0355ZM148.57 63.7812C155.68 63.7812 161.093 64.9451 165.049 66.9963L168.731 59.8943C163.265 57.0601 156.464 55.7812 148.57 55.7812V63.7812ZM165.021 66.9821C169.084 69.1282 171.928 71.8202 173.764 74.9992L180.691 70.9969C177.991 66.3243 173.943 62.6478 168.758 59.9085L165.021 66.9821ZM173.818 75.0901C175.809 78.3344 176.761 81.672 176.761 85.168H184.761C184.761 80.1144 183.357 75.3387 180.637 70.906L173.818 75.0901ZM176.761 85.168C176.761 90.9413 174.603 95.4053 170.167 98.9106L175.128 105.187C181.51 100.143 184.761 93.3529 184.761 85.168H176.761ZM170.028 99.0261C169.009 99.9089 167.835 100.674 166.486 101.313L169.911 108.543C171.877 107.611 173.669 106.457 175.267 105.072L170.028 99.0261ZM169.712 85.9531C169.712 80.9096 167.681 76.6651 163.693 73.6155L158.833 79.9704C160.778 81.4573 161.712 83.3196 161.712 85.9531H169.712ZM163.648 73.582C159.668 70.6254 154.486 69.3906 148.57 69.3906V77.3906C153.471 77.3906 156.751 78.4241 158.878 80.0039L163.648 73.582ZM148.57 69.3906C141.71 69.3906 135.826 71.0554 131.739 75.1423L137.396 80.7991C139.416 78.7793 142.867 77.3906 148.57 77.3906V69.3906ZM131.739 75.1423C128.824 78.0575 127.427 81.7697 127.427 85.9531H135.427C135.427 83.6808 136.124 82.0714 137.396 80.7991L131.739 75.1423ZM127.427 85.9531C127.427 90.737 129.365 94.8118 133.035 97.9087L138.194 91.7944C136.281 90.1804 135.427 88.3229 135.427 85.9531H127.427ZM133.027 97.9016C136.924 101.208 142.341 102.516 148.57 102.516V94.5156C143.282 94.5156 140.063 93.3802 138.202 91.8015L133.027 97.9016ZM148.57 102.516C155.39 102.516 161.251 100.913 165.269 96.8948L159.612 91.238C157.698 93.1517 154.312 94.5156 148.57 94.5156V102.516ZM165.269 96.8948C168.238 93.9257 169.712 90.1869 169.712 85.9531H161.712C161.712 88.1751 161.005 89.8451 159.612 91.238L165.269 96.8948ZM174.03 128.482C174.03 122.291 171.389 117.206 166.343 113.586L161.679 120.086C164.659 122.223 166.03 124.903 166.03 128.482H174.03ZM166.389 113.619C161.527 110.026 155.483 108.387 148.57 108.387V116.387C154.219 116.387 158.469 117.714 161.633 120.053L166.389 113.619ZM148.57 108.387C141.652 108.387 135.585 110.027 130.653 113.595L135.342 120.077C138.61 117.712 142.924 116.387 148.57 116.387V108.387ZM130.632 113.61C125.674 117.246 123.109 122.328 123.109 128.482H131.109C131.109 124.866 132.469 122.184 135.363 120.062L130.632 113.61ZM123.109 128.482C123.109 131.376 124.156 134.196 125.796 136.86L132.609 132.667C131.457 130.795 131.109 129.428 131.109 128.482H123.109ZM125.804 136.873C127.83 140.137 130.797 142.65 134.48 144.492L138.058 137.336C135.459 136.037 133.716 134.45 132.601 132.654L125.804 136.873ZM134.556 144.529C138.562 146.426 143.335 147.27 148.7 147.27V139.27C144.121 139.27 140.606 138.542 137.981 137.299L134.556 144.529ZM148.7 147.27C156.91 147.27 163.821 145.059 168.802 140.078L163.145 134.422C160.1 137.467 155.496 139.27 148.7 139.27V147.27ZM168.802 140.078C170.432 138.449 171.746 136.589 172.729 134.513L165.5 131.088C164.912 132.328 164.133 133.434 163.145 134.422L168.802 140.078ZM172.813 134.324C173.593 132.429 174.03 130.473 174.03 128.482H166.03C166.03 129.284 165.857 130.206 165.416 131.278L172.813 134.324Z" fill="#D32B17" mask="url(#path-1-outside-1_12751_53483)"/>
<circle cx="23" cy="137" r="22" fill="url(#paint2_linear_12751_53483)" stroke="#D32B17" stroke-width="2"/>
<path d="M25.1152 147.322V153.223C25.1152 153.94 24.9297 154.484 24.5586 154.855C24.1875 155.227 23.6556 155.412 22.9629 155.412C22.2702 155.412 21.7383 155.227 21.3672 154.855C20.9961 154.484 20.8105 153.94 20.8105 153.223V147.322H11.6816C10.9395 147.322 10.3952 147.137 10.0488 146.766C9.72721 146.469 9.56641 146.048 9.56641 145.504C9.56641 144.96 9.73958 144.514 10.0859 144.168C10.4323 143.822 10.9642 143.648 11.6816 143.648H20.8105V141.162H11.6816C10.9642 141.162 10.4323 140.989 10.0859 140.643C9.73958 140.296 9.56641 139.851 9.56641 139.307C9.56641 138.762 9.72721 138.329 10.0488 138.008C10.4199 137.637 10.9642 137.451 11.6816 137.451H18.3984L9.90039 127.098C9.5293 126.603 9.34375 126.17 9.34375 125.799C9.34375 125.23 9.50456 124.785 9.82617 124.463C10.1478 124.141 10.6302 123.98 11.2734 123.98C12.0156 123.98 12.696 124.339 13.3145 125.057L22.9629 136.857L32.5742 125.057C33.2174 124.339 33.873 123.98 34.541 123.98C35.2337 123.98 35.7533 124.154 36.0996 124.5C36.4212 124.822 36.582 125.255 36.582 125.799C36.582 126.17 36.3717 126.615 35.9512 127.135L27.5273 137.451H34.1699C34.9121 137.451 35.4564 137.624 35.8027 137.971C36.1491 138.317 36.3223 138.762 36.3223 139.307C36.3223 139.851 36.1615 140.284 35.8398 140.605C35.4688 140.977 34.9121 141.162 34.1699 141.162H25.1152V143.648H34.1699C34.9121 143.648 35.4564 143.822 35.8027 144.168C36.1491 144.514 36.3223 144.96 36.3223 145.504C36.3223 146.048 36.1615 146.469 35.8398 146.766C35.4935 147.137 34.9368 147.322 34.1699 147.322H25.1152Z" fill="#D32B17"/>
<defs>
<linearGradient id="paint0_linear_12751_53483" x1="190" y1="37.7774" x2="6.28104" y2="98.8325" gradientUnits="userSpaceOnUse">
<stop stop-color="#CFA359"/>
<stop offset="0.5" stop-color="#F5E6AD"/>
<stop offset="0.954106" stop-color="#CFA359"/>
</linearGradient>
<linearGradient id="paint1_linear_12751_53483" x1="96.2623" y1="2.01038e-06" x2="168.358" y2="198.522" gradientUnits="userSpaceOnUse">
<stop offset="0.275" stop-color="#CFA358" stop-opacity="0"/>
<stop offset="0.2751" stop-color="white"/>
<stop offset="0.67" stop-color="#CFA358" stop-opacity="0"/>
<stop offset="0.6701" stop-color="white"/>
</linearGradient>
<linearGradient id="paint2_linear_12751_53483" x1="45" y1="122.767" x2="-2.2414" y2="144.031" gradientUnits="userSpaceOnUse">
<stop stop-color="#CFA359"/>
<stop offset="0.5" stop-color="#F5E6AD"/>
<stop offset="0.954106" stop-color="#CFA359"/>
</linearGradient>
</defs>
</svg>
