<svg width="268" height="214" viewBox="0 0 268 214" fill="none" xmlns="http://www.w3.org/2000/svg">
<mask id="path-1-outside-1_12878_52200" maskUnits="userSpaceOnUse" x="34" y="55" width="234" height="106" fill="black">
<rect fill="white" x="34" y="55" width="234" height="106"/>
<path d="M110.029 108.199C110.029 116.051 108.764 123.597 106.234 130.838C103.53 138.689 99.1243 145.014 93.0176 149.812C86.9108 154.523 79.4082 156.879 70.5098 156.879C65.7988 156.879 61.5677 156.355 57.8164 155.309C54.0651 154.349 50.3574 152.953 46.6934 151.121C45.5592 150.51 44.6432 149.638 43.9453 148.504C43.3346 147.37 43.0293 146.192 43.0293 144.971C43.0293 143.139 43.7272 141.525 45.123 140.129C46.5189 138.733 48.1328 138.035 49.9648 138.035C51.0117 138.035 51.9714 138.21 52.8438 138.559C58.0781 141.001 63.6615 142.223 69.5938 142.223C78.056 142.223 84.2936 139.344 88.3066 133.586C91.8835 128.526 94.1517 122.288 95.1113 114.873C88.9173 120.544 80.6296 123.379 70.248 123.379C61.0007 123.379 53.4544 120.456 47.6094 114.611C43.6836 110.686 41.0228 105.8 39.627 99.9551C39.0163 97.1634 38.7109 94.2409 38.7109 91.1875C38.7109 83.9466 40.8047 77.5781 44.9922 72.082C48.7435 67.1094 53.847 63.6198 60.3027 61.6133C64.1413 60.3919 68.2415 59.7812 72.6035 59.7812C83.4212 59.7812 91.9271 62.8783 98.1211 69.0723C106.06 77.0111 110.029 90.0534 110.029 108.199ZM72.4727 74.0449C68.7214 74.0449 65.4062 74.8301 62.5273 76.4004C59.7357 77.8835 57.5547 79.9336 55.9844 82.5508C54.5013 85.168 53.7598 88.0905 53.7598 91.3184C53.7598 96.9889 55.3301 101.438 58.4707 104.666C61.6113 107.807 66.0169 109.377 71.6875 109.377C82.2435 109.377 89.9642 105.015 94.8496 96.291C92.8431 83.903 87.3906 76.7057 78.4922 74.6992C76.6602 74.263 74.6536 74.0449 72.4727 74.0449ZM170.198 104.928C181.452 109.813 187.079 118.101 187.079 129.791C187.079 134.415 185.814 138.777 183.284 142.877C180.754 147.239 176.654 150.685 170.984 153.215C165.4 155.658 158.508 156.879 150.308 156.879C142.107 156.879 135.303 155.57 129.894 152.953C124.572 150.423 120.603 147.108 117.986 143.008C115.368 138.908 114.06 134.502 114.06 129.791C114.06 118.101 119.687 109.813 130.941 104.928C127.626 103.27 124.877 101.089 122.696 98.3848C119.818 94.7207 118.378 90.3151 118.378 85.168C118.378 80.9805 119.469 77.0547 121.65 73.3906C123.918 69.2031 127.495 65.888 132.38 63.4453C137.353 61.0026 143.416 59.7812 150.57 59.7812C158.072 59.7812 164.179 61.0026 168.89 63.4453C173.514 65.888 176.96 69.0723 179.228 72.998C181.583 76.8366 182.761 80.8932 182.761 85.168C182.761 92.1471 180.057 97.7741 174.648 102.049C173.339 103.183 171.856 104.143 170.198 104.928ZM167.712 85.9531C167.712 82.1146 166.229 79.0612 163.263 76.793C160.21 74.5247 155.978 73.3906 150.57 73.3906C144.288 73.3906 139.621 74.9173 136.568 77.9707C134.474 80.0645 133.427 82.7253 133.427 85.9531C133.427 89.5299 134.823 92.4961 137.614 94.8516C140.493 97.2943 144.812 98.5156 150.57 98.5156C156.851 98.5156 161.474 97.0326 164.441 94.0664C166.622 91.8854 167.712 89.181 167.712 85.9531ZM172.03 128.482C172.03 123.597 170.024 119.715 166.011 116.836C161.998 113.87 156.851 112.387 150.57 112.387C144.288 112.387 139.098 113.87 134.997 116.836C131.071 119.715 129.109 123.597 129.109 128.482C129.109 130.402 129.807 132.495 131.202 134.764C132.773 137.294 135.128 139.344 138.269 140.914C141.584 142.484 145.728 143.27 150.7 143.27C158.203 143.27 163.961 141.263 167.974 137.25C169.282 135.941 170.329 134.458 171.114 132.801C171.725 131.318 172.03 129.878 172.03 128.482ZM225.788 59.7812C237.652 59.7812 246.812 64.0996 253.268 72.7363C259.811 81.2858 263.082 93.1504 263.082 108.33C263.082 125.952 258.808 139.038 250.258 147.588C244.064 153.782 235.995 156.879 226.049 156.879C214.097 156.879 204.937 152.561 198.569 143.924C192.2 135.2 189.016 123.335 189.016 108.33C189.016 93.3249 192.2 81.5039 198.569 72.8672C204.937 64.1432 214.01 59.7812 225.788 59.7812ZM248.034 108.33C248.034 94.8079 245.111 85.1243 239.266 79.2793C235.776 75.7897 231.371 74.0449 226.049 74.0449C219.157 74.0449 213.748 77.0111 209.823 82.9434C205.984 88.7884 204.065 97.2507 204.065 108.33C204.065 121.939 206.987 131.667 212.832 137.512C216.322 141.001 220.728 142.746 226.049 142.746C232.941 142.746 238.306 139.824 242.145 133.979C246.071 128.046 248.034 119.497 248.034 108.33Z"/>
</mask>
<path d="M110.029 108.199C110.029 116.051 108.764 123.597 106.234 130.838C103.53 138.689 99.1243 145.014 93.0176 149.812C86.9108 154.523 79.4082 156.879 70.5098 156.879C65.7988 156.879 61.5677 156.355 57.8164 155.309C54.0651 154.349 50.3574 152.953 46.6934 151.121C45.5592 150.51 44.6432 149.638 43.9453 148.504C43.3346 147.37 43.0293 146.192 43.0293 144.971C43.0293 143.139 43.7272 141.525 45.123 140.129C46.5189 138.733 48.1328 138.035 49.9648 138.035C51.0117 138.035 51.9714 138.21 52.8438 138.559C58.0781 141.001 63.6615 142.223 69.5938 142.223C78.056 142.223 84.2936 139.344 88.3066 133.586C91.8835 128.526 94.1517 122.288 95.1113 114.873C88.9173 120.544 80.6296 123.379 70.248 123.379C61.0007 123.379 53.4544 120.456 47.6094 114.611C43.6836 110.686 41.0228 105.8 39.627 99.9551C39.0163 97.1634 38.7109 94.2409 38.7109 91.1875C38.7109 83.9466 40.8047 77.5781 44.9922 72.082C48.7435 67.1094 53.847 63.6198 60.3027 61.6133C64.1413 60.3919 68.2415 59.7812 72.6035 59.7812C83.4212 59.7812 91.9271 62.8783 98.1211 69.0723C106.06 77.0111 110.029 90.0534 110.029 108.199ZM72.4727 74.0449C68.7214 74.0449 65.4062 74.8301 62.5273 76.4004C59.7357 77.8835 57.5547 79.9336 55.9844 82.5508C54.5013 85.168 53.7598 88.0905 53.7598 91.3184C53.7598 96.9889 55.3301 101.438 58.4707 104.666C61.6113 107.807 66.0169 109.377 71.6875 109.377C82.2435 109.377 89.9642 105.015 94.8496 96.291C92.8431 83.903 87.3906 76.7057 78.4922 74.6992C76.6602 74.263 74.6536 74.0449 72.4727 74.0449ZM170.198 104.928C181.452 109.813 187.079 118.101 187.079 129.791C187.079 134.415 185.814 138.777 183.284 142.877C180.754 147.239 176.654 150.685 170.984 153.215C165.4 155.658 158.508 156.879 150.308 156.879C142.107 156.879 135.303 155.57 129.894 152.953C124.572 150.423 120.603 147.108 117.986 143.008C115.368 138.908 114.06 134.502 114.06 129.791C114.06 118.101 119.687 109.813 130.941 104.928C127.626 103.27 124.877 101.089 122.696 98.3848C119.818 94.7207 118.378 90.3151 118.378 85.168C118.378 80.9805 119.469 77.0547 121.65 73.3906C123.918 69.2031 127.495 65.888 132.38 63.4453C137.353 61.0026 143.416 59.7812 150.57 59.7812C158.072 59.7812 164.179 61.0026 168.89 63.4453C173.514 65.888 176.96 69.0723 179.228 72.998C181.583 76.8366 182.761 80.8932 182.761 85.168C182.761 92.1471 180.057 97.7741 174.648 102.049C173.339 103.183 171.856 104.143 170.198 104.928ZM167.712 85.9531C167.712 82.1146 166.229 79.0612 163.263 76.793C160.21 74.5247 155.978 73.3906 150.57 73.3906C144.288 73.3906 139.621 74.9173 136.568 77.9707C134.474 80.0645 133.427 82.7253 133.427 85.9531C133.427 89.5299 134.823 92.4961 137.614 94.8516C140.493 97.2943 144.812 98.5156 150.57 98.5156C156.851 98.5156 161.474 97.0326 164.441 94.0664C166.622 91.8854 167.712 89.181 167.712 85.9531ZM172.03 128.482C172.03 123.597 170.024 119.715 166.011 116.836C161.998 113.87 156.851 112.387 150.57 112.387C144.288 112.387 139.098 113.87 134.997 116.836C131.071 119.715 129.109 123.597 129.109 128.482C129.109 130.402 129.807 132.495 131.202 134.764C132.773 137.294 135.128 139.344 138.269 140.914C141.584 142.484 145.728 143.27 150.7 143.27C158.203 143.27 163.961 141.263 167.974 137.25C169.282 135.941 170.329 134.458 171.114 132.801C171.725 131.318 172.03 129.878 172.03 128.482ZM225.788 59.7812C237.652 59.7812 246.812 64.0996 253.268 72.7363C259.811 81.2858 263.082 93.1504 263.082 108.33C263.082 125.952 258.808 139.038 250.258 147.588C244.064 153.782 235.995 156.879 226.049 156.879C214.097 156.879 204.937 152.561 198.569 143.924C192.2 135.2 189.016 123.335 189.016 108.33C189.016 93.3249 192.2 81.5039 198.569 72.8672C204.937 64.1432 214.01 59.7812 225.788 59.7812ZM248.034 108.33C248.034 94.8079 245.111 85.1243 239.266 79.2793C235.776 75.7897 231.371 74.0449 226.049 74.0449C219.157 74.0449 213.748 77.0111 209.823 82.9434C205.984 88.7884 204.065 97.2507 204.065 108.33C204.065 121.939 206.987 131.667 212.832 137.512C216.322 141.001 220.728 142.746 226.049 142.746C232.941 142.746 238.306 139.824 242.145 133.979C246.071 128.046 248.034 119.497 248.034 108.33Z" fill="url(#paint0_linear_12878_52200)"/>
<path d="M110.029 108.199C110.029 116.051 108.764 123.597 106.234 130.838C103.53 138.689 99.1243 145.014 93.0176 149.812C86.9108 154.523 79.4082 156.879 70.5098 156.879C65.7988 156.879 61.5677 156.355 57.8164 155.309C54.0651 154.349 50.3574 152.953 46.6934 151.121C45.5592 150.51 44.6432 149.638 43.9453 148.504C43.3346 147.37 43.0293 146.192 43.0293 144.971C43.0293 143.139 43.7272 141.525 45.123 140.129C46.5189 138.733 48.1328 138.035 49.9648 138.035C51.0117 138.035 51.9714 138.21 52.8438 138.559C58.0781 141.001 63.6615 142.223 69.5938 142.223C78.056 142.223 84.2936 139.344 88.3066 133.586C91.8835 128.526 94.1517 122.288 95.1113 114.873C88.9173 120.544 80.6296 123.379 70.248 123.379C61.0007 123.379 53.4544 120.456 47.6094 114.611C43.6836 110.686 41.0228 105.8 39.627 99.9551C39.0163 97.1634 38.7109 94.2409 38.7109 91.1875C38.7109 83.9466 40.8047 77.5781 44.9922 72.082C48.7435 67.1094 53.847 63.6198 60.3027 61.6133C64.1413 60.3919 68.2415 59.7812 72.6035 59.7812C83.4212 59.7812 91.9271 62.8783 98.1211 69.0723C106.06 77.0111 110.029 90.0534 110.029 108.199ZM72.4727 74.0449C68.7214 74.0449 65.4062 74.8301 62.5273 76.4004C59.7357 77.8835 57.5547 79.9336 55.9844 82.5508C54.5013 85.168 53.7598 88.0905 53.7598 91.3184C53.7598 96.9889 55.3301 101.438 58.4707 104.666C61.6113 107.807 66.0169 109.377 71.6875 109.377C82.2435 109.377 89.9642 105.015 94.8496 96.291C92.8431 83.903 87.3906 76.7057 78.4922 74.6992C76.6602 74.263 74.6536 74.0449 72.4727 74.0449ZM170.198 104.928C181.452 109.813 187.079 118.101 187.079 129.791C187.079 134.415 185.814 138.777 183.284 142.877C180.754 147.239 176.654 150.685 170.984 153.215C165.4 155.658 158.508 156.879 150.308 156.879C142.107 156.879 135.303 155.57 129.894 152.953C124.572 150.423 120.603 147.108 117.986 143.008C115.368 138.908 114.06 134.502 114.06 129.791C114.06 118.101 119.687 109.813 130.941 104.928C127.626 103.27 124.877 101.089 122.696 98.3848C119.818 94.7207 118.378 90.3151 118.378 85.168C118.378 80.9805 119.469 77.0547 121.65 73.3906C123.918 69.2031 127.495 65.888 132.38 63.4453C137.353 61.0026 143.416 59.7812 150.57 59.7812C158.072 59.7812 164.179 61.0026 168.89 63.4453C173.514 65.888 176.96 69.0723 179.228 72.998C181.583 76.8366 182.761 80.8932 182.761 85.168C182.761 92.1471 180.057 97.7741 174.648 102.049C173.339 103.183 171.856 104.143 170.198 104.928ZM167.712 85.9531C167.712 82.1146 166.229 79.0612 163.263 76.793C160.21 74.5247 155.978 73.3906 150.57 73.3906C144.288 73.3906 139.621 74.9173 136.568 77.9707C134.474 80.0645 133.427 82.7253 133.427 85.9531C133.427 89.5299 134.823 92.4961 137.614 94.8516C140.493 97.2943 144.812 98.5156 150.57 98.5156C156.851 98.5156 161.474 97.0326 164.441 94.0664C166.622 91.8854 167.712 89.181 167.712 85.9531ZM172.03 128.482C172.03 123.597 170.024 119.715 166.011 116.836C161.998 113.87 156.851 112.387 150.57 112.387C144.288 112.387 139.098 113.87 134.997 116.836C131.071 119.715 129.109 123.597 129.109 128.482C129.109 130.402 129.807 132.495 131.202 134.764C132.773 137.294 135.128 139.344 138.269 140.914C141.584 142.484 145.728 143.27 150.7 143.27C158.203 143.27 163.961 141.263 167.974 137.25C169.282 135.941 170.329 134.458 171.114 132.801C171.725 131.318 172.03 129.878 172.03 128.482ZM225.788 59.7812C237.652 59.7812 246.812 64.0996 253.268 72.7363C259.811 81.2858 263.082 93.1504 263.082 108.33C263.082 125.952 258.808 139.038 250.258 147.588C244.064 153.782 235.995 156.879 226.049 156.879C214.097 156.879 204.937 152.561 198.569 143.924C192.2 135.2 189.016 123.335 189.016 108.33C189.016 93.3249 192.2 81.5039 198.569 72.8672C204.937 64.1432 214.01 59.7812 225.788 59.7812ZM248.034 108.33C248.034 94.8079 245.111 85.1243 239.266 79.2793C235.776 75.7897 231.371 74.0449 226.049 74.0449C219.157 74.0449 213.748 77.0111 209.823 82.9434C205.984 88.7884 204.065 97.2507 204.065 108.33C204.065 121.939 206.987 131.667 212.832 137.512C216.322 141.001 220.728 142.746 226.049 142.746C232.941 142.746 238.306 139.824 242.145 133.979C246.071 128.046 248.034 119.497 248.034 108.33Z" fill="url(#paint1_linear_12878_52200)" fill-opacity="0.3"/>
<path d="M106.234 130.838L102.458 129.519L102.455 129.527L102.452 129.535L106.234 130.838ZM93.0176 149.812L95.4608 152.98L95.4749 152.969L95.4889 152.958L93.0176 149.812ZM57.8164 155.309L58.8916 151.456L58.8498 151.444L58.8077 151.433L57.8164 155.309ZM46.6934 151.121L44.797 154.643L44.8503 154.672L44.9045 154.699L46.6934 151.121ZM43.9453 148.504L40.4234 150.4L40.4782 150.502L40.5387 150.6L43.9453 148.504ZM52.8438 138.559L54.5353 134.934L54.4336 134.886L54.3293 134.845L52.8438 138.559ZM88.3066 133.586L85.0403 131.277L85.0327 131.288L85.025 131.299L88.3066 133.586ZM95.1113 114.873L99.0782 115.386L100.483 104.532L92.4103 111.923L95.1113 114.873ZM39.627 99.9551L35.7194 100.81L35.7275 100.847L35.7364 100.884L39.627 99.9551ZM44.9922 72.082L48.1739 74.5062L48.1797 74.4986L48.1855 74.491L44.9922 72.082ZM60.3027 61.6133L61.49 65.433L61.5028 65.4291L61.5155 65.425L60.3027 61.6133ZM98.1211 69.0723L95.2927 71.9007L98.1211 69.0723ZM62.5273 76.4004L64.404 79.9329L64.4234 79.9225L64.4428 79.912L62.5273 76.4004ZM55.9844 82.5508L52.5544 80.4928L52.5288 80.5355L52.5043 80.5787L55.9844 82.5508ZM58.4707 104.666L55.6038 107.455L55.6229 107.475L55.6423 107.494L58.4707 104.666ZM94.8496 96.291L98.3396 98.2454L99.0212 97.0284L98.7981 95.6515L94.8496 96.291ZM78.4922 74.6992L77.5657 78.5904L77.589 78.596L77.6123 78.6012L78.4922 74.6992ZM106.029 108.199C106.029 115.612 104.836 122.712 102.458 129.519L110.011 132.157C112.692 124.482 114.029 116.489 114.029 108.199H106.029ZM102.452 129.535C99.9804 136.712 96.0057 142.378 90.5463 146.667L95.4889 152.958C102.243 147.651 107.079 140.667 110.016 132.141L102.452 129.535ZM90.5744 146.645C85.2722 150.736 78.6661 152.879 70.5098 152.879V160.879C80.1503 160.879 88.5494 158.311 95.4608 152.98L90.5744 146.645ZM70.5098 152.879C66.089 152.879 62.2287 152.387 58.8916 151.456L56.7412 159.161C60.9067 160.324 65.5086 160.879 70.5098 160.879V152.879ZM58.8077 151.433C55.3475 150.548 51.9064 149.255 48.4822 147.543L44.9045 154.699C48.8084 156.651 52.7827 158.15 56.8251 159.184L58.8077 151.433ZM48.5898 147.599C48.0973 147.334 47.6938 146.963 47.3519 146.408L40.5387 150.6C41.5927 152.313 43.0212 153.687 44.797 154.643L48.5898 147.599ZM47.4672 146.608C47.1526 146.023 47.0293 145.494 47.0293 144.971H39.0293C39.0293 146.89 39.5166 148.716 40.4234 150.4L47.4672 146.608ZM47.0293 144.971C47.0293 144.287 47.2415 143.667 47.9515 142.957L42.2946 137.3C40.2129 139.382 39.0293 141.99 39.0293 144.971H47.0293ZM47.9515 142.957C48.6614 142.247 49.2812 142.035 49.9648 142.035V134.035C46.9844 134.035 44.3764 135.219 42.2946 137.3L47.9515 142.957ZM49.9648 142.035C50.5608 142.035 51.0093 142.133 51.3582 142.273L54.3293 134.845C52.9334 134.286 51.4626 134.035 49.9648 134.035V142.035ZM51.1522 142.183C56.9308 144.88 63.0932 146.223 69.5938 146.223V138.223C64.2297 138.223 59.2255 137.123 54.5353 134.934L51.1522 142.183ZM69.5938 146.223C79.0579 146.223 86.6678 142.933 91.5882 135.873L85.025 131.299C81.9195 135.755 77.054 138.223 69.5938 138.223V146.223ZM91.573 135.895C95.5965 130.203 98.0521 123.316 99.0782 115.386L91.1444 114.36C90.2513 121.261 88.1705 126.849 85.0403 131.277L91.573 135.895ZM92.4103 111.923C87.1178 116.768 79.8768 119.379 70.248 119.379V127.379C81.3823 127.379 90.7169 124.319 97.8123 117.823L92.4103 111.923ZM70.248 119.379C61.9238 119.379 55.4407 116.786 50.4378 111.783L44.7809 117.44C51.4682 124.127 60.0775 127.379 70.248 127.379V119.379ZM50.4378 111.783C47.0778 108.423 44.7563 104.213 43.5176 99.026L35.7364 100.884C37.2892 107.387 40.2894 112.948 44.7809 117.44L50.4378 111.783ZM43.5346 99.1003C42.9893 96.6079 42.7109 93.973 42.7109 91.1875H34.7109C34.7109 94.5088 35.0432 97.719 35.7194 100.81L43.5346 99.1003ZM42.7109 91.1875C42.7109 84.7775 44.5439 79.2706 48.1739 74.5062L41.8105 69.6579C37.0655 75.8856 34.7109 83.1158 34.7109 91.1875H42.7109ZM48.1855 74.491C51.3887 70.2448 55.7622 67.2133 61.49 65.433L59.1155 57.7935C51.9318 60.0263 46.0982 63.974 41.7989 69.6731L48.1855 74.491ZM61.5155 65.425C64.9308 64.3383 68.6191 63.7812 72.6035 63.7812V55.7812C67.864 55.7812 63.3518 56.4455 59.0899 57.8016L61.5155 65.425ZM72.6035 63.7812C82.6247 63.7812 90.017 66.6251 95.2927 71.9007L100.95 66.2438C93.8371 59.1314 84.2178 55.7812 72.6035 55.7812V63.7812ZM95.2927 71.9007C102.132 78.7395 106.029 90.4878 106.029 108.199H114.029C114.029 89.6189 109.988 75.2826 100.95 66.2438L95.2927 71.9007ZM72.4727 70.0449C68.1494 70.0449 64.1583 70.9544 60.6119 72.8888L64.4428 79.912C66.6542 78.7057 69.2933 78.0449 72.4727 78.0449V70.0449ZM60.6507 72.8679C57.2409 74.6794 54.5126 77.2291 52.5544 80.4928L59.4143 84.6088C60.5968 82.6381 62.2304 81.0875 64.404 79.9329L60.6507 72.8679ZM52.5043 80.5787C50.6556 83.8411 49.7598 87.4514 49.7598 91.3184H57.7598C57.7598 88.7296 58.347 86.4949 59.4645 84.5228L52.5043 80.5787ZM49.7598 91.3184C49.7598 97.7476 51.5605 103.3 55.6038 107.455L61.3376 101.877C59.0997 99.5765 57.7598 96.2303 57.7598 91.3184H49.7598ZM55.6423 107.494C59.7258 111.578 65.264 113.377 71.6875 113.377V105.377C66.7699 105.377 63.4968 104.035 61.2991 101.838L55.6423 107.494ZM71.6875 113.377C83.5918 113.377 92.6995 108.317 98.3396 98.2454L91.3596 94.3366C87.2289 101.713 80.8952 105.377 71.6875 105.377V113.377ZM98.7981 95.6515C97.7289 89.0503 95.6883 83.4694 92.4437 79.1866C89.1411 74.8272 84.7317 72.0057 79.3721 70.7972L77.6123 78.6012C81.1511 79.3992 83.9171 81.1796 86.067 84.0175C88.2749 86.932 89.9638 91.1438 90.9011 96.9306L98.7981 95.6515ZM79.4187 70.808C77.2398 70.2892 74.9178 70.0449 72.4727 70.0449V78.0449C74.3895 78.0449 76.0805 78.2368 77.5657 78.5904L79.4187 70.808ZM170.198 104.928L168.486 101.313L160.519 105.087L168.606 108.597L170.198 104.928ZM183.284 142.877L179.88 140.777L179.852 140.823L179.824 140.87L183.284 142.877ZM170.984 153.215L172.587 156.879L172.6 156.874L172.613 156.868L170.984 153.215ZM129.894 152.953L131.636 149.352L131.624 149.346L131.611 149.341L129.894 152.953ZM130.941 104.928L132.533 108.597L140.396 105.184L132.729 101.35L130.941 104.928ZM122.696 98.3848L119.551 100.856L119.567 100.876L119.583 100.896L122.696 98.3848ZM121.65 73.3906L125.087 75.4366L125.128 75.367L125.167 75.2958L121.65 73.3906ZM132.38 63.4453L130.616 59.8551L130.604 59.8613L130.591 59.8676L132.38 63.4453ZM168.89 63.4453L170.758 59.9085L170.745 59.9014L170.731 59.8943L168.89 63.4453ZM179.228 72.998L175.764 74.9992L175.791 75.045L175.818 75.0901L179.228 72.998ZM174.648 102.049L172.167 98.9106L172.096 98.9668L172.028 99.0261L174.648 102.049ZM163.263 76.793L165.693 73.6155L165.671 73.5986L165.648 73.582L163.263 76.793ZM137.614 94.8516L140.202 91.8015L140.194 91.7944L137.614 94.8516ZM166.011 116.836L163.633 120.053L163.656 120.07L163.679 120.086L166.011 116.836ZM134.997 116.836L132.653 113.595L132.642 113.603L132.632 113.61L134.997 116.836ZM131.202 134.764L127.796 136.86L127.8 136.867L127.804 136.873L131.202 134.764ZM138.269 140.914L136.48 144.492L136.518 144.511L136.556 144.529L138.269 140.914ZM171.114 132.801L174.729 134.513L174.774 134.42L174.813 134.324L171.114 132.801ZM168.606 108.597C173.694 110.806 177.249 113.666 179.55 117.054C181.842 120.43 183.079 124.61 183.079 129.791H191.079C191.079 123.282 189.503 117.473 186.168 112.561C182.842 107.662 177.957 103.935 171.791 101.259L168.606 108.597ZM183.079 129.791C183.079 133.641 182.038 137.28 179.88 140.777L186.689 144.977C189.591 140.274 191.079 135.189 191.079 129.791H183.079ZM179.824 140.87C177.806 144.351 174.437 147.294 169.354 149.562L172.613 156.868C178.871 154.076 183.703 150.127 186.745 144.884L179.824 140.87ZM169.38 149.55C164.445 151.709 158.137 152.879 150.308 152.879V160.879C158.88 160.879 166.356 159.606 172.587 156.879L169.38 149.55ZM150.308 152.879C142.502 152.879 136.341 151.629 131.636 149.352L128.152 156.554C134.264 159.512 141.712 160.879 150.308 160.879V152.879ZM131.611 149.341C126.823 147.064 123.493 144.202 121.357 140.856L114.614 145.16C117.713 150.015 122.321 153.782 128.176 156.566L131.611 149.341ZM121.357 140.856C119.136 137.376 118.06 133.714 118.06 129.791H110.06C110.06 135.29 111.6 140.439 114.614 145.16L121.357 140.856ZM118.06 129.791C118.06 124.61 119.297 120.43 121.589 117.054C123.89 113.666 127.445 110.806 132.533 108.597L129.348 101.259C123.182 103.935 118.297 107.662 114.971 112.561C111.636 117.473 110.06 123.282 110.06 129.791H118.06ZM132.729 101.35C129.892 99.9315 127.607 98.1024 125.81 95.8738L119.583 100.896C122.148 104.076 125.359 106.609 129.152 108.505L132.729 101.35ZM125.842 95.9135C123.575 93.0285 122.378 89.5182 122.378 85.168H114.378C114.378 91.112 116.06 96.4129 119.551 100.856L125.842 95.9135ZM122.378 85.168C122.378 81.7144 123.267 78.4936 125.087 75.4366L118.212 71.3447C115.67 75.6157 114.378 80.2465 114.378 85.168H122.378ZM125.167 75.2958C126.989 71.9323 129.906 69.1545 134.169 67.023L130.591 59.8676C125.083 62.6216 120.847 66.4739 118.132 71.4855L125.167 75.2958ZM134.144 67.0355C138.432 64.9292 143.855 63.7812 150.57 63.7812V55.7812C142.976 55.7812 136.274 57.0761 130.616 59.8551L134.144 67.0355ZM150.57 63.7812C157.68 63.7812 163.093 64.9451 167.049 66.9963L170.731 59.8943C165.265 57.0601 158.464 55.7812 150.57 55.7812V63.7812ZM167.021 66.9821C171.084 69.1282 173.928 71.8202 175.764 74.9992L182.691 70.9969C179.991 66.3243 175.943 62.6478 170.758 59.9085L167.021 66.9821ZM175.818 75.0901C177.809 78.3344 178.761 81.672 178.761 85.168H186.761C186.761 80.1144 185.357 75.3387 182.637 70.906L175.818 75.0901ZM178.761 85.168C178.761 90.9413 176.603 95.4053 172.167 98.9106L177.128 105.187C183.51 100.143 186.761 93.3529 186.761 85.168H178.761ZM172.028 99.0261C171.009 99.9089 169.835 100.674 168.486 101.313L171.911 108.543C173.877 107.611 175.669 106.457 177.267 105.072L172.028 99.0261ZM171.712 85.9531C171.712 80.9096 169.681 76.6651 165.693 73.6155L160.833 79.9704C162.778 81.4573 163.712 83.3196 163.712 85.9531H171.712ZM165.648 73.582C161.668 70.6254 156.486 69.3906 150.57 69.3906V77.3906C155.471 77.3906 158.751 78.4241 160.878 80.0039L165.648 73.582ZM150.57 69.3906C143.71 69.3906 137.826 71.0554 133.739 75.1423L139.396 80.7991C141.416 78.7793 144.867 77.3906 150.57 77.3906V69.3906ZM133.739 75.1423C130.824 78.0575 129.427 81.7697 129.427 85.9531H137.427C137.427 83.6808 138.124 82.0714 139.396 80.7991L133.739 75.1423ZM129.427 85.9531C129.427 90.737 131.365 94.8118 135.035 97.9087L140.194 91.7944C138.281 90.1804 137.427 88.3229 137.427 85.9531H129.427ZM135.027 97.9016C138.924 101.208 144.341 102.516 150.57 102.516V94.5156C145.282 94.5156 142.063 93.3802 140.202 91.8015L135.027 97.9016ZM150.57 102.516C157.39 102.516 163.251 100.913 167.269 96.8948L161.612 91.238C159.698 93.1517 156.312 94.5156 150.57 94.5156V102.516ZM167.269 96.8948C170.238 93.9257 171.712 90.1869 171.712 85.9531H163.712C163.712 88.1751 163.005 89.8451 161.612 91.238L167.269 96.8948ZM176.03 128.482C176.03 122.291 173.389 117.206 168.343 113.586L163.679 120.086C166.659 122.223 168.03 124.903 168.03 128.482H176.03ZM168.389 113.619C163.527 110.026 157.483 108.387 150.57 108.387V116.387C156.219 116.387 160.469 117.714 163.633 120.053L168.389 113.619ZM150.57 108.387C143.652 108.387 137.585 110.027 132.653 113.595L137.342 120.077C140.61 117.712 144.924 116.387 150.57 116.387V108.387ZM132.632 113.61C127.674 117.246 125.109 122.328 125.109 128.482H133.109C133.109 124.866 134.469 122.184 137.363 120.062L132.632 113.61ZM125.109 128.482C125.109 131.376 126.156 134.196 127.796 136.86L134.609 132.667C133.457 130.795 133.109 129.428 133.109 128.482H125.109ZM127.804 136.873C129.83 140.137 132.797 142.65 136.48 144.492L140.058 137.336C137.459 136.037 135.716 134.45 134.601 132.654L127.804 136.873ZM136.556 144.529C140.562 146.426 145.335 147.27 150.7 147.27V139.27C146.121 139.27 142.606 138.542 139.981 137.299L136.556 144.529ZM150.7 147.27C158.91 147.27 165.821 145.059 170.802 140.078L165.145 134.422C162.1 137.467 157.496 139.27 150.7 139.27V147.27ZM170.802 140.078C172.432 138.449 173.746 136.589 174.729 134.513L167.5 131.088C166.912 132.328 166.133 133.434 165.145 134.422L170.802 140.078ZM174.813 134.324C175.593 132.429 176.03 130.473 176.03 128.482H168.03C168.03 129.284 167.857 130.206 167.416 131.278L174.813 134.324ZM253.268 72.7363L250.064 75.1311L250.078 75.1493L250.091 75.1673L253.268 72.7363ZM250.258 147.588L247.43 144.759L250.258 147.588ZM198.569 143.924L195.338 146.282L195.344 146.29L195.349 146.298L198.569 143.924ZM198.569 72.8672L201.788 75.2411L201.794 75.2334L201.8 75.2256L198.569 72.8672ZM209.823 82.9434L206.487 80.7359L206.479 80.7476L209.823 82.9434ZM242.145 133.979L238.809 131.771L238.801 131.783L242.145 133.979ZM225.788 63.7812C236.537 63.7812 244.447 67.6163 250.064 75.1311L256.472 70.3415C249.178 60.5829 238.767 55.7812 225.788 55.7812V63.7812ZM250.091 75.1673C255.92 82.7835 259.082 93.6777 259.082 108.33H267.082C267.082 92.6231 263.702 79.7881 256.444 70.3053L250.091 75.1673ZM259.082 108.33C259.082 125.377 254.944 137.245 247.43 144.759L253.087 150.416C262.671 140.832 267.082 126.528 267.082 108.33H259.082ZM247.43 144.759C242.09 150.1 235.09 152.879 226.049 152.879V160.879C236.899 160.879 246.039 157.464 253.087 150.416L247.43 144.759ZM226.049 152.879C215.201 152.879 207.309 149.037 201.788 141.55L195.349 146.298C202.566 156.084 212.994 160.879 226.049 160.879V152.879ZM201.8 141.565C196.092 133.747 193.016 122.809 193.016 108.33H185.016C185.016 123.861 188.308 136.653 195.338 146.282L201.8 141.565ZM193.016 108.33C193.016 93.8477 196.093 82.9642 201.788 75.2411L195.349 70.4933C188.307 80.0436 185.016 92.8021 185.016 108.33H193.016ZM201.8 75.2256C207.339 67.6371 215.153 63.7812 225.788 63.7812V55.7812C212.867 55.7812 202.535 60.6494 195.338 70.5087L201.8 75.2256ZM252.034 108.33C252.034 94.3901 249.047 83.4031 242.094 76.4509L236.438 82.1077C241.175 86.8456 244.034 95.2258 244.034 108.33H252.034ZM242.094 76.4509C237.792 72.1486 232.34 70.0449 226.049 70.0449V78.0449C230.402 78.0449 233.761 79.4308 236.438 82.1077L242.094 76.4509ZM226.049 70.0449C217.764 70.0449 211.125 73.7276 206.487 80.7359L213.158 85.1508C216.372 80.2946 220.551 78.0449 226.049 78.0449V70.0449ZM206.479 80.7476C202.029 87.5233 200.065 96.8883 200.065 108.33H208.065C208.065 97.613 209.939 90.0535 213.166 85.1391L206.479 80.7476ZM200.065 108.33C200.065 122.348 203.048 133.384 210.004 140.34L215.661 134.683C210.927 129.949 208.065 121.53 208.065 108.33H200.065ZM210.004 140.34C214.306 144.642 219.759 146.746 226.049 146.746V138.746C221.697 138.746 218.338 137.36 215.661 134.683L210.004 140.34ZM226.049 146.746C234.312 146.746 240.923 143.125 245.488 136.174L238.801 131.783C235.689 136.522 231.57 138.746 226.049 138.746V146.746ZM245.481 136.186C250.022 129.324 252.034 119.87 252.034 108.33H244.034C244.034 119.124 242.12 126.768 238.809 131.771L245.481 136.186Z" fill="#D32B17" mask="url(#path-1-outside-1_12878_52200)"/>
<circle cx="23" cy="136" r="22" fill="url(#paint2_linear_12878_52200)" stroke="#D32B17" stroke-width="2"/>
<path d="M25.1152 146.322V152.223C25.1152 152.94 24.9297 153.484 24.5586 153.855C24.1875 154.227 23.6556 154.412 22.9629 154.412C22.2702 154.412 21.7383 154.227 21.3672 153.855C20.9961 153.484 20.8105 152.94 20.8105 152.223V146.322H11.6816C10.9395 146.322 10.3952 146.137 10.0488 145.766C9.72721 145.469 9.56641 145.048 9.56641 144.504C9.56641 143.96 9.73958 143.514 10.0859 143.168C10.4323 142.822 10.9642 142.648 11.6816 142.648H20.8105V140.162H11.6816C10.9642 140.162 10.4323 139.989 10.0859 139.643C9.73958 139.296 9.56641 138.851 9.56641 138.307C9.56641 137.762 9.72721 137.329 10.0488 137.008C10.4199 136.637 10.9642 136.451 11.6816 136.451H18.3984L9.90039 126.098C9.5293 125.603 9.34375 125.17 9.34375 124.799C9.34375 124.23 9.50456 123.785 9.82617 123.463C10.1478 123.141 10.6302 122.98 11.2734 122.98C12.0156 122.98 12.696 123.339 13.3145 124.057L22.9629 135.857L32.5742 124.057C33.2174 123.339 33.873 122.98 34.541 122.98C35.2337 122.98 35.7533 123.154 36.0996 123.5C36.4212 123.822 36.582 124.255 36.582 124.799C36.582 125.17 36.3717 125.615 35.9512 126.135L27.5273 136.451H34.1699C34.9121 136.451 35.4564 136.624 35.8027 136.971C36.1491 137.317 36.3223 137.762 36.3223 138.307C36.3223 138.851 36.1615 139.284 35.8398 139.605C35.4688 139.977 34.9121 140.162 34.1699 140.162H25.1152V142.648H34.1699C34.9121 142.648 35.4564 142.822 35.8027 143.168C36.1491 143.514 36.3223 143.96 36.3223 144.504C36.3223 145.048 36.1615 145.469 35.8398 145.766C35.4935 146.137 34.9368 146.322 34.1699 146.322H25.1152Z" fill="#D32B17"/>
<defs>
<linearGradient id="paint0_linear_12878_52200" x1="268" y1="37.7774" x2="24.7786" y2="157.487" gradientUnits="userSpaceOnUse">
<stop stop-color="#CFA359"/>
<stop offset="0.5" stop-color="#F5E6AD"/>
<stop offset="0.954106" stop-color="#CFA359"/>
</linearGradient>
<linearGradient id="paint1_linear_12878_52200" x1="129.173" y1="2.01038e-06" x2="181.148" y2="211.96" gradientUnits="userSpaceOnUse">
<stop offset="0.275" stop-color="#CFA358" stop-opacity="0"/>
<stop offset="0.2751" stop-color="white"/>
<stop offset="0.67" stop-color="#CFA358" stop-opacity="0"/>
<stop offset="0.6701" stop-color="white"/>
</linearGradient>
<linearGradient id="paint2_linear_12878_52200" x1="45" y1="121.767" x2="-2.2414" y2="143.031" gradientUnits="userSpaceOnUse">
<stop stop-color="#CFA359"/>
<stop offset="0.5" stop-color="#F5E6AD"/>
<stop offset="0.954106" stop-color="#CFA359"/>
</linearGradient>
</defs>
</svg>
