<svg width="370" height="214" viewBox="0 0 370 214" fill="none" xmlns="http://www.w3.org/2000/svg">
<mask id="path-1-outside-1_12754_56063" maskUnits="userSpaceOnUse" x="36" y="55" width="334" height="125" fill="black">
<rect fill="white" x="36" y="55" width="334" height="125"/>
<path d="M93.2793 88.832C93.2793 79.0612 86.9108 74.1758 74.1738 74.1758C66.4967 74.1758 59.2122 75.7025 52.3203 78.7559C51.1862 79.2793 50.1829 79.541 49.3105 79.541C47.4785 79.541 45.9082 78.9303 44.5996 77.709C43.3783 76.4004 42.7676 74.7865 42.7676 72.8672C42.7676 70.1628 44.0326 68.069 46.5625 66.5859C55.6354 62.0495 65.5371 59.7812 76.2676 59.7812C82.2871 59.7812 87.6087 60.9154 92.2324 63.1836C97.2051 65.5391 101.044 68.8978 103.748 73.2598C106.54 77.5345 107.936 82.4635 107.936 88.0469C107.936 93.543 106.365 98.5592 103.225 103.096C100.346 107.283 96.9434 111.035 93.0176 114.35C89.0918 117.665 83.2904 121.765 75.6133 126.65C66.8893 132.583 61.4805 136.639 59.3867 138.82C58.5143 139.693 57.7728 140.521 57.1621 141.307H99.9531C101.96 141.307 103.661 142.005 105.057 143.4C106.452 144.796 107.15 146.497 107.15 148.504C107.15 150.423 106.452 152.081 105.057 153.477C103.574 154.872 101.872 155.57 99.9531 155.57H49.4414C46.9987 155.57 44.9486 154.785 43.291 153.215C41.7207 151.645 40.9355 149.638 40.9355 147.195C40.9355 142.31 42.375 137.817 45.2539 133.717C47.7839 129.965 50.8372 126.65 54.4141 123.771C57.9909 120.893 62.7891 117.534 68.8086 113.695C77.5326 108.112 83.2904 104.055 86.082 101.525C88.7865 99.0827 90.6621 96.8145 91.709 94.7207C92.7559 92.627 93.2793 90.6641 93.2793 88.832ZM116.154 169.834C116.154 167.827 117.026 166.301 118.771 165.254C120.952 163.945 122.522 162.506 123.482 160.936C124.18 159.714 124.616 158.013 124.79 155.832C122.784 155.658 121.039 154.829 119.556 153.346C117.811 151.601 116.939 149.507 116.939 147.064V146.279C116.939 143.837 117.811 141.743 119.556 139.998C121.301 138.253 123.394 137.381 125.837 137.381H127.146C129.501 137.381 131.464 138.21 133.034 139.867C134.954 141.961 136.001 144.622 136.175 147.85C136.262 148.46 136.306 149.464 136.306 150.859C136.306 152.168 136.219 153.302 136.044 154.262C135.085 160.63 133.383 165.472 130.941 168.787C129.283 170.968 127.189 172.844 124.659 174.414C123.7 175.025 122.609 175.33 121.388 175.33C119.992 175.33 118.771 174.763 117.724 173.629C116.677 172.495 116.154 171.23 116.154 169.834ZM207.467 84.9062C207.467 94.8516 203.149 102.049 194.512 106.498C198.7 108.068 202.233 110.424 205.112 113.564C208.863 117.665 210.739 123.161 210.739 130.053C210.739 138.515 207.467 145.102 200.924 149.812C194.381 154.523 185.919 156.879 175.537 156.879C165.243 156.879 155.865 155.09 147.403 151.514C144.437 150.292 142.954 148.155 142.954 145.102C142.954 143.008 143.608 141.307 144.916 139.998C146.225 138.689 147.839 138.035 149.758 138.035C150.718 138.035 151.721 138.253 152.768 138.689C158.962 141.132 165.723 142.354 173.051 142.354C180.03 142.354 185.614 141.219 189.801 138.951C193.727 136.857 195.69 133.673 195.69 129.398C195.69 125.822 194.556 122.943 192.287 120.762C188.187 116.574 180.205 114.48 168.34 114.48H166.246C164.327 114.48 162.67 113.783 161.274 112.387C159.878 110.991 159.18 109.333 159.18 107.414C159.18 105.495 159.878 103.837 161.274 102.441C162.67 101.046 164.327 100.348 166.246 100.348H167.032C177.849 100.348 185.221 98.3411 189.147 94.3281C191.328 92.2344 192.418 89.4863 192.418 86.084C192.418 82.3327 190.848 79.4102 187.707 77.3164C184.392 75.1354 179.594 74.0449 173.313 74.0449C166.072 74.0449 159.485 75.4408 153.553 78.2324C152.506 78.6686 151.547 78.8867 150.674 78.8867C148.929 78.8867 147.403 78.2324 146.094 76.9238C144.873 75.7025 144.262 74.1758 144.262 72.3438C144.262 69.8138 145.44 67.8945 147.795 66.5859C156.258 62.0495 165.112 59.7812 174.36 59.7812C186.486 59.7812 195.428 62.6602 201.186 68.418C205.373 72.6055 207.467 78.1016 207.467 84.9062ZM273.002 104.928C284.255 109.813 289.882 118.101 289.882 129.791C289.882 134.415 288.617 138.777 286.087 142.877C283.558 147.239 279.457 150.685 273.787 153.215C268.203 155.658 261.311 156.879 253.111 156.879C244.91 156.879 238.106 155.57 232.697 152.953C227.375 150.423 223.406 147.108 220.789 143.008C218.171 138.908 216.863 134.502 216.863 129.791C216.863 118.101 222.49 109.813 233.744 104.928C230.429 103.27 227.681 101.089 225.5 98.3848C222.621 94.7207 221.181 90.3151 221.181 85.168C221.181 80.9805 222.272 77.0547 224.453 73.3906C226.721 69.2031 230.298 65.888 235.183 63.4453C240.156 61.0026 246.219 59.7812 253.373 59.7812C260.875 59.7812 266.982 61.0026 271.693 63.4453C276.317 65.888 279.763 69.0723 282.031 72.998C284.386 76.8366 285.564 80.8932 285.564 85.168C285.564 92.1471 282.86 97.7741 277.451 102.049C276.142 103.183 274.659 104.143 273.002 104.928ZM270.515 85.9531C270.515 82.1146 269.032 79.0612 266.066 76.793C263.013 74.5247 258.782 73.3906 253.373 73.3906C247.091 73.3906 242.424 74.9173 239.371 77.9707C237.277 80.0645 236.23 82.7253 236.23 85.9531C236.23 89.5299 237.626 92.4961 240.418 94.8516C243.296 97.2943 247.615 98.5156 253.373 98.5156C259.654 98.5156 264.278 97.0326 267.244 94.0664C269.425 91.8854 270.515 89.181 270.515 85.9531ZM274.834 128.482C274.834 123.597 272.827 119.715 268.814 116.836C264.801 113.87 259.654 112.387 253.373 112.387C247.091 112.387 241.901 113.87 237.8 116.836C233.875 119.715 231.912 123.597 231.912 128.482C231.912 130.402 232.61 132.495 234.005 134.764C235.576 137.294 237.931 139.344 241.072 140.914C244.387 142.484 248.531 143.27 253.504 143.27C261.006 143.27 266.764 141.263 270.777 137.25C272.086 135.941 273.132 134.458 273.918 132.801C274.528 131.318 274.834 129.878 274.834 128.482ZM328.591 59.7812C340.455 59.7812 349.615 64.0996 356.071 72.7363C362.614 81.2858 365.886 93.1504 365.886 108.33C365.886 125.952 361.611 139.038 353.061 147.588C346.867 153.782 338.798 156.879 328.852 156.879C316.901 156.879 307.74 152.561 301.372 143.924C295.003 135.2 291.819 123.335 291.819 108.33C291.819 93.3249 295.003 81.5039 301.372 72.8672C307.74 64.1432 316.813 59.7812 328.591 59.7812ZM350.837 108.33C350.837 94.8079 347.914 85.1243 342.069 79.2793C338.58 75.7897 334.174 74.0449 328.852 74.0449C321.96 74.0449 316.552 77.0111 312.626 82.9434C308.787 88.7884 306.868 97.2507 306.868 108.33C306.868 121.939 309.79 131.667 315.636 137.512C319.125 141.001 323.531 142.746 328.852 142.746C335.744 142.746 341.11 139.824 344.948 133.979C348.874 128.046 350.837 119.497 350.837 108.33Z"/>
</mask>
<path d="M93.2793 88.832C93.2793 79.0612 86.9108 74.1758 74.1738 74.1758C66.4967 74.1758 59.2122 75.7025 52.3203 78.7559C51.1862 79.2793 50.1829 79.541 49.3105 79.541C47.4785 79.541 45.9082 78.9303 44.5996 77.709C43.3783 76.4004 42.7676 74.7865 42.7676 72.8672C42.7676 70.1628 44.0326 68.069 46.5625 66.5859C55.6354 62.0495 65.5371 59.7812 76.2676 59.7812C82.2871 59.7812 87.6087 60.9154 92.2324 63.1836C97.2051 65.5391 101.044 68.8978 103.748 73.2598C106.54 77.5345 107.936 82.4635 107.936 88.0469C107.936 93.543 106.365 98.5592 103.225 103.096C100.346 107.283 96.9434 111.035 93.0176 114.35C89.0918 117.665 83.2904 121.765 75.6133 126.65C66.8893 132.583 61.4805 136.639 59.3867 138.82C58.5143 139.693 57.7728 140.521 57.1621 141.307H99.9531C101.96 141.307 103.661 142.005 105.057 143.4C106.452 144.796 107.15 146.497 107.15 148.504C107.15 150.423 106.452 152.081 105.057 153.477C103.574 154.872 101.872 155.57 99.9531 155.57H49.4414C46.9987 155.57 44.9486 154.785 43.291 153.215C41.7207 151.645 40.9355 149.638 40.9355 147.195C40.9355 142.31 42.375 137.817 45.2539 133.717C47.7839 129.965 50.8372 126.65 54.4141 123.771C57.9909 120.893 62.7891 117.534 68.8086 113.695C77.5326 108.112 83.2904 104.055 86.082 101.525C88.7865 99.0827 90.6621 96.8145 91.709 94.7207C92.7559 92.627 93.2793 90.6641 93.2793 88.832ZM116.154 169.834C116.154 167.827 117.026 166.301 118.771 165.254C120.952 163.945 122.522 162.506 123.482 160.936C124.18 159.714 124.616 158.013 124.79 155.832C122.784 155.658 121.039 154.829 119.556 153.346C117.811 151.601 116.939 149.507 116.939 147.064V146.279C116.939 143.837 117.811 141.743 119.556 139.998C121.301 138.253 123.394 137.381 125.837 137.381H127.146C129.501 137.381 131.464 138.21 133.034 139.867C134.954 141.961 136.001 144.622 136.175 147.85C136.262 148.46 136.306 149.464 136.306 150.859C136.306 152.168 136.219 153.302 136.044 154.262C135.085 160.63 133.383 165.472 130.941 168.787C129.283 170.968 127.189 172.844 124.659 174.414C123.7 175.025 122.609 175.33 121.388 175.33C119.992 175.33 118.771 174.763 117.724 173.629C116.677 172.495 116.154 171.23 116.154 169.834ZM207.467 84.9062C207.467 94.8516 203.149 102.049 194.512 106.498C198.7 108.068 202.233 110.424 205.112 113.564C208.863 117.665 210.739 123.161 210.739 130.053C210.739 138.515 207.467 145.102 200.924 149.812C194.381 154.523 185.919 156.879 175.537 156.879C165.243 156.879 155.865 155.09 147.403 151.514C144.437 150.292 142.954 148.155 142.954 145.102C142.954 143.008 143.608 141.307 144.916 139.998C146.225 138.689 147.839 138.035 149.758 138.035C150.718 138.035 151.721 138.253 152.768 138.689C158.962 141.132 165.723 142.354 173.051 142.354C180.03 142.354 185.614 141.219 189.801 138.951C193.727 136.857 195.69 133.673 195.69 129.398C195.69 125.822 194.556 122.943 192.287 120.762C188.187 116.574 180.205 114.48 168.34 114.48H166.246C164.327 114.48 162.67 113.783 161.274 112.387C159.878 110.991 159.18 109.333 159.18 107.414C159.18 105.495 159.878 103.837 161.274 102.441C162.67 101.046 164.327 100.348 166.246 100.348H167.032C177.849 100.348 185.221 98.3411 189.147 94.3281C191.328 92.2344 192.418 89.4863 192.418 86.084C192.418 82.3327 190.848 79.4102 187.707 77.3164C184.392 75.1354 179.594 74.0449 173.313 74.0449C166.072 74.0449 159.485 75.4408 153.553 78.2324C152.506 78.6686 151.547 78.8867 150.674 78.8867C148.929 78.8867 147.403 78.2324 146.094 76.9238C144.873 75.7025 144.262 74.1758 144.262 72.3438C144.262 69.8138 145.44 67.8945 147.795 66.5859C156.258 62.0495 165.112 59.7812 174.36 59.7812C186.486 59.7812 195.428 62.6602 201.186 68.418C205.373 72.6055 207.467 78.1016 207.467 84.9062ZM273.002 104.928C284.255 109.813 289.882 118.101 289.882 129.791C289.882 134.415 288.617 138.777 286.087 142.877C283.558 147.239 279.457 150.685 273.787 153.215C268.203 155.658 261.311 156.879 253.111 156.879C244.91 156.879 238.106 155.57 232.697 152.953C227.375 150.423 223.406 147.108 220.789 143.008C218.171 138.908 216.863 134.502 216.863 129.791C216.863 118.101 222.49 109.813 233.744 104.928C230.429 103.27 227.681 101.089 225.5 98.3848C222.621 94.7207 221.181 90.3151 221.181 85.168C221.181 80.9805 222.272 77.0547 224.453 73.3906C226.721 69.2031 230.298 65.888 235.183 63.4453C240.156 61.0026 246.219 59.7812 253.373 59.7812C260.875 59.7812 266.982 61.0026 271.693 63.4453C276.317 65.888 279.763 69.0723 282.031 72.998C284.386 76.8366 285.564 80.8932 285.564 85.168C285.564 92.1471 282.86 97.7741 277.451 102.049C276.142 103.183 274.659 104.143 273.002 104.928ZM270.515 85.9531C270.515 82.1146 269.032 79.0612 266.066 76.793C263.013 74.5247 258.782 73.3906 253.373 73.3906C247.091 73.3906 242.424 74.9173 239.371 77.9707C237.277 80.0645 236.23 82.7253 236.23 85.9531C236.23 89.5299 237.626 92.4961 240.418 94.8516C243.296 97.2943 247.615 98.5156 253.373 98.5156C259.654 98.5156 264.278 97.0326 267.244 94.0664C269.425 91.8854 270.515 89.181 270.515 85.9531ZM274.834 128.482C274.834 123.597 272.827 119.715 268.814 116.836C264.801 113.87 259.654 112.387 253.373 112.387C247.091 112.387 241.901 113.87 237.8 116.836C233.875 119.715 231.912 123.597 231.912 128.482C231.912 130.402 232.61 132.495 234.005 134.764C235.576 137.294 237.931 139.344 241.072 140.914C244.387 142.484 248.531 143.27 253.504 143.27C261.006 143.27 266.764 141.263 270.777 137.25C272.086 135.941 273.132 134.458 273.918 132.801C274.528 131.318 274.834 129.878 274.834 128.482ZM328.591 59.7812C340.455 59.7812 349.615 64.0996 356.071 72.7363C362.614 81.2858 365.886 93.1504 365.886 108.33C365.886 125.952 361.611 139.038 353.061 147.588C346.867 153.782 338.798 156.879 328.852 156.879C316.901 156.879 307.74 152.561 301.372 143.924C295.003 135.2 291.819 123.335 291.819 108.33C291.819 93.3249 295.003 81.5039 301.372 72.8672C307.74 64.1432 316.813 59.7812 328.591 59.7812ZM350.837 108.33C350.837 94.8079 347.914 85.1243 342.069 79.2793C338.58 75.7897 334.174 74.0449 328.852 74.0449C321.96 74.0449 316.552 77.0111 312.626 82.9434C308.787 88.7884 306.868 97.2507 306.868 108.33C306.868 121.939 309.79 131.667 315.636 137.512C319.125 141.001 323.531 142.746 328.852 142.746C335.744 142.746 341.11 139.824 344.948 133.979C348.874 128.046 350.837 119.497 350.837 108.33Z" fill="url(#paint0_linear_12754_56063)"/>
<path d="M93.2793 88.832C93.2793 79.0612 86.9108 74.1758 74.1738 74.1758C66.4967 74.1758 59.2122 75.7025 52.3203 78.7559C51.1862 79.2793 50.1829 79.541 49.3105 79.541C47.4785 79.541 45.9082 78.9303 44.5996 77.709C43.3783 76.4004 42.7676 74.7865 42.7676 72.8672C42.7676 70.1628 44.0326 68.069 46.5625 66.5859C55.6354 62.0495 65.5371 59.7812 76.2676 59.7812C82.2871 59.7812 87.6087 60.9154 92.2324 63.1836C97.2051 65.5391 101.044 68.8978 103.748 73.2598C106.54 77.5345 107.936 82.4635 107.936 88.0469C107.936 93.543 106.365 98.5592 103.225 103.096C100.346 107.283 96.9434 111.035 93.0176 114.35C89.0918 117.665 83.2904 121.765 75.6133 126.65C66.8893 132.583 61.4805 136.639 59.3867 138.82C58.5143 139.693 57.7728 140.521 57.1621 141.307H99.9531C101.96 141.307 103.661 142.005 105.057 143.4C106.452 144.796 107.15 146.497 107.15 148.504C107.15 150.423 106.452 152.081 105.057 153.477C103.574 154.872 101.872 155.57 99.9531 155.57H49.4414C46.9987 155.57 44.9486 154.785 43.291 153.215C41.7207 151.645 40.9355 149.638 40.9355 147.195C40.9355 142.31 42.375 137.817 45.2539 133.717C47.7839 129.965 50.8372 126.65 54.4141 123.771C57.9909 120.893 62.7891 117.534 68.8086 113.695C77.5326 108.112 83.2904 104.055 86.082 101.525C88.7865 99.0827 90.6621 96.8145 91.709 94.7207C92.7559 92.627 93.2793 90.6641 93.2793 88.832ZM116.154 169.834C116.154 167.827 117.026 166.301 118.771 165.254C120.952 163.945 122.522 162.506 123.482 160.936C124.18 159.714 124.616 158.013 124.79 155.832C122.784 155.658 121.039 154.829 119.556 153.346C117.811 151.601 116.939 149.507 116.939 147.064V146.279C116.939 143.837 117.811 141.743 119.556 139.998C121.301 138.253 123.394 137.381 125.837 137.381H127.146C129.501 137.381 131.464 138.21 133.034 139.867C134.954 141.961 136.001 144.622 136.175 147.85C136.262 148.46 136.306 149.464 136.306 150.859C136.306 152.168 136.219 153.302 136.044 154.262C135.085 160.63 133.383 165.472 130.941 168.787C129.283 170.968 127.189 172.844 124.659 174.414C123.7 175.025 122.609 175.33 121.388 175.33C119.992 175.33 118.771 174.763 117.724 173.629C116.677 172.495 116.154 171.23 116.154 169.834ZM207.467 84.9062C207.467 94.8516 203.149 102.049 194.512 106.498C198.7 108.068 202.233 110.424 205.112 113.564C208.863 117.665 210.739 123.161 210.739 130.053C210.739 138.515 207.467 145.102 200.924 149.812C194.381 154.523 185.919 156.879 175.537 156.879C165.243 156.879 155.865 155.09 147.403 151.514C144.437 150.292 142.954 148.155 142.954 145.102C142.954 143.008 143.608 141.307 144.916 139.998C146.225 138.689 147.839 138.035 149.758 138.035C150.718 138.035 151.721 138.253 152.768 138.689C158.962 141.132 165.723 142.354 173.051 142.354C180.03 142.354 185.614 141.219 189.801 138.951C193.727 136.857 195.69 133.673 195.69 129.398C195.69 125.822 194.556 122.943 192.287 120.762C188.187 116.574 180.205 114.48 168.34 114.48H166.246C164.327 114.48 162.67 113.783 161.274 112.387C159.878 110.991 159.18 109.333 159.18 107.414C159.18 105.495 159.878 103.837 161.274 102.441C162.67 101.046 164.327 100.348 166.246 100.348H167.032C177.849 100.348 185.221 98.3411 189.147 94.3281C191.328 92.2344 192.418 89.4863 192.418 86.084C192.418 82.3327 190.848 79.4102 187.707 77.3164C184.392 75.1354 179.594 74.0449 173.313 74.0449C166.072 74.0449 159.485 75.4408 153.553 78.2324C152.506 78.6686 151.547 78.8867 150.674 78.8867C148.929 78.8867 147.403 78.2324 146.094 76.9238C144.873 75.7025 144.262 74.1758 144.262 72.3438C144.262 69.8138 145.44 67.8945 147.795 66.5859C156.258 62.0495 165.112 59.7812 174.36 59.7812C186.486 59.7812 195.428 62.6602 201.186 68.418C205.373 72.6055 207.467 78.1016 207.467 84.9062ZM273.002 104.928C284.255 109.813 289.882 118.101 289.882 129.791C289.882 134.415 288.617 138.777 286.087 142.877C283.558 147.239 279.457 150.685 273.787 153.215C268.203 155.658 261.311 156.879 253.111 156.879C244.91 156.879 238.106 155.57 232.697 152.953C227.375 150.423 223.406 147.108 220.789 143.008C218.171 138.908 216.863 134.502 216.863 129.791C216.863 118.101 222.49 109.813 233.744 104.928C230.429 103.27 227.681 101.089 225.5 98.3848C222.621 94.7207 221.181 90.3151 221.181 85.168C221.181 80.9805 222.272 77.0547 224.453 73.3906C226.721 69.2031 230.298 65.888 235.183 63.4453C240.156 61.0026 246.219 59.7812 253.373 59.7812C260.875 59.7812 266.982 61.0026 271.693 63.4453C276.317 65.888 279.763 69.0723 282.031 72.998C284.386 76.8366 285.564 80.8932 285.564 85.168C285.564 92.1471 282.86 97.7741 277.451 102.049C276.142 103.183 274.659 104.143 273.002 104.928ZM270.515 85.9531C270.515 82.1146 269.032 79.0612 266.066 76.793C263.013 74.5247 258.782 73.3906 253.373 73.3906C247.091 73.3906 242.424 74.9173 239.371 77.9707C237.277 80.0645 236.23 82.7253 236.23 85.9531C236.23 89.5299 237.626 92.4961 240.418 94.8516C243.296 97.2943 247.615 98.5156 253.373 98.5156C259.654 98.5156 264.278 97.0326 267.244 94.0664C269.425 91.8854 270.515 89.181 270.515 85.9531ZM274.834 128.482C274.834 123.597 272.827 119.715 268.814 116.836C264.801 113.87 259.654 112.387 253.373 112.387C247.091 112.387 241.901 113.87 237.8 116.836C233.875 119.715 231.912 123.597 231.912 128.482C231.912 130.402 232.61 132.495 234.005 134.764C235.576 137.294 237.931 139.344 241.072 140.914C244.387 142.484 248.531 143.27 253.504 143.27C261.006 143.27 266.764 141.263 270.777 137.25C272.086 135.941 273.132 134.458 273.918 132.801C274.528 131.318 274.834 129.878 274.834 128.482ZM328.591 59.7812C340.455 59.7812 349.615 64.0996 356.071 72.7363C362.614 81.2858 365.886 93.1504 365.886 108.33C365.886 125.952 361.611 139.038 353.061 147.588C346.867 153.782 338.798 156.879 328.852 156.879C316.901 156.879 307.74 152.561 301.372 143.924C295.003 135.2 291.819 123.335 291.819 108.33C291.819 93.3249 295.003 81.5039 301.372 72.8672C307.74 64.1432 316.813 59.7812 328.591 59.7812ZM350.837 108.33C350.837 94.8079 347.914 85.1243 342.069 79.2793C338.58 75.7897 334.174 74.0449 328.852 74.0449C321.96 74.0449 316.552 77.0111 312.626 82.9434C308.787 88.7884 306.868 97.2507 306.868 108.33C306.868 121.939 309.79 131.667 315.636 137.512C319.125 141.001 323.531 142.746 328.852 142.746C335.744 142.746 341.11 139.824 344.948 133.979C348.874 128.046 350.837 119.497 350.837 108.33Z" fill="url(#paint1_linear_12754_56063)" fill-opacity="0.3"/>
<path d="M52.3203 78.7559L50.7001 75.0987L50.672 75.1111L50.6441 75.124L52.3203 78.7559ZM44.5996 77.709L41.6754 80.4383L41.7695 80.5391L41.8703 80.6332L44.5996 77.709ZM46.5625 66.5859L44.7736 63.0082L44.6545 63.0678L44.5396 63.1351L46.5625 66.5859ZM92.2324 63.1836L90.4707 66.7748L90.4953 66.7868L90.5201 66.7985L92.2324 63.1836ZM103.748 73.2598L100.348 75.3675L100.373 75.4075L100.399 75.4469L103.748 73.2598ZM103.225 103.096L99.9358 100.819L99.9284 100.83L103.225 103.096ZM75.6133 126.65L73.4658 123.276L73.4144 123.308L73.364 123.343L75.6133 126.65ZM59.3867 138.82L62.2151 141.649L62.244 141.62L62.2723 141.59L59.3867 138.82ZM57.1621 141.307L54.0047 138.851L48.9836 145.307H57.1621V141.307ZM105.057 153.477L107.798 156.389L107.842 156.348L107.885 156.305L105.057 153.477ZM43.291 153.215L40.4626 156.043L40.5008 156.081L40.54 156.119L43.291 153.215ZM45.2539 133.717L48.5276 136.015L48.5492 135.985L48.5702 135.953L45.2539 133.717ZM68.8086 113.695L70.9593 117.068L70.9648 117.064L68.8086 113.695ZM86.082 101.525L83.4009 98.557L83.396 98.5614L86.082 101.525ZM97.2793 88.832C97.2793 83.0041 95.3253 78.0321 90.9376 74.6661C86.7506 71.4542 80.9414 70.1758 74.1738 70.1758V78.1758C80.1433 78.1758 83.8867 79.3401 86.0683 81.0136C88.049 82.5331 89.2793 84.8892 89.2793 88.832H97.2793ZM74.1738 70.1758C65.9492 70.1758 58.1118 71.815 50.7001 75.0987L53.9406 82.413C60.3126 79.5899 67.0442 78.1758 74.1738 78.1758V70.1758ZM50.6441 75.124C49.8251 75.502 49.4102 75.541 49.3105 75.541V83.541C50.9556 83.541 52.5473 83.0566 53.9965 82.3877L50.6441 75.124ZM49.3105 75.541C48.4653 75.541 47.8777 75.297 47.3289 74.7848L41.8703 80.6332C43.9387 82.5636 46.4917 83.541 49.3105 83.541V75.541ZM47.5238 74.9797C47.0466 74.4684 46.7676 73.8534 46.7676 72.8672H38.7676C38.7676 75.7195 39.7099 78.3324 41.6754 80.4383L47.5238 74.9797ZM46.7676 72.8672C46.7676 71.722 47.1547 70.8754 48.5854 70.0367L44.5396 63.1351C40.9104 65.2626 38.7676 68.6035 38.7676 72.8672H46.7676ZM48.3514 70.1636C56.8368 65.9209 66.1212 63.7812 76.2676 63.7812V55.7812C64.953 55.7812 54.434 58.178 44.7736 63.0082L48.3514 70.1636ZM76.2676 63.7812C81.7791 63.7812 86.4807 64.8174 90.4707 66.7748L93.9941 59.5924C88.7368 57.0134 82.7951 55.7812 76.2676 55.7812V63.7812ZM90.5201 66.7985C94.8494 68.8493 98.0792 71.7075 100.348 75.3675L107.148 71.152C104.008 66.0881 99.5607 62.2288 93.9448 59.5686L90.5201 66.7985ZM100.399 75.4469C102.726 79.0107 103.936 83.1647 103.936 88.0469H111.936C111.936 81.7624 110.353 76.0583 107.097 71.0726L100.399 75.4469ZM103.936 88.0469C103.936 92.726 102.615 96.9486 99.9358 100.819L106.513 105.373C110.115 100.17 111.936 94.36 111.936 88.0469H103.936ZM99.9284 100.83C97.254 104.72 94.0931 108.206 90.4369 111.293L95.5983 117.406C99.7937 113.863 103.437 109.847 106.521 105.362L99.9284 100.83ZM90.4369 111.293C86.7141 114.437 81.0877 118.425 73.4658 123.276L77.7608 130.025C85.493 125.105 91.4695 120.892 95.5983 117.406L90.4369 111.293ZM73.364 123.343C64.738 129.208 58.9433 133.506 56.5012 136.05L62.2723 141.59C64.0176 139.772 69.0406 135.957 77.8625 129.958L73.364 123.343ZM56.5583 135.992C55.5952 136.955 54.7379 137.908 54.0047 138.851L60.3195 143.762C60.8076 143.135 61.4334 142.43 62.2151 141.649L56.5583 135.992ZM57.1621 145.307H99.9531V137.307H57.1621V145.307ZM99.9531 145.307C100.918 145.307 101.596 145.597 102.228 146.229L107.885 140.572C105.725 138.412 103.001 137.307 99.9531 137.307V145.307ZM102.228 146.229C102.86 146.861 103.15 147.539 103.15 148.504H111.15C111.15 145.456 110.045 142.732 107.885 140.572L102.228 146.229ZM103.15 148.504C103.15 149.329 102.898 149.979 102.228 150.648L107.885 156.305C110.007 154.183 111.15 151.517 111.15 148.504H103.15ZM102.315 150.564C101.524 151.308 100.787 151.57 99.9531 151.57V159.57C102.958 159.57 105.623 158.437 107.798 156.389L102.315 150.564ZM99.9531 151.57H49.4414V159.57H99.9531V151.57ZM49.4414 151.57C47.9437 151.57 46.9015 151.125 46.042 150.311L40.54 156.119C42.9957 158.445 46.0537 159.57 49.4414 159.57V151.57ZM46.1194 150.386C45.3778 149.645 44.9355 148.694 44.9355 147.195H36.9355C36.9355 150.582 38.0636 153.644 40.4626 156.043L46.1194 150.386ZM44.9355 147.195C44.9355 143.155 46.1085 139.461 48.5276 136.015L41.9803 131.418C38.6415 136.173 36.9355 141.465 36.9355 147.195H44.9355ZM48.5702 135.953C50.8729 132.539 53.6525 129.519 56.9221 126.888L51.906 120.655C48.022 123.782 44.6948 127.392 41.9376 131.48L48.5702 135.953ZM56.9221 126.888C60.3402 124.136 65.0037 120.866 70.9593 117.068L66.6579 110.323C60.5744 114.202 55.6415 117.649 51.906 120.655L56.9221 126.888ZM70.9648 117.064C79.6595 111.5 85.6928 107.276 88.7681 104.489L83.396 98.5614C80.8879 100.834 75.4056 104.724 66.6524 110.326L70.9648 117.064ZM88.7632 104.494C91.6542 101.883 93.9283 99.2263 95.2867 96.5096L88.1313 92.9318C87.3959 94.4026 85.9187 96.2828 83.4009 98.557L88.7632 104.494ZM95.2867 96.5096C96.5365 94.01 97.2793 91.4331 97.2793 88.832H89.2793C89.2793 89.895 88.9753 91.2439 88.1313 92.9318L95.2867 96.5096ZM123.482 160.936L126.895 163.021L126.925 162.971L126.955 162.92L123.482 160.936ZM124.79 155.832L128.777 156.151L129.094 152.191L125.137 151.847L124.79 155.832ZM133.034 139.867L135.983 137.164L135.961 137.14L135.938 137.116L133.034 139.867ZM136.175 147.85L132.181 148.066L132.19 148.241L132.215 148.415L136.175 147.85ZM136.044 154.262L132.109 153.546L132.098 153.606L132.089 153.666L136.044 154.262ZM130.941 168.787L134.125 171.207L134.143 171.184L134.161 171.16L130.941 168.787ZM124.659 174.414L122.55 171.016L122.531 171.027L122.512 171.039L124.659 174.414ZM120.154 169.834C120.154 169.427 120.236 169.247 120.281 169.169C120.327 169.088 120.451 168.911 120.829 168.684L116.713 161.824C113.784 163.581 112.154 166.398 112.154 169.834H120.154ZM120.829 168.684C123.363 167.163 125.495 165.312 126.895 163.021L120.069 158.85C119.549 159.699 118.54 160.727 116.713 161.824L120.829 168.684ZM126.955 162.92C128.061 160.983 128.58 158.626 128.777 156.151L120.803 155.513C120.652 157.4 120.298 158.445 120.009 158.951L126.955 162.92ZM125.137 151.847C124.109 151.758 123.232 151.365 122.384 150.517L116.727 156.174C118.846 158.293 121.458 159.557 124.444 159.817L125.137 151.847ZM122.384 150.517C121.381 149.514 120.939 148.434 120.939 147.064H112.939C112.939 150.58 114.241 153.688 116.727 156.174L122.384 150.517ZM120.939 147.064V146.279H112.939V147.064H120.939ZM120.939 146.279C120.939 144.91 121.381 143.83 122.384 142.826L116.727 137.17C114.241 139.656 112.939 142.764 112.939 146.279H120.939ZM122.384 142.826C123.387 141.823 124.467 141.381 125.837 141.381V133.381C122.321 133.381 119.214 134.683 116.727 137.17L122.384 142.826ZM125.837 141.381H127.146V133.381H125.837V141.381ZM127.146 141.381C128.442 141.381 129.342 141.786 130.131 142.618L135.938 137.116C133.586 134.633 130.56 133.381 127.146 133.381V141.381ZM130.086 142.57C131.293 143.887 132.049 145.628 132.181 148.066L140.169 147.634C139.952 143.616 138.614 140.034 135.983 137.164L130.086 142.57ZM132.215 148.415C132.259 148.721 132.306 149.477 132.306 150.859H140.306C140.306 149.45 140.266 148.199 140.135 147.284L132.215 148.415ZM132.306 150.859C132.306 152.004 132.229 152.887 132.109 153.546L139.98 154.977C140.209 153.717 140.306 152.332 140.306 150.859H132.306ZM132.089 153.666C131.177 159.719 129.619 163.837 127.72 166.414L134.161 171.16C137.147 167.107 138.992 161.541 139.999 154.858L132.089 153.666ZM127.756 166.367C126.419 168.126 124.701 169.68 122.55 171.016L126.769 177.813C129.678 176.007 132.147 173.81 134.125 171.207L127.756 166.367ZM122.512 171.039C122.242 171.211 121.907 171.33 121.388 171.33V179.33C123.311 179.33 125.158 178.838 126.807 177.789L122.512 171.039ZM121.388 171.33C121.233 171.33 121.042 171.326 120.663 170.916L114.785 176.342C116.5 178.2 118.751 179.33 121.388 179.33V171.33ZM120.663 170.916C120.22 170.436 120.154 170.115 120.154 169.834H112.154C112.154 172.345 113.134 174.554 114.785 176.342L120.663 170.916ZM194.512 106.498L192.68 102.942L184.658 107.075L193.108 110.243L194.512 106.498ZM205.112 113.564L208.063 110.864L208.06 110.862L205.112 113.564ZM147.403 151.514L148.96 147.829L148.943 147.822L148.926 147.815L147.403 151.514ZM152.768 138.689L151.23 142.382L151.265 142.396L151.3 142.411L152.768 138.689ZM189.801 138.951L187.919 135.422L187.907 135.428L187.896 135.434L189.801 138.951ZM192.287 120.762L189.429 123.56L189.472 123.603L189.515 123.645L192.287 120.762ZM189.147 94.3281L186.377 91.4426L186.331 91.4861L186.288 91.5309L189.147 94.3281ZM187.707 77.3164L189.926 73.9882L189.916 73.9814L189.906 73.9747L187.707 77.3164ZM153.553 78.2324L155.092 81.9247L155.175 81.8901L155.256 81.8517L153.553 78.2324ZM146.094 76.9238L143.266 79.7523L146.094 76.9238ZM147.795 66.5859L145.905 63.0606L145.879 63.0747L145.853 63.0893L147.795 66.5859ZM203.467 84.9062C203.467 89.2891 202.521 92.8347 200.798 95.7052C199.079 98.5704 196.443 101.004 192.68 102.942L196.344 110.054C201.218 107.543 205.059 104.153 207.658 99.8212C210.254 95.4944 211.467 90.4687 211.467 84.9062H203.467ZM193.108 110.243C196.736 111.604 199.731 113.614 202.163 116.267L208.06 110.862C204.735 107.234 200.664 104.533 195.917 102.753L193.108 110.243ZM202.16 116.265C205.085 119.461 206.739 123.909 206.739 130.053H214.739C214.739 122.412 212.641 115.868 208.063 110.864L202.16 116.265ZM206.739 130.053C206.739 137.304 204.026 142.65 198.587 146.566L203.261 153.059C210.908 147.553 214.739 139.726 214.739 130.053H206.739ZM198.587 146.566C192.897 150.663 185.322 152.879 175.537 152.879V160.879C186.517 160.879 195.865 158.384 203.261 153.059L198.587 146.566ZM175.537 152.879C165.714 152.879 156.873 151.174 148.96 147.829L145.845 155.198C154.857 159.007 164.773 160.879 175.537 160.879V152.879ZM148.926 147.815C147.988 147.429 147.562 147.017 147.352 146.714C147.152 146.425 146.954 145.958 146.954 145.102H138.954C138.954 147.298 139.497 149.426 140.779 151.275C142.052 153.11 143.851 154.377 145.88 155.212L148.926 147.815ZM146.954 145.102C146.954 143.917 147.287 143.284 147.745 142.826L142.088 137.17C139.928 139.329 138.954 142.099 138.954 145.102H146.954ZM147.745 142.826C148.273 142.299 148.856 142.035 149.758 142.035V134.035C146.822 134.035 144.177 135.08 142.088 137.17L147.745 142.826ZM149.758 142.035C150.103 142.035 150.583 142.112 151.23 142.382L154.306 134.997C152.859 134.394 151.333 134.035 149.758 134.035V142.035ZM151.3 142.411C158.007 145.055 165.271 146.354 173.051 146.354V138.354C166.175 138.354 159.917 137.209 154.235 134.968L151.3 142.411ZM173.051 146.354C180.408 146.354 186.724 145.167 191.706 142.468L187.896 135.434C184.503 137.272 179.653 138.354 173.051 138.354V146.354ZM191.684 142.481C194.153 141.164 196.204 139.392 197.623 137.092C199.046 134.782 199.69 132.169 199.69 129.398H191.69C191.69 130.903 191.352 132.019 190.813 132.894C190.268 133.777 189.375 134.645 187.919 135.422L191.684 142.481ZM199.69 129.398C199.69 124.896 198.223 120.919 195.06 117.878L189.515 123.645C190.889 124.966 191.69 126.747 191.69 129.398H199.69ZM195.146 117.963C189.818 112.523 180.327 110.48 168.34 110.48V118.48C180.082 118.48 186.556 120.626 189.429 123.56L195.146 117.963ZM168.34 110.48H166.246V118.48H168.34V110.48ZM166.246 110.48C165.421 110.48 164.772 110.228 164.102 109.558L158.445 115.215C160.567 117.337 163.233 118.48 166.246 118.48V110.48ZM164.102 109.558C163.433 108.889 163.18 108.239 163.18 107.414H155.18C155.18 110.428 156.323 113.093 158.445 115.215L164.102 109.558ZM163.18 107.414C163.18 106.589 163.433 105.939 164.102 105.27L158.445 99.613C156.323 101.735 155.18 104.401 155.18 107.414H163.18ZM164.102 105.27C164.772 104.6 165.421 104.348 166.246 104.348V96.3477C163.233 96.3477 160.567 97.4909 158.445 99.613L164.102 105.27ZM166.246 104.348H167.032V96.3477H166.246V104.348ZM167.032 104.348C178.041 104.348 186.878 102.368 192.006 97.1253L186.288 91.5309C183.564 94.3147 177.658 96.3477 167.032 96.3477V104.348ZM191.917 97.2137C194.986 94.2677 196.418 90.4255 196.418 86.084H188.418C188.418 88.5472 187.67 90.201 186.377 91.4426L191.917 97.2137ZM196.418 86.084C196.418 80.9853 194.171 76.8183 189.926 73.9882L185.489 80.6446C187.525 82.0021 188.418 83.6801 188.418 86.084H196.418ZM189.906 73.9747C185.66 71.1812 179.958 70.0449 173.313 70.0449V78.0449C179.23 78.0449 183.125 79.0896 185.509 80.6581L189.906 73.9747ZM173.313 70.0449C165.545 70.0449 158.368 71.5456 151.85 74.6131L155.256 81.8517C160.602 79.3359 166.599 78.0449 173.313 78.0449V70.0449ZM152.015 74.5401C151.316 74.8313 150.886 74.8867 150.674 74.8867V82.8867C152.207 82.8867 153.697 82.5059 155.092 81.9247L152.015 74.5401ZM150.674 74.8867C150.06 74.8867 149.532 74.7044 148.923 74.0954L143.266 79.7523C145.274 81.7605 147.799 82.8867 150.674 82.8867V74.8867ZM148.923 74.0954C148.5 73.6732 148.262 73.1863 148.262 72.3438H140.262C140.262 75.1652 141.245 77.7317 143.266 79.7523L148.923 74.0954ZM148.262 72.3438C148.262 71.7236 148.398 71.3538 148.555 71.0989C148.719 70.8313 149.043 70.4683 149.738 70.0826L145.853 63.0893C144.192 64.0121 142.75 65.2631 141.736 66.9148C140.715 68.5792 140.262 70.4339 140.262 72.3438H148.262ZM149.685 70.1113C157.589 65.8741 165.798 63.7812 174.36 63.7812V55.7812C164.427 55.7812 154.926 58.2249 145.905 63.0606L149.685 70.1113ZM174.36 63.7812C185.94 63.7812 193.649 66.5374 198.358 71.2464L204.014 65.5895C197.208 58.7829 187.033 55.7812 174.36 55.7812V63.7812ZM198.358 71.2464C201.682 74.5706 203.467 78.9909 203.467 84.9062H211.467C211.467 77.2122 209.065 70.6403 204.014 65.5895L198.358 71.2464ZM273.002 104.928L271.289 101.313L263.322 105.087L271.409 108.597L273.002 104.928ZM286.087 142.877L282.683 140.777L282.655 140.823L282.627 140.87L286.087 142.877ZM273.787 153.215L275.39 156.879L275.403 156.874L275.416 156.868L273.787 153.215ZM232.697 152.953L234.439 149.352L234.427 149.346L234.414 149.341L232.697 152.953ZM233.744 104.928L235.337 108.597L243.2 105.184L235.533 101.35L233.744 104.928ZM225.5 98.3848L222.354 100.856L222.37 100.876L222.386 100.896L225.5 98.3848ZM224.453 73.3906L227.89 75.4366L227.931 75.367L227.97 75.2958L224.453 73.3906ZM235.183 63.4453L233.42 59.8551L233.407 59.8613L233.394 59.8676L235.183 63.4453ZM271.693 63.4453L273.561 59.9085L273.548 59.9014L273.534 59.8943L271.693 63.4453ZM282.031 72.998L278.567 74.9992L278.594 75.045L278.622 75.0901L282.031 72.998ZM277.451 102.049L274.971 98.9106L274.899 98.9668L274.831 99.0261L277.451 102.049ZM266.066 76.793L268.496 73.6155L268.474 73.5986L268.451 73.582L266.066 76.793ZM240.418 94.8516L243.005 91.8015L242.997 91.7944L240.418 94.8516ZM268.814 116.836L266.436 120.053L266.459 120.07L266.482 120.086L268.814 116.836ZM237.8 116.836L235.456 113.595L235.445 113.603L235.435 113.61L237.8 116.836ZM234.005 134.764L230.599 136.86L230.603 136.867L230.607 136.873L234.005 134.764ZM241.072 140.914L239.283 144.492L239.321 144.511L239.36 144.529L241.072 140.914ZM273.918 132.801L277.533 134.513L277.577 134.42L277.616 134.324L273.918 132.801ZM271.409 108.597C276.497 110.806 280.052 113.666 282.353 117.054C284.645 120.43 285.882 124.61 285.882 129.791H293.882C293.882 123.282 292.306 117.473 288.972 112.561C285.645 107.662 280.76 103.935 274.594 101.259L271.409 108.597ZM285.882 129.791C285.882 133.641 284.841 137.28 282.683 140.777L289.492 144.977C292.394 140.274 293.882 135.189 293.882 129.791H285.882ZM282.627 140.87C280.609 144.351 277.24 147.294 272.157 149.562L275.416 156.868C281.675 154.076 286.506 150.127 289.548 144.884L282.627 140.87ZM272.183 149.55C267.248 151.709 260.94 152.879 253.111 152.879V160.879C261.683 160.879 269.159 159.606 275.39 156.879L272.183 149.55ZM253.111 152.879C245.306 152.879 239.144 151.629 234.439 149.352L230.955 156.554C237.067 159.512 244.515 160.879 253.111 160.879V152.879ZM234.414 149.341C229.626 147.064 226.296 144.202 224.16 140.856L217.417 145.16C220.516 150.015 225.124 153.782 230.979 156.566L234.414 149.341ZM224.16 140.856C221.939 137.376 220.863 133.714 220.863 129.791H212.863C212.863 135.29 214.404 140.439 217.417 145.16L224.16 140.856ZM220.863 129.791C220.863 124.61 222.1 120.43 224.392 117.054C226.693 113.666 230.248 110.806 235.337 108.597L232.151 101.259C225.985 103.935 221.1 107.662 217.774 112.561C214.439 117.473 212.863 123.282 212.863 129.791H220.863ZM235.533 101.35C232.696 99.9315 230.411 98.1024 228.613 95.8738L222.386 100.896C224.951 104.076 228.162 106.609 231.955 108.505L235.533 101.35ZM228.645 95.9135C226.378 93.0285 225.181 89.5182 225.181 85.168H217.181C217.181 91.112 218.863 96.4129 222.354 100.856L228.645 95.9135ZM225.181 85.168C225.181 81.7144 226.07 78.4936 227.89 75.4366L221.016 71.3447C218.473 75.6157 217.181 80.2465 217.181 85.168H225.181ZM227.97 75.2958C229.792 71.9323 232.709 69.1545 236.972 67.023L233.394 59.8676C227.886 62.6216 223.65 66.4739 220.936 71.4855L227.97 75.2958ZM236.947 67.0355C241.235 64.9292 246.659 63.7812 253.373 63.7812V55.7812C245.779 55.7812 239.077 57.0761 233.42 59.8551L236.947 67.0355ZM253.373 63.7812C260.483 63.7812 265.896 64.9451 269.852 66.9963L273.534 59.8943C268.068 57.0601 261.267 55.7812 253.373 55.7812V63.7812ZM269.824 66.9821C273.887 69.1282 276.731 71.8202 278.567 74.9992L285.494 70.9969C282.795 66.3243 278.746 62.6478 273.561 59.9085L269.824 66.9821ZM278.622 75.0901C280.612 78.3344 281.564 81.672 281.564 85.168H289.564C289.564 80.1144 288.16 75.3387 285.44 70.906L278.622 75.0901ZM281.564 85.168C281.564 90.9413 279.406 95.4053 274.971 98.9106L279.931 105.187C286.313 100.143 289.564 93.3529 289.564 85.168H281.564ZM274.831 99.0261C273.812 99.9089 272.638 100.674 271.289 101.313L274.714 108.543C276.68 107.611 278.472 106.457 280.07 105.072L274.831 99.0261ZM274.515 85.9531C274.515 80.9096 272.484 76.6651 268.496 73.6155L263.636 79.9704C265.581 81.4573 266.515 83.3196 266.515 85.9531H274.515ZM268.451 73.582C264.471 70.6254 259.289 69.3906 253.373 69.3906V77.3906C258.274 77.3906 261.554 78.4241 263.681 80.0039L268.451 73.582ZM253.373 69.3906C246.513 69.3906 240.629 71.0554 236.542 75.1423L242.199 80.7991C244.219 78.7793 247.67 77.3906 253.373 77.3906V69.3906ZM236.542 75.1423C233.627 78.0575 232.23 81.7697 232.23 85.9531H240.23C240.23 83.6808 240.927 82.0714 242.199 80.7991L236.542 75.1423ZM232.23 85.9531C232.23 90.737 234.168 94.8118 237.838 97.9087L242.997 91.7944C241.084 90.1804 240.23 88.3229 240.23 85.9531H232.23ZM237.83 97.9016C241.727 101.208 247.144 102.516 253.373 102.516V94.5156C248.086 94.5156 244.866 93.3802 243.005 91.8015L237.83 97.9016ZM253.373 102.516C260.193 102.516 266.054 100.913 270.072 96.8948L264.415 91.238C262.502 93.1517 259.115 94.5156 253.373 94.5156V102.516ZM270.072 96.8948C273.041 93.9257 274.515 90.1869 274.515 85.9531H266.515C266.515 88.1751 265.808 89.8451 264.415 91.238L270.072 96.8948ZM278.834 128.482C278.834 122.291 276.192 117.206 271.146 113.586L266.482 120.086C269.462 122.223 270.834 124.903 270.834 128.482H278.834ZM271.192 113.619C266.33 110.026 260.286 108.387 253.373 108.387V116.387C259.022 116.387 263.272 117.714 266.436 120.053L271.192 113.619ZM253.373 108.387C246.455 108.387 240.388 110.027 235.456 113.595L240.145 120.077C243.413 117.712 247.728 116.387 253.373 116.387V108.387ZM235.435 113.61C230.477 117.246 227.912 122.328 227.912 128.482H235.912C235.912 124.866 237.272 122.184 240.166 120.062L235.435 113.61ZM227.912 128.482C227.912 131.376 228.959 134.196 230.599 136.86L237.412 132.667C236.26 130.795 235.912 129.428 235.912 128.482H227.912ZM230.607 136.873C232.633 140.137 235.6 142.65 239.283 144.492L242.861 137.336C240.262 136.037 238.519 134.45 237.404 132.654L230.607 136.873ZM239.36 144.529C243.365 146.426 248.138 147.27 253.504 147.27V139.27C248.924 139.27 245.409 138.542 242.784 137.299L239.36 144.529ZM253.504 147.27C261.713 147.27 268.624 145.059 273.605 140.078L267.949 134.422C264.904 137.467 260.299 139.27 253.504 139.27V147.27ZM273.605 140.078C275.235 138.449 276.549 136.589 277.533 134.513L270.303 131.088C269.716 132.328 268.936 133.434 267.949 134.422L273.605 140.078ZM277.616 134.324C278.397 132.429 278.834 130.473 278.834 128.482H270.834C270.834 129.284 270.66 130.206 270.219 131.278L277.616 134.324ZM356.071 72.7363L352.867 75.1311L352.881 75.1493L352.895 75.1673L356.071 72.7363ZM353.061 147.588L350.233 144.759L353.061 147.588ZM301.372 143.924L298.141 146.282L298.147 146.29L298.152 146.298L301.372 143.924ZM301.372 72.8672L304.591 75.2411L304.597 75.2334L304.603 75.2256L301.372 72.8672ZM312.626 82.9434L309.29 80.7359L309.282 80.7476L312.626 82.9434ZM344.948 133.979L341.612 131.771L341.605 131.783L344.948 133.979ZM328.591 63.7812C339.34 63.7812 347.25 67.6163 352.867 75.1311L359.275 70.3415C351.981 60.5829 341.57 55.7812 328.591 55.7812V63.7812ZM352.895 75.1673C358.723 82.7835 361.886 93.6777 361.886 108.33H369.886C369.886 92.6231 366.505 79.7881 359.248 70.3053L352.895 75.1673ZM361.886 108.33C361.886 125.377 357.748 137.245 350.233 144.759L355.89 150.416C365.474 140.832 369.886 126.528 369.886 108.33H361.886ZM350.233 144.759C344.893 150.1 337.893 152.879 328.852 152.879V160.879C339.702 160.879 348.842 157.464 355.89 150.416L350.233 144.759ZM328.852 152.879C318.004 152.879 310.112 149.037 304.591 141.55L298.152 146.298C305.369 156.084 315.797 160.879 328.852 160.879V152.879ZM304.603 141.565C298.895 133.747 295.819 122.809 295.819 108.33H287.819C287.819 123.861 291.112 136.653 298.141 146.282L304.603 141.565ZM295.819 108.33C295.819 93.8477 298.896 82.9642 304.591 75.2411L298.152 70.4933C291.11 80.0436 287.819 92.8021 287.819 108.33H295.819ZM304.603 75.2256C310.142 67.6371 317.956 63.7812 328.591 63.7812V55.7812C315.67 55.7812 305.338 60.6494 298.141 70.5087L304.603 75.2256ZM354.837 108.33C354.837 94.3901 351.85 83.4031 344.898 76.4509L339.241 82.1077C343.979 86.8456 346.837 95.2258 346.837 108.33H354.837ZM344.898 76.4509C340.595 72.1486 335.143 70.0449 328.852 70.0449V78.0449C333.205 78.0449 336.564 79.4308 339.241 82.1077L344.898 76.4509ZM328.852 70.0449C320.567 70.0449 313.928 73.7276 309.29 80.7359L315.962 85.1508C319.175 80.2946 323.354 78.0449 328.852 78.0449V70.0449ZM309.282 80.7476C304.833 87.5233 302.868 96.8883 302.868 108.33H310.868C310.868 97.613 312.742 90.0535 315.969 85.1391L309.282 80.7476ZM302.868 108.33C302.868 122.348 305.851 133.384 312.807 140.34L318.464 134.683C313.73 129.949 310.868 121.53 310.868 108.33H302.868ZM312.807 140.34C317.109 144.642 322.562 146.746 328.852 146.746V138.746C324.5 138.746 321.141 137.36 318.464 134.683L312.807 140.34ZM328.852 146.746C337.115 146.746 343.727 143.125 348.292 136.174L341.605 131.783C338.492 136.522 334.373 138.746 328.852 138.746V146.746ZM348.284 136.186C352.825 129.324 354.837 119.87 354.837 108.33H346.837C346.837 119.124 344.923 126.768 341.612 131.771L348.284 136.186Z" fill="#D32B17" mask="url(#path-1-outside-1_12754_56063)"/>
<circle cx="23" cy="136" r="22" fill="url(#paint2_linear_12754_56063)" stroke="#D32B17" stroke-width="2"/>
<path d="M25.1152 146.322V152.223C25.1152 152.94 24.9297 153.484 24.5586 153.855C24.1875 154.227 23.6556 154.412 22.9629 154.412C22.2702 154.412 21.7383 154.227 21.3672 153.855C20.9961 153.484 20.8105 152.94 20.8105 152.223V146.322H11.6816C10.9395 146.322 10.3952 146.137 10.0488 145.766C9.72721 145.469 9.56641 145.048 9.56641 144.504C9.56641 143.96 9.73958 143.514 10.0859 143.168C10.4323 142.822 10.9642 142.648 11.6816 142.648H20.8105V140.162H11.6816C10.9642 140.162 10.4323 139.989 10.0859 139.643C9.73958 139.296 9.56641 138.851 9.56641 138.307C9.56641 137.762 9.72721 137.329 10.0488 137.008C10.4199 136.637 10.9642 136.451 11.6816 136.451H18.3984L9.90039 126.098C9.5293 125.603 9.34375 125.17 9.34375 124.799C9.34375 124.23 9.50456 123.785 9.82617 123.463C10.1478 123.141 10.6302 122.98 11.2734 122.98C12.0156 122.98 12.696 123.339 13.3145 124.057L22.9629 135.857L32.5742 124.057C33.2174 123.339 33.873 122.98 34.541 122.98C35.2337 122.98 35.7533 123.154 36.0996 123.5C36.4212 123.822 36.582 124.255 36.582 124.799C36.582 125.17 36.3717 125.615 35.9512 126.135L27.5273 136.451H34.1699C34.9121 136.451 35.4564 136.624 35.8027 136.971C36.1491 137.317 36.3223 137.762 36.3223 138.307C36.3223 138.851 36.1615 139.284 35.8398 139.605C35.4688 139.977 34.9121 140.162 34.1699 140.162H25.1152V142.648H34.1699C34.9121 142.648 35.4564 142.822 35.8027 143.168C36.1491 143.514 36.3223 143.96 36.3223 144.504C36.3223 145.048 36.1615 145.469 35.8398 145.766C35.4935 146.137 34.9368 146.322 34.1699 146.322H25.1152Z" fill="#D32B17"/>
<defs>
<linearGradient id="paint0_linear_12754_56063" x1="370" y1="37.7774" x2="80.6673" y2="242.256" gradientUnits="userSpaceOnUse">
<stop stop-color="#CFA359"/>
<stop offset="0.5" stop-color="#F5E6AD"/>
<stop offset="0.954106" stop-color="#CFA359"/>
</linearGradient>
<linearGradient id="paint1_linear_12754_56063" x1="170.659" y1="2.01038e-06" x2="207.945" y2="218.337" gradientUnits="userSpaceOnUse">
<stop offset="0.275" stop-color="#CFA358" stop-opacity="0"/>
<stop offset="0.2751" stop-color="white"/>
<stop offset="0.67" stop-color="#CFA358" stop-opacity="0"/>
<stop offset="0.6701" stop-color="white"/>
</linearGradient>
<linearGradient id="paint2_linear_12754_56063" x1="45" y1="121.767" x2="-2.2414" y2="143.031" gradientUnits="userSpaceOnUse">
<stop stop-color="#CFA359"/>
<stop offset="0.5" stop-color="#F5E6AD"/>
<stop offset="0.954106" stop-color="#CFA359"/>
</linearGradient>
</defs>
</svg>
