<svg width="351" height="214" viewBox="0 0 351 214" fill="none" xmlns="http://www.w3.org/2000/svg">
<mask id="path-1-outside-1_12867_52156" maskUnits="userSpaceOnUse" x="26" y="55" width="325" height="125" fill="black">
<rect fill="white" x="26" y="55" width="325" height="125"/>
<path d="M33.7707 153.607C32.4621 152.212 31.8078 150.554 31.8078 148.635C31.8078 146.628 32.5057 144.883 33.9016 143.4C35.2974 142.005 36.9549 141.307 38.8742 141.307H52.8762V79.1484L41.7531 84.5137C40.3573 85.1243 39.1359 85.4297 38.0891 85.4297C35.9953 85.4297 34.2505 84.7754 32.8547 83.4668C31.5461 82.071 30.8918 80.3262 30.8918 78.2324C30.8918 75.0918 32.3312 72.8236 35.2101 71.4277L53.007 62.1367C54.1411 61.4388 55.5806 61.0898 57.3254 61.0898H60.0734C62.2544 61.0898 64.0864 61.875 65.5695 63.4453C67.1398 64.9284 67.925 66.7604 67.925 68.9414V141.307H79.3098C81.3163 141.307 83.0174 142.005 84.4133 143.4C85.8091 144.796 86.507 146.497 86.507 148.504C86.507 150.423 85.8091 152.081 84.4133 153.477C82.9302 154.872 81.229 155.57 79.3098 155.57H38.8742C36.8677 155.57 35.1665 154.916 33.7707 153.607ZM97.8656 169.834C97.8656 167.827 98.738 166.301 100.483 165.254C102.664 163.945 104.234 162.506 105.194 160.936C105.892 159.714 106.328 158.013 106.502 155.832C104.496 155.658 102.751 154.829 101.268 153.346C99.5232 151.601 98.6508 149.507 98.6508 147.064V146.279C98.6508 143.837 99.5232 141.743 101.268 139.998C103.013 138.253 105.107 137.381 107.549 137.381H108.858C111.213 137.381 113.176 138.21 114.746 139.867C116.666 141.961 117.713 144.622 117.887 147.85C117.974 148.46 118.018 149.464 118.018 150.859C118.018 152.168 117.931 153.302 117.756 154.262C116.797 160.63 115.095 165.472 112.653 168.787C110.995 170.968 108.901 172.844 106.371 174.414C105.412 175.025 104.321 175.33 103.1 175.33C101.704 175.33 100.483 174.763 99.4359 173.629C98.3891 172.495 97.8656 171.23 97.8656 169.834ZM178.58 104.928C189.834 109.813 195.461 118.101 195.461 129.791C195.461 134.415 194.196 138.777 191.666 142.877C189.136 147.239 185.035 150.685 179.365 153.215C173.781 155.658 166.89 156.879 158.689 156.879C150.489 156.879 143.684 155.57 138.275 152.953C132.953 150.423 128.984 147.108 126.367 143.008C123.75 138.908 122.441 134.502 122.441 129.791C122.441 118.101 128.068 109.813 139.322 104.928C136.007 103.27 133.259 101.089 131.078 98.3848C128.199 94.7207 126.759 90.3151 126.759 85.168C126.759 80.9805 127.85 77.0547 130.031 73.3906C132.299 69.2031 135.876 65.888 140.761 63.4453C145.734 61.0026 151.797 59.7812 158.951 59.7812C166.453 59.7812 172.56 61.0026 177.271 63.4453C181.895 65.888 185.341 69.0723 187.609 72.998C189.964 76.8366 191.142 80.8932 191.142 85.168C191.142 92.1471 188.438 97.7741 183.029 102.049C181.72 103.183 180.237 104.143 178.58 104.928ZM176.093 85.9531C176.093 82.1146 174.61 79.0612 171.644 76.793C168.591 74.5247 164.36 73.3906 158.951 73.3906C152.67 73.3906 148.002 74.9173 144.949 77.9707C142.855 80.0645 141.808 82.7253 141.808 85.9531C141.808 89.5299 143.204 92.4961 145.996 94.8516C148.875 97.2943 153.193 98.5156 158.951 98.5156C165.232 98.5156 169.856 97.0326 172.822 94.0664C175.003 91.8854 176.093 89.181 176.093 85.9531ZM180.412 128.482C180.412 123.597 178.405 119.715 174.392 116.836C170.379 113.87 165.232 112.387 158.951 112.387C152.67 112.387 147.479 113.87 143.379 116.836C139.453 119.715 137.49 123.597 137.49 128.482C137.49 130.402 138.188 132.495 139.584 134.764C141.154 137.294 143.509 139.344 146.65 140.914C149.965 142.484 154.109 143.27 159.082 143.27C166.584 143.27 172.342 141.263 176.355 137.25C177.664 135.941 178.711 134.458 179.496 132.801C180.106 131.318 180.412 129.878 180.412 128.482ZM254.059 104.928C265.313 109.813 270.94 118.101 270.94 129.791C270.94 134.415 269.675 138.777 267.145 142.877C264.615 147.239 260.515 150.685 254.845 153.215C249.261 155.658 242.369 156.879 234.169 156.879C225.968 156.879 219.164 155.57 213.755 152.953C208.433 150.423 204.464 147.108 201.846 143.008C199.229 138.908 197.921 134.502 197.921 129.791C197.921 118.101 203.548 109.813 214.802 104.928C211.486 103.27 208.738 101.089 206.557 98.3848C203.678 94.7207 202.239 90.3151 202.239 85.168C202.239 80.9805 203.33 77.0547 205.511 73.3906C207.779 69.2031 211.356 65.888 216.241 63.4453C221.214 61.0026 227.277 59.7812 234.43 59.7812C241.933 59.7812 248.04 61.0026 252.751 63.4453C257.374 65.888 260.82 69.0723 263.089 72.998C265.444 76.8366 266.622 80.8932 266.622 85.168C266.622 92.1471 263.917 97.7741 258.509 102.049C257.2 103.183 255.717 104.143 254.059 104.928ZM251.573 85.9531C251.573 82.1146 250.09 79.0612 247.124 76.793C244.07 74.5247 239.839 73.3906 234.43 73.3906C228.149 73.3906 223.482 74.9173 220.428 77.9707C218.335 80.0645 217.288 82.7253 217.288 85.9531C217.288 89.5299 218.684 92.4961 221.475 94.8516C224.354 97.2943 228.673 98.5156 234.43 98.5156C240.712 98.5156 245.335 97.0326 248.302 94.0664C250.483 91.8854 251.573 89.181 251.573 85.9531ZM255.891 128.482C255.891 123.597 253.885 119.715 249.872 116.836C245.859 113.87 240.712 112.387 234.43 112.387C228.149 112.387 222.958 113.87 218.858 116.836C214.932 119.715 212.97 123.597 212.97 128.482C212.97 130.402 213.667 132.495 215.063 134.764C216.634 137.294 218.989 139.344 222.13 140.914C225.445 142.484 229.589 143.27 234.561 143.27C242.064 143.27 247.822 141.263 251.835 137.25C253.143 135.941 254.19 134.458 254.975 132.801C255.586 131.318 255.891 129.878 255.891 128.482ZM309.648 59.7812C321.513 59.7812 330.673 64.0996 337.129 72.7363C343.672 81.2858 346.943 93.1504 346.943 108.33C346.943 125.952 342.669 139.038 334.119 147.588C327.925 153.782 319.855 156.879 309.91 156.879C297.958 156.879 288.798 152.561 282.43 143.924C276.061 135.2 272.877 123.335 272.877 108.33C272.877 93.3249 276.061 81.5039 282.43 72.8672C288.798 64.1432 297.871 59.7812 309.648 59.7812ZM331.895 108.33C331.895 94.8079 328.972 85.1243 323.127 79.2793C319.637 75.7897 315.232 74.0449 309.91 74.0449C303.018 74.0449 297.609 77.0111 293.684 82.9434C289.845 88.7884 287.926 97.2507 287.926 108.33C287.926 121.939 290.848 131.667 296.693 137.512C300.183 141.001 304.589 142.746 309.91 142.746C316.802 142.746 322.167 139.824 326.006 133.979C329.932 128.046 331.895 119.497 331.895 108.33Z"/>
</mask>
<path d="M33.7707 153.607C32.4621 152.212 31.8078 150.554 31.8078 148.635C31.8078 146.628 32.5057 144.883 33.9016 143.4C35.2974 142.005 36.9549 141.307 38.8742 141.307H52.8762V79.1484L41.7531 84.5137C40.3573 85.1243 39.1359 85.4297 38.0891 85.4297C35.9953 85.4297 34.2505 84.7754 32.8547 83.4668C31.5461 82.071 30.8918 80.3262 30.8918 78.2324C30.8918 75.0918 32.3312 72.8236 35.2101 71.4277L53.007 62.1367C54.1411 61.4388 55.5806 61.0898 57.3254 61.0898H60.0734C62.2544 61.0898 64.0864 61.875 65.5695 63.4453C67.1398 64.9284 67.925 66.7604 67.925 68.9414V141.307H79.3098C81.3163 141.307 83.0174 142.005 84.4133 143.4C85.8091 144.796 86.507 146.497 86.507 148.504C86.507 150.423 85.8091 152.081 84.4133 153.477C82.9302 154.872 81.229 155.57 79.3098 155.57H38.8742C36.8677 155.57 35.1665 154.916 33.7707 153.607ZM97.8656 169.834C97.8656 167.827 98.738 166.301 100.483 165.254C102.664 163.945 104.234 162.506 105.194 160.936C105.892 159.714 106.328 158.013 106.502 155.832C104.496 155.658 102.751 154.829 101.268 153.346C99.5232 151.601 98.6508 149.507 98.6508 147.064V146.279C98.6508 143.837 99.5232 141.743 101.268 139.998C103.013 138.253 105.107 137.381 107.549 137.381H108.858C111.213 137.381 113.176 138.21 114.746 139.867C116.666 141.961 117.713 144.622 117.887 147.85C117.974 148.46 118.018 149.464 118.018 150.859C118.018 152.168 117.931 153.302 117.756 154.262C116.797 160.63 115.095 165.472 112.653 168.787C110.995 170.968 108.901 172.844 106.371 174.414C105.412 175.025 104.321 175.33 103.1 175.33C101.704 175.33 100.483 174.763 99.4359 173.629C98.3891 172.495 97.8656 171.23 97.8656 169.834ZM178.58 104.928C189.834 109.813 195.461 118.101 195.461 129.791C195.461 134.415 194.196 138.777 191.666 142.877C189.136 147.239 185.035 150.685 179.365 153.215C173.781 155.658 166.89 156.879 158.689 156.879C150.489 156.879 143.684 155.57 138.275 152.953C132.953 150.423 128.984 147.108 126.367 143.008C123.75 138.908 122.441 134.502 122.441 129.791C122.441 118.101 128.068 109.813 139.322 104.928C136.007 103.27 133.259 101.089 131.078 98.3848C128.199 94.7207 126.759 90.3151 126.759 85.168C126.759 80.9805 127.85 77.0547 130.031 73.3906C132.299 69.2031 135.876 65.888 140.761 63.4453C145.734 61.0026 151.797 59.7812 158.951 59.7812C166.453 59.7812 172.56 61.0026 177.271 63.4453C181.895 65.888 185.341 69.0723 187.609 72.998C189.964 76.8366 191.142 80.8932 191.142 85.168C191.142 92.1471 188.438 97.7741 183.029 102.049C181.72 103.183 180.237 104.143 178.58 104.928ZM176.093 85.9531C176.093 82.1146 174.61 79.0612 171.644 76.793C168.591 74.5247 164.36 73.3906 158.951 73.3906C152.67 73.3906 148.002 74.9173 144.949 77.9707C142.855 80.0645 141.808 82.7253 141.808 85.9531C141.808 89.5299 143.204 92.4961 145.996 94.8516C148.875 97.2943 153.193 98.5156 158.951 98.5156C165.232 98.5156 169.856 97.0326 172.822 94.0664C175.003 91.8854 176.093 89.181 176.093 85.9531ZM180.412 128.482C180.412 123.597 178.405 119.715 174.392 116.836C170.379 113.87 165.232 112.387 158.951 112.387C152.67 112.387 147.479 113.87 143.379 116.836C139.453 119.715 137.49 123.597 137.49 128.482C137.49 130.402 138.188 132.495 139.584 134.764C141.154 137.294 143.509 139.344 146.65 140.914C149.965 142.484 154.109 143.27 159.082 143.27C166.584 143.27 172.342 141.263 176.355 137.25C177.664 135.941 178.711 134.458 179.496 132.801C180.106 131.318 180.412 129.878 180.412 128.482ZM254.059 104.928C265.313 109.813 270.94 118.101 270.94 129.791C270.94 134.415 269.675 138.777 267.145 142.877C264.615 147.239 260.515 150.685 254.845 153.215C249.261 155.658 242.369 156.879 234.169 156.879C225.968 156.879 219.164 155.57 213.755 152.953C208.433 150.423 204.464 147.108 201.846 143.008C199.229 138.908 197.921 134.502 197.921 129.791C197.921 118.101 203.548 109.813 214.802 104.928C211.486 103.27 208.738 101.089 206.557 98.3848C203.678 94.7207 202.239 90.3151 202.239 85.168C202.239 80.9805 203.33 77.0547 205.511 73.3906C207.779 69.2031 211.356 65.888 216.241 63.4453C221.214 61.0026 227.277 59.7812 234.43 59.7812C241.933 59.7812 248.04 61.0026 252.751 63.4453C257.374 65.888 260.82 69.0723 263.089 72.998C265.444 76.8366 266.622 80.8932 266.622 85.168C266.622 92.1471 263.917 97.7741 258.509 102.049C257.2 103.183 255.717 104.143 254.059 104.928ZM251.573 85.9531C251.573 82.1146 250.09 79.0612 247.124 76.793C244.07 74.5247 239.839 73.3906 234.43 73.3906C228.149 73.3906 223.482 74.9173 220.428 77.9707C218.335 80.0645 217.288 82.7253 217.288 85.9531C217.288 89.5299 218.684 92.4961 221.475 94.8516C224.354 97.2943 228.673 98.5156 234.43 98.5156C240.712 98.5156 245.335 97.0326 248.302 94.0664C250.483 91.8854 251.573 89.181 251.573 85.9531ZM255.891 128.482C255.891 123.597 253.885 119.715 249.872 116.836C245.859 113.87 240.712 112.387 234.43 112.387C228.149 112.387 222.958 113.87 218.858 116.836C214.932 119.715 212.97 123.597 212.97 128.482C212.97 130.402 213.667 132.495 215.063 134.764C216.634 137.294 218.989 139.344 222.13 140.914C225.445 142.484 229.589 143.27 234.561 143.27C242.064 143.27 247.822 141.263 251.835 137.25C253.143 135.941 254.19 134.458 254.975 132.801C255.586 131.318 255.891 129.878 255.891 128.482ZM309.648 59.7812C321.513 59.7812 330.673 64.0996 337.129 72.7363C343.672 81.2858 346.943 93.1504 346.943 108.33C346.943 125.952 342.669 139.038 334.119 147.588C327.925 153.782 319.855 156.879 309.91 156.879C297.958 156.879 288.798 152.561 282.43 143.924C276.061 135.2 272.877 123.335 272.877 108.33C272.877 93.3249 276.061 81.5039 282.43 72.8672C288.798 64.1432 297.871 59.7812 309.648 59.7812ZM331.895 108.33C331.895 94.8079 328.972 85.1243 323.127 79.2793C319.637 75.7897 315.232 74.0449 309.91 74.0449C303.018 74.0449 297.609 77.0111 293.684 82.9434C289.845 88.7884 287.926 97.2507 287.926 108.33C287.926 121.939 290.848 131.667 296.693 137.512C300.183 141.001 304.589 142.746 309.91 142.746C316.802 142.746 322.167 139.824 326.006 133.979C329.932 128.046 331.895 119.497 331.895 108.33Z" fill="url(#paint0_linear_12867_52156)"/>
<path d="M33.7707 153.607C32.4621 152.212 31.8078 150.554 31.8078 148.635C31.8078 146.628 32.5057 144.883 33.9016 143.4C35.2974 142.005 36.9549 141.307 38.8742 141.307H52.8762V79.1484L41.7531 84.5137C40.3573 85.1243 39.1359 85.4297 38.0891 85.4297C35.9953 85.4297 34.2505 84.7754 32.8547 83.4668C31.5461 82.071 30.8918 80.3262 30.8918 78.2324C30.8918 75.0918 32.3312 72.8236 35.2101 71.4277L53.007 62.1367C54.1411 61.4388 55.5806 61.0898 57.3254 61.0898H60.0734C62.2544 61.0898 64.0864 61.875 65.5695 63.4453C67.1398 64.9284 67.925 66.7604 67.925 68.9414V141.307H79.3098C81.3163 141.307 83.0174 142.005 84.4133 143.4C85.8091 144.796 86.507 146.497 86.507 148.504C86.507 150.423 85.8091 152.081 84.4133 153.477C82.9302 154.872 81.229 155.57 79.3098 155.57H38.8742C36.8677 155.57 35.1665 154.916 33.7707 153.607ZM97.8656 169.834C97.8656 167.827 98.738 166.301 100.483 165.254C102.664 163.945 104.234 162.506 105.194 160.936C105.892 159.714 106.328 158.013 106.502 155.832C104.496 155.658 102.751 154.829 101.268 153.346C99.5232 151.601 98.6508 149.507 98.6508 147.064V146.279C98.6508 143.837 99.5232 141.743 101.268 139.998C103.013 138.253 105.107 137.381 107.549 137.381H108.858C111.213 137.381 113.176 138.21 114.746 139.867C116.666 141.961 117.713 144.622 117.887 147.85C117.974 148.46 118.018 149.464 118.018 150.859C118.018 152.168 117.931 153.302 117.756 154.262C116.797 160.63 115.095 165.472 112.653 168.787C110.995 170.968 108.901 172.844 106.371 174.414C105.412 175.025 104.321 175.33 103.1 175.33C101.704 175.33 100.483 174.763 99.4359 173.629C98.3891 172.495 97.8656 171.23 97.8656 169.834ZM178.58 104.928C189.834 109.813 195.461 118.101 195.461 129.791C195.461 134.415 194.196 138.777 191.666 142.877C189.136 147.239 185.035 150.685 179.365 153.215C173.781 155.658 166.89 156.879 158.689 156.879C150.489 156.879 143.684 155.57 138.275 152.953C132.953 150.423 128.984 147.108 126.367 143.008C123.75 138.908 122.441 134.502 122.441 129.791C122.441 118.101 128.068 109.813 139.322 104.928C136.007 103.27 133.259 101.089 131.078 98.3848C128.199 94.7207 126.759 90.3151 126.759 85.168C126.759 80.9805 127.85 77.0547 130.031 73.3906C132.299 69.2031 135.876 65.888 140.761 63.4453C145.734 61.0026 151.797 59.7812 158.951 59.7812C166.453 59.7812 172.56 61.0026 177.271 63.4453C181.895 65.888 185.341 69.0723 187.609 72.998C189.964 76.8366 191.142 80.8932 191.142 85.168C191.142 92.1471 188.438 97.7741 183.029 102.049C181.72 103.183 180.237 104.143 178.58 104.928ZM176.093 85.9531C176.093 82.1146 174.61 79.0612 171.644 76.793C168.591 74.5247 164.36 73.3906 158.951 73.3906C152.67 73.3906 148.002 74.9173 144.949 77.9707C142.855 80.0645 141.808 82.7253 141.808 85.9531C141.808 89.5299 143.204 92.4961 145.996 94.8516C148.875 97.2943 153.193 98.5156 158.951 98.5156C165.232 98.5156 169.856 97.0326 172.822 94.0664C175.003 91.8854 176.093 89.181 176.093 85.9531ZM180.412 128.482C180.412 123.597 178.405 119.715 174.392 116.836C170.379 113.87 165.232 112.387 158.951 112.387C152.67 112.387 147.479 113.87 143.379 116.836C139.453 119.715 137.49 123.597 137.49 128.482C137.49 130.402 138.188 132.495 139.584 134.764C141.154 137.294 143.509 139.344 146.65 140.914C149.965 142.484 154.109 143.27 159.082 143.27C166.584 143.27 172.342 141.263 176.355 137.25C177.664 135.941 178.711 134.458 179.496 132.801C180.106 131.318 180.412 129.878 180.412 128.482ZM254.059 104.928C265.313 109.813 270.94 118.101 270.94 129.791C270.94 134.415 269.675 138.777 267.145 142.877C264.615 147.239 260.515 150.685 254.845 153.215C249.261 155.658 242.369 156.879 234.169 156.879C225.968 156.879 219.164 155.57 213.755 152.953C208.433 150.423 204.464 147.108 201.846 143.008C199.229 138.908 197.921 134.502 197.921 129.791C197.921 118.101 203.548 109.813 214.802 104.928C211.486 103.27 208.738 101.089 206.557 98.3848C203.678 94.7207 202.239 90.3151 202.239 85.168C202.239 80.9805 203.33 77.0547 205.511 73.3906C207.779 69.2031 211.356 65.888 216.241 63.4453C221.214 61.0026 227.277 59.7812 234.43 59.7812C241.933 59.7812 248.04 61.0026 252.751 63.4453C257.374 65.888 260.82 69.0723 263.089 72.998C265.444 76.8366 266.622 80.8932 266.622 85.168C266.622 92.1471 263.917 97.7741 258.509 102.049C257.2 103.183 255.717 104.143 254.059 104.928ZM251.573 85.9531C251.573 82.1146 250.09 79.0612 247.124 76.793C244.07 74.5247 239.839 73.3906 234.43 73.3906C228.149 73.3906 223.482 74.9173 220.428 77.9707C218.335 80.0645 217.288 82.7253 217.288 85.9531C217.288 89.5299 218.684 92.4961 221.475 94.8516C224.354 97.2943 228.673 98.5156 234.43 98.5156C240.712 98.5156 245.335 97.0326 248.302 94.0664C250.483 91.8854 251.573 89.181 251.573 85.9531ZM255.891 128.482C255.891 123.597 253.885 119.715 249.872 116.836C245.859 113.87 240.712 112.387 234.43 112.387C228.149 112.387 222.958 113.87 218.858 116.836C214.932 119.715 212.97 123.597 212.97 128.482C212.97 130.402 213.667 132.495 215.063 134.764C216.634 137.294 218.989 139.344 222.13 140.914C225.445 142.484 229.589 143.27 234.561 143.27C242.064 143.27 247.822 141.263 251.835 137.25C253.143 135.941 254.19 134.458 254.975 132.801C255.586 131.318 255.891 129.878 255.891 128.482ZM309.648 59.7812C321.513 59.7812 330.673 64.0996 337.129 72.7363C343.672 81.2858 346.943 93.1504 346.943 108.33C346.943 125.952 342.669 139.038 334.119 147.588C327.925 153.782 319.855 156.879 309.91 156.879C297.958 156.879 288.798 152.561 282.43 143.924C276.061 135.2 272.877 123.335 272.877 108.33C272.877 93.3249 276.061 81.5039 282.43 72.8672C288.798 64.1432 297.871 59.7812 309.648 59.7812ZM331.895 108.33C331.895 94.8079 328.972 85.1243 323.127 79.2793C319.637 75.7897 315.232 74.0449 309.91 74.0449C303.018 74.0449 297.609 77.0111 293.684 82.9434C289.845 88.7884 287.926 97.2507 287.926 108.33C287.926 121.939 290.848 131.667 296.693 137.512C300.183 141.001 304.589 142.746 309.91 142.746C316.802 142.746 322.167 139.824 326.006 133.979C329.932 128.046 331.895 119.497 331.895 108.33Z" fill="url(#paint1_linear_12867_52156)" fill-opacity="0.3"/>
<path d="M33.7707 153.607L30.8525 156.343L30.9408 156.437L31.0349 156.526L33.7707 153.607ZM33.9016 143.4L31.0731 140.572L31.0303 140.615L30.9888 140.659L33.9016 143.4ZM52.8762 141.307V145.307H56.8762V141.307H52.8762ZM52.8762 79.1484H56.8762V72.778L51.1383 75.5457L52.8762 79.1484ZM41.7531 84.5137L43.3564 88.1783L43.4242 88.1486L43.4909 88.1164L41.7531 84.5137ZM32.8547 83.4668L29.9365 86.2026L30.0248 86.2967L30.1189 86.3849L32.8547 83.4668ZM35.2101 71.4277L36.9552 75.027L37.0087 75.0011L37.0613 74.9736L35.2101 71.4277ZM53.007 62.1367L54.8582 65.6826L54.9832 65.6173L55.1034 65.5434L53.007 62.1367ZM65.5695 63.4453L62.6615 66.1918L62.7399 66.2749L62.823 66.3534L65.5695 63.4453ZM67.925 141.307H63.925V145.307H67.925V141.307ZM84.4133 153.477L87.1547 156.389L87.1989 156.348L87.2417 156.305L84.4133 153.477ZM36.6888 150.872C36.0777 150.22 35.8078 149.541 35.8078 148.635H27.8078C27.8078 151.567 28.8465 154.203 30.8525 156.343L36.6888 150.872ZM35.8078 148.635C35.8078 147.664 36.1052 146.895 36.8144 146.142L30.9888 140.659C28.9062 142.872 27.8078 145.592 27.8078 148.635H35.8078ZM36.73 146.229C37.3996 145.559 38.0492 145.307 38.8742 145.307V137.307C35.8607 137.307 33.1952 138.45 31.0731 140.572L36.73 146.229ZM38.8742 145.307H52.8762V137.307H38.8742V145.307ZM56.8762 141.307V79.1484H48.8762V141.307H56.8762ZM51.1383 75.5457L40.0153 80.9109L43.4909 88.1164L54.614 82.7512L51.1383 75.5457ZM40.1498 80.849C39.0481 81.331 38.3925 81.4297 38.0891 81.4297V89.4297C39.8794 89.4297 41.6664 88.9177 43.3564 88.1783L40.1498 80.849ZM38.0891 81.4297C36.9071 81.4297 36.1721 81.0939 35.5904 80.5486L30.1189 86.3849C32.3289 88.4569 35.0835 89.4297 38.0891 89.4297V81.4297ZM35.7728 80.731C35.2275 80.1494 34.8918 79.4143 34.8918 78.2324H26.8918C26.8918 81.238 27.8646 83.9925 29.9365 86.2026L35.7728 80.731ZM34.8918 78.2324C34.8918 77.2905 35.1004 76.7103 35.3487 76.3191C35.5998 75.9234 36.0556 75.4632 36.9552 75.027L33.465 67.8285C31.4858 68.7881 29.7824 70.1599 28.5941 72.0325C27.4029 73.9095 26.8918 76.0337 26.8918 78.2324H34.8918ZM37.0613 74.9736L54.8582 65.6826L51.1559 58.5908L33.359 67.8819L37.0613 74.9736ZM55.1034 65.5434C55.4398 65.3363 56.0962 65.0898 57.3254 65.0898V57.0898C55.065 57.0898 52.8424 57.5413 50.9106 58.7301L55.1034 65.5434ZM57.3254 65.0898H60.0734V57.0898H57.3254V65.0898ZM60.0734 65.0898C61.1661 65.0898 61.9423 65.4304 62.6615 66.1918L68.4776 60.6988C66.2305 58.3196 63.3428 57.0898 60.0734 57.0898V65.0898ZM62.823 66.3534C63.5844 67.0725 63.925 67.8488 63.925 68.9414H71.925C71.925 65.6721 70.6952 62.7843 68.316 60.5373L62.823 66.3534ZM63.925 68.9414V141.307H71.925V68.9414H63.925ZM67.925 145.307H79.3098V137.307H67.925V145.307ZM79.3098 145.307C80.275 145.307 80.9529 145.597 81.5848 146.229L87.2417 140.572C85.082 138.412 82.3575 137.307 79.3098 137.307V145.307ZM81.5848 146.229C82.2168 146.861 82.507 147.539 82.507 148.504H90.507C90.507 145.456 89.4014 142.732 87.2417 140.572L81.5848 146.229ZM82.507 148.504C82.507 149.329 82.2545 149.979 81.5848 150.648L87.2417 156.305C89.3637 154.183 90.507 151.517 90.507 148.504H82.507ZM81.6718 150.564C80.8809 151.308 80.1436 151.57 79.3098 151.57V159.57C82.3145 159.57 84.9795 158.437 87.1547 156.389L81.6718 150.564ZM79.3098 151.57H38.8742V159.57H79.3098V151.57ZM38.8742 151.57C37.8294 151.57 37.122 151.266 36.5065 150.689L31.0349 156.526C33.211 158.566 35.906 159.57 38.8742 159.57V151.57ZM105.194 160.936L108.607 163.021L108.638 162.971L108.667 162.92L105.194 160.936ZM106.502 155.832L110.49 156.151L110.806 152.191L106.849 151.847L106.502 155.832ZM114.746 139.867L117.695 137.164L117.673 137.14L117.65 137.116L114.746 139.867ZM117.887 147.85L113.893 148.066L113.902 148.241L113.927 148.415L117.887 147.85ZM117.756 154.262L113.821 153.546L113.81 153.606L113.801 153.666L117.756 154.262ZM112.653 168.787L115.837 171.207L115.855 171.184L115.873 171.16L112.653 168.787ZM106.371 174.414L104.262 171.016L104.243 171.027L104.224 171.039L106.371 174.414ZM101.866 169.834C101.866 169.427 101.948 169.247 101.993 169.169C102.039 169.088 102.163 168.911 102.541 168.684L98.4248 161.824C95.4961 163.581 93.8656 166.398 93.8656 169.834H101.866ZM102.541 168.684C105.075 167.163 107.207 165.312 108.607 163.021L101.781 158.85C101.261 159.699 100.253 160.727 98.4248 161.824L102.541 168.684ZM108.667 162.92C109.774 160.983 110.292 158.626 110.49 156.151L102.515 155.513C102.364 157.4 102.01 158.445 101.721 158.951L108.667 162.92ZM106.849 151.847C105.821 151.758 104.944 151.365 104.096 150.517L98.4395 156.174C100.558 158.293 103.17 159.557 106.156 159.817L106.849 151.847ZM104.096 150.517C103.093 149.514 102.651 148.434 102.651 147.064H94.6508C94.6508 150.58 95.9532 153.688 98.4395 156.174L104.096 150.517ZM102.651 147.064V146.279H94.6508V147.064H102.651ZM102.651 146.279C102.651 144.91 103.093 143.83 104.096 142.826L98.4395 137.17C95.9532 139.656 94.6508 142.764 94.6508 146.279H102.651ZM104.096 142.826C105.1 141.823 106.179 141.381 107.549 141.381V133.381C104.034 133.381 100.926 134.683 98.4395 137.17L104.096 142.826ZM107.549 141.381H108.858V133.381H107.549V141.381ZM108.858 141.381C110.154 141.381 111.054 141.786 111.843 142.618L117.65 137.116C115.298 134.633 112.272 133.381 108.858 133.381V141.381ZM111.798 142.57C113.005 143.887 113.761 145.628 113.893 148.066L121.881 147.634C121.664 143.616 120.326 140.034 117.695 137.164L111.798 142.57ZM113.927 148.415C113.971 148.721 114.018 149.477 114.018 150.859H122.018C122.018 149.45 121.978 148.199 121.847 147.284L113.927 148.415ZM114.018 150.859C114.018 152.004 113.941 152.887 113.821 153.546L121.692 154.977C121.921 153.717 122.018 152.332 122.018 150.859H114.018ZM113.801 153.666C112.889 159.719 111.332 163.837 109.433 166.414L115.873 171.16C118.859 167.107 120.704 161.541 121.712 154.858L113.801 153.666ZM109.468 166.367C108.131 168.126 106.413 169.68 104.262 171.016L108.481 177.813C111.39 176.007 113.859 173.81 115.837 171.207L109.468 166.367ZM104.224 171.039C103.954 171.211 103.619 171.33 103.1 171.33V179.33C105.024 179.33 106.87 178.838 108.519 177.789L104.224 171.039ZM103.1 171.33C102.945 171.33 102.754 171.326 102.375 170.916L96.4967 176.342C98.2118 178.2 100.463 179.33 103.1 179.33V171.33ZM102.375 170.916C101.932 170.436 101.866 170.115 101.866 169.834H93.8656C93.8656 172.345 94.8459 174.554 96.4967 176.342L102.375 170.916ZM178.58 104.928L176.867 101.313L168.9 105.087L176.987 108.597L178.58 104.928ZM191.666 142.877L188.261 140.777L188.233 140.823L188.205 140.87L191.666 142.877ZM179.365 153.215L180.968 156.879L180.981 156.874L180.995 156.868L179.365 153.215ZM138.275 152.953L140.017 149.352L140.005 149.346L139.992 149.341L138.275 152.953ZM139.322 104.928L140.915 108.597L148.778 105.184L141.111 101.35L139.322 104.928ZM131.078 98.3848L127.932 100.856L127.948 100.876L127.964 100.896L131.078 98.3848ZM130.031 73.3906L133.468 75.4366L133.509 75.367L133.548 75.2958L130.031 73.3906ZM140.761 63.4453L138.998 59.8551L138.985 59.8613L138.972 59.8676L140.761 63.4453ZM177.271 63.4453L179.14 59.9085L179.126 59.9014L179.112 59.8943L177.271 63.4453ZM187.609 72.998L184.146 74.9992L184.172 75.045L184.2 75.0901L187.609 72.998ZM183.029 102.049L180.549 98.9106L180.478 98.9668L180.409 99.0261L183.029 102.049ZM171.644 76.793L174.074 73.6155L174.052 73.5986L174.029 73.582L171.644 76.793ZM145.996 94.8516L148.584 91.8015L148.575 91.7944L145.996 94.8516ZM174.392 116.836L172.015 120.053L172.037 120.07L172.061 120.086L174.392 116.836ZM143.379 116.836L141.034 113.595L141.024 113.603L141.013 113.61L143.379 116.836ZM139.584 134.764L136.177 136.86L136.181 136.867L136.185 136.873L139.584 134.764ZM146.65 140.914L144.861 144.492L144.899 144.511L144.938 144.529L146.65 140.914ZM179.496 132.801L183.111 134.513L183.155 134.42L183.194 134.324L179.496 132.801ZM176.987 108.597C182.075 110.806 185.63 113.666 187.931 117.054C190.223 120.43 191.461 124.61 191.461 129.791H199.461C199.461 123.282 197.885 117.473 194.55 112.561C191.224 107.662 186.338 103.935 180.173 101.259L176.987 108.597ZM191.461 129.791C191.461 133.641 190.419 137.28 188.261 140.777L195.07 144.977C197.972 140.274 199.461 135.189 199.461 129.791H191.461ZM188.205 140.87C186.187 144.351 182.818 147.294 177.735 149.562L180.995 156.868C187.253 154.076 192.085 150.127 195.126 144.884L188.205 140.87ZM177.762 149.55C172.826 151.709 166.518 152.879 158.689 152.879V160.879C167.261 160.879 174.737 159.606 180.968 156.879L177.762 149.55ZM158.689 152.879C150.884 152.879 144.722 151.629 140.017 149.352L136.533 156.554C142.645 159.512 150.093 160.879 158.689 160.879V152.879ZM139.992 149.341C135.204 147.064 131.874 144.202 129.738 140.856L122.995 145.16C126.094 150.015 130.702 153.782 136.558 156.566L139.992 149.341ZM129.738 140.856C127.518 137.376 126.441 133.714 126.441 129.791H118.441C118.441 135.29 119.982 140.439 122.995 145.16L129.738 140.856ZM126.441 129.791C126.441 124.61 127.678 120.43 129.971 117.054C132.271 113.666 135.826 110.806 140.915 108.597L137.729 101.259C131.563 103.935 126.678 107.662 123.352 112.561C120.017 117.473 118.441 123.282 118.441 129.791H126.441ZM141.111 101.35C138.274 99.9315 135.989 98.1024 134.191 95.8738L127.964 100.896C130.529 104.076 133.74 106.609 137.533 108.505L141.111 101.35ZM134.223 95.9135C131.956 93.0285 130.759 89.5182 130.759 85.168H122.759C122.759 91.112 124.441 96.4129 127.932 100.856L134.223 95.9135ZM130.759 85.168C130.759 81.7144 131.648 78.4936 133.468 75.4366L126.594 71.3447C124.051 75.6157 122.759 80.2465 122.759 85.168H130.759ZM133.548 75.2958C135.37 71.9323 138.287 69.1545 142.55 67.023L138.972 59.8676C133.465 62.6216 129.228 66.4739 126.514 71.4855L133.548 75.2958ZM142.525 67.0355C146.813 64.9292 152.237 63.7812 158.951 63.7812V55.7812C151.358 55.7812 144.655 57.0761 138.998 59.8551L142.525 67.0355ZM158.951 63.7812C166.061 63.7812 171.474 64.9451 175.43 66.9963L179.112 59.8943C173.646 57.0601 166.845 55.7812 158.951 55.7812V63.7812ZM175.403 66.9821C179.465 69.1282 182.309 71.8202 184.146 74.9992L191.072 70.9969C188.373 66.3243 184.325 62.6478 179.14 59.9085L175.403 66.9821ZM184.2 75.0901C186.191 78.3344 187.142 81.672 187.142 85.168H195.142C195.142 80.1144 193.738 75.3388 191.018 70.906L184.2 75.0901ZM187.142 85.168C187.142 90.9413 184.984 95.4053 180.549 98.9106L185.509 105.187C191.892 100.143 195.142 93.3529 195.142 85.168H187.142ZM180.409 99.0261C179.391 99.9089 178.216 100.674 176.867 101.313L180.292 108.543C182.258 107.611 184.05 106.457 185.649 105.072L180.409 99.0261ZM180.093 85.9531C180.093 80.9096 178.062 76.6651 174.074 73.6155L169.214 79.9704C171.159 81.4573 172.093 83.3196 172.093 85.9531H180.093ZM174.029 73.582C170.049 70.6254 164.867 69.3906 158.951 69.3906V77.3906C163.852 77.3906 167.132 78.424 169.259 80.0039L174.029 73.582ZM158.951 69.3906C152.091 69.3906 146.207 71.0554 142.12 75.1423L147.777 80.7991C149.797 78.7793 153.248 77.3906 158.951 77.3906V69.3906ZM142.12 75.1423C139.205 78.0575 137.808 81.7697 137.808 85.9531H145.808C145.808 83.6808 146.505 82.0714 147.777 80.7991L142.12 75.1423ZM137.808 85.9531C137.808 90.737 139.746 94.8118 143.416 97.9087L148.575 91.7944C146.662 90.1804 145.808 88.3229 145.808 85.9531H137.808ZM143.408 97.9016C147.305 101.208 152.722 102.516 158.951 102.516V94.5156C153.664 94.5156 150.444 93.3802 148.584 91.8015L143.408 97.9016ZM158.951 102.516C165.771 102.516 171.632 100.913 175.65 96.8948L169.993 91.238C168.08 93.1517 164.693 94.5156 158.951 94.5156V102.516ZM175.65 96.8948C178.619 93.9257 180.093 90.1869 180.093 85.9531H172.093C172.093 88.1751 171.386 89.8451 169.993 91.238L175.65 96.8948ZM184.412 128.482C184.412 122.291 181.77 117.206 176.724 113.586L172.061 120.086C175.04 122.223 176.412 124.903 176.412 128.482H184.412ZM176.77 113.619C171.908 110.026 165.864 108.387 158.951 108.387V116.387C164.6 116.387 168.85 117.714 172.015 120.053L176.77 113.619ZM158.951 108.387C152.033 108.387 145.966 110.027 141.034 113.595L145.723 120.077C148.991 117.712 153.306 116.387 158.951 116.387V108.387ZM141.013 113.61C136.055 117.246 133.49 122.328 133.49 128.482H141.49C141.49 124.866 142.85 122.184 145.744 120.062L141.013 113.61ZM133.49 128.482C133.49 131.376 134.537 134.196 136.177 136.86L142.99 132.667C141.838 130.795 141.49 129.428 141.49 128.482H133.49ZM136.185 136.873C138.211 140.137 141.179 142.65 144.861 144.492L148.439 137.336C145.84 136.037 144.097 134.45 142.982 132.654L136.185 136.873ZM144.938 144.529C148.943 146.426 153.716 147.27 159.082 147.27V139.27C154.502 139.27 150.987 138.542 148.362 137.299L144.938 144.529ZM159.082 147.27C167.291 147.27 174.202 145.059 179.183 140.078L173.527 134.422C170.482 137.467 165.877 139.27 159.082 139.27V147.27ZM179.183 140.078C180.813 138.449 182.127 136.589 183.111 134.513L175.881 131.088C175.294 132.328 174.514 133.434 173.527 134.422L179.183 140.078ZM183.194 134.324C183.975 132.429 184.412 130.473 184.412 128.482H176.412C176.412 129.284 176.238 130.206 175.797 131.278L183.194 134.324ZM254.059 104.928L252.347 101.313L244.38 105.087L252.467 108.597L254.059 104.928ZM267.145 142.877L263.741 140.777L263.713 140.823L263.685 140.87L267.145 142.877ZM254.845 153.215L256.448 156.879L256.461 156.874L256.474 156.868L254.845 153.215ZM213.755 152.953L215.497 149.352L215.485 149.346L215.472 149.341L213.755 152.953ZM214.802 104.928L216.394 108.597L224.257 105.184L216.59 101.35L214.802 104.928ZM206.557 98.3848L203.412 100.856L203.428 100.876L203.444 100.896L206.557 98.3848ZM205.511 73.3906L208.948 75.4366L208.989 75.367L209.028 75.2958L205.511 73.3906ZM216.241 63.4453L214.477 59.8551L214.465 59.8613L214.452 59.8676L216.241 63.4453ZM252.751 63.4453L254.619 59.9085L254.606 59.9014L254.592 59.8943L252.751 63.4453ZM263.089 72.998L259.625 74.9992L259.652 75.045L259.679 75.0901L263.089 72.998ZM258.509 102.049L256.028 98.9106L255.957 98.9668L255.889 99.0261L258.509 102.049ZM247.124 76.793L249.554 73.6155L249.531 73.5986L249.509 73.582L247.124 76.793ZM221.475 94.8516L224.063 91.8015L224.055 91.7944L221.475 94.8516ZM249.872 116.836L247.494 120.053L247.517 120.07L247.54 120.086L249.872 116.836ZM218.858 116.836L216.514 113.595L216.503 113.603L216.493 113.61L218.858 116.836ZM215.063 134.764L211.657 136.86L211.661 136.867L211.665 136.873L215.063 134.764ZM222.13 140.914L220.341 144.492L220.379 144.511L220.417 144.529L222.13 140.914ZM254.975 132.801L258.59 134.513L258.635 134.42L258.674 134.324L254.975 132.801ZM252.467 108.597C257.555 110.806 261.11 113.666 263.411 117.054C265.703 120.43 266.94 124.61 266.94 129.791H274.94C274.94 123.282 273.364 117.473 270.029 112.561C266.703 107.662 261.818 103.935 255.652 101.259L252.467 108.597ZM266.94 129.791C266.94 133.641 265.899 137.28 263.741 140.777L270.549 144.977C273.452 140.274 274.94 135.189 274.94 129.791H266.94ZM263.685 140.87C261.667 144.351 258.298 147.294 253.215 149.562L256.474 156.868C262.732 154.076 267.564 150.127 270.605 144.884L263.685 140.87ZM253.241 149.55C248.306 151.709 241.998 152.879 234.169 152.879V160.879C242.741 160.879 250.216 159.606 256.448 156.879L253.241 149.55ZM234.169 152.879C226.363 152.879 220.202 151.629 215.497 149.352L212.012 156.554C218.125 159.512 225.573 160.879 234.169 160.879V152.879ZM215.472 149.341C210.684 147.064 207.354 144.202 205.218 140.856L198.475 145.16C201.573 150.015 206.182 153.782 212.037 156.566L215.472 149.341ZM205.218 140.856C202.997 137.376 201.921 133.714 201.921 129.791H193.921C193.921 135.29 195.461 140.439 198.475 145.16L205.218 140.856ZM201.921 129.791C201.921 124.61 203.158 120.43 205.45 117.054C207.751 113.666 211.306 110.806 216.394 108.597L213.209 101.259C207.043 103.935 202.158 107.662 198.832 112.561C195.497 117.473 193.921 123.282 193.921 129.791H201.921ZM216.59 101.35C213.753 99.9315 211.468 98.1024 209.671 95.8738L203.444 100.896C206.008 104.076 209.22 106.609 213.013 108.505L216.59 101.35ZM209.703 95.9135C207.436 93.0285 206.239 89.5182 206.239 85.168H198.239C198.239 91.112 199.921 96.4129 203.412 100.856L209.703 95.9135ZM206.239 85.168C206.239 81.7144 207.128 78.4936 208.948 75.4366L202.073 71.3447C199.531 75.6157 198.239 80.2465 198.239 85.168H206.239ZM209.028 75.2958C210.85 71.9323 213.767 69.1545 218.03 67.023L214.452 59.8676C208.944 62.6216 204.708 66.4739 201.993 71.4855L209.028 75.2958ZM218.005 67.0355C222.293 64.9292 227.716 63.7812 234.43 63.7812V55.7812C226.837 55.7812 220.135 57.0761 214.477 59.8551L218.005 67.0355ZM234.43 63.7812C241.541 63.7812 246.954 64.9451 250.91 66.9963L254.592 59.8943C249.126 57.0601 242.325 55.7812 234.43 55.7812V63.7812ZM250.882 66.9821C254.945 69.1282 257.788 71.8202 259.625 74.9992L266.552 70.9969C263.852 66.3243 259.804 62.6478 254.619 59.9085L250.882 66.9821ZM259.679 75.0901C261.67 78.3344 262.622 81.672 262.622 85.168H270.622C270.622 80.1144 269.218 75.3388 266.498 70.906L259.679 75.0901ZM262.622 85.168C262.622 90.9413 260.464 95.4053 256.028 98.9106L260.989 105.187C267.371 100.143 270.622 93.3529 270.622 85.168H262.622ZM255.889 99.0261C254.87 99.9089 253.696 100.674 252.347 101.313L255.772 108.543C257.738 107.611 259.53 106.457 261.128 105.072L255.889 99.0261ZM255.573 85.9531C255.573 80.9096 253.541 76.6651 249.554 73.6155L244.694 79.9704C246.638 81.4573 247.573 83.3196 247.573 85.9531H255.573ZM249.509 73.582C245.529 70.6254 240.347 69.3906 234.43 69.3906V77.3906C239.331 77.3906 242.612 78.424 244.739 80.0039L249.509 73.582ZM234.43 69.3906C227.571 69.3906 221.687 71.0554 217.6 75.1423L223.257 80.7991C225.277 78.7793 228.728 77.3906 234.43 77.3906V69.3906ZM217.6 75.1423C214.685 78.0575 213.288 81.7697 213.288 85.9531H221.288C221.288 83.6808 221.985 82.0714 223.257 80.7991L217.6 75.1423ZM213.288 85.9531C213.288 90.737 215.225 94.8118 218.896 97.9087L224.055 91.7944C222.142 90.1804 221.288 88.3229 221.288 85.9531H213.288ZM218.887 97.9016C222.785 101.208 228.202 102.516 234.43 102.516V94.5156C229.143 94.5156 225.924 93.3802 224.063 91.8015L218.887 97.9016ZM234.43 102.516C241.251 102.516 247.111 100.913 251.13 96.8948L245.473 91.238C243.559 93.1517 240.173 94.5156 234.43 94.5156V102.516ZM251.13 96.8948C254.099 93.9257 255.573 90.1869 255.573 85.9531H247.573C247.573 88.1751 246.866 89.8451 245.473 91.238L251.13 96.8948ZM259.891 128.482C259.891 122.291 257.25 117.206 252.203 113.586L247.54 120.086C250.52 122.223 251.891 124.903 251.891 128.482H259.891ZM252.249 113.619C247.388 110.026 241.344 108.387 234.43 108.387V116.387C240.08 116.387 244.33 117.714 247.494 120.053L252.249 113.619ZM234.43 108.387C227.513 108.387 221.446 110.027 216.514 113.595L221.203 120.077C224.471 117.712 228.785 116.387 234.43 116.387V108.387ZM216.493 113.61C211.535 117.246 208.97 122.328 208.97 128.482H216.97C216.97 124.866 218.33 122.184 221.224 120.062L216.493 113.61ZM208.97 128.482C208.97 131.376 210.017 134.196 211.657 136.86L218.47 132.667C217.318 130.795 216.97 129.428 216.97 128.482H208.97ZM211.665 136.873C213.691 140.137 216.658 142.65 220.341 144.492L223.919 137.336C221.32 136.037 219.577 134.45 218.462 132.654L211.665 136.873ZM220.417 144.529C224.423 146.426 229.196 147.27 234.561 147.27V139.27C229.981 139.27 226.467 138.542 223.842 137.299L220.417 144.529ZM234.561 147.27C242.771 147.27 249.682 145.059 254.663 140.078L249.006 134.422C245.961 137.467 241.357 139.27 234.561 139.27V147.27ZM254.663 140.078C256.293 138.449 257.607 136.589 258.59 134.513L251.36 131.088C250.773 132.328 249.994 133.434 249.006 134.422L254.663 140.078ZM258.674 134.324C259.454 132.429 259.891 130.473 259.891 128.482H251.891C251.891 129.284 251.718 130.206 251.277 131.278L258.674 134.324ZM337.129 72.7363L333.925 75.1311L333.939 75.1493L333.952 75.1673L337.129 72.7363ZM334.119 147.588L331.291 144.759L334.119 147.588ZM282.43 143.924L279.199 146.282L279.205 146.29L279.21 146.298L282.43 143.924ZM282.43 72.8672L285.649 75.2411L285.655 75.2334L285.66 75.2256L282.43 72.8672ZM293.684 82.9434L290.348 80.7359L290.34 80.7476L293.684 82.9434ZM326.006 133.979L322.67 131.771L322.662 131.783L326.006 133.979ZM309.648 63.7812C320.398 63.7812 328.308 67.6163 333.925 75.1311L340.333 70.3415C333.038 60.5829 322.628 55.7812 309.648 55.7812V63.7812ZM333.952 75.1673C339.781 82.7835 342.943 93.6777 342.943 108.33H350.943C350.943 92.6231 347.563 79.7881 340.305 70.3053L333.952 75.1673ZM342.943 108.33C342.943 125.377 338.805 137.245 331.291 144.759L336.948 150.416C346.532 140.832 350.943 126.528 350.943 108.33H342.943ZM331.291 144.759C325.951 150.1 318.951 152.879 309.91 152.879V160.879C320.76 160.879 329.9 157.464 336.948 150.416L331.291 144.759ZM309.91 152.879C299.062 152.879 291.17 149.037 285.649 141.55L279.21 146.298C286.427 156.084 296.855 160.879 309.91 160.879V152.879ZM285.66 141.565C279.953 133.747 276.877 122.809 276.877 108.33H268.877C268.877 123.861 272.169 136.653 279.199 146.282L285.66 141.565ZM276.877 108.33C276.877 93.8477 279.954 82.9642 285.649 75.2411L279.21 70.4933C272.168 80.0436 268.877 92.8021 268.877 108.33H276.877ZM285.66 75.2256C291.2 67.6371 299.014 63.7812 309.648 63.7812V55.7812C296.728 55.7812 286.396 60.6494 279.199 70.5087L285.66 75.2256ZM335.895 108.33C335.895 94.3901 332.908 83.4031 325.955 76.4509L320.299 82.1077C325.036 86.8456 327.895 95.2258 327.895 108.33H335.895ZM325.955 76.4509C321.653 72.1486 316.201 70.0449 309.91 70.0449V78.0449C314.263 78.0449 317.622 79.4308 320.299 82.1077L325.955 76.4509ZM309.91 70.0449C301.625 70.0449 294.986 73.7276 290.348 80.7359L297.019 85.1508C300.233 80.2946 304.412 78.0449 309.91 78.0449V70.0449ZM290.34 80.7476C285.89 87.5233 283.926 96.8883 283.926 108.33H291.926C291.926 97.613 293.8 90.0535 297.027 85.1391L290.34 80.7476ZM283.926 108.33C283.926 122.348 286.909 133.384 293.865 140.34L299.522 134.683C294.788 129.949 291.926 121.53 291.926 108.33H283.926ZM293.865 140.34C298.167 144.642 303.619 146.746 309.91 146.746V138.746C305.558 138.746 302.199 137.36 299.522 134.683L293.865 140.34ZM309.91 146.746C318.173 146.746 324.784 143.125 329.349 136.174L322.662 131.783C319.55 136.522 315.431 138.746 309.91 138.746V146.746ZM329.342 136.186C333.883 129.324 335.895 119.87 335.895 108.33H327.895C327.895 119.124 325.981 126.768 322.67 131.771L329.342 136.186Z" fill="#D32B17" mask="url(#path-1-outside-1_12867_52156)"/>
<circle cx="23" cy="137" r="22" fill="url(#paint2_linear_12867_52156)" stroke="#D32B17" stroke-width="2"/>
<path d="M25.1152 147.322V153.223C25.1152 153.94 24.9297 154.484 24.5586 154.855C24.1875 155.227 23.6556 155.412 22.9629 155.412C22.2702 155.412 21.7383 155.227 21.3672 154.855C20.9961 154.484 20.8105 153.94 20.8105 153.223V147.322H11.6816C10.9395 147.322 10.3952 147.137 10.0488 146.766C9.72721 146.469 9.56641 146.048 9.56641 145.504C9.56641 144.96 9.73958 144.514 10.0859 144.168C10.4323 143.822 10.9642 143.648 11.6816 143.648H20.8105V141.162H11.6816C10.9642 141.162 10.4323 140.989 10.0859 140.643C9.73958 140.296 9.56641 139.851 9.56641 139.307C9.56641 138.762 9.72721 138.329 10.0488 138.008C10.4199 137.637 10.9642 137.451 11.6816 137.451H18.3984L9.90039 127.098C9.5293 126.603 9.34375 126.17 9.34375 125.799C9.34375 125.23 9.50456 124.785 9.82617 124.463C10.1478 124.141 10.6302 123.98 11.2734 123.98C12.0156 123.98 12.696 124.339 13.3145 125.057L22.9629 136.857L32.5742 125.057C33.2174 124.339 33.873 123.98 34.541 123.98C35.2337 123.98 35.7533 124.154 36.0996 124.5C36.4212 124.822 36.582 125.255 36.582 125.799C36.582 126.17 36.3717 126.615 35.9512 127.135L27.5273 137.451H34.1699C34.9121 137.451 35.4564 137.624 35.8027 137.971C36.1491 138.317 36.3223 138.762 36.3223 139.307C36.3223 139.851 36.1615 140.284 35.8398 140.605C35.4688 140.977 34.9121 141.162 34.1699 141.162H25.1152V143.648H34.1699C34.9121 143.648 35.4564 143.822 35.8027 144.168C36.1491 144.514 36.3223 144.96 36.3223 145.504C36.3223 146.048 36.1615 146.469 35.8398 146.766C35.4935 147.137 34.9368 147.322 34.1699 147.322H25.1152Z" fill="#D32B17"/>
<defs>
<linearGradient id="paint0_linear_12867_52156" x1="351" y1="37.7774" x2="61.6673" y2="242.256" gradientUnits="userSpaceOnUse">
<stop stop-color="#CFA359"/>
<stop offset="0.5" stop-color="#F5E6AD"/>
<stop offset="0.954106" stop-color="#CFA359"/>
</linearGradient>
<linearGradient id="paint1_linear_12867_52156" x1="151.659" y1="2.01038e-06" x2="188.945" y2="218.337" gradientUnits="userSpaceOnUse">
<stop offset="0.275" stop-color="#CFA358" stop-opacity="0"/>
<stop offset="0.2751" stop-color="white"/>
<stop offset="0.67" stop-color="#CFA358" stop-opacity="0"/>
<stop offset="0.6701" stop-color="white"/>
</linearGradient>
<linearGradient id="paint2_linear_12867_52156" x1="45" y1="122.767" x2="-2.2414" y2="144.031" gradientUnits="userSpaceOnUse">
<stop stop-color="#CFA359"/>
<stop offset="0.5" stop-color="#F5E6AD"/>
<stop offset="0.954106" stop-color="#CFA359"/>
</linearGradient>
</defs>
</svg>
