<svg width="368" height="214" viewBox="0 0 368 214" fill="none" xmlns="http://www.w3.org/2000/svg">
<mask id="path-1-outside-1_12851_52118" maskUnits="userSpaceOnUse" x="33" y="55" width="335" height="125" fill="black">
<rect fill="white" x="33" y="55" width="335" height="125"/>
<path d="M93.4308 104.928C104.685 109.813 110.312 118.101 110.312 129.791C110.312 134.415 109.047 138.777 106.517 142.877C103.987 147.239 99.8866 150.685 94.216 153.215C88.6327 155.658 81.7407 156.879 73.5402 156.879C65.3397 156.879 58.535 155.57 53.1262 152.953C47.8045 150.423 43.8351 147.108 41.218 143.008C38.6008 138.908 37.2922 134.502 37.2922 129.791C37.2922 118.101 42.9191 109.813 54.173 104.928C50.8579 103.27 48.1099 101.089 45.9289 98.3848C43.05 94.7207 41.6105 90.3151 41.6105 85.168C41.6105 80.9805 42.701 77.0547 44.882 73.3906C47.1502 69.2031 50.7271 65.888 55.6125 63.4453C60.5851 61.0026 66.6483 59.7812 73.8019 59.7812C81.3045 59.7812 87.4113 61.0026 92.1223 63.4453C96.746 65.888 100.192 69.0723 102.46 72.998C104.816 76.8366 105.993 80.8932 105.993 85.168C105.993 92.1471 103.289 97.7741 97.8801 102.049C96.5715 103.183 95.0884 104.143 93.4308 104.928ZM90.9445 85.9531C90.9445 82.1146 89.4614 79.0612 86.4953 76.793C83.4419 74.5247 79.2108 73.3906 73.8019 73.3906C67.5207 73.3906 62.8534 74.9173 59.8 77.9707C57.7062 80.0645 56.6594 82.7253 56.6594 85.9531C56.6594 89.5299 58.0552 92.4961 60.8469 94.8516C63.7258 97.2943 68.0441 98.5156 73.8019 98.5156C80.0832 98.5156 84.7069 97.0326 87.673 94.0664C89.854 91.8854 90.9445 89.181 90.9445 85.9531ZM95.2629 128.482C95.2629 123.597 93.2564 119.715 89.2433 116.836C85.2303 113.87 80.0832 112.387 73.8019 112.387C67.5207 112.387 62.3299 113.87 58.2297 116.836C54.3039 119.715 52.341 123.597 52.341 128.482C52.341 130.402 53.0389 132.495 54.4348 134.764C56.0051 137.294 58.3605 139.344 61.5012 140.914C64.8163 142.484 68.9601 143.27 73.9328 143.27C81.4354 143.27 87.1932 141.263 91.2062 137.25C92.5148 135.941 93.5617 134.458 94.3469 132.801C94.9575 131.318 95.2629 129.878 95.2629 128.482ZM114.866 169.834C114.866 167.827 115.738 166.301 117.483 165.254C119.664 163.945 121.234 162.506 122.194 160.936C122.892 159.714 123.328 158.013 123.502 155.832C121.496 155.658 119.751 154.829 118.268 153.346C116.523 151.601 115.651 149.507 115.651 147.064V146.279C115.651 143.837 116.523 141.743 118.268 139.998C120.013 138.253 122.107 137.381 124.549 137.381H125.858C128.213 137.381 130.176 138.21 131.746 139.867C133.666 141.961 134.713 144.622 134.887 147.85C134.974 148.46 135.018 149.464 135.018 150.859C135.018 152.168 134.931 153.302 134.756 154.262C133.797 160.63 132.095 165.472 129.653 168.787C127.995 170.968 125.901 172.844 123.371 174.414C122.412 175.025 121.321 175.33 120.1 175.33C118.704 175.33 117.483 174.763 116.436 173.629C115.389 172.495 114.866 171.23 114.866 169.834ZM195.58 104.928C206.834 109.813 212.461 118.101 212.461 129.791C212.461 134.415 211.196 138.777 208.666 142.877C206.136 147.239 202.035 150.685 196.365 153.215C190.781 155.658 183.89 156.879 175.689 156.879C167.489 156.879 160.684 155.57 155.275 152.953C149.953 150.423 145.984 147.108 143.367 143.008C140.75 138.908 139.441 134.502 139.441 129.791C139.441 118.101 145.068 109.813 156.322 104.928C153.007 103.27 150.259 101.089 148.078 98.3848C145.199 94.7207 143.759 90.3151 143.759 85.168C143.759 80.9805 144.85 77.0547 147.031 73.3906C149.299 69.2031 152.876 65.888 157.761 63.4453C162.734 61.0026 168.797 59.7812 175.951 59.7812C183.453 59.7812 189.56 61.0026 194.271 63.4453C198.895 65.888 202.341 69.0723 204.609 72.998C206.964 76.8366 208.142 80.8932 208.142 85.168C208.142 92.1471 205.438 97.7741 200.029 102.049C198.72 103.183 197.237 104.143 195.58 104.928ZM193.093 85.9531C193.093 82.1146 191.61 79.0612 188.644 76.793C185.591 74.5247 181.36 73.3906 175.951 73.3906C169.67 73.3906 165.002 74.9173 161.949 77.9707C159.855 80.0645 158.808 82.7253 158.808 85.9531C158.808 89.5299 160.204 92.4961 162.996 94.8516C165.875 97.2943 170.193 98.5156 175.951 98.5156C182.232 98.5156 186.856 97.0326 189.822 94.0664C192.003 91.8854 193.093 89.181 193.093 85.9531ZM197.412 128.482C197.412 123.597 195.405 119.715 191.392 116.836C187.379 113.87 182.232 112.387 175.951 112.387C169.67 112.387 164.479 113.87 160.379 116.836C156.453 119.715 154.49 123.597 154.49 128.482C154.49 130.402 155.188 132.495 156.584 134.764C158.154 137.294 160.509 139.344 163.65 140.914C166.965 142.484 171.109 143.27 176.082 143.27C183.584 143.27 189.342 141.263 193.355 137.25C194.664 135.941 195.711 134.458 196.496 132.801C197.106 131.318 197.412 129.878 197.412 128.482ZM251.169 59.7812C263.033 59.7812 272.193 64.0996 278.649 72.7363C285.192 81.2858 288.464 93.1504 288.464 108.33C288.464 125.952 284.189 139.038 275.639 147.588C269.445 153.782 261.376 156.879 251.43 156.879C239.479 156.879 230.318 152.561 223.95 143.924C217.581 135.2 214.397 123.335 214.397 108.33C214.397 93.3249 217.581 81.5039 223.95 72.8672C230.318 64.1432 239.391 59.7812 251.169 59.7812ZM273.415 108.33C273.415 94.8079 270.492 85.1243 264.647 79.2793C261.158 75.7897 256.752 74.0449 251.43 74.0449C244.539 74.0449 239.13 77.0111 235.204 82.9434C231.365 88.7884 229.446 97.2507 229.446 108.33C229.446 121.939 232.369 131.667 238.214 137.512C241.703 141.001 246.109 142.746 251.43 142.746C258.322 142.746 263.688 139.824 267.526 133.979C271.452 128.046 273.415 119.497 273.415 108.33ZM326.648 59.7812C338.513 59.7812 347.673 64.0996 354.129 72.7363C360.672 81.2858 363.943 93.1504 363.943 108.33C363.943 125.952 359.669 139.038 351.119 147.588C344.925 153.782 336.855 156.879 326.91 156.879C314.958 156.879 305.798 152.561 299.43 143.924C293.061 135.2 289.877 123.335 289.877 108.33C289.877 93.3249 293.061 81.5039 299.43 72.8672C305.798 64.1432 314.871 59.7812 326.648 59.7812ZM348.895 108.33C348.895 94.8079 345.972 85.1243 340.127 79.2793C336.637 75.7897 332.232 74.0449 326.91 74.0449C320.018 74.0449 314.609 77.0111 310.684 82.9434C306.845 88.7884 304.926 97.2507 304.926 108.33C304.926 121.939 307.848 131.667 313.693 137.512C317.183 141.001 321.589 142.746 326.91 142.746C333.802 142.746 339.167 139.824 343.006 133.979C346.932 128.046 348.895 119.497 348.895 108.33Z"/>
</mask>
<path d="M93.4308 104.928C104.685 109.813 110.312 118.101 110.312 129.791C110.312 134.415 109.047 138.777 106.517 142.877C103.987 147.239 99.8866 150.685 94.216 153.215C88.6327 155.658 81.7407 156.879 73.5402 156.879C65.3397 156.879 58.535 155.57 53.1262 152.953C47.8045 150.423 43.8351 147.108 41.218 143.008C38.6008 138.908 37.2922 134.502 37.2922 129.791C37.2922 118.101 42.9191 109.813 54.173 104.928C50.8579 103.27 48.1099 101.089 45.9289 98.3848C43.05 94.7207 41.6105 90.3151 41.6105 85.168C41.6105 80.9805 42.701 77.0547 44.882 73.3906C47.1502 69.2031 50.7271 65.888 55.6125 63.4453C60.5851 61.0026 66.6483 59.7812 73.8019 59.7812C81.3045 59.7812 87.4113 61.0026 92.1223 63.4453C96.746 65.888 100.192 69.0723 102.46 72.998C104.816 76.8366 105.993 80.8932 105.993 85.168C105.993 92.1471 103.289 97.7741 97.8801 102.049C96.5715 103.183 95.0884 104.143 93.4308 104.928ZM90.9445 85.9531C90.9445 82.1146 89.4614 79.0612 86.4953 76.793C83.4419 74.5247 79.2108 73.3906 73.8019 73.3906C67.5207 73.3906 62.8534 74.9173 59.8 77.9707C57.7062 80.0645 56.6594 82.7253 56.6594 85.9531C56.6594 89.5299 58.0552 92.4961 60.8469 94.8516C63.7258 97.2943 68.0441 98.5156 73.8019 98.5156C80.0832 98.5156 84.7069 97.0326 87.673 94.0664C89.854 91.8854 90.9445 89.181 90.9445 85.9531ZM95.2629 128.482C95.2629 123.597 93.2564 119.715 89.2433 116.836C85.2303 113.87 80.0832 112.387 73.8019 112.387C67.5207 112.387 62.3299 113.87 58.2297 116.836C54.3039 119.715 52.341 123.597 52.341 128.482C52.341 130.402 53.0389 132.495 54.4348 134.764C56.0051 137.294 58.3605 139.344 61.5012 140.914C64.8163 142.484 68.9601 143.27 73.9328 143.27C81.4354 143.27 87.1932 141.263 91.2062 137.25C92.5148 135.941 93.5617 134.458 94.3469 132.801C94.9575 131.318 95.2629 129.878 95.2629 128.482ZM114.866 169.834C114.866 167.827 115.738 166.301 117.483 165.254C119.664 163.945 121.234 162.506 122.194 160.936C122.892 159.714 123.328 158.013 123.502 155.832C121.496 155.658 119.751 154.829 118.268 153.346C116.523 151.601 115.651 149.507 115.651 147.064V146.279C115.651 143.837 116.523 141.743 118.268 139.998C120.013 138.253 122.107 137.381 124.549 137.381H125.858C128.213 137.381 130.176 138.21 131.746 139.867C133.666 141.961 134.713 144.622 134.887 147.85C134.974 148.46 135.018 149.464 135.018 150.859C135.018 152.168 134.931 153.302 134.756 154.262C133.797 160.63 132.095 165.472 129.653 168.787C127.995 170.968 125.901 172.844 123.371 174.414C122.412 175.025 121.321 175.33 120.1 175.33C118.704 175.33 117.483 174.763 116.436 173.629C115.389 172.495 114.866 171.23 114.866 169.834ZM195.58 104.928C206.834 109.813 212.461 118.101 212.461 129.791C212.461 134.415 211.196 138.777 208.666 142.877C206.136 147.239 202.035 150.685 196.365 153.215C190.781 155.658 183.89 156.879 175.689 156.879C167.489 156.879 160.684 155.57 155.275 152.953C149.953 150.423 145.984 147.108 143.367 143.008C140.75 138.908 139.441 134.502 139.441 129.791C139.441 118.101 145.068 109.813 156.322 104.928C153.007 103.27 150.259 101.089 148.078 98.3848C145.199 94.7207 143.759 90.3151 143.759 85.168C143.759 80.9805 144.85 77.0547 147.031 73.3906C149.299 69.2031 152.876 65.888 157.761 63.4453C162.734 61.0026 168.797 59.7812 175.951 59.7812C183.453 59.7812 189.56 61.0026 194.271 63.4453C198.895 65.888 202.341 69.0723 204.609 72.998C206.964 76.8366 208.142 80.8932 208.142 85.168C208.142 92.1471 205.438 97.7741 200.029 102.049C198.72 103.183 197.237 104.143 195.58 104.928ZM193.093 85.9531C193.093 82.1146 191.61 79.0612 188.644 76.793C185.591 74.5247 181.36 73.3906 175.951 73.3906C169.67 73.3906 165.002 74.9173 161.949 77.9707C159.855 80.0645 158.808 82.7253 158.808 85.9531C158.808 89.5299 160.204 92.4961 162.996 94.8516C165.875 97.2943 170.193 98.5156 175.951 98.5156C182.232 98.5156 186.856 97.0326 189.822 94.0664C192.003 91.8854 193.093 89.181 193.093 85.9531ZM197.412 128.482C197.412 123.597 195.405 119.715 191.392 116.836C187.379 113.87 182.232 112.387 175.951 112.387C169.67 112.387 164.479 113.87 160.379 116.836C156.453 119.715 154.49 123.597 154.49 128.482C154.49 130.402 155.188 132.495 156.584 134.764C158.154 137.294 160.509 139.344 163.65 140.914C166.965 142.484 171.109 143.27 176.082 143.27C183.584 143.27 189.342 141.263 193.355 137.25C194.664 135.941 195.711 134.458 196.496 132.801C197.106 131.318 197.412 129.878 197.412 128.482ZM251.169 59.7812C263.033 59.7812 272.193 64.0996 278.649 72.7363C285.192 81.2858 288.464 93.1504 288.464 108.33C288.464 125.952 284.189 139.038 275.639 147.588C269.445 153.782 261.376 156.879 251.43 156.879C239.479 156.879 230.318 152.561 223.95 143.924C217.581 135.2 214.397 123.335 214.397 108.33C214.397 93.3249 217.581 81.5039 223.95 72.8672C230.318 64.1432 239.391 59.7812 251.169 59.7812ZM273.415 108.33C273.415 94.8079 270.492 85.1243 264.647 79.2793C261.158 75.7897 256.752 74.0449 251.43 74.0449C244.539 74.0449 239.13 77.0111 235.204 82.9434C231.365 88.7884 229.446 97.2507 229.446 108.33C229.446 121.939 232.369 131.667 238.214 137.512C241.703 141.001 246.109 142.746 251.43 142.746C258.322 142.746 263.688 139.824 267.526 133.979C271.452 128.046 273.415 119.497 273.415 108.33ZM326.648 59.7812C338.513 59.7812 347.673 64.0996 354.129 72.7363C360.672 81.2858 363.943 93.1504 363.943 108.33C363.943 125.952 359.669 139.038 351.119 147.588C344.925 153.782 336.855 156.879 326.91 156.879C314.958 156.879 305.798 152.561 299.43 143.924C293.061 135.2 289.877 123.335 289.877 108.33C289.877 93.3249 293.061 81.5039 299.43 72.8672C305.798 64.1432 314.871 59.7812 326.648 59.7812ZM348.895 108.33C348.895 94.8079 345.972 85.1243 340.127 79.2793C336.637 75.7897 332.232 74.0449 326.91 74.0449C320.018 74.0449 314.609 77.0111 310.684 82.9434C306.845 88.7884 304.926 97.2507 304.926 108.33C304.926 121.939 307.848 131.667 313.693 137.512C317.183 141.001 321.589 142.746 326.91 142.746C333.802 142.746 339.167 139.824 343.006 133.979C346.932 128.046 348.895 119.497 348.895 108.33Z" fill="url(#paint0_linear_12851_52118)"/>
<path d="M93.4308 104.928C104.685 109.813 110.312 118.101 110.312 129.791C110.312 134.415 109.047 138.777 106.517 142.877C103.987 147.239 99.8866 150.685 94.216 153.215C88.6327 155.658 81.7407 156.879 73.5402 156.879C65.3397 156.879 58.535 155.57 53.1262 152.953C47.8045 150.423 43.8351 147.108 41.218 143.008C38.6008 138.908 37.2922 134.502 37.2922 129.791C37.2922 118.101 42.9191 109.813 54.173 104.928C50.8579 103.27 48.1099 101.089 45.9289 98.3848C43.05 94.7207 41.6105 90.3151 41.6105 85.168C41.6105 80.9805 42.701 77.0547 44.882 73.3906C47.1502 69.2031 50.7271 65.888 55.6125 63.4453C60.5851 61.0026 66.6483 59.7812 73.8019 59.7812C81.3045 59.7812 87.4113 61.0026 92.1223 63.4453C96.746 65.888 100.192 69.0723 102.46 72.998C104.816 76.8366 105.993 80.8932 105.993 85.168C105.993 92.1471 103.289 97.7741 97.8801 102.049C96.5715 103.183 95.0884 104.143 93.4308 104.928ZM90.9445 85.9531C90.9445 82.1146 89.4614 79.0612 86.4953 76.793C83.4419 74.5247 79.2108 73.3906 73.8019 73.3906C67.5207 73.3906 62.8534 74.9173 59.8 77.9707C57.7062 80.0645 56.6594 82.7253 56.6594 85.9531C56.6594 89.5299 58.0552 92.4961 60.8469 94.8516C63.7258 97.2943 68.0441 98.5156 73.8019 98.5156C80.0832 98.5156 84.7069 97.0326 87.673 94.0664C89.854 91.8854 90.9445 89.181 90.9445 85.9531ZM95.2629 128.482C95.2629 123.597 93.2564 119.715 89.2433 116.836C85.2303 113.87 80.0832 112.387 73.8019 112.387C67.5207 112.387 62.3299 113.87 58.2297 116.836C54.3039 119.715 52.341 123.597 52.341 128.482C52.341 130.402 53.0389 132.495 54.4348 134.764C56.0051 137.294 58.3605 139.344 61.5012 140.914C64.8163 142.484 68.9601 143.27 73.9328 143.27C81.4354 143.27 87.1932 141.263 91.2062 137.25C92.5148 135.941 93.5617 134.458 94.3469 132.801C94.9575 131.318 95.2629 129.878 95.2629 128.482ZM114.866 169.834C114.866 167.827 115.738 166.301 117.483 165.254C119.664 163.945 121.234 162.506 122.194 160.936C122.892 159.714 123.328 158.013 123.502 155.832C121.496 155.658 119.751 154.829 118.268 153.346C116.523 151.601 115.651 149.507 115.651 147.064V146.279C115.651 143.837 116.523 141.743 118.268 139.998C120.013 138.253 122.107 137.381 124.549 137.381H125.858C128.213 137.381 130.176 138.21 131.746 139.867C133.666 141.961 134.713 144.622 134.887 147.85C134.974 148.46 135.018 149.464 135.018 150.859C135.018 152.168 134.931 153.302 134.756 154.262C133.797 160.63 132.095 165.472 129.653 168.787C127.995 170.968 125.901 172.844 123.371 174.414C122.412 175.025 121.321 175.33 120.1 175.33C118.704 175.33 117.483 174.763 116.436 173.629C115.389 172.495 114.866 171.23 114.866 169.834ZM195.58 104.928C206.834 109.813 212.461 118.101 212.461 129.791C212.461 134.415 211.196 138.777 208.666 142.877C206.136 147.239 202.035 150.685 196.365 153.215C190.781 155.658 183.89 156.879 175.689 156.879C167.489 156.879 160.684 155.57 155.275 152.953C149.953 150.423 145.984 147.108 143.367 143.008C140.75 138.908 139.441 134.502 139.441 129.791C139.441 118.101 145.068 109.813 156.322 104.928C153.007 103.27 150.259 101.089 148.078 98.3848C145.199 94.7207 143.759 90.3151 143.759 85.168C143.759 80.9805 144.85 77.0547 147.031 73.3906C149.299 69.2031 152.876 65.888 157.761 63.4453C162.734 61.0026 168.797 59.7812 175.951 59.7812C183.453 59.7812 189.56 61.0026 194.271 63.4453C198.895 65.888 202.341 69.0723 204.609 72.998C206.964 76.8366 208.142 80.8932 208.142 85.168C208.142 92.1471 205.438 97.7741 200.029 102.049C198.72 103.183 197.237 104.143 195.58 104.928ZM193.093 85.9531C193.093 82.1146 191.61 79.0612 188.644 76.793C185.591 74.5247 181.36 73.3906 175.951 73.3906C169.67 73.3906 165.002 74.9173 161.949 77.9707C159.855 80.0645 158.808 82.7253 158.808 85.9531C158.808 89.5299 160.204 92.4961 162.996 94.8516C165.875 97.2943 170.193 98.5156 175.951 98.5156C182.232 98.5156 186.856 97.0326 189.822 94.0664C192.003 91.8854 193.093 89.181 193.093 85.9531ZM197.412 128.482C197.412 123.597 195.405 119.715 191.392 116.836C187.379 113.87 182.232 112.387 175.951 112.387C169.67 112.387 164.479 113.87 160.379 116.836C156.453 119.715 154.49 123.597 154.49 128.482C154.49 130.402 155.188 132.495 156.584 134.764C158.154 137.294 160.509 139.344 163.65 140.914C166.965 142.484 171.109 143.27 176.082 143.27C183.584 143.27 189.342 141.263 193.355 137.25C194.664 135.941 195.711 134.458 196.496 132.801C197.106 131.318 197.412 129.878 197.412 128.482ZM251.169 59.7812C263.033 59.7812 272.193 64.0996 278.649 72.7363C285.192 81.2858 288.464 93.1504 288.464 108.33C288.464 125.952 284.189 139.038 275.639 147.588C269.445 153.782 261.376 156.879 251.43 156.879C239.479 156.879 230.318 152.561 223.95 143.924C217.581 135.2 214.397 123.335 214.397 108.33C214.397 93.3249 217.581 81.5039 223.95 72.8672C230.318 64.1432 239.391 59.7812 251.169 59.7812ZM273.415 108.33C273.415 94.8079 270.492 85.1243 264.647 79.2793C261.158 75.7897 256.752 74.0449 251.43 74.0449C244.539 74.0449 239.13 77.0111 235.204 82.9434C231.365 88.7884 229.446 97.2507 229.446 108.33C229.446 121.939 232.369 131.667 238.214 137.512C241.703 141.001 246.109 142.746 251.43 142.746C258.322 142.746 263.688 139.824 267.526 133.979C271.452 128.046 273.415 119.497 273.415 108.33ZM326.648 59.7812C338.513 59.7812 347.673 64.0996 354.129 72.7363C360.672 81.2858 363.943 93.1504 363.943 108.33C363.943 125.952 359.669 139.038 351.119 147.588C344.925 153.782 336.855 156.879 326.91 156.879C314.958 156.879 305.798 152.561 299.43 143.924C293.061 135.2 289.877 123.335 289.877 108.33C289.877 93.3249 293.061 81.5039 299.43 72.8672C305.798 64.1432 314.871 59.7812 326.648 59.7812ZM348.895 108.33C348.895 94.8079 345.972 85.1243 340.127 79.2793C336.637 75.7897 332.232 74.0449 326.91 74.0449C320.018 74.0449 314.609 77.0111 310.684 82.9434C306.845 88.7884 304.926 97.2507 304.926 108.33C304.926 121.939 307.848 131.667 313.693 137.512C317.183 141.001 321.589 142.746 326.91 142.746C333.802 142.746 339.167 139.824 343.006 133.979C346.932 128.046 348.895 119.497 348.895 108.33Z" fill="url(#paint1_linear_12851_52118)" fill-opacity="0.3"/>
<path d="M93.4308 104.928L91.7185 101.313L83.7517 105.087L91.838 108.597L93.4308 104.928ZM106.517 142.877L103.113 140.777L103.084 140.823L103.057 140.87L106.517 142.877ZM94.216 153.215L95.8193 156.879L95.8325 156.874L95.8458 156.868L94.216 153.215ZM53.1262 152.953L54.8684 149.352L54.856 149.346L54.8436 149.341L53.1262 152.953ZM54.173 104.928L55.7659 108.597L63.6289 105.184L55.9619 101.35L54.173 104.928ZM45.9289 98.3848L42.7836 100.856L42.7993 100.876L42.8152 100.896L45.9289 98.3848ZM44.882 73.3906L48.3192 75.4366L48.3606 75.367L48.3992 75.2958L44.882 73.3906ZM55.6125 63.4453L53.8489 59.8551L53.8362 59.8613L53.8236 59.8676L55.6125 63.4453ZM92.1223 63.4453L93.9907 59.9085L93.9772 59.9014L93.9635 59.8943L92.1223 63.4453ZM102.46 72.998L98.9967 74.9992L99.0232 75.045L99.0509 75.0901L102.46 72.998ZM97.8801 102.049L95.3998 98.9106L95.3288 98.9668L95.2603 99.0261L97.8801 102.049ZM86.4953 76.793L88.9251 73.6155L88.903 73.5986L88.8806 73.582L86.4953 76.793ZM60.8469 94.8516L63.4348 91.8015L63.4263 91.7944L60.8469 94.8516ZM89.2433 116.836L86.8658 120.053L86.8886 120.07L86.9117 120.086L89.2433 116.836ZM58.2297 116.836L55.8852 113.595L55.8747 113.603L55.8642 113.61L58.2297 116.836ZM54.4348 134.764L51.0281 136.86L51.0321 136.867L51.0362 136.873L54.4348 134.764ZM61.5012 140.914L59.7123 144.492L59.7504 144.511L59.7888 144.529L61.5012 140.914ZM94.3469 132.801L97.9618 134.513L98.0061 134.42L98.0456 134.324L94.3469 132.801ZM91.838 108.597C96.9264 110.806 100.481 113.666 102.782 117.054C105.074 120.43 106.312 124.61 106.312 129.791H114.312C114.312 123.282 112.736 117.473 109.401 112.561C106.075 107.662 101.189 103.935 95.0237 101.259L91.838 108.597ZM106.312 129.791C106.312 133.641 105.27 137.28 103.113 140.777L109.921 144.977C112.823 140.274 114.312 135.189 114.312 129.791H106.312ZM103.057 140.87C101.038 144.351 97.6693 147.294 92.5862 149.562L95.8458 156.868C102.104 154.076 106.936 150.127 109.977 144.884L103.057 140.87ZM92.6127 149.55C87.6774 151.709 81.3691 152.879 73.5402 152.879V160.879C82.1124 160.879 89.5879 159.606 95.8193 156.879L92.6127 149.55ZM73.5402 152.879C65.7349 152.879 59.5734 151.629 54.8684 149.352L51.3839 156.554C57.4966 159.512 64.9445 160.879 73.5402 160.879V152.879ZM54.8436 149.341C50.0555 147.064 46.7253 144.202 44.5896 140.856L37.8463 145.16C40.945 150.015 45.5536 153.782 51.4087 156.566L54.8436 149.341ZM44.5896 140.856C42.3687 137.376 41.2922 133.714 41.2922 129.791H33.2922C33.2922 135.29 34.8329 140.439 37.8463 145.16L44.5896 140.856ZM41.2922 129.791C41.2922 124.61 42.5297 120.43 44.8217 117.054C47.1226 113.666 50.6775 110.806 55.7659 108.597L52.5802 101.259C46.4146 103.935 41.5291 107.662 38.2031 112.561C34.8682 117.473 33.2922 123.282 33.2922 129.791H41.2922ZM55.9619 101.35C53.1249 99.9315 50.8398 98.1024 49.0425 95.8738L42.8152 100.896C45.38 104.076 48.591 106.609 52.3842 108.505L55.9619 101.35ZM49.0742 95.9135C46.8074 93.0285 45.6105 89.5182 45.6105 85.168H37.6105C37.6105 91.112 39.2926 96.4129 42.7836 100.856L49.0742 95.9135ZM45.6105 85.168C45.6105 81.7144 46.4995 78.4936 48.3192 75.4366L41.4448 71.3447C38.9026 75.6157 37.6105 80.2465 37.6105 85.168H45.6105ZM48.3992 75.2958C50.2211 71.9323 53.1384 69.1545 57.4013 67.023L53.8236 59.8676C48.3157 62.6216 44.0794 66.4739 41.3649 71.4855L48.3992 75.2958ZM57.3761 67.0355C61.6641 64.9292 67.0879 63.7812 73.8019 63.7812V55.7812C66.2087 55.7812 59.5062 57.0761 53.8489 59.8551L57.3761 67.0355ZM73.8019 63.7812C80.9126 63.7812 86.3251 64.9451 90.281 66.9963L93.9635 59.8943C88.4975 57.0601 81.6965 55.7812 73.8019 55.7812V63.7812ZM90.2538 66.9821C94.3161 69.1282 97.1599 71.8202 98.9967 74.9992L105.924 70.9969C103.224 66.3243 99.1758 62.6478 93.9907 59.9085L90.2538 66.9821ZM99.0509 75.0901C101.042 78.3344 101.993 81.672 101.993 85.168H109.993C109.993 80.1144 108.59 75.3387 105.869 70.906L99.0509 75.0901ZM101.993 85.168C101.993 90.9413 99.8351 95.4053 95.3998 98.9106L100.36 105.187C106.743 100.143 109.993 93.3529 109.993 85.168H101.993ZM95.2603 99.0261C94.2417 99.9089 93.0675 100.674 91.7185 101.313L95.1432 108.543C97.1093 107.611 98.9012 106.457 100.5 105.072L95.2603 99.0261ZM94.9445 85.9531C94.9445 80.9096 92.9129 76.6651 88.9251 73.6155L84.0655 79.9704C86.01 81.4573 86.9445 83.3196 86.9445 85.9531H94.9445ZM88.8806 73.582C84.9006 70.6254 79.7186 69.3906 73.8019 69.3906V77.3906C78.703 77.3906 81.9832 78.4241 84.11 80.0039L88.8806 73.582ZM73.8019 69.3906C66.9422 69.3906 61.0585 71.0554 56.9716 75.1423L62.6284 80.7991C64.6483 78.7793 68.0992 77.3906 73.8019 77.3906V69.3906ZM56.9716 75.1423C54.0563 78.0575 52.6594 81.7697 52.6594 85.9531H60.6594C60.6594 83.6808 61.3561 82.0714 62.6284 80.7991L56.9716 75.1423ZM52.6594 85.9531C52.6594 90.737 54.597 94.8118 58.2674 97.9087L63.4263 91.7944C61.5134 90.1804 60.6594 88.3229 60.6594 85.9531H52.6594ZM58.259 97.9016C62.1561 101.208 67.5734 102.516 73.8019 102.516V94.5156C68.5148 94.5156 65.2954 93.3802 63.4348 91.8015L58.259 97.9016ZM73.8019 102.516C80.6222 102.516 86.4829 100.913 90.5015 96.8948L84.8446 91.238C82.9309 93.1517 79.5441 94.5156 73.8019 94.5156V102.516ZM90.5015 96.8948C93.4706 93.9257 94.9445 90.1869 94.9445 85.9531H86.9445C86.9445 88.1751 86.2375 89.8451 84.8446 91.238L90.5015 96.8948ZM99.2629 128.482C99.2629 122.291 96.6216 117.206 91.575 113.586L86.9117 120.086C89.8911 122.223 91.2629 124.903 91.2629 128.482H99.2629ZM91.6209 113.619C86.7591 110.026 80.7152 108.387 73.8019 108.387V116.387C79.4511 116.387 83.7016 117.714 86.8658 120.053L91.6209 113.619ZM73.8019 108.387C66.8845 108.387 60.8173 110.027 55.8852 113.595L60.5742 120.077C63.8426 117.712 68.1569 116.387 73.8019 116.387V108.387ZM55.8642 113.61C50.9066 117.246 48.341 122.328 48.341 128.482H56.341C56.341 124.866 57.7011 122.184 60.5951 120.062L55.8642 113.61ZM48.341 128.482C48.341 131.376 49.3885 134.196 51.0281 136.86L57.8414 132.667C56.6893 130.795 56.341 129.428 56.341 128.482H48.341ZM51.0362 136.873C53.0621 140.137 56.0297 142.65 59.7123 144.492L63.29 137.336C60.6914 136.037 58.948 134.45 57.8333 132.654L51.0362 136.873ZM59.7888 144.529C63.7941 146.426 68.5674 147.27 73.9328 147.27V139.27C69.3529 139.27 65.8384 138.542 63.2135 137.299L59.7888 144.529ZM73.9328 147.27C82.1423 147.27 89.0536 145.059 94.0347 140.078L88.3778 134.422C85.3328 137.467 80.7285 139.27 73.9328 139.27V147.27ZM94.0347 140.078C95.6645 138.449 96.9786 136.589 97.9618 134.513L90.7319 131.088C90.1448 132.328 89.3652 133.434 88.3778 134.422L94.0347 140.078ZM98.0456 134.324C98.8258 132.429 99.2629 130.473 99.2629 128.482H91.2629C91.2629 129.284 91.0893 130.206 90.6482 131.278L98.0456 134.324ZM122.194 160.936L125.607 163.021L125.638 162.971L125.667 162.92L122.194 160.936ZM123.502 155.832L127.49 156.151L127.806 152.191L123.849 151.847L123.502 155.832ZM131.746 139.867L134.695 137.164L134.673 137.14L134.65 137.116L131.746 139.867ZM134.887 147.85L130.893 148.066L130.902 148.241L130.927 148.415L134.887 147.85ZM134.756 154.262L130.821 153.546L130.81 153.606L130.801 153.666L134.756 154.262ZM129.653 168.787L132.837 171.207L132.855 171.184L132.873 171.16L129.653 168.787ZM123.371 174.414L121.262 171.016L121.243 171.027L121.224 171.039L123.371 174.414ZM118.866 169.834C118.866 169.427 118.948 169.247 118.993 169.169C119.039 169.088 119.163 168.911 119.541 168.684L115.425 161.824C112.496 163.581 110.866 166.398 110.866 169.834H118.866ZM119.541 168.684C122.075 167.163 124.207 165.312 125.607 163.021L118.781 158.85C118.261 159.699 117.253 160.727 115.425 161.824L119.541 168.684ZM125.667 162.92C126.774 160.983 127.292 158.626 127.49 156.151L119.515 155.513C119.364 157.4 119.01 158.445 118.721 158.951L125.667 162.92ZM123.849 151.847C122.821 151.758 121.944 151.365 121.096 150.517L115.44 156.174C117.558 158.293 120.17 159.557 123.156 159.817L123.849 151.847ZM121.096 150.517C120.093 149.514 119.651 148.434 119.651 147.064H111.651C111.651 150.58 112.953 153.688 115.44 156.174L121.096 150.517ZM119.651 147.064V146.279H111.651V147.064H119.651ZM119.651 146.279C119.651 144.91 120.093 143.83 121.096 142.826L115.44 137.17C112.953 139.656 111.651 142.764 111.651 146.279H119.651ZM121.096 142.826C122.1 141.823 123.179 141.381 124.549 141.381V133.381C121.034 133.381 117.926 134.683 115.44 137.17L121.096 142.826ZM124.549 141.381H125.858V133.381H124.549V141.381ZM125.858 141.381C127.154 141.381 128.054 141.786 128.843 142.618L134.65 137.116C132.298 134.633 129.272 133.381 125.858 133.381V141.381ZM128.798 142.57C130.005 143.887 130.761 145.628 130.893 148.066L138.881 147.634C138.664 143.616 137.326 140.034 134.695 137.164L128.798 142.57ZM130.927 148.415C130.971 148.721 131.018 149.477 131.018 150.859H139.018C139.018 149.45 138.978 148.199 138.847 147.284L130.927 148.415ZM131.018 150.859C131.018 152.004 130.941 152.887 130.821 153.546L138.692 154.977C138.921 153.717 139.018 152.332 139.018 150.859H131.018ZM130.801 153.666C129.889 159.719 128.332 163.837 126.433 166.414L132.873 171.16C135.859 167.107 137.704 161.541 138.712 154.858L130.801 153.666ZM126.468 166.367C125.131 168.126 123.413 169.68 121.262 171.016L125.481 177.813C128.39 176.007 130.859 173.81 132.837 171.207L126.468 166.367ZM121.224 171.039C120.954 171.211 120.619 171.33 120.1 171.33V179.33C122.024 179.33 123.87 178.838 125.519 177.789L121.224 171.039ZM120.1 171.33C119.945 171.33 119.754 171.326 119.375 170.916L113.497 176.342C115.212 178.2 117.463 179.33 120.1 179.33V171.33ZM119.375 170.916C118.932 170.436 118.866 170.115 118.866 169.834H110.866C110.866 172.345 111.846 174.554 113.497 176.342L119.375 170.916ZM195.58 104.928L193.867 101.313L185.9 105.087L193.987 108.597L195.58 104.928ZM208.666 142.877L205.261 140.777L205.233 140.823L205.205 140.87L208.666 142.877ZM196.365 153.215L197.968 156.879L197.981 156.874L197.995 156.868L196.365 153.215ZM155.275 152.953L157.017 149.352L157.005 149.346L156.992 149.341L155.275 152.953ZM156.322 104.928L157.915 108.597L165.778 105.184L158.111 101.35L156.322 104.928ZM148.078 98.3848L144.932 100.856L144.948 100.876L144.964 100.896L148.078 98.3848ZM147.031 73.3906L150.468 75.4366L150.509 75.367L150.548 75.2958L147.031 73.3906ZM157.761 63.4453L155.998 59.8551L155.985 59.8613L155.972 59.8676L157.761 63.4453ZM194.271 63.4453L196.14 59.9085L196.126 59.9014L196.112 59.8943L194.271 63.4453ZM204.609 72.998L201.146 74.9992L201.172 75.045L201.2 75.0901L204.609 72.998ZM200.029 102.049L197.549 98.9106L197.478 98.9668L197.409 99.0261L200.029 102.049ZM188.644 76.793L191.074 73.6155L191.052 73.5986L191.029 73.582L188.644 76.793ZM162.996 94.8516L165.584 91.8015L165.575 91.7944L162.996 94.8516ZM191.392 116.836L189.015 120.053L189.037 120.07L189.061 120.086L191.392 116.836ZM160.379 116.836L158.034 113.595L158.024 113.603L158.013 113.61L160.379 116.836ZM156.584 134.764L153.177 136.86L153.181 136.867L153.185 136.873L156.584 134.764ZM163.65 140.914L161.861 144.492L161.899 144.511L161.938 144.529L163.65 140.914ZM196.496 132.801L200.111 134.513L200.155 134.42L200.194 134.324L196.496 132.801ZM193.987 108.597C199.075 110.806 202.63 113.666 204.931 117.054C207.223 120.43 208.461 124.61 208.461 129.791H216.461C216.461 123.282 214.885 117.473 211.55 112.561C208.224 107.662 203.338 103.935 197.172 101.259L193.987 108.597ZM208.461 129.791C208.461 133.641 207.419 137.28 205.261 140.777L212.07 144.977C214.972 140.274 216.461 135.189 216.461 129.791H208.461ZM205.205 140.87C203.187 144.351 199.818 147.294 194.735 149.562L197.995 156.868C204.253 154.076 209.084 150.127 212.126 144.884L205.205 140.87ZM194.762 149.55C189.826 151.709 183.518 152.879 175.689 152.879V160.879C184.261 160.879 191.737 159.606 197.968 156.879L194.762 149.55ZM175.689 152.879C167.884 152.879 161.722 151.629 157.017 149.352L153.533 156.554C159.645 159.512 167.093 160.879 175.689 160.879V152.879ZM156.992 149.341C152.204 147.064 148.874 144.202 146.738 140.856L139.995 145.16C143.094 150.015 147.702 153.782 153.558 156.566L156.992 149.341ZM146.738 140.856C144.518 137.376 143.441 133.714 143.441 129.791H135.441C135.441 135.29 136.982 140.439 139.995 145.16L146.738 140.856ZM143.441 129.791C143.441 124.61 144.678 120.43 146.971 117.054C149.271 113.666 152.826 110.806 157.915 108.597L154.729 101.259C148.563 103.935 143.678 107.662 140.352 112.561C137.017 117.473 135.441 123.282 135.441 129.791H143.441ZM158.111 101.35C155.274 99.9315 152.989 98.1024 151.191 95.8738L144.964 100.896C147.529 104.076 150.74 106.609 154.533 108.505L158.111 101.35ZM151.223 95.9135C148.956 93.0285 147.759 89.5182 147.759 85.168H139.759C139.759 91.112 141.441 96.4129 144.932 100.856L151.223 95.9135ZM147.759 85.168C147.759 81.7144 148.648 78.4936 150.468 75.4366L143.594 71.3447C141.051 75.6157 139.759 80.2465 139.759 85.168H147.759ZM150.548 75.2958C152.37 71.9323 155.287 69.1545 159.55 67.023L155.972 59.8676C150.465 62.6216 146.228 66.4739 143.514 71.4855L150.548 75.2958ZM159.525 67.0355C163.813 64.9292 169.237 63.7812 175.951 63.7812V55.7812C168.358 55.7812 161.655 57.0761 155.998 59.8551L159.525 67.0355ZM175.951 63.7812C183.061 63.7812 188.474 64.9451 192.43 66.9963L196.112 59.8943C190.646 57.0601 183.845 55.7812 175.951 55.7812V63.7812ZM192.403 66.9821C196.465 69.1282 199.309 71.8202 201.146 74.9992L208.072 70.9969C205.373 66.3243 201.325 62.6478 196.14 59.9085L192.403 66.9821ZM201.2 75.0901C203.191 78.3344 204.142 81.672 204.142 85.168H212.142C212.142 80.1144 210.738 75.3387 208.018 70.906L201.2 75.0901ZM204.142 85.168C204.142 90.9413 201.984 95.4053 197.549 98.9106L202.509 105.187C208.892 100.143 212.142 93.3529 212.142 85.168H204.142ZM197.409 99.0261C196.391 99.9089 195.216 100.674 193.867 101.313L197.292 108.543C199.258 107.611 201.05 106.457 202.649 105.072L197.409 99.0261ZM197.093 85.9531C197.093 80.9096 195.062 76.6651 191.074 73.6155L186.214 79.9704C188.159 81.4573 189.093 83.3196 189.093 85.9531H197.093ZM191.029 73.582C187.049 70.6254 181.867 69.3906 175.951 69.3906V77.3906C180.852 77.3906 184.132 78.4241 186.259 80.0039L191.029 73.582ZM175.951 69.3906C169.091 69.3906 163.207 71.0554 159.12 75.1423L164.777 80.7991C166.797 78.7793 170.248 77.3906 175.951 77.3906V69.3906ZM159.12 75.1423C156.205 78.0575 154.808 81.7697 154.808 85.9531H162.808C162.808 83.6808 163.505 82.0714 164.777 80.7991L159.12 75.1423ZM154.808 85.9531C154.808 90.737 156.746 94.8118 160.416 97.9087L165.575 91.7944C163.662 90.1804 162.808 88.3229 162.808 85.9531H154.808ZM160.408 97.9016C164.305 101.208 169.722 102.516 175.951 102.516V94.5156C170.664 94.5156 167.444 93.3802 165.584 91.8015L160.408 97.9016ZM175.951 102.516C182.771 102.516 188.632 100.913 192.65 96.8948L186.993 91.238C185.08 93.1517 181.693 94.5156 175.951 94.5156V102.516ZM192.65 96.8948C195.619 93.9257 197.093 90.1869 197.093 85.9531H189.093C189.093 88.1751 188.386 89.8451 186.993 91.238L192.65 96.8948ZM201.412 128.482C201.412 122.291 198.77 117.206 193.724 113.586L189.061 120.086C192.04 122.223 193.412 124.903 193.412 128.482H201.412ZM193.77 113.619C188.908 110.026 182.864 108.387 175.951 108.387V116.387C181.6 116.387 185.85 117.714 189.015 120.053L193.77 113.619ZM175.951 108.387C169.033 108.387 162.966 110.027 158.034 113.595L162.723 120.077C165.991 117.712 170.306 116.387 175.951 116.387V108.387ZM158.013 113.61C153.055 117.246 150.49 122.328 150.49 128.482H158.49C158.49 124.866 159.85 122.184 162.744 120.062L158.013 113.61ZM150.49 128.482C150.49 131.376 151.537 134.196 153.177 136.86L159.99 132.667C158.838 130.795 158.49 129.428 158.49 128.482H150.49ZM153.185 136.873C155.211 140.137 158.179 142.65 161.861 144.492L165.439 137.336C162.84 136.037 161.097 134.45 159.982 132.654L153.185 136.873ZM161.938 144.529C165.943 146.426 170.716 147.27 176.082 147.27V139.27C171.502 139.27 167.987 138.542 165.362 137.299L161.938 144.529ZM176.082 147.27C184.291 147.27 191.202 145.059 196.183 140.078L190.527 134.422C187.482 137.467 182.877 139.27 176.082 139.27V147.27ZM196.183 140.078C197.813 138.449 199.127 136.589 200.111 134.513L192.881 131.088C192.294 132.328 191.514 133.434 190.527 134.422L196.183 140.078ZM200.194 134.324C200.975 132.429 201.412 130.473 201.412 128.482H193.412C193.412 129.284 193.238 130.206 192.797 131.278L200.194 134.324ZM278.649 72.7363L275.445 75.1311L275.459 75.1493L275.473 75.1673L278.649 72.7363ZM275.639 147.588L272.811 144.759L275.639 147.588ZM223.95 143.924L220.719 146.282L220.725 146.29L220.731 146.298L223.95 143.924ZM223.95 72.8672L227.169 75.2411L227.175 75.2334L227.181 75.2256L223.95 72.8672ZM235.204 82.9434L231.868 80.7359L231.86 80.7476L235.204 82.9434ZM267.526 133.979L264.19 131.771L264.183 131.783L267.526 133.979ZM251.169 63.7812C261.918 63.7812 269.828 67.6163 275.445 75.1311L281.853 70.3415C274.559 60.5829 264.149 55.7812 251.169 55.7812V63.7812ZM275.473 75.1673C281.301 82.7835 284.464 93.6777 284.464 108.33H292.464C292.464 92.6231 289.083 79.7881 281.826 70.3053L275.473 75.1673ZM284.464 108.33C284.464 125.377 280.326 137.245 272.811 144.759L278.468 150.416C288.052 140.832 292.464 126.528 292.464 108.33H284.464ZM272.811 144.759C267.471 150.1 260.471 152.879 251.43 152.879V160.879C262.28 160.879 271.42 157.464 278.468 150.416L272.811 144.759ZM251.43 152.879C240.582 152.879 232.69 149.037 227.169 141.55L220.731 146.298C227.947 156.084 238.375 160.879 251.43 160.879V152.879ZM227.181 141.565C221.473 133.747 218.397 122.809 218.397 108.33H210.397C210.397 123.861 213.69 136.653 220.719 146.282L227.181 141.565ZM218.397 108.33C218.397 93.8477 221.475 82.9642 227.169 75.2411L220.731 70.4933C213.688 80.0436 210.397 92.8021 210.397 108.33H218.397ZM227.181 75.2256C232.72 67.6371 240.534 63.7812 251.169 63.7812V55.7812C238.248 55.7812 227.917 60.6494 220.719 70.5087L227.181 75.2256ZM277.415 108.33C277.415 94.3901 274.428 83.4031 267.476 76.4509L261.819 82.1077C266.557 86.8456 269.415 95.2258 269.415 108.33H277.415ZM267.476 76.4509C263.173 72.1486 257.721 70.0449 251.43 70.0449V78.0449C255.783 78.0449 259.142 79.4308 261.819 82.1077L267.476 76.4509ZM251.43 70.0449C243.145 70.0449 236.506 73.7276 231.868 80.7359L238.54 85.1508C241.753 80.2946 245.932 78.0449 251.43 78.0449V70.0449ZM231.86 80.7476C227.411 87.5233 225.446 96.8883 225.446 108.33H233.446C233.446 97.613 235.32 90.0535 238.547 85.1391L231.86 80.7476ZM225.446 108.33C225.446 122.348 228.429 133.384 235.385 140.34L241.042 134.683C236.308 129.949 233.446 121.53 233.446 108.33H225.446ZM235.385 140.34C239.687 144.642 245.14 146.746 251.43 146.746V138.746C247.078 138.746 243.719 137.36 241.042 134.683L235.385 140.34ZM251.43 146.746C259.693 146.746 266.305 143.125 270.87 136.174L264.183 131.783C261.071 136.522 256.951 138.746 251.43 138.746V146.746ZM270.862 136.186C275.403 129.324 277.415 119.87 277.415 108.33H269.415C269.415 119.124 267.501 126.768 264.19 131.771L270.862 136.186ZM354.129 72.7363L350.925 75.1311L350.939 75.1493L350.952 75.1673L354.129 72.7363ZM351.119 147.588L348.291 144.759L351.119 147.588ZM299.43 143.924L296.199 146.282L296.205 146.29L296.21 146.298L299.43 143.924ZM299.43 72.8672L302.649 75.2411L302.655 75.2334L302.66 75.2256L299.43 72.8672ZM310.684 82.9434L307.348 80.7359L307.34 80.7476L310.684 82.9434ZM343.006 133.979L339.67 131.771L339.662 131.783L343.006 133.979ZM326.648 63.7812C337.398 63.7812 345.308 67.6163 350.925 75.1311L357.333 70.3415C350.038 60.5829 339.628 55.7812 326.648 55.7812V63.7812ZM350.952 75.1673C356.781 82.7835 359.943 93.6777 359.943 108.33H367.943C367.943 92.6231 364.563 79.7881 357.305 70.3053L350.952 75.1673ZM359.943 108.33C359.943 125.377 355.805 137.245 348.291 144.759L353.948 150.416C363.532 140.832 367.943 126.528 367.943 108.33H359.943ZM348.291 144.759C342.951 150.1 335.951 152.879 326.91 152.879V160.879C337.76 160.879 346.9 157.464 353.948 150.416L348.291 144.759ZM326.91 152.879C316.062 152.879 308.17 149.037 302.649 141.55L296.21 146.298C303.427 156.084 313.855 160.879 326.91 160.879V152.879ZM302.66 141.565C296.953 133.747 293.877 122.809 293.877 108.33H285.877C285.877 123.861 289.169 136.653 296.199 146.282L302.66 141.565ZM293.877 108.33C293.877 93.8477 296.954 82.9642 302.649 75.2411L296.21 70.4933C289.168 80.0436 285.877 92.8021 285.877 108.33H293.877ZM302.66 75.2256C308.2 67.6371 316.014 63.7812 326.648 63.7812V55.7812C313.728 55.7812 303.396 60.6494 296.199 70.5087L302.66 75.2256ZM352.895 108.33C352.895 94.3901 349.908 83.4031 342.955 76.4509L337.299 82.1077C342.036 86.8456 344.895 95.2258 344.895 108.33H352.895ZM342.955 76.4509C338.653 72.1486 333.201 70.0449 326.91 70.0449V78.0449C331.263 78.0449 334.622 79.4308 337.299 82.1077L342.955 76.4509ZM326.91 70.0449C318.625 70.0449 311.986 73.7276 307.348 80.7359L314.019 85.1508C317.233 80.2946 321.412 78.0449 326.91 78.0449V70.0449ZM307.34 80.7476C302.89 87.5233 300.926 96.8883 300.926 108.33H308.926C308.926 97.613 310.8 90.0535 314.027 85.1391L307.34 80.7476ZM300.926 108.33C300.926 122.348 303.909 133.384 310.865 140.34L316.522 134.683C311.788 129.949 308.926 121.53 308.926 108.33H300.926ZM310.865 140.34C315.167 144.642 320.619 146.746 326.91 146.746V138.746C322.558 138.746 319.199 137.36 316.522 134.683L310.865 140.34ZM326.91 146.746C335.173 146.746 341.784 143.125 346.349 136.174L339.662 131.783C336.55 136.522 332.431 138.746 326.91 138.746V146.746ZM346.342 136.186C350.883 129.324 352.895 119.87 352.895 108.33H344.895C344.895 119.124 342.981 126.768 339.67 131.771L346.342 136.186Z" fill="#D32B17" mask="url(#path-1-outside-1_12851_52118)"/>
<circle cx="23" cy="137" r="22" fill="url(#paint2_linear_12851_52118)" stroke="#D32B17" stroke-width="2"/>
<path d="M25.1152 147.322V153.223C25.1152 153.94 24.9297 154.484 24.5586 154.855C24.1875 155.227 23.6556 155.412 22.9629 155.412C22.2702 155.412 21.7383 155.227 21.3672 154.855C20.9961 154.484 20.8105 153.94 20.8105 153.223V147.322H11.6816C10.9395 147.322 10.3952 147.137 10.0488 146.766C9.72721 146.469 9.56641 146.048 9.56641 145.504C9.56641 144.96 9.73958 144.514 10.0859 144.168C10.4323 143.822 10.9642 143.648 11.6816 143.648H20.8105V141.162H11.6816C10.9642 141.162 10.4323 140.989 10.0859 140.643C9.73958 140.296 9.56641 139.851 9.56641 139.307C9.56641 138.762 9.72721 138.329 10.0488 138.008C10.4199 137.637 10.9642 137.451 11.6816 137.451H18.3984L9.90039 127.098C9.5293 126.603 9.34375 126.17 9.34375 125.799C9.34375 125.23 9.50456 124.785 9.82617 124.463C10.1478 124.141 10.6302 123.98 11.2734 123.98C12.0156 123.98 12.696 124.339 13.3145 125.057L22.9629 136.857L32.5742 125.057C33.2174 124.339 33.873 123.98 34.541 123.98C35.2337 123.98 35.7533 124.154 36.0996 124.5C36.4212 124.822 36.582 125.255 36.582 125.799C36.582 126.17 36.3717 126.615 35.9512 127.135L27.5273 137.451H34.1699C34.9121 137.451 35.4564 137.624 35.8027 137.971C36.1491 138.317 36.3223 138.762 36.3223 139.307C36.3223 139.851 36.1615 140.284 35.8398 140.605C35.4688 140.977 34.9121 141.162 34.1699 141.162H25.1152V143.648H34.1699C34.9121 143.648 35.4564 143.822 35.8027 144.168C36.1491 144.514 36.3223 144.96 36.3223 145.504C36.3223 146.048 36.1615 146.469 35.8398 146.766C35.4935 147.137 34.9368 147.322 34.1699 147.322H25.1152Z" fill="#D32B17"/>
<defs>
<linearGradient id="paint0_linear_12851_52118" x1="368" y1="37.7774" x2="78.6673" y2="242.256" gradientUnits="userSpaceOnUse">
<stop stop-color="#CFA359"/>
<stop offset="0.5" stop-color="#F5E6AD"/>
<stop offset="0.954106" stop-color="#CFA359"/>
</linearGradient>
<linearGradient id="paint1_linear_12851_52118" x1="168.659" y1="2.01038e-06" x2="205.945" y2="218.337" gradientUnits="userSpaceOnUse">
<stop offset="0.275" stop-color="#CFA358" stop-opacity="0"/>
<stop offset="0.2751" stop-color="white"/>
<stop offset="0.67" stop-color="#CFA358" stop-opacity="0"/>
<stop offset="0.6701" stop-color="white"/>
</linearGradient>
<linearGradient id="paint2_linear_12851_52118" x1="45" y1="122.767" x2="-2.2414" y2="144.031" gradientUnits="userSpaceOnUse">
<stop stop-color="#CFA359"/>
<stop offset="0.5" stop-color="#F5E6AD"/>
<stop offset="0.954106" stop-color="#CFA359"/>
</linearGradient>
</defs>
</svg>
