<svg width="366" height="214" viewBox="0 0 366 214" fill="none" xmlns="http://www.w3.org/2000/svg">
<mask id="path-1-outside-1_12752_53662" maskUnits="userSpaceOnUse" x="32" y="55" width="334" height="125" fill="black">
<rect fill="white" x="32" y="55" width="334" height="125"/>
<path d="M89.2793 88.832C89.2793 79.0612 82.9108 74.1758 70.1738 74.1758C62.4967 74.1758 55.2122 75.7025 48.3203 78.7559C47.1862 79.2793 46.1829 79.541 45.3105 79.541C43.4785 79.541 41.9082 78.9303 40.5996 77.709C39.3783 76.4004 38.7676 74.7865 38.7676 72.8672C38.7676 70.1628 40.0326 68.069 42.5625 66.5859C51.6354 62.0495 61.5371 59.7812 72.2676 59.7812C78.2871 59.7812 83.6087 60.9154 88.2324 63.1836C93.2051 65.5391 97.0436 68.8978 99.748 73.2598C102.54 77.5345 103.936 82.4635 103.936 88.0469C103.936 93.543 102.365 98.5592 99.2246 103.096C96.3457 107.283 92.9434 111.035 89.0176 114.35C85.0918 117.665 79.2904 121.765 71.6133 126.65C62.8893 132.583 57.4805 136.639 55.3867 138.82C54.5143 139.693 53.7728 140.521 53.1621 141.307H95.9531C97.9596 141.307 99.6608 142.005 101.057 143.4C102.452 144.796 103.15 146.497 103.15 148.504C103.15 150.423 102.452 152.081 101.057 153.477C99.5736 154.872 97.8724 155.57 95.9531 155.57H45.4414C42.9987 155.57 40.9486 154.785 39.291 153.215C37.7207 151.645 36.9355 149.638 36.9355 147.195C36.9355 142.31 38.375 137.817 41.2539 133.717C43.7839 129.965 46.8372 126.65 50.4141 123.771C53.9909 120.893 58.7891 117.534 64.8086 113.695C73.5326 108.112 79.2904 104.055 82.082 101.525C84.7865 99.0827 86.6621 96.8145 87.709 94.7207C88.7559 92.627 89.2793 90.6641 89.2793 88.832ZM112.154 169.834C112.154 167.827 113.026 166.301 114.771 165.254C116.952 163.945 118.522 162.506 119.482 160.936C120.18 159.714 120.616 158.013 120.79 155.832C118.784 155.658 117.039 154.829 115.556 153.346C113.811 151.601 112.939 149.507 112.939 147.064V146.279C112.939 143.837 113.811 141.743 115.556 139.998C117.301 138.253 119.394 137.381 121.837 137.381H123.146C125.501 137.381 127.464 138.21 129.034 139.867C130.954 141.961 132.001 144.622 132.175 147.85C132.262 148.46 132.306 149.464 132.306 150.859C132.306 152.168 132.219 153.302 132.044 154.262C131.085 160.63 129.383 165.472 126.941 168.787C125.283 170.968 123.189 172.844 120.659 174.414C119.7 175.025 118.609 175.33 117.388 175.33C115.992 175.33 114.771 174.763 113.724 173.629C112.677 172.495 112.154 171.23 112.154 169.834ZM173.631 59.7812C185.496 59.7812 194.656 64.0996 201.112 72.7363C207.655 81.2858 210.926 93.1504 210.926 108.33C210.926 125.952 206.651 139.038 198.102 147.588C191.908 153.782 183.838 156.879 173.893 156.879C161.941 156.879 152.781 152.561 146.412 143.924C140.044 135.2 136.86 123.335 136.86 108.33C136.86 93.3249 140.044 81.5039 146.412 72.8672C152.781 64.1432 161.854 59.7812 173.631 59.7812ZM195.877 108.33C195.877 94.8079 192.955 85.1243 187.11 79.2793C183.62 75.7897 179.215 74.0449 173.893 74.0449C167.001 74.0449 161.592 77.0111 157.666 82.9434C153.828 88.7884 151.909 97.2507 151.909 108.33C151.909 121.939 154.831 131.667 160.676 137.512C164.166 141.001 168.571 142.746 173.893 142.746C180.785 142.746 186.15 139.824 189.989 133.979C193.914 128.046 195.877 119.497 195.877 108.33ZM249.111 59.7812C260.976 59.7812 270.136 64.0996 276.591 72.7363C283.134 81.2858 286.406 93.1504 286.406 108.33C286.406 125.952 282.131 139.038 273.582 147.588C267.388 153.782 259.318 156.879 249.373 156.879C237.421 156.879 228.261 152.561 221.892 143.924C215.524 135.2 212.339 123.335 212.339 108.33C212.339 93.3249 215.524 81.5039 221.892 72.8672C228.261 64.1432 237.334 59.7812 249.111 59.7812ZM271.357 108.33C271.357 94.8079 268.434 85.1243 262.589 79.2793C259.1 75.7897 254.694 74.0449 249.373 74.0449C242.481 74.0449 237.072 77.0111 233.146 82.9434C229.308 88.7884 227.388 97.2507 227.388 108.33C227.388 121.939 230.311 131.667 236.156 137.512C239.645 141.001 244.051 142.746 249.373 142.746C256.265 142.746 261.63 139.824 265.468 133.979C269.394 128.046 271.357 119.497 271.357 108.33ZM324.591 59.7812C336.455 59.7812 345.615 64.0996 352.071 72.7363C358.614 81.2858 361.886 93.1504 361.886 108.33C361.886 125.952 357.611 139.038 349.061 147.588C342.867 153.782 334.798 156.879 324.852 156.879C312.901 156.879 303.74 152.561 297.372 143.924C291.003 135.2 287.819 123.335 287.819 108.33C287.819 93.3249 291.003 81.5039 297.372 72.8672C303.74 64.1432 312.813 59.7812 324.591 59.7812ZM346.837 108.33C346.837 94.8079 343.914 85.1243 338.069 79.2793C334.58 75.7897 330.174 74.0449 324.852 74.0449C317.96 74.0449 312.552 77.0111 308.626 82.9434C304.787 88.7884 302.868 97.2507 302.868 108.33C302.868 121.939 305.79 131.667 311.636 137.512C315.125 141.001 319.531 142.746 324.852 142.746C331.744 142.746 337.11 139.824 340.948 133.979C344.874 128.046 346.837 119.497 346.837 108.33Z"/>
</mask>
<path d="M89.2793 88.832C89.2793 79.0612 82.9108 74.1758 70.1738 74.1758C62.4967 74.1758 55.2122 75.7025 48.3203 78.7559C47.1862 79.2793 46.1829 79.541 45.3105 79.541C43.4785 79.541 41.9082 78.9303 40.5996 77.709C39.3783 76.4004 38.7676 74.7865 38.7676 72.8672C38.7676 70.1628 40.0326 68.069 42.5625 66.5859C51.6354 62.0495 61.5371 59.7812 72.2676 59.7812C78.2871 59.7812 83.6087 60.9154 88.2324 63.1836C93.2051 65.5391 97.0436 68.8978 99.748 73.2598C102.54 77.5345 103.936 82.4635 103.936 88.0469C103.936 93.543 102.365 98.5592 99.2246 103.096C96.3457 107.283 92.9434 111.035 89.0176 114.35C85.0918 117.665 79.2904 121.765 71.6133 126.65C62.8893 132.583 57.4805 136.639 55.3867 138.82C54.5143 139.693 53.7728 140.521 53.1621 141.307H95.9531C97.9596 141.307 99.6608 142.005 101.057 143.4C102.452 144.796 103.15 146.497 103.15 148.504C103.15 150.423 102.452 152.081 101.057 153.477C99.5736 154.872 97.8724 155.57 95.9531 155.57H45.4414C42.9987 155.57 40.9486 154.785 39.291 153.215C37.7207 151.645 36.9355 149.638 36.9355 147.195C36.9355 142.31 38.375 137.817 41.2539 133.717C43.7839 129.965 46.8372 126.65 50.4141 123.771C53.9909 120.893 58.7891 117.534 64.8086 113.695C73.5326 108.112 79.2904 104.055 82.082 101.525C84.7865 99.0827 86.6621 96.8145 87.709 94.7207C88.7559 92.627 89.2793 90.6641 89.2793 88.832ZM112.154 169.834C112.154 167.827 113.026 166.301 114.771 165.254C116.952 163.945 118.522 162.506 119.482 160.936C120.18 159.714 120.616 158.013 120.79 155.832C118.784 155.658 117.039 154.829 115.556 153.346C113.811 151.601 112.939 149.507 112.939 147.064V146.279C112.939 143.837 113.811 141.743 115.556 139.998C117.301 138.253 119.394 137.381 121.837 137.381H123.146C125.501 137.381 127.464 138.21 129.034 139.867C130.954 141.961 132.001 144.622 132.175 147.85C132.262 148.46 132.306 149.464 132.306 150.859C132.306 152.168 132.219 153.302 132.044 154.262C131.085 160.63 129.383 165.472 126.941 168.787C125.283 170.968 123.189 172.844 120.659 174.414C119.7 175.025 118.609 175.33 117.388 175.33C115.992 175.33 114.771 174.763 113.724 173.629C112.677 172.495 112.154 171.23 112.154 169.834ZM173.631 59.7812C185.496 59.7812 194.656 64.0996 201.112 72.7363C207.655 81.2858 210.926 93.1504 210.926 108.33C210.926 125.952 206.651 139.038 198.102 147.588C191.908 153.782 183.838 156.879 173.893 156.879C161.941 156.879 152.781 152.561 146.412 143.924C140.044 135.2 136.86 123.335 136.86 108.33C136.86 93.3249 140.044 81.5039 146.412 72.8672C152.781 64.1432 161.854 59.7812 173.631 59.7812ZM195.877 108.33C195.877 94.8079 192.955 85.1243 187.11 79.2793C183.62 75.7897 179.215 74.0449 173.893 74.0449C167.001 74.0449 161.592 77.0111 157.666 82.9434C153.828 88.7884 151.909 97.2507 151.909 108.33C151.909 121.939 154.831 131.667 160.676 137.512C164.166 141.001 168.571 142.746 173.893 142.746C180.785 142.746 186.15 139.824 189.989 133.979C193.914 128.046 195.877 119.497 195.877 108.33ZM249.111 59.7812C260.976 59.7812 270.136 64.0996 276.591 72.7363C283.134 81.2858 286.406 93.1504 286.406 108.33C286.406 125.952 282.131 139.038 273.582 147.588C267.388 153.782 259.318 156.879 249.373 156.879C237.421 156.879 228.261 152.561 221.892 143.924C215.524 135.2 212.339 123.335 212.339 108.33C212.339 93.3249 215.524 81.5039 221.892 72.8672C228.261 64.1432 237.334 59.7812 249.111 59.7812ZM271.357 108.33C271.357 94.8079 268.434 85.1243 262.589 79.2793C259.1 75.7897 254.694 74.0449 249.373 74.0449C242.481 74.0449 237.072 77.0111 233.146 82.9434C229.308 88.7884 227.388 97.2507 227.388 108.33C227.388 121.939 230.311 131.667 236.156 137.512C239.645 141.001 244.051 142.746 249.373 142.746C256.265 142.746 261.63 139.824 265.468 133.979C269.394 128.046 271.357 119.497 271.357 108.33ZM324.591 59.7812C336.455 59.7812 345.615 64.0996 352.071 72.7363C358.614 81.2858 361.886 93.1504 361.886 108.33C361.886 125.952 357.611 139.038 349.061 147.588C342.867 153.782 334.798 156.879 324.852 156.879C312.901 156.879 303.74 152.561 297.372 143.924C291.003 135.2 287.819 123.335 287.819 108.33C287.819 93.3249 291.003 81.5039 297.372 72.8672C303.74 64.1432 312.813 59.7812 324.591 59.7812ZM346.837 108.33C346.837 94.8079 343.914 85.1243 338.069 79.2793C334.58 75.7897 330.174 74.0449 324.852 74.0449C317.96 74.0449 312.552 77.0111 308.626 82.9434C304.787 88.7884 302.868 97.2507 302.868 108.33C302.868 121.939 305.79 131.667 311.636 137.512C315.125 141.001 319.531 142.746 324.852 142.746C331.744 142.746 337.11 139.824 340.948 133.979C344.874 128.046 346.837 119.497 346.837 108.33Z" fill="url(#paint0_linear_12752_53662)"/>
<path d="M89.2793 88.832C89.2793 79.0612 82.9108 74.1758 70.1738 74.1758C62.4967 74.1758 55.2122 75.7025 48.3203 78.7559C47.1862 79.2793 46.1829 79.541 45.3105 79.541C43.4785 79.541 41.9082 78.9303 40.5996 77.709C39.3783 76.4004 38.7676 74.7865 38.7676 72.8672C38.7676 70.1628 40.0326 68.069 42.5625 66.5859C51.6354 62.0495 61.5371 59.7812 72.2676 59.7812C78.2871 59.7812 83.6087 60.9154 88.2324 63.1836C93.2051 65.5391 97.0436 68.8978 99.748 73.2598C102.54 77.5345 103.936 82.4635 103.936 88.0469C103.936 93.543 102.365 98.5592 99.2246 103.096C96.3457 107.283 92.9434 111.035 89.0176 114.35C85.0918 117.665 79.2904 121.765 71.6133 126.65C62.8893 132.583 57.4805 136.639 55.3867 138.82C54.5143 139.693 53.7728 140.521 53.1621 141.307H95.9531C97.9596 141.307 99.6608 142.005 101.057 143.4C102.452 144.796 103.15 146.497 103.15 148.504C103.15 150.423 102.452 152.081 101.057 153.477C99.5736 154.872 97.8724 155.57 95.9531 155.57H45.4414C42.9987 155.57 40.9486 154.785 39.291 153.215C37.7207 151.645 36.9355 149.638 36.9355 147.195C36.9355 142.31 38.375 137.817 41.2539 133.717C43.7839 129.965 46.8372 126.65 50.4141 123.771C53.9909 120.893 58.7891 117.534 64.8086 113.695C73.5326 108.112 79.2904 104.055 82.082 101.525C84.7865 99.0827 86.6621 96.8145 87.709 94.7207C88.7559 92.627 89.2793 90.6641 89.2793 88.832ZM112.154 169.834C112.154 167.827 113.026 166.301 114.771 165.254C116.952 163.945 118.522 162.506 119.482 160.936C120.18 159.714 120.616 158.013 120.79 155.832C118.784 155.658 117.039 154.829 115.556 153.346C113.811 151.601 112.939 149.507 112.939 147.064V146.279C112.939 143.837 113.811 141.743 115.556 139.998C117.301 138.253 119.394 137.381 121.837 137.381H123.146C125.501 137.381 127.464 138.21 129.034 139.867C130.954 141.961 132.001 144.622 132.175 147.85C132.262 148.46 132.306 149.464 132.306 150.859C132.306 152.168 132.219 153.302 132.044 154.262C131.085 160.63 129.383 165.472 126.941 168.787C125.283 170.968 123.189 172.844 120.659 174.414C119.7 175.025 118.609 175.33 117.388 175.33C115.992 175.33 114.771 174.763 113.724 173.629C112.677 172.495 112.154 171.23 112.154 169.834ZM173.631 59.7812C185.496 59.7812 194.656 64.0996 201.112 72.7363C207.655 81.2858 210.926 93.1504 210.926 108.33C210.926 125.952 206.651 139.038 198.102 147.588C191.908 153.782 183.838 156.879 173.893 156.879C161.941 156.879 152.781 152.561 146.412 143.924C140.044 135.2 136.86 123.335 136.86 108.33C136.86 93.3249 140.044 81.5039 146.412 72.8672C152.781 64.1432 161.854 59.7812 173.631 59.7812ZM195.877 108.33C195.877 94.8079 192.955 85.1243 187.11 79.2793C183.62 75.7897 179.215 74.0449 173.893 74.0449C167.001 74.0449 161.592 77.0111 157.666 82.9434C153.828 88.7884 151.909 97.2507 151.909 108.33C151.909 121.939 154.831 131.667 160.676 137.512C164.166 141.001 168.571 142.746 173.893 142.746C180.785 142.746 186.15 139.824 189.989 133.979C193.914 128.046 195.877 119.497 195.877 108.33ZM249.111 59.7812C260.976 59.7812 270.136 64.0996 276.591 72.7363C283.134 81.2858 286.406 93.1504 286.406 108.33C286.406 125.952 282.131 139.038 273.582 147.588C267.388 153.782 259.318 156.879 249.373 156.879C237.421 156.879 228.261 152.561 221.892 143.924C215.524 135.2 212.339 123.335 212.339 108.33C212.339 93.3249 215.524 81.5039 221.892 72.8672C228.261 64.1432 237.334 59.7812 249.111 59.7812ZM271.357 108.33C271.357 94.8079 268.434 85.1243 262.589 79.2793C259.1 75.7897 254.694 74.0449 249.373 74.0449C242.481 74.0449 237.072 77.0111 233.146 82.9434C229.308 88.7884 227.388 97.2507 227.388 108.33C227.388 121.939 230.311 131.667 236.156 137.512C239.645 141.001 244.051 142.746 249.373 142.746C256.265 142.746 261.63 139.824 265.468 133.979C269.394 128.046 271.357 119.497 271.357 108.33ZM324.591 59.7812C336.455 59.7812 345.615 64.0996 352.071 72.7363C358.614 81.2858 361.886 93.1504 361.886 108.33C361.886 125.952 357.611 139.038 349.061 147.588C342.867 153.782 334.798 156.879 324.852 156.879C312.901 156.879 303.74 152.561 297.372 143.924C291.003 135.2 287.819 123.335 287.819 108.33C287.819 93.3249 291.003 81.5039 297.372 72.8672C303.74 64.1432 312.813 59.7812 324.591 59.7812ZM346.837 108.33C346.837 94.8079 343.914 85.1243 338.069 79.2793C334.58 75.7897 330.174 74.0449 324.852 74.0449C317.96 74.0449 312.552 77.0111 308.626 82.9434C304.787 88.7884 302.868 97.2507 302.868 108.33C302.868 121.939 305.79 131.667 311.636 137.512C315.125 141.001 319.531 142.746 324.852 142.746C331.744 142.746 337.11 139.824 340.948 133.979C344.874 128.046 346.837 119.497 346.837 108.33Z" fill="url(#paint1_linear_12752_53662)" fill-opacity="0.3"/>
<path d="M48.3203 78.7559L46.7001 75.0987L46.672 75.1111L46.6441 75.124L48.3203 78.7559ZM40.5996 77.709L37.6754 80.4383L37.7695 80.5391L37.8703 80.6332L40.5996 77.709ZM42.5625 66.5859L40.7736 63.0082L40.6545 63.0678L40.5396 63.1351L42.5625 66.5859ZM88.2324 63.1836L86.4707 66.7748L86.4953 66.7868L86.5201 66.7985L88.2324 63.1836ZM99.748 73.2598L96.3484 75.3675L96.3732 75.4075L96.399 75.4469L99.748 73.2598ZM99.2246 103.096L95.9358 100.819L95.9284 100.83L99.2246 103.096ZM71.6133 126.65L69.4658 123.276L69.4144 123.308L69.364 123.343L71.6133 126.65ZM55.3867 138.82L58.2151 141.649L58.244 141.62L58.2723 141.59L55.3867 138.82ZM53.1621 141.307L50.0047 138.851L44.9836 145.307H53.1621V141.307ZM101.057 153.477L103.798 156.389L103.842 156.348L103.885 156.305L101.057 153.477ZM39.291 153.215L36.4626 156.043L36.5008 156.081L36.54 156.119L39.291 153.215ZM41.2539 133.717L44.5276 136.015L44.5492 135.985L44.5702 135.953L41.2539 133.717ZM64.8086 113.695L66.9593 117.068L66.9648 117.064L64.8086 113.695ZM82.082 101.525L79.4009 98.557L79.396 98.5614L82.082 101.525ZM93.2793 88.832C93.2793 83.0041 91.3253 78.0321 86.9376 74.6661C82.7506 71.4542 76.9414 70.1758 70.1738 70.1758V78.1758C76.1433 78.1758 79.8867 79.3401 82.0683 81.0136C84.049 82.5331 85.2793 84.8892 85.2793 88.832H93.2793ZM70.1738 70.1758C61.9492 70.1758 54.1118 71.815 46.7001 75.0987L49.9406 82.413C56.3126 79.5899 63.0442 78.1758 70.1738 78.1758V70.1758ZM46.6441 75.124C45.8251 75.502 45.4102 75.541 45.3105 75.541V83.541C46.9556 83.541 48.5473 83.0566 49.9965 82.3877L46.6441 75.124ZM45.3105 75.541C44.4653 75.541 43.8777 75.297 43.3289 74.7848L37.8703 80.6332C39.9387 82.5636 42.4917 83.541 45.3105 83.541V75.541ZM43.5238 74.9797C43.0466 74.4684 42.7676 73.8534 42.7676 72.8672H34.7676C34.7676 75.7195 35.7099 78.3324 37.6754 80.4383L43.5238 74.9797ZM42.7676 72.8672C42.7676 71.722 43.1547 70.8754 44.5854 70.0367L40.5396 63.1351C36.9104 65.2626 34.7676 68.6035 34.7676 72.8672H42.7676ZM44.3514 70.1636C52.8368 65.9209 62.1212 63.7812 72.2676 63.7812V55.7812C60.953 55.7812 50.434 58.178 40.7736 63.0082L44.3514 70.1636ZM72.2676 63.7812C77.7791 63.7812 82.4807 64.8174 86.4707 66.7748L89.9941 59.5924C84.7368 57.0134 78.7951 55.7812 72.2676 55.7812V63.7812ZM86.5201 66.7985C90.8494 68.8493 94.0792 71.7075 96.3484 75.3675L103.148 71.152C100.008 66.0881 95.5607 62.2288 89.9448 59.5686L86.5201 66.7985ZM96.399 75.4469C98.7263 79.0107 99.9355 83.1647 99.9355 88.0469H107.936C107.936 81.7624 106.353 76.0583 103.097 71.0726L96.399 75.4469ZM99.9355 88.0469C99.9355 92.726 98.6153 96.9486 95.9358 100.819L102.513 105.373C106.115 100.17 107.936 94.36 107.936 88.0469H99.9355ZM95.9284 100.83C93.254 104.72 90.0931 108.206 86.4369 111.293L91.5983 117.406C95.7937 113.863 99.4374 109.847 102.521 105.362L95.9284 100.83ZM86.4369 111.293C82.7141 114.437 77.0877 118.425 69.4658 123.276L73.7608 130.025C81.493 125.105 87.4695 120.892 91.5983 117.406L86.4369 111.293ZM69.364 123.343C60.738 129.208 54.9433 133.506 52.5012 136.05L58.2723 141.59C60.0176 139.772 65.0406 135.957 73.8625 129.958L69.364 123.343ZM52.5583 135.992C51.5952 136.955 50.7379 137.908 50.0047 138.851L56.3195 143.762C56.8076 143.135 57.4334 142.43 58.2151 141.649L52.5583 135.992ZM53.1621 145.307H95.9531V137.307H53.1621V145.307ZM95.9531 145.307C96.9184 145.307 97.5963 145.597 98.2282 146.229L103.885 140.572C101.725 138.412 99.0009 137.307 95.9531 137.307V145.307ZM98.2282 146.229C98.8602 146.861 99.1504 147.539 99.1504 148.504H107.15C107.15 145.456 106.045 142.732 103.885 140.572L98.2282 146.229ZM99.1504 148.504C99.1504 149.329 98.8978 149.979 98.2282 150.648L103.885 156.305C106.007 154.183 107.15 151.517 107.15 148.504H99.1504ZM98.3152 150.564C97.5242 151.308 96.787 151.57 95.9531 151.57V159.57C98.9578 159.57 101.623 158.437 103.798 156.389L98.3152 150.564ZM95.9531 151.57H45.4414V159.57H95.9531V151.57ZM45.4414 151.57C43.9437 151.57 42.9015 151.125 42.042 150.311L36.54 156.119C38.9957 158.445 42.0537 159.57 45.4414 159.57V151.57ZM42.1194 150.386C41.3778 149.645 40.9355 148.694 40.9355 147.195H32.9355C32.9355 150.582 34.0636 153.644 36.4626 156.043L42.1194 150.386ZM40.9355 147.195C40.9355 143.155 42.1085 139.461 44.5276 136.015L37.9803 131.418C34.6415 136.173 32.9355 141.465 32.9355 147.195H40.9355ZM44.5702 135.953C46.8729 132.539 49.6525 129.519 52.9221 126.888L47.906 120.655C44.022 123.782 40.6948 127.392 37.9376 131.48L44.5702 135.953ZM52.9221 126.888C56.3402 124.136 61.0037 120.866 66.9593 117.068L62.6579 110.323C56.5744 114.202 51.6415 117.649 47.906 120.655L52.9221 126.888ZM66.9648 117.064C75.6595 111.5 81.6928 107.276 84.7681 104.489L79.396 98.5614C76.8879 100.834 71.4056 104.724 62.6524 110.326L66.9648 117.064ZM84.7632 104.494C87.6542 101.883 89.9283 99.2263 91.2867 96.5096L84.1313 92.9318C83.3959 94.4026 81.9187 96.2828 79.4009 98.557L84.7632 104.494ZM91.2867 96.5096C92.5365 94.01 93.2793 91.4331 93.2793 88.832H85.2793C85.2793 89.895 84.9753 91.2439 84.1313 92.9318L91.2867 96.5096ZM119.482 160.936L122.895 163.021L122.925 162.971L122.955 162.92L119.482 160.936ZM120.79 155.832L124.777 156.151L125.094 152.191L121.137 151.847L120.79 155.832ZM129.034 139.867L131.983 137.164L131.961 137.14L131.938 137.116L129.034 139.867ZM132.175 147.85L128.181 148.066L128.19 148.241L128.215 148.415L132.175 147.85ZM132.044 154.262L128.109 153.546L128.098 153.606L128.089 153.666L132.044 154.262ZM126.941 168.787L130.125 171.207L130.143 171.184L130.161 171.16L126.941 168.787ZM120.659 174.414L118.55 171.016L118.531 171.027L118.512 171.039L120.659 174.414ZM116.154 169.834C116.154 169.427 116.236 169.247 116.281 169.169C116.327 169.088 116.451 168.911 116.829 168.684L112.713 161.824C109.784 163.581 108.154 166.398 108.154 169.834H116.154ZM116.829 168.684C119.363 167.163 121.495 165.312 122.895 163.021L116.069 158.85C115.549 159.699 114.54 160.727 112.713 161.824L116.829 168.684ZM122.955 162.92C124.061 160.983 124.58 158.626 124.777 156.151L116.803 155.513C116.652 157.4 116.298 158.445 116.009 158.951L122.955 162.92ZM121.137 151.847C120.109 151.758 119.232 151.365 118.384 150.517L112.727 156.174C114.846 158.293 117.458 159.557 120.444 159.817L121.137 151.847ZM118.384 150.517C117.381 149.514 116.939 148.434 116.939 147.064H108.939C108.939 150.58 110.241 153.688 112.727 156.174L118.384 150.517ZM116.939 147.064V146.279H108.939V147.064H116.939ZM116.939 146.279C116.939 144.91 117.381 143.83 118.384 142.826L112.727 137.17C110.241 139.656 108.939 142.764 108.939 146.279H116.939ZM118.384 142.826C119.387 141.823 120.467 141.381 121.837 141.381V133.381C118.321 133.381 115.214 134.683 112.727 137.17L118.384 142.826ZM121.837 141.381H123.146V133.381H121.837V141.381ZM123.146 141.381C124.442 141.381 125.342 141.786 126.131 142.618L131.938 137.116C129.586 134.633 126.56 133.381 123.146 133.381V141.381ZM126.086 142.57C127.293 143.887 128.049 145.628 128.181 148.066L136.169 147.634C135.952 143.616 134.614 140.034 131.983 137.164L126.086 142.57ZM128.215 148.415C128.259 148.721 128.306 149.477 128.306 150.859H136.306C136.306 149.45 136.266 148.199 136.135 147.284L128.215 148.415ZM128.306 150.859C128.306 152.004 128.229 152.887 128.109 153.546L135.98 154.977C136.209 153.717 136.306 152.332 136.306 150.859H128.306ZM128.089 153.666C127.177 159.719 125.619 163.837 123.72 166.414L130.161 171.16C133.147 167.107 134.992 161.541 135.999 154.858L128.089 153.666ZM123.756 166.367C122.419 168.126 120.701 169.68 118.55 171.016L122.769 177.813C125.678 176.007 128.147 173.81 130.125 171.207L123.756 166.367ZM118.512 171.039C118.242 171.211 117.907 171.33 117.388 171.33V179.33C119.311 179.33 121.158 178.838 122.807 177.789L118.512 171.039ZM117.388 171.33C117.233 171.33 117.042 171.326 116.663 170.916L110.785 176.342C112.5 178.2 114.751 179.33 117.388 179.33V171.33ZM116.663 170.916C116.22 170.436 116.154 170.115 116.154 169.834H108.154C108.154 172.345 109.134 174.554 110.785 176.342L116.663 170.916ZM201.112 72.7363L197.908 75.1311L197.921 75.1493L197.935 75.1673L201.112 72.7363ZM198.102 147.588L195.274 144.759L198.102 147.588ZM146.412 143.924L143.182 146.282L143.187 146.29L143.193 146.298L146.412 143.924ZM146.412 72.8672L149.632 75.2411L149.638 75.2334L149.643 75.2256L146.412 72.8672ZM157.666 82.9434L154.331 80.7359L154.323 80.7476L157.666 82.9434ZM189.989 133.979L186.653 131.771L186.645 131.783L189.989 133.979ZM173.631 63.7812C184.381 63.7812 192.291 67.6163 197.908 75.1311L204.316 70.3415C197.021 60.5829 186.611 55.7812 173.631 55.7812V63.7812ZM197.935 75.1673C203.764 82.7835 206.926 93.6777 206.926 108.33H214.926C214.926 92.6231 211.545 79.7881 204.288 70.3053L197.935 75.1673ZM206.926 108.33C206.926 125.377 202.788 137.245 195.274 144.759L200.93 150.416C210.515 140.832 214.926 126.528 214.926 108.33H206.926ZM195.274 144.759C189.933 150.1 182.934 152.879 173.893 152.879V160.879C184.743 160.879 193.882 157.464 200.93 150.416L195.274 144.759ZM173.893 152.879C163.045 152.879 155.153 149.037 149.632 141.55L143.193 146.298C150.409 156.084 160.837 160.879 173.893 160.879V152.879ZM149.643 141.565C143.936 133.747 140.86 122.809 140.86 108.33H132.86C132.86 123.861 136.152 136.653 143.182 146.282L149.643 141.565ZM140.86 108.33C140.86 93.8477 143.937 82.9642 149.632 75.2411L143.193 70.4933C136.151 80.0436 132.86 92.8021 132.86 108.33H140.86ZM149.643 75.2256C155.183 67.6371 162.997 63.7812 173.631 63.7812V55.7812C160.711 55.7812 150.379 60.6494 143.182 70.5087L149.643 75.2256ZM199.877 108.33C199.877 94.3901 196.89 83.4031 189.938 76.4509L184.281 82.1077C189.019 86.8456 191.877 95.2258 191.877 108.33H199.877ZM189.938 76.4509C185.636 72.1486 180.184 70.0449 173.893 70.0449V78.0449C178.246 78.0449 181.604 79.4308 184.281 82.1077L189.938 76.4509ZM173.893 70.0449C165.608 70.0449 158.969 73.7276 154.331 80.7359L161.002 85.1508C164.216 80.2946 168.394 78.0449 173.893 78.0449V70.0449ZM154.323 80.7476C149.873 87.5233 147.909 96.8883 147.909 108.33H155.909C155.909 97.613 157.783 90.0535 161.01 85.1391L154.323 80.7476ZM147.909 108.33C147.909 122.348 150.892 133.384 157.848 140.34L163.505 134.683C158.771 129.949 155.909 121.53 155.909 108.33H147.909ZM157.848 140.34C162.15 144.642 167.602 146.746 173.893 146.746V138.746C169.54 138.746 166.182 137.36 163.505 134.683L157.848 140.34ZM173.893 146.746C182.156 146.746 188.767 143.125 193.332 136.174L186.645 131.783C183.533 136.522 179.414 138.746 173.893 138.746V146.746ZM193.324 136.186C197.865 129.324 199.877 119.87 199.877 108.33H191.877C191.877 119.124 189.964 126.768 186.653 131.771L193.324 136.186ZM276.591 72.7363L273.388 75.1311L273.401 75.1493L273.415 75.1673L276.591 72.7363ZM273.582 147.588L270.753 144.759L273.582 147.588ZM221.892 143.924L218.661 146.282L218.667 146.29L218.673 146.298L221.892 143.924ZM221.892 72.8672L225.112 75.2411L225.117 75.2334L225.123 75.2256L221.892 72.8672ZM233.146 82.9434L229.81 80.7359L229.803 80.7476L233.146 82.9434ZM265.468 133.979L262.133 131.771L262.125 131.783L265.468 133.979ZM249.111 63.7812C259.86 63.7812 267.77 67.6163 273.388 75.1311L279.795 70.3415C272.501 60.5829 262.091 55.7812 249.111 55.7812V63.7812ZM273.415 75.1673C279.244 82.7835 282.406 93.6777 282.406 108.33H290.406C290.406 92.6231 287.025 79.7881 279.768 70.3053L273.415 75.1673ZM282.406 108.33C282.406 125.377 278.268 137.245 270.753 144.759L276.41 150.416C285.994 140.832 290.406 126.528 290.406 108.33H282.406ZM270.753 144.759C265.413 150.1 258.413 152.879 249.373 152.879V160.879C260.223 160.879 269.362 157.464 276.41 150.416L270.753 144.759ZM249.373 152.879C238.525 152.879 230.632 149.037 225.112 141.55L218.673 146.298C225.889 156.084 236.317 160.879 249.373 160.879V152.879ZM225.123 141.565C219.416 133.747 216.339 122.809 216.339 108.33H208.339C208.339 123.861 211.632 136.653 218.661 146.282L225.123 141.565ZM216.339 108.33C216.339 93.8477 219.417 82.9642 225.112 75.2411L218.673 70.4933C211.631 80.0436 208.339 92.8021 208.339 108.33H216.339ZM225.123 75.2256C230.663 67.6371 238.477 63.7812 249.111 63.7812V55.7812C236.191 55.7812 225.859 60.6494 218.661 70.5087L225.123 75.2256ZM275.357 108.33C275.357 94.3901 272.37 83.4031 265.418 76.4509L259.761 82.1077C264.499 86.8456 267.357 95.2258 267.357 108.33H275.357ZM265.418 76.4509C261.116 72.1486 255.663 70.0449 249.373 70.0449V78.0449C253.725 78.0449 257.084 79.4308 259.761 82.1077L265.418 76.4509ZM249.373 70.0449C241.087 70.0449 234.448 73.7276 229.81 80.7359L236.482 85.1508C239.696 80.2946 243.874 78.0449 249.373 78.0449V70.0449ZM229.803 80.7476C225.353 87.5233 223.388 96.8883 223.388 108.33H231.388C231.388 97.613 233.262 90.0535 236.49 85.1391L229.803 80.7476ZM223.388 108.33C223.388 122.348 226.371 133.384 233.327 140.34L238.984 134.683C234.25 129.949 231.388 121.53 231.388 108.33H223.388ZM233.327 140.34C237.63 144.642 243.082 146.746 249.373 146.746V138.746C245.02 138.746 241.661 137.36 238.984 134.683L233.327 140.34ZM249.373 146.746C257.635 146.746 264.247 143.125 268.812 136.174L262.125 131.783C259.013 136.522 254.894 138.746 249.373 138.746V146.746ZM268.804 136.186C273.345 129.324 275.357 119.87 275.357 108.33H267.357C267.357 119.124 265.443 126.768 262.133 131.771L268.804 136.186ZM352.071 72.7363L348.867 75.1311L348.881 75.1493L348.895 75.1673L352.071 72.7363ZM349.061 147.588L346.233 144.759L349.061 147.588ZM297.372 143.924L294.141 146.282L294.147 146.29L294.152 146.298L297.372 143.924ZM297.372 72.8672L300.591 75.2411L300.597 75.2334L300.603 75.2256L297.372 72.8672ZM308.626 82.9434L305.29 80.7359L305.282 80.7476L308.626 82.9434ZM340.948 133.979L337.612 131.771L337.605 131.783L340.948 133.979ZM324.591 63.7812C335.34 63.7812 343.25 67.6163 348.867 75.1311L355.275 70.3415C347.981 60.5829 337.57 55.7812 324.591 55.7812V63.7812ZM348.895 75.1673C354.723 82.7835 357.886 93.6777 357.886 108.33H365.886C365.886 92.6231 362.505 79.7881 355.248 70.3053L348.895 75.1673ZM357.886 108.33C357.886 125.377 353.748 137.245 346.233 144.759L351.89 150.416C361.474 140.832 365.886 126.528 365.886 108.33H357.886ZM346.233 144.759C340.893 150.1 333.893 152.879 324.852 152.879V160.879C335.702 160.879 344.842 157.464 351.89 150.416L346.233 144.759ZM324.852 152.879C314.004 152.879 306.112 149.037 300.591 141.55L294.152 146.298C301.369 156.084 311.797 160.879 324.852 160.879V152.879ZM300.603 141.565C294.895 133.747 291.819 122.809 291.819 108.33H283.819C283.819 123.861 287.112 136.653 294.141 146.282L300.603 141.565ZM291.819 108.33C291.819 93.8477 294.896 82.9642 300.591 75.2411L294.152 70.4933C287.11 80.0436 283.819 92.8021 283.819 108.33H291.819ZM300.603 75.2256C306.142 67.6371 313.956 63.7812 324.591 63.7812V55.7812C311.67 55.7812 301.338 60.6494 294.141 70.5087L300.603 75.2256ZM350.837 108.33C350.837 94.3901 347.85 83.4031 340.898 76.4509L335.241 82.1077C339.979 86.8456 342.837 95.2258 342.837 108.33H350.837ZM340.898 76.4509C336.595 72.1486 331.143 70.0449 324.852 70.0449V78.0449C329.205 78.0449 332.564 79.4308 335.241 82.1077L340.898 76.4509ZM324.852 70.0449C316.567 70.0449 309.928 73.7276 305.29 80.7359L311.962 85.1508C315.175 80.2946 319.354 78.0449 324.852 78.0449V70.0449ZM305.282 80.7476C300.833 87.5233 298.868 96.8883 298.868 108.33H306.868C306.868 97.613 308.742 90.0535 311.969 85.1391L305.282 80.7476ZM298.868 108.33C298.868 122.348 301.851 133.384 308.807 140.34L314.464 134.683C309.73 129.949 306.868 121.53 306.868 108.33H298.868ZM308.807 140.34C313.109 144.642 318.562 146.746 324.852 146.746V138.746C320.5 138.746 317.141 137.36 314.464 134.683L308.807 140.34ZM324.852 146.746C333.115 146.746 339.727 143.125 344.292 136.174L337.605 131.783C334.492 136.522 330.373 138.746 324.852 138.746V146.746ZM344.284 136.186C348.825 129.324 350.837 119.87 350.837 108.33H342.837C342.837 119.124 340.923 126.768 337.612 131.771L344.284 136.186Z" fill="#D32B17" mask="url(#path-1-outside-1_12752_53662)"/>
<path d="M23 153C35.1503 153 45 143.15 45 131C45 118.85 35.1503 109 23 109C10.8497 109 1 118.85 1 131C1 143.15 10.8497 153 23 153Z" fill="url(#paint2_linear_12752_53662)" stroke="#D32B17" stroke-width="2"/>
<path d="M19.39 128.75L12.47 117.15C12.18 116.64 12.04 116.15 12.04 115.67C12.04 115.19 12.25 114.81 12.66 114.52C13.07 114.2 13.56 114.04 14.12 114.04C14.68 114.04 15.18 114.42 15.62 115.19L23.4 128.31L31.18 115.19C31.66 114.4 32.14 114 32.64 114C33.13 114 33.62 114.16 34.1 114.48C34.61 114.8 34.86 115.17 34.86 115.6C34.86 116.03 34.68 116.55 34.33 117.15L27.41 128.75H32.95C34.22 128.75 34.86 129.39 34.86 130.66C34.86 131.9 34.22 132.52 32.95 132.52H25.36V135.53H32.95C34.22 135.53 34.86 136.17 34.86 137.44C34.86 138.68 34.22 139.3 32.95 139.3H25.36V145.6C25.36 146.46 25.23 147.06 24.98 147.41C24.73 147.76 24.2 147.94 23.41 147.94C22.61 147.94 22.08 147.77 21.81 147.41C21.54 147.06 21.4 146.46 21.4 145.6V139.3H13.91C12.64 139.3 12 138.66 12 137.39C12 136.69 12.15 136.21 12.45 135.93C12.75 135.66 13.21 135.52 13.81 135.52H21.4V132.51H13.91C12.64 132.51 12 131.87 12 130.6C12 129.9 12.15 129.41 12.45 129.14C12.75 128.87 13.21 128.73 13.81 128.73H19.39V128.75Z" fill="#D32B17"/>
<defs>
<linearGradient id="paint0_linear_12752_53662" x1="366" y1="37.7774" x2="76.6673" y2="242.256" gradientUnits="userSpaceOnUse">
<stop stop-color="#CFA359"/>
<stop offset="0.5" stop-color="#F5E6AD"/>
<stop offset="0.954106" stop-color="#CFA359"/>
</linearGradient>
<linearGradient id="paint1_linear_12752_53662" x1="166.659" y1="2.01038e-06" x2="203.945" y2="218.337" gradientUnits="userSpaceOnUse">
<stop offset="0.275" stop-color="#CFA358" stop-opacity="0"/>
<stop offset="0.2751" stop-color="white"/>
<stop offset="0.67" stop-color="#CFA358" stop-opacity="0"/>
<stop offset="0.6701" stop-color="white"/>
</linearGradient>
<linearGradient id="paint2_linear_12752_53662" x1="45" y1="116.767" x2="-2.2414" y2="138.031" gradientUnits="userSpaceOnUse">
<stop stop-color="#CFA359"/>
<stop offset="0.5" stop-color="#F5E6AD"/>
<stop offset="0.954106" stop-color="#CFA359"/>
</linearGradient>
</defs>
</svg>
