<svg width="84" height="15" viewBox="0 0 84 15" fill="none" xmlns="http://www.w3.org/2000/svg">
<path d="M10 9.87008C10 12.7924 7.76142 14.5 5 14.5C2.23858 14.5 0 12.7924 0 9.87008C0 7.6714 2.83033 3.47709 4.23206 1.53467C4.61436 1.0049 5.38564 1.0049 5.76794 1.53467C7.16966 3.47709 10 7.6714 10 9.87008Z" fill="#FF4D42"/>
<path d="M27 9.87008C27 12.7924 24.7614 14.5 22 14.5C19.2386 14.5 17 12.7924 17 9.87008C17 7.6714 19.8303 3.47709 21.2321 1.53467C21.6144 1.0049 22.3856 1.0049 22.7679 1.53467C24.1697 3.47709 27 7.6714 27 9.87008Z" fill="#FF4D42"/>
<path d="M44 9.87008C44 12.7924 41.7614 14.5 39 14.5C36.2386 14.5 34 12.7924 34 9.87008C34 7.6714 36.8303 3.47709 38.2321 1.53467C38.6144 1.0049 39.3856 1.0049 39.7679 1.53467C41.1697 3.47709 44 7.6714 44 9.87008Z" fill="#FDD3E3"/>
<path d="M61 9.87008C61 12.7924 58.7614 14.5 56 14.5C53.2386 14.5 51 12.7924 51 9.87008C51 7.6714 53.8303 3.47709 55.2321 1.53467C55.6144 1.0049 56.3856 1.0049 56.7679 1.53467C58.1697 3.47709 61 7.6714 61 9.87008Z" fill="#FDD3E3"/>
<path d="M78 9.87008C78 12.7924 75.7614 14.5 73 14.5C70.2386 14.5 68 12.7924 68 9.87008C68 7.6714 70.8303 3.47709 72.2321 1.53467C72.6144 1.0049 73.3856 1.0049 73.7679 1.53467C75.1697 3.47709 78 7.6714 78 9.87008Z" fill="#FDD3E3"/>
</svg>
