<svg width="156" height="169" viewBox="0 0 156 169" fill="none" xmlns="http://www.w3.org/2000/svg">
<circle cx="63" cy="63" r="63" fill="#F8CDCD"/>
<mask id="mask0_9042_39801" style="mask-type:alpha" maskUnits="userSpaceOnUse" x="0" y="0" width="126" height="126">
<circle cx="63" cy="63" r="63" fill="#D9D9D9"/>
</mask>
<g mask="url(#mask0_9042_39801)">
<path d="M85.8201 45.8282C83.8202 38.6584 74.6599 34.295 68.6415 36.6352C67.7558 36.9802 66.8841 37.4603 65.9937 37.8519C64.2222 38.6351 64.2222 36.3089 60.0033 37.8519C59.0942 38.1876 55.6632 40.1921 54.7775 39.8472C53.6353 39.4043 51.5981 40.6117 50.4514 40.4392C45.5518 39.6933 41.7991 40.0196 40.1768 45.8282C36.4568 59.1468 45.5472 84.8285 55.3602 84.8285C60.3949 84.8285 57.8403 75.6448 62.9449 75.6448C62.9635 75.6448 62.9822 75.6448 63.0055 75.6448C63.0241 75.6448 63.0428 75.6448 63.0661 75.6448C68.1707 75.6448 65.6161 84.8285 70.6508 84.8285C80.4638 84.8285 89.5495 59.1468 85.8341 45.8282H85.8201Z" fill="#F9F2ED"/>
<mask id="mask1_9042_39801" style="mask-type:luminance" maskUnits="userSpaceOnUse" x="39" y="36" width="48" height="49">
<path d="M85.8201 45.8282C83.8202 38.6584 74.6599 34.295 68.6415 36.6352C67.7558 36.9802 66.8841 37.4603 65.9937 37.8519C64.2222 38.6351 64.2222 36.3089 60.0033 37.8519C59.0942 38.1876 55.6632 40.1921 54.7775 39.8472C53.6353 39.4043 51.5981 40.6117 50.4514 40.4392C45.5518 39.6933 41.7991 40.0196 40.1768 45.8282C36.4568 59.1468 45.5472 84.8285 55.3602 84.8285C60.3949 84.8285 57.8403 75.6448 62.9449 75.6448C62.9635 75.6448 62.9822 75.6448 63.0055 75.6448C63.0241 75.6448 63.0428 75.6448 63.0661 75.6448C68.1707 75.6448 65.6161 84.8285 70.6508 84.8285C80.4638 84.8285 89.5495 59.1468 85.8341 45.8282H85.8201Z" fill="white"/>
</mask>
<g mask="url(#mask1_9042_39801)">
<path d="M79.8895 66.5592C79.5492 66.5592 79.2136 66.5732 78.8826 66.5965C75.8291 66.8156 72.7943 66.2702 69.9647 65.1141C67.1769 63.9766 63.9976 63.3333 60.6272 63.3333C59.3172 63.3333 58.0352 63.4312 56.7952 63.6177C54.2499 63.9999 51.6066 63.3752 49.5881 61.7763C49.0893 61.38 48.5252 61.1562 47.9285 61.1562C45.9007 61.1562 44.2597 63.7109 44.2597 66.8669C44.2597 67.0534 44.2644 67.2352 44.2784 67.417C44.3623 68.7596 43.994 70.0742 43.1922 71.1511C41.4953 73.4353 40.521 76.0832 40.521 78.9129C40.521 87.5185 49.5228 94.4925 60.6318 94.4925C68.5335 94.4925 75.363 90.9589 78.6542 85.8263C78.9152 85.4207 79.3534 85.1783 79.8336 85.1829C79.8569 85.1829 79.8756 85.1829 79.8989 85.1829C86.1736 85.1829 91.2596 81.0153 91.2596 75.8688C91.2596 70.7222 86.1736 66.5546 79.8989 66.5546L79.8895 66.5592Z" fill="url(#paint0_linear_9042_39801)"/>
<path style="mix-blend-mode:multiply" d="M81.6788 38.6906C74.84 35.5485 65.1482 32.882 62.9572 34.9472C62.7101 35.1803 62.3791 35.3015 62.0388 35.2968L40.6879 35.1616C39.6344 35.157 38.9771 36.2991 39.5085 37.2128C41.5597 40.7371 45.6807 43.0913 47.3123 43.6367C50.9392 44.8441 49.9881 41.9305 52.0486 41.4224C54.4541 40.8257 58.0344 42.4153 60.4025 41.9305C60.5797 41.8932 60.7382 41.758 60.878 41.5575C61.3675 40.8629 62.3325 40.7231 62.9478 41.3105C63.2415 41.5855 63.5865 41.8792 64.0014 42.1962C67.3439 44.7415 65.2368 46.5736 66.7472 47.6878C68.2576 48.8019 68.9429 45.4594 70.043 44.3453C71.1432 43.2311 75.0311 40.2476 77.7769 42.7929C80.5227 45.3382 81.2546 45.5387 83.1333 44.8627C84.322 44.4339 84.7742 43.2265 84.9467 42.3967C85.0492 41.9118 84.8814 41.413 84.5085 41.0867L82.0004 38.905C81.9025 38.8211 81.7907 38.7465 81.6741 38.6952L81.6788 38.6906Z" fill="url(#paint1_linear_9042_39801)"/>
</g>
<path d="M47.2176 75.6309H78.7777C94.3527 75.6309 107 88.2782 107 103.853V121.088C107 123.796 104.8 125.996 102.091 125.996H23.9088C21.2003 125.996 19 123.796 19 121.088V103.853C19 88.2782 31.6474 75.6309 47.2223 75.6309H47.2176Z" fill="#FFA09E"/>
<path d="M78.9917 46.2516C80.8471 46.7691 78.9777 48.7783 82.1897 48.1536C85.4016 47.5336 85.8119 45.1608 86.3433 48.2982C86.8841 51.4961 86.8841 55.771 86.4365 57.6217C86.0077 59.3792 81.8027 60.7963 79.3134 57.1695C76.8287 53.5426 75.9336 45.3985 78.9917 46.2516Z" fill="url(#paint2_radial_9042_39801)"/>
<path d="M83.2748 58.4989C82.5568 58.4989 81.1909 58.2565 80.0814 56.6436C78.2634 53.991 77.4802 48.9283 78.3007 47.3713C78.4312 47.1289 78.5151 47.1289 78.5664 47.1289C78.613 47.1289 78.6736 47.1382 78.7389 47.1569C78.9999 47.2315 79.0046 47.2455 79.1071 47.6231C79.247 48.1405 79.536 49.2127 81.163 49.2127C81.5033 49.2127 81.8949 49.1661 82.3657 49.0775C83.7502 48.8071 84.6686 48.2571 85.2793 47.8934C85.2886 47.8888 85.298 47.8794 85.3119 47.8748C85.3446 48.0193 85.3819 48.2104 85.4285 48.4622C85.9832 51.7207 85.9273 55.7905 85.531 57.4081C85.4192 57.8649 84.5055 58.5036 83.2748 58.5036V58.4989Z" fill="white"/>
<path d="M40.9666 57.0118C40.7009 55.3429 40.7755 51.2639 41.8244 51.8839C42.8733 52.5039 42.2905 53.5528 43.0691 55.2637C43.8476 56.9745 46.4861 57.7903 46.5281 59.1469C46.5654 60.5081 42.9152 61.9812 41.9456 60.3496C40.9759 58.718 40.9713 57.0072 40.9713 57.0072L40.9666 57.0118Z" fill="white"/>
<path d="M48.5174 58.0001C47.6177 56.3312 47.8788 52.2521 51.3984 52.8722C54.918 53.4922 52.9601 54.5411 55.566 56.2519C58.1719 57.9628 67.0339 58.7786 67.1645 60.1352C67.295 61.4964 55.0485 62.9695 51.79 61.3379C48.5314 59.7063 48.5174 57.9954 48.5174 57.9954V58.0001Z" fill="white"/>
</g>
<path d="M115 168C137.091 168 155 150.091 155 128C155 105.909 137.091 88 115 88C92.9086 88 75 105.909 75 128C75 150.091 92.9086 168 115 168Z" fill="white" stroke="#00AEFF" stroke-width="2" stroke-miterlimit="10"/>
<mask id="mask2_9042_39801" style="mask-type:luminance" maskUnits="userSpaceOnUse" x="75" y="88" width="80" height="80">
<path d="M115 168C137.091 168 155 150.091 155 128C155 105.909 137.091 88 115 88C92.9086 88 75 105.909 75 128C75 150.091 92.9086 168 115 168Z" fill="white"/>
</mask>
<g mask="url(#mask2_9042_39801)">
<path d="M133.441 118.736C131.779 112.783 124.179 109.166 119.185 111.107C118.453 111.392 117.728 111.788 116.989 112.117C115.517 112.769 113.306 112.754 112.017 112.117C111.292 111.758 110.553 111.392 109.82 111.107C104.827 109.166 97.2265 112.783 95.5644 118.736C92.4819 129.785 100.024 151.099 108.166 151.099C112.346 151.099 110.223 143.477 114.455 143.477C114.47 143.477 114.484 143.477 114.506 143.477C114.521 143.477 114.536 143.477 114.558 143.477C118.797 143.477 116.674 151.099 120.847 151.099C128.989 151.099 136.531 129.785 133.448 118.736H133.441Z" fill="#FFD1D1" stroke="#00AEFF" stroke-width="2" stroke-miterlimit="10"/>
<path d="M102.14 128.549H126.867C139.072 128.549 148.979 138.455 148.979 150.661V164.163C148.979 166.286 147.258 168.007 145.135 168.007H83.8792C81.7558 168.007 80.0352 166.286 80.0352 164.163V150.661C80.0352 138.455 89.9418 128.549 102.148 128.549H102.14Z" fill="#00AEFF"/>
<path d="M144.968 111.936C141.256 111.496 140.348 110.596 139.909 106.876C139.872 106.591 139.455 106.591 139.418 106.876C138.979 110.589 138.078 111.496 134.359 111.936C134.073 111.972 134.073 112.39 134.359 112.426C138.071 112.866 138.979 113.766 139.418 117.486C139.455 117.771 139.872 117.771 139.909 117.486C140.348 113.774 141.249 112.866 144.968 112.426C145.254 112.39 145.254 111.972 144.968 111.936Z" fill="#00AEFF"/>
<path d="M89.5034 122.302C87.2409 122.039 86.6917 121.482 86.4208 119.22C86.3988 119.044 86.1426 119.044 86.1206 119.22C85.857 121.482 85.3005 122.031 83.038 122.302C82.8623 122.324 82.8623 122.58 83.038 122.602C85.3005 122.866 85.8497 123.423 86.1206 125.685C86.1426 125.861 86.3988 125.861 86.4208 125.685C86.6844 123.423 87.2409 122.873 89.5034 122.602C89.6791 122.58 89.6791 122.324 89.5034 122.302Z" fill="#00AEFF"/>
<path d="M106.762 96.588C106.762 99.5681 110.225 101.984 114.508 101.984C118.792 101.984 122.255 99.5681 122.255 96.588C122.255 96.1048 122.16 95.6362 121.984 95.1969C121.896 94.9699 121.677 94.8088 121.435 94.8234C118.828 94.9845 117.086 96.5954 114.809 96.5954C112.531 96.5954 110.254 94.9699 107.552 94.8234C107.34 94.8088 107.135 94.9333 107.055 95.131C106.864 95.5922 106.762 96.0828 106.762 96.588Z" fill="white" stroke="#00AEFF" stroke-width="2" stroke-linecap="round" stroke-linejoin="round"/>
<path d="M133.441 118.736C132.394 114.994 129.011 112.183 125.394 111.092C125.313 115.287 120.473 118.677 114.499 118.677C108.524 118.677 103.684 115.295 103.603 111.092C99.9864 112.183 96.6037 114.994 95.5566 118.736C92.4741 129.785 100.016 151.099 108.158 151.099C112.339 151.099 110.215 143.477 114.447 143.477C114.462 143.477 114.477 143.477 114.499 143.477C114.513 143.477 114.528 143.477 114.55 143.477C118.789 143.477 116.666 151.099 120.839 151.099C128.981 151.099 136.523 129.785 133.441 118.736Z" fill="white" stroke="#00AEFF" stroke-width="2" stroke-linecap="round" stroke-linejoin="round"/>
<path d="M114.508 103.881V109.306" stroke="#00AEFF" stroke-width="2" stroke-linecap="round" stroke-linejoin="round"/>
<path d="M112.488 106.664L114.509 109.373" stroke="#00AEFF" stroke-width="2" stroke-linecap="round" stroke-linejoin="round"/>
<path d="M116.521 106.664L114.508 109.373" stroke="#00AEFF" stroke-width="2" stroke-linecap="round" stroke-linejoin="round"/>
</g>
<defs>
<linearGradient id="paint0_linear_9042_39801" x1="65.8856" y1="94.4925" x2="65.8856" y2="61.1562" gradientUnits="userSpaceOnUse">
<stop stop-color="#CAAA9C"/>
<stop offset="1" stop-color="#F3ECE5"/>
</linearGradient>
<linearGradient id="paint1_linear_9042_39801" x1="62.1507" y1="47.9115" x2="62.1507" y2="34.2199" gradientUnits="userSpaceOnUse">
<stop stop-color="#F2F2F2"/>
<stop offset="1" stop-color="#CCCCCC"/>
</linearGradient>
<radialGradient id="paint2_radial_9042_39801" cx="0" cy="0" r="1" gradientUnits="userSpaceOnUse" gradientTransform="translate(81.9056 52.7331) rotate(-0.81) scale(5.80389 7.60309)">
<stop stop-color="white"/>
<stop offset="1" stop-color="#F2F2F2"/>
</radialGradient>
</defs>
</svg>
