<svg width="156" height="169" viewBox="0 0 156 169" fill="none" xmlns="http://www.w3.org/2000/svg">
<circle cx="63" cy="63" r="63" fill="#F8CDCD"/>
<mask id="mask0_9042_39800" style="mask-type:alpha" maskUnits="userSpaceOnUse" x="0" y="0" width="126" height="126">
<circle cx="63" cy="63" r="63" fill="#D9D9D9"/>
</mask>
<g mask="url(#mask0_9042_39800)">
<path d="M85.8216 46.8282C83.8217 39.6584 74.6613 35.295 68.643 37.6352C67.7573 37.9802 66.8855 38.4603 65.9951 38.8519C64.2236 39.6351 61.5525 39.6164 60.0048 38.8519C59.133 38.423 58.2426 37.9802 57.3569 37.6352C51.3385 35.295 42.1782 39.6584 40.1783 46.8282C36.4582 60.1468 45.5486 85.8284 55.3616 85.8284C60.3963 85.8284 57.8417 76.6448 62.9463 76.6448C62.965 76.6448 62.9836 76.6448 63.0069 76.6448C63.0256 76.6448 63.0442 76.6448 63.0675 76.6448C68.1722 76.6448 65.6175 85.8284 70.6522 85.8284C80.4652 85.8284 89.551 60.1468 85.8356 46.8282H85.8216Z" fill="white"/>
<mask id="mask1_9042_39800" style="mask-type:luminance" maskUnits="userSpaceOnUse" x="39" y="37" width="48" height="49">
<path d="M85.8216 46.8301C83.8217 39.6604 74.6613 35.297 68.643 37.6372C67.7573 37.9821 66.8855 38.4623 65.9951 38.8539C64.2236 39.637 61.5525 39.6184 60.0048 38.8539C59.133 38.425 58.2426 37.9821 57.3569 37.6372C51.3385 35.297 42.1782 39.6604 40.1783 46.8301C36.4582 60.1488 45.5486 85.8304 55.3616 85.8304C60.3963 85.8304 57.8417 76.6467 62.9463 76.6467C62.965 76.6467 62.9836 76.6467 63.0069 76.6467C63.0256 76.6467 63.0442 76.6467 63.0675 76.6467C68.1722 76.6467 65.6175 85.8304 70.6522 85.8304C80.4652 85.8304 89.551 60.1488 85.8356 46.8301H85.8216Z" fill="white"/>
</mask>
<g mask="url(#mask1_9042_39800)">
<path d="M81.1498 70.4559C80.8281 70.4559 80.5158 70.4652 80.2034 70.4885C77.3271 70.6983 74.4695 70.1808 71.7983 69.0946C69.1691 68.0224 66.1762 67.4164 63.0015 67.4164C61.7662 67.4164 60.5588 67.5096 59.3933 67.6821C56.9972 68.0411 54.5032 67.4537 52.6058 65.948C52.135 65.575 51.6035 65.3652 51.0395 65.3652C49.1281 65.3652 47.5804 67.7754 47.5804 70.7449C47.5804 70.9221 47.5851 71.0945 47.5944 71.2624C47.6737 72.5257 47.3287 73.7657 46.5735 74.782C44.9745 76.9357 44.0562 79.4298 44.0562 82.0916C44.0562 90.1984 52.5406 96.7715 63.0015 96.7715C70.4464 96.7715 76.8843 93.443 79.9797 88.6041C80.2221 88.2218 80.637 87.9934 81.0892 87.9981C81.1078 87.9981 81.1311 87.9981 81.1498 87.9981C87.0609 87.9981 91.8578 84.0682 91.8578 79.2246C91.8578 74.3811 87.0655 70.4512 81.1498 70.4512V70.4559Z" fill="#E0CEBD"/>
</g>
<path d="M47.2176 76.1035H78.7777C94.3526 76.1035 107 88.7509 107 104.326V121.56C107 124.269 104.8 126.469 102.091 126.469H23.9088C21.2003 126.469 19 124.269 19 121.56V104.326C19 88.7509 31.6473 76.1035 47.2223 76.1035H47.2176Z" fill="#FFA09E"/>
</g>
<path d="M115 168C137.091 168 155 150.091 155 128C155 105.909 137.091 88 115 88C92.9086 88 75 105.909 75 128C75 150.091 92.9086 168 115 168Z" fill="white" stroke="#00AEFF" stroke-width="2" stroke-miterlimit="10"/>
<mask id="mask2_9042_39800" style="mask-type:luminance" maskUnits="userSpaceOnUse" x="75" y="88" width="80" height="80">
<path d="M115 168C137.091 168 155 150.091 155 128C155 105.909 137.091 88 115 88C92.9086 88 75 105.909 75 128C75 150.091 92.9086 168 115 168Z" fill="white"/>
</mask>
<g mask="url(#mask2_9042_39800)">
<path d="M102.14 128.549H126.867C139.072 128.549 148.979 138.455 148.979 150.661V164.163C148.979 166.286 147.258 168.007 145.135 168.007H83.8792C81.7558 168.007 80.0352 166.286 80.0352 164.163V150.661C80.0352 138.455 89.9418 128.549 102.148 128.549H102.14Z" fill="#00AEFF"/>
<path d="M126.267 148.084C128.954 147.505 131.173 145.631 132.191 143.083C135.097 135.768 136.445 126.696 134.731 120.575C132.959 114.219 124.839 110.361 119.509 112.425C118.726 112.733 117.949 113.158 117.159 113.502C115.592 114.197 113.227 114.183 111.85 113.502C111.081 113.121 110.291 112.726 109.5 112.425C104.169 110.353 96.0494 114.219 94.2774 120.575C92.5787 126.659 93.8967 135.658 96.7669 142.943C97.7481 145.448 99.908 147.3 102.529 147.908C105.151 148.516 108.973 149.065 114.501 149.065C120.029 149.065 123.792 148.611 126.26 148.084H126.267Z" fill="white" stroke="#00AEFF" stroke-width="2" stroke-miterlimit="10"/>
<path d="M110.699 112.945C110.699 112.945 115.693 117.536 118.124 117.888L110.699 112.945Z" fill="white"/>
<path d="M110.699 112.945C110.699 112.945 115.693 117.536 118.124 117.888" stroke="#00AEFF" stroke-width="2" stroke-miterlimit="10" stroke-linecap="round"/>
<path d="M104.734 123.606C113.997 120.267 116.12 124.975 121.89 124.514C127.66 124.06 128.875 120.011 127.66 117.023" fill="white"/>
<path d="M104.734 123.606C113.997 120.267 116.12 124.975 121.89 124.514C127.66 124.06 128.875 120.011 127.66 117.023" stroke="#00AEFF" stroke-width="2" stroke-miterlimit="10" stroke-linecap="round"/>
<path d="M90.2654 120.493C87.278 120.142 86.5605 119.417 86.2017 116.43C86.1724 116.195 85.8356 116.195 85.8136 116.43C85.4622 119.417 84.7373 120.135 81.7499 120.493C81.5156 120.523 81.5156 120.859 81.7499 120.881C84.7373 121.233 85.4549 121.958 85.8136 124.945C85.8429 125.179 86.1797 125.179 86.2017 124.945C86.5532 121.958 87.278 121.24 90.2654 120.881C90.4997 120.852 90.4997 120.515 90.2654 120.493Z" fill="#00AEFF"/>
<path d="M108.503 101.698C106.417 101.449 105.911 100.944 105.662 98.8571C105.64 98.6961 105.406 98.6961 105.391 98.8571C105.142 100.944 104.637 101.449 102.551 101.698C102.389 101.72 102.389 101.954 102.551 101.969C104.637 102.218 105.142 102.723 105.391 104.81C105.413 104.971 105.648 104.971 105.662 104.81C105.911 102.723 106.417 102.218 108.503 101.969C108.664 101.947 108.664 101.713 108.503 101.698Z" fill="#00AEFF"/>
<path d="M142.36 141.516C140.391 141.282 139.915 140.806 139.68 138.836C139.666 138.682 139.439 138.682 139.424 138.836C139.19 140.806 138.714 141.282 136.744 141.516C136.59 141.531 136.59 141.757 136.744 141.772C138.714 142.006 139.19 142.482 139.424 144.452C139.439 144.606 139.666 144.606 139.68 144.452C139.915 142.482 140.391 142.006 142.36 141.772C142.514 141.757 142.514 141.531 142.36 141.516Z" fill="white"/>
<path d="M119.797 115.88L129.389 109.078L136.462 116.144L129.66 125.743" fill="#FFD1D1"/>
<path d="M119.797 115.88L129.389 109.078L136.462 116.144L129.66 125.743" stroke="#00AEFF" stroke-width="2" stroke-linecap="round" stroke-linejoin="round"/>
<path d="M159.32 91.0564L154.484 86.2207L137.114 103.591L141.95 108.427L159.32 91.0564Z" fill="white" stroke="#00AEFF" stroke-width="2" stroke-miterlimit="10"/>
<path d="M143.528 108.005L137.522 101.999C136.83 101.307 135.709 101.307 135.017 101.999L129.917 107.099C129.225 107.791 129.225 108.913 129.917 109.605L135.923 115.61C136.615 116.302 137.737 116.302 138.429 115.61L143.528 110.511C144.22 109.819 144.22 108.697 143.528 108.005Z" fill="white" stroke="#00AEFF" stroke-width="2" stroke-miterlimit="10"/>
<path d="M131.588 117.666L127.363 123.626" stroke="#00AEFF" stroke-width="2" stroke-linecap="round" stroke-linejoin="round"/>
<path d="M127.874 113.947L121.914 118.172" stroke="#00AEFF" stroke-width="2" stroke-linecap="round" stroke-linejoin="round"/>
<path d="M129.727 115.807L124.727 120.808" stroke="#00AEFF" stroke-width="2" stroke-linecap="round" stroke-linejoin="round"/>
<path d="M123.301 98.5369C122.958 98.1938 122.402 98.1938 122.059 98.5369C121.716 98.88 121.716 99.4364 122.059 99.7795L126.801 104.522C127.144 104.865 127.701 104.865 128.044 104.522C128.387 104.179 128.387 103.623 128.044 103.279L123.301 98.5369Z" fill="#00AEFF"/>
<path d="M120.623 103.189L120.615 103.201C120.353 103.604 120.468 104.144 120.871 104.406L124.691 106.887C125.094 107.149 125.634 107.034 125.896 106.63L125.904 106.618C126.166 106.215 126.052 105.675 125.648 105.413L121.828 102.932C121.425 102.67 120.885 102.785 120.623 103.189Z" fill="#00AEFF"/>
<path d="M130.144 102.381L130.156 102.373C130.56 102.111 130.674 101.571 130.412 101.168L127.932 97.3482C127.67 96.9446 127.13 96.8299 126.726 97.092L126.714 97.0999C126.311 97.362 126.196 97.9017 126.458 98.3052L128.938 102.125C129.2 102.528 129.74 102.643 130.144 102.381Z" fill="#00AEFF"/>
<path d="M142.258 117.496C141.915 117.153 141.359 117.153 141.016 117.496C140.673 117.839 140.673 118.395 141.016 118.738L145.758 123.481C146.101 123.824 146.658 123.824 147.001 123.481C147.344 123.138 147.344 122.582 147.001 122.238L142.258 117.496Z" fill="#00AEFF"/>
<path d="M138.911 119.635L138.899 119.643C138.495 119.905 138.38 120.444 138.643 120.848L141.123 124.667C141.385 125.071 141.925 125.186 142.328 124.924L142.341 124.916C142.744 124.654 142.859 124.114 142.597 123.71L140.116 119.891C139.854 119.487 139.315 119.373 138.911 119.635Z" fill="#00AEFF"/>
<path d="M148.435 118.819L148.443 118.807C148.706 118.403 148.591 117.864 148.187 117.602L144.368 115.121C143.964 114.859 143.424 114.974 143.162 115.377L143.154 115.39C142.892 115.793 143.007 116.333 143.411 116.595L147.23 119.075C147.634 119.337 148.173 119.223 148.435 118.819Z" fill="#00AEFF"/>
</g>
</svg>
