<svg width="158" height="30" viewBox="0 0 158 30" fill="none" xmlns="http://www.w3.org/2000/svg">
<path d="M13.476 2.19505C14.214 1.13211 15.786 1.13212 16.524 2.19505L19.9563 7.13875C20.1953 7.48295 20.5437 7.73612 20.9449 7.85703L26.7073 9.59367C27.9463 9.96705 28.432 11.4621 27.6492 12.4924L24.0081 17.2844C23.7546 17.6181 23.6215 18.0277 23.6304 18.4467L23.7595 24.4637C23.7872 25.7574 22.5154 26.6814 21.2936 26.2552L15.611 24.2731C15.2154 24.1351 14.7846 24.1351 14.389 24.2731L8.70636 26.2552C7.48455 26.6814 6.21277 25.7574 6.24052 24.4637L6.36955 18.4467C6.37854 18.0277 6.24544 17.6181 5.99193 17.2844L2.35083 12.4924C1.56797 11.4621 2.05375 9.96705 3.2927 9.59367L9.05508 7.85703C9.45629 7.73612 9.80474 7.48295 10.0437 7.13875L13.476 2.19505Z" fill="#00AEFF"/>
<path d="M13.476 2.19505C14.214 1.13211 15.786 1.13212 16.524 2.19505L19.9563 7.13875C20.1953 7.48295 20.5437 7.73612 20.9449 7.85703L26.7073 9.59367C27.9463 9.96705 28.432 11.4621 27.6492 12.4924L24.0081 17.2844C23.7546 17.6181 23.6215 18.0277 23.6304 18.4467L23.7595 24.4637C23.7872 25.7574 22.5154 26.6814 21.2936 26.2552L15.611 24.2731C15.2154 24.1351 14.7846 24.1351 14.389 24.2731L8.70636 26.2552C7.48455 26.6814 6.21277 25.7574 6.24052 24.4637L6.36955 18.4467C6.37854 18.0277 6.24544 17.6181 5.99193 17.2844L2.35083 12.4924C1.56797 11.4621 2.05375 9.96705 3.2927 9.59367L9.05508 7.85703C9.45629 7.73612 9.80474 7.48295 10.0437 7.13875L13.476 2.19505Z" fill="#00AEFF"/>
<path d="M45.476 2.19505C46.214 1.13211 47.786 1.13212 48.524 2.19505L51.9563 7.13875C52.1953 7.48295 52.5437 7.73612 52.9449 7.85703L58.7073 9.59367C59.9463 9.96705 60.432 11.4621 59.6492 12.4924L56.0081 17.2844C55.7546 17.6181 55.6215 18.0277 55.6304 18.4467L55.7595 24.4637C55.7872 25.7574 54.5154 26.6814 53.2936 26.2552L47.611 24.2731C47.2154 24.1351 46.7846 24.1351 46.389 24.2731L40.7064 26.2552C39.4846 26.6814 38.2128 25.7574 38.2405 24.4637L38.3696 18.4467C38.3785 18.0277 38.2454 17.6181 37.9919 17.2844L34.3508 12.4924C33.568 11.4621 34.0537 9.96705 35.2927 9.59367L41.0551 7.85703C41.4563 7.73612 41.8047 7.48295 42.0437 7.13875L45.476 2.19505Z" fill="#00AEFF"/>
<path d="M45.476 2.19505C46.214 1.13211 47.786 1.13212 48.524 2.19505L51.9563 7.13875C52.1953 7.48295 52.5437 7.73612 52.9449 7.85703L58.7073 9.59367C59.9463 9.96705 60.432 11.4621 59.6492 12.4924L56.0081 17.2844C55.7546 17.6181 55.6215 18.0277 55.6304 18.4467L55.7595 24.4637C55.7872 25.7574 54.5154 26.6814 53.2936 26.2552L47.611 24.2731C47.2154 24.1351 46.7846 24.1351 46.389 24.2731L40.7064 26.2552C39.4846 26.6814 38.2128 25.7574 38.2405 24.4637L38.3696 18.4467C38.3785 18.0277 38.2454 17.6181 37.9919 17.2844L34.3508 12.4924C33.568 11.4621 34.0537 9.96705 35.2927 9.59367L41.0551 7.85703C41.4563 7.73612 41.8047 7.48295 42.0437 7.13875L45.476 2.19505Z" fill="#00AEFF"/>
<path d="M77.476 2.19505C78.214 1.13211 79.786 1.13212 80.524 2.19505L83.9563 7.13875C84.1953 7.48295 84.5437 7.73612 84.9449 7.85703L90.7073 9.59367C91.9463 9.96705 92.432 11.4621 91.6492 12.4924L88.0081 17.2844C87.7546 17.6181 87.6215 18.0277 87.6304 18.4467L87.7595 24.4637C87.7872 25.7574 86.5154 26.6814 85.2936 26.2552L79.611 24.2731C79.2154 24.1351 78.7846 24.1351 78.389 24.2731L72.7064 26.2552C71.4846 26.6814 70.2128 25.7574 70.2405 24.4637L70.3696 18.4467C70.3785 18.0277 70.2454 17.6181 69.9919 17.2844L66.3508 12.4924C65.568 11.4621 66.0537 9.96705 67.2927 9.59367L73.0551 7.85703C73.4563 7.73612 73.8047 7.48295 74.0437 7.13875L77.476 2.19505Z" fill="#00AEFF"/>
<path d="M77.476 2.19505C78.214 1.13211 79.786 1.13212 80.524 2.19505L83.9563 7.13875C84.1953 7.48295 84.5437 7.73612 84.9449 7.85703L90.7073 9.59367C91.9463 9.96705 92.432 11.4621 91.6492 12.4924L88.0081 17.2844C87.7546 17.6181 87.6215 18.0277 87.6304 18.4467L87.7595 24.4637C87.7872 25.7574 86.5154 26.6814 85.2936 26.2552L79.611 24.2731C79.2154 24.1351 78.7846 24.1351 78.389 24.2731L72.7064 26.2552C71.4846 26.6814 70.2128 25.7574 70.2405 24.4637L70.3696 18.4467C70.3785 18.0277 70.2454 17.6181 69.9919 17.2844L66.3508 12.4924C65.568 11.4621 66.0537 9.96705 67.2927 9.59367L73.0551 7.85703C73.4563 7.73612 73.8047 7.48295 74.0437 7.13875L77.476 2.19505Z" fill="#00AEFF"/>
<g opacity="0.4">
<path d="M109.476 2.19505C110.214 1.13211 111.786 1.13212 112.524 2.19505L115.956 7.13875C116.195 7.48295 116.544 7.73612 116.945 7.85703L122.707 9.59367C123.946 9.96705 124.432 11.4621 123.649 12.4924L120.008 17.2844C119.755 17.6181 119.621 18.0277 119.63 18.4467L119.759 24.4637C119.787 25.7574 118.515 26.6814 117.294 26.2552L111.611 24.2731C111.215 24.1351 110.785 24.1351 110.389 24.2731L104.706 26.2552C103.485 26.6814 102.213 25.7574 102.241 24.4637L102.37 18.4467C102.379 18.0277 102.245 17.6181 101.992 17.2844L98.3508 12.4924C97.568 11.4621 98.0537 9.96705 99.2927 9.59367L105.055 7.85703C105.456 7.73612 105.805 7.48295 106.044 7.13875L109.476 2.19505Z" fill="#B9D9FC"/>
<path d="M109.476 2.19505C110.214 1.13211 111.786 1.13212 112.524 2.19505L115.956 7.13875C116.195 7.48295 116.544 7.73612 116.945 7.85703L122.707 9.59367C123.946 9.96705 124.432 11.4621 123.649 12.4924L120.008 17.2844C119.755 17.6181 119.621 18.0277 119.63 18.4467L119.759 24.4637C119.787 25.7574 118.515 26.6814 117.294 26.2552L111.611 24.2731C111.215 24.1351 110.785 24.1351 110.389 24.2731L104.706 26.2552C103.485 26.6814 102.213 25.7574 102.241 24.4637L102.37 18.4467C102.379 18.0277 102.245 17.6181 101.992 17.2844L98.3508 12.4924C97.568 11.4621 98.0537 9.96705 99.2927 9.59367L105.055 7.85703C105.456 7.73612 105.805 7.48295 106.044 7.13875L109.476 2.19505Z" fill="#B9D9FC"/>
</g>
<g opacity="0.4">
<path d="M141.476 2.19505C142.214 1.13211 143.786 1.13212 144.524 2.19505L147.956 7.13875C148.195 7.48295 148.544 7.73612 148.945 7.85703L154.707 9.59367C155.946 9.96705 156.432 11.4621 155.649 12.4924L152.008 17.2844C151.755 17.6181 151.621 18.0277 151.63 18.4467L151.759 24.4637C151.787 25.7574 150.515 26.6814 149.294 26.2552L143.611 24.2731C143.215 24.1351 142.785 24.1351 142.389 24.2731L136.706 26.2552C135.485 26.6814 134.213 25.7574 134.241 24.4637L134.37 18.4467C134.379 18.0277 134.245 17.6181 133.992 17.2844L130.351 12.4924C129.568 11.4621 130.054 9.96705 131.293 9.59367L137.055 7.85703C137.456 7.73612 137.805 7.48295 138.044 7.13875L141.476 2.19505Z" fill="#B9D9FC"/>
<path opacity="0.4" d="M141.476 2.19505C142.214 1.13211 143.786 1.13212 144.524 2.19505L147.956 7.13875C148.195 7.48295 148.544 7.73612 148.945 7.85703L154.707 9.59367C155.946 9.96705 156.432 11.4621 155.649 12.4924L152.008 17.2844C151.755 17.6181 151.621 18.0277 151.63 18.4467L151.759 24.4637C151.787 25.7574 150.515 26.6814 149.294 26.2552L143.611 24.2731C143.215 24.1351 142.785 24.1351 142.389 24.2731L136.706 26.2552C135.485 26.6814 134.213 25.7574 134.241 24.4637L134.37 18.4467C134.379 18.0277 134.245 17.6181 133.992 17.2844L130.351 12.4924C129.568 11.4621 130.054 9.96705 131.293 9.59367L137.055 7.85703C137.456 7.73612 137.805 7.48295 138.044 7.13875L141.476 2.19505Z" fill="#B9D9FC"/>
</g>
</svg>
