<svg width="78" height="78" viewBox="0 0 78 78" fill="none" xmlns="http://www.w3.org/2000/svg">
<path d="M38.9004 76.6152C59.9228 76.6152 76.9648 59.5732 76.9648 38.5508C76.9648 17.5284 59.9228 0.486328 38.9004 0.486328C17.878 0.486328 0.835938 17.5284 0.835938 38.5508C0.835938 59.5732 17.878 76.6152 38.9004 76.6152Z" fill="#F5FAFE"/>
<mask id="mask0_7036_44581" style="mask-type:luminance" maskUnits="userSpaceOnUse" x="0" y="0" width="77" height="77">
<path d="M38.9004 76.6132C59.9228 76.6132 76.9648 59.5712 76.9648 38.5488C76.9648 17.5264 59.9228 0.484375 38.9004 0.484375C17.878 0.484375 0.835938 17.5264 0.835938 38.5488C0.835938 59.5712 17.878 76.6132 38.9004 76.6132Z" fill="white"/>
</mask>
<g mask="url(#mask0_7036_44581)">
<path d="M45.3799 29.0947C42.9837 29.0947 40.5874 30.5155 38.5729 30.5155C36.5583 30.5155 34.162 29.0947 31.7658 29.0947C26.9733 29.0947 23.75 33.3783 23.75 38.6373C23.75 43.8964 28.1396 64.9962 32.9321 64.8477C37.0248 64.7205 33.7167 53.2481 38.5729 53.2481C43.429 53.2481 41.4568 64.3176 44.2984 64.4024C51.466 64.6357 53.3745 43.9176 53.3745 38.6373C53.3745 33.3571 50.1512 29.0947 45.3587 29.0947H45.3799Z" fill="white"/>
<mask id="mask1_7036_44581" style="mask-type:luminance" maskUnits="userSpaceOnUse" x="23" y="29" width="31" height="36">
<path d="M45.3799 29.0967C42.9837 29.0967 40.5874 30.5175 38.5729 30.5175C36.5583 30.5175 34.162 29.0967 31.7658 29.0967C26.9733 29.0967 23.75 33.3803 23.75 38.6393C23.75 43.8983 28.1396 64.9981 32.9321 64.8497C37.0248 64.7224 33.7167 53.2501 38.5729 53.2501C43.429 53.2501 41.4568 64.3195 44.2984 64.4044C51.466 64.6376 53.3745 43.9195 53.3745 38.6393C53.3745 33.359 50.1512 29.0967 45.3587 29.0967H45.3799Z" fill="white"/>
</mask>
<g mask="url(#mask1_7036_44581)">
<path fill-rule="evenodd" clip-rule="evenodd" d="M22.0042 46.7579C22.0042 46.7579 26.5422 44.2132 31.8649 45.2523C37.1875 46.2913 34.9185 46.1429 37.1875 46.2913C39.4565 46.4398 37.336 45.7824 40.3048 46.1429C41.3651 46.2701 41.9376 46.3338 42.4254 47.0123C42.5102 47.1396 42.4042 48.8997 42.3829 49.4298C41.4287 52.6743 41.4287 55.6219 41.4287 55.6219C41.4287 55.6219 37.1875 57.5728 35.6819 57.4668C34.1763 57.3608 34.6216 56.9155 32.2678 57.7213C29.9139 58.5271 25.3335 59.757 23.4037 58.2302C21.474 56.7034 22.0042 46.7579 22.0042 46.7579Z" fill="#F5CF73"/>
<path fill-rule="evenodd" clip-rule="evenodd" d="M23.3873 48.1999C23.3873 48.1999 24.6596 49.7691 26.038 49.6207C27.4164 49.4723 28.0526 48.1999 28.5191 48.1999C28.9856 48.1999 29.6218 49.5147 30.5761 49.5147C31.5303 49.5147 31.4455 47.4153 33.0359 47.6274C34.6264 47.8394 35.1989 49.239 36.4501 49.3238C37.7012 49.4086 38.9948 48.4332 40.1611 48.7513C40.9033 48.9633 42.5997 48.8997 42.3877 49.4298C41.7303 51.0415 41.8787 54.0103 41.8787 54.0103C41.6243 54.0103 41.3486 54.0527 41.0517 54.0739C38.1677 54.3708 35.7079 55.3463 34.3719 55.3039C33.0359 55.2614 33.1208 54.5617 31.7848 54.5617C30.4488 54.5617 28.7524 55.7492 27.1195 55.6431C25.4867 55.5371 23.1328 53.8194 23.1328 52.8016C23.1328 51.7837 23.3661 48.1999 23.3661 48.1999H23.3873Z" fill="#E08550"/>
</g>
<path d="M45.3799 29.0947C42.9837 29.0947 40.5874 30.5155 38.5729 30.5155C36.5583 30.5155 34.162 29.0947 31.7658 29.0947C26.9733 29.0947 23.75 33.3783 23.75 38.6373C23.75 43.8964 28.1396 64.9962 32.9321 64.8477C37.0248 64.7205 33.7167 53.2481 38.5729 53.2481C43.429 53.2481 41.4568 64.3176 44.2984 64.4024C51.466 64.6357 53.3745 43.9176 53.3745 38.6373C53.3745 33.3571 50.1512 29.0947 45.3587 29.0947H45.3799Z" stroke="#602E2D" stroke-width="0.487734" stroke-linecap="round" stroke-linejoin="round"/>
<path fill-rule="evenodd" clip-rule="evenodd" d="M38.799 32.315C39.923 32.2513 41.1953 32.1453 41.8951 31.6364C43.1674 30.7033 44.0793 31.0214 43.4855 31.8696C42.8281 32.8239 42.298 33.6297 38.8627 33.7569C35.5546 33.863 34.3882 32.9299 33.7733 32.1453C33.0523 31.2335 34.0914 31.0426 34.9396 31.5728C36.1059 32.2725 37.6539 32.3786 38.799 32.315Z" fill="#F4F9FB"/>
<path fill-rule="evenodd" clip-rule="evenodd" d="M27.8444 34.1413C27.5051 34.6927 27.2294 35.4773 26.9538 36.3679C26.6993 37.2586 25.6814 38.2553 25.745 36.1347C25.8087 34.0141 26.8902 32.4873 27.8868 31.9147C28.8835 31.3422 30.3043 31.2149 30.5163 31.9571C30.7072 32.6145 30.3255 33.0386 29.4985 33.1022C28.6714 33.1871 28.2685 33.484 27.8444 34.1413Z" fill="#E4EFF6"/>
<g opacity="0.1">
<path fill-rule="evenodd" clip-rule="evenodd" d="M84.9435 51.4443C84.9435 51.4443 59.5389 51.4867 54.1314 51.5504C53.6225 51.5504 54.4283 53.1408 54.8949 54.0526C56.04 56.1944 57.1851 59.863 59.8994 63.7225C61.6383 66.1824 64.1406 66.7549 65.7098 65.2705C67.1094 63.9346 66.9398 60.9021 66.9822 58.6755C67.0034 57.2547 67.0882 53.7134 69.5905 53.5861C72.0928 53.4589 72.326 56.1732 72.5169 58.0181C72.7289 60.0539 73.0258 63.3196 74.0649 64.698C74.8919 65.8007 76.3127 66.5005 78.4121 65.1009C80.5539 63.6801 82.9289 58.0605 84.0528 54.5192C84.6254 52.7591 84.9011 51.4443 84.9011 51.4443H84.9435Z" fill="#F19791"/>
<path fill-rule="evenodd" clip-rule="evenodd" d="M83.8165 51.5312L54.9766 51.5737C54.9766 51.5737 57.4788 59.7167 60.8718 63.4065C62.5258 65.1878 63.9466 65.8876 65.0705 64.7637C66.2156 63.6186 65.9188 59.7167 66.152 57.5113C66.2793 56.2601 66.3429 52.5279 69.5449 52.4855C72.4501 52.4431 72.8743 54.8182 73.1075 55.7936C73.5953 57.787 73.7013 62.1342 74.5919 63.6186C75.419 65.0394 76.5005 65.4635 78.1969 64.1911C81.0173 62.113 83.8377 51.5312 83.8377 51.5312H83.8165Z" fill="#EF867F"/>
<path d="M76.2471 29.0957C73.8508 29.0957 71.4546 30.5165 69.44 30.5165C67.4255 30.5165 65.0292 29.0957 62.633 29.0957C57.8405 29.0957 54.6172 33.3793 54.6172 38.6383C54.6172 43.8974 59.0068 64.9971 63.7993 64.8487C67.892 64.7215 64.5839 53.2491 69.44 53.2491C74.2962 53.2491 72.324 64.3186 75.1656 64.4034C82.3332 64.6366 84.2417 43.9186 84.2417 38.6383C84.2417 33.3581 81.0184 29.0957 76.2259 29.0957H76.2471Z" fill="white" stroke="#602E2D" stroke-width="0.40291" stroke-linecap="round" stroke-linejoin="round"/>
<path fill-rule="evenodd" clip-rule="evenodd" d="M57.5247 50.8762C57.9064 53.951 59.1363 58.3618 60.9388 61.1822C62.7201 64.0026 65.0951 65.7626 65.4132 61.2882C65.7525 56.5593 65.3072 52.6999 69.5908 52.509C74.0228 52.2969 74.0652 58.6375 74.2349 61.1822C74.4257 63.7269 76.0373 65.6778 78.6881 60.6308C81.6781 54.9265 82.6536 47.9922 83.0353 43.3905C83.1625 41.8213 83.5018 38.0254 82.9292 36.2229C82.3567 34.4205 81.6781 32.4907 80.4906 31.7061C79.4939 31.0487 77.543 35.099 77.2461 37.0924C76.9492 39.0857 75.0407 46.5078 69.0182 47.9498C62.9958 49.3918 56.9521 47.0803 57.355 50.3248L57.5247 50.8549V50.8762Z" fill="#E4EFF6"/>
<path fill-rule="evenodd" clip-rule="evenodd" d="M69.6584 32.3169C70.7823 32.2533 72.0547 32.1473 72.7545 31.6383C74.0268 30.7053 74.9387 31.0234 74.3449 31.8716C73.6875 32.8258 73.1574 33.6317 69.722 33.7589C66.4139 33.8649 65.2476 32.9319 64.6326 32.1473C63.9116 31.2354 64.9507 31.0446 65.799 31.5747C66.9653 32.2745 68.5133 32.3805 69.6584 32.3169Z" fill="#F4F9FB"/>
<path fill-rule="evenodd" clip-rule="evenodd" d="M58.7038 34.1433C58.3645 34.6946 58.0888 35.4793 57.8131 36.3699C57.5587 37.2605 56.5408 38.2572 56.6044 36.1366C56.668 34.0161 57.7495 32.4892 58.7462 31.9167C59.7429 31.3441 61.1637 31.2169 61.3757 31.9591C61.5666 32.6165 61.1849 33.0406 60.3578 33.1042C59.5308 33.189 59.1279 33.4859 58.7038 34.1433Z" fill="#E4EFF6"/>
</g>
<g opacity="0.1">
<path fill-rule="evenodd" clip-rule="evenodd" d="M23.0685 51.5713C23.0685 51.5713 -2.33607 51.6137 -7.74355 51.6773C-8.25249 51.6773 -7.44667 53.2678 -6.98014 54.1796C-5.83503 56.3214 -4.68992 59.99 -1.97558 63.8495C-0.2367 66.3093 2.26558 66.8819 3.83482 65.3975C5.2344 64.0615 5.06475 61.0291 5.10716 58.8025C5.12837 57.3817 5.21319 53.8403 7.71548 53.7131C10.2178 53.5858 10.451 56.3002 10.6419 58.1451C10.8539 60.1808 11.1508 63.4465 12.1899 64.8249C13.0169 65.9276 14.4377 66.6274 16.5371 65.2278C18.6789 63.807 21.0539 58.1875 22.1778 54.6461C22.7504 52.8861 23.0261 51.5713 23.0261 51.5713H23.0685Z" fill="#F19791"/>
<path fill-rule="evenodd" clip-rule="evenodd" d="M21.9415 51.5713L-6.89844 51.6137C-6.89844 51.6137 -4.39615 59.7567 -1.00322 63.4465C0.650831 65.2278 2.07162 65.9276 3.19553 64.8037C4.34064 63.6586 4.04376 59.7567 4.27702 57.5513C4.40426 56.3002 4.46788 52.568 7.66995 52.5256C10.5751 52.4831 10.9993 54.8582 11.2325 55.8337C11.7203 57.827 11.8263 62.1742 12.7169 63.6586C13.544 65.0794 14.6255 65.5035 16.3219 64.2312C19.1423 62.153 21.9627 51.5713 21.9627 51.5713H21.9415Z" fill="#EF867F"/>
<path d="M14.4034 29.2227C12.0071 29.2227 9.61085 30.6434 7.5963 30.6434C5.58174 30.6434 3.18549 29.2227 0.789234 29.2227C-4.00328 29.2227 -7.22656 33.5062 -7.22656 38.7653C-7.22656 44.0243 -2.83696 65.1241 1.95555 64.9756C6.04827 64.8484 2.74017 53.3761 7.5963 53.3761C12.4524 53.3761 10.4803 64.4455 13.3219 64.5303C20.4894 64.7636 22.3979 44.0455 22.3979 38.7653C22.3979 33.485 19.1747 29.2227 14.3822 29.2227H14.4034Z" fill="white" stroke="#602E2D" stroke-width="0.40291" stroke-linecap="round" stroke-linejoin="round"/>
<path fill-rule="evenodd" clip-rule="evenodd" d="M-4.3347 51.0236C-3.953 54.0985 -2.72306 58.5093 -0.92057 61.3296C0.860717 64.15 3.23577 65.9101 3.55386 61.4357C3.89315 56.7068 3.44783 52.8473 7.7314 52.6565C12.1634 52.4444 12.2058 58.7849 12.3755 61.3296C12.5663 63.8743 14.178 65.8253 16.8287 60.7783C19.8187 55.0739 20.7942 48.1396 21.1759 43.538C21.3031 41.9687 21.6424 38.1729 21.0699 36.3704C20.4973 34.5679 19.8187 32.6382 18.6312 31.8536C17.6345 31.1962 15.6836 35.2465 15.3867 37.2398C15.0898 39.2332 13.1813 46.6552 7.15884 48.0972C1.1364 49.5392 -4.90726 47.2278 -4.50435 50.4723L-4.3347 51.0024V51.0236Z" fill="#E4EFF6"/>
<path fill-rule="evenodd" clip-rule="evenodd" d="M7.78342 32.4439C8.90733 32.3802 10.1797 32.2742 10.8795 31.7653C12.1518 30.8322 13.0637 31.1503 12.4699 31.9985C11.8125 32.9528 11.2824 33.7586 7.84704 33.8859C4.53893 33.9919 3.37262 33.0588 2.75765 32.2742C2.03665 31.3624 3.07573 31.1715 3.92396 31.7017C5.09028 32.4014 6.63831 32.5075 7.78342 32.4439Z" fill="#F4F9FB"/>
</g>
<path fill-rule="evenodd" clip-rule="evenodd" d="M83.8211 51.5094C83.8211 51.5094 79.5375 52.0819 69.5284 52.4849C59.5193 52.8878 58.9891 52.6121 58.0349 51.7426C57.0806 50.8732 56.2536 49.7705 54.4935 49.7705C52.7334 49.7705 53.306 50.7036 51.3974 51.7426C49.4889 52.7817 45.4174 52.8241 39.2889 52.9726C32.5243 53.1422 28.3679 52.6757 27.3288 52.3364C26.2898 51.9971 24.6993 49.7493 23.3209 49.8129C21.3488 49.9189 21.4124 51.6154 20.3733 52.1668C18.9313 52.9302 15.1143 53.7784 9.70682 52.8666C6.50474 52.3152 0.397468 52.6333 -6.51562 52.4849C-5.03122 61.3065 -4.07696 70.1705 -3.1439 80.5189C8.62532 80.1584 29.6827 83.0848 35.9172 83.0636C43.2756 83.0424 70.6523 87.941 80.3434 82.7667C87.9562 78.6952 83.8211 51.5094 83.8211 51.5094Z" fill="#F6BDB6"/>
<path fill-rule="evenodd" clip-rule="evenodd" d="M83.8211 51.5094C83.8211 51.5094 79.5375 52.0819 69.5284 52.4849C59.5193 52.8878 58.9891 52.6121 58.0348 51.7426C57.0806 50.8732 56.2536 49.7705 54.4935 49.7705C52.7334 49.7705 53.306 50.7036 51.3974 51.7426C49.4889 52.7817 45.4174 52.8241 39.2889 52.9726C32.5243 53.1422 28.3679 52.6757 27.3288 52.3364C26.2898 51.9971 24.6993 49.7493 23.3209 49.8129C21.3488 49.9189 21.4124 51.6154 20.3733 52.1668C18.9313 52.9302 15.1143 53.7784 9.70682 52.8666C6.50474 52.3152 0.397468 52.6333 -6.51562 52.4849C-5.03122 61.3065 -4.07696 70.1705 -3.1439 80.5189C8.62532 80.1584 29.6827 83.0848 35.9172 83.0636C43.2756 83.0424 70.6523 87.941 80.3434 82.7667C87.9562 78.6952 83.8211 51.5094 83.8211 51.5094Z" stroke="#602E2D" stroke-width="0.360499" stroke-miterlimit="10"/>
<path fill-rule="evenodd" clip-rule="evenodd" d="M153.101 67.52V99.9225H-43.625V75.1117C-43.625 75.1117 -36.0545 69.5558 -24.6246 69.5558C-15.3365 69.5558 -12.2616 76.1932 -2.46453 75.8963C9.3047 75.5358 11.1496 67.2443 21.0103 67.0959C27.9446 66.9898 29.8107 74.2422 36.024 74.221C43.3824 74.1998 51.0377 65.0177 57.8448 69.789C76.6119 82.9154 76.5695 63.915 90.5017 70.1283C98.0298 73.4788 103.692 75.557 113.383 70.3616C120.996 66.2901 129.266 75.5782 135.967 75.4934C147.185 75.3449 152.635 68.1774 153.101 67.52Z" fill="#EB9394"/>
<path fill-rule="evenodd" clip-rule="evenodd" d="M153.101 67.519V99.9215H-43.625V75.1107C-43.625 75.1107 -36.0545 69.5548 -24.6246 69.5548C-15.3365 69.5548 -12.2616 76.1922 -2.46453 75.8953C9.3047 75.5348 11.1496 67.2433 20.9891 67.0949C27.9234 66.9889 29.7895 74.2413 36.0028 74.2201C43.3612 74.1988 51.0165 65.0167 57.8236 69.788C76.5907 82.9144 76.5483 63.914 90.4805 70.1273C98.0086 73.4778 103.671 75.556 113.362 70.3606C120.974 66.2891 129.245 75.5772 135.946 75.4924C147.164 75.344 152.614 68.1764 153.08 67.519H153.101Z" fill="#EB9394"/>
<path d="M45.4583 49.3213C45.4583 49.3213 45.3525 49.5116 45.2891 49.427" stroke="#602E2D" stroke-width="0.445322" stroke-linecap="round" stroke-linejoin="round"/>
<path d="M41.4182 49.2588L41.3125 49.3645" stroke="#602E2D" stroke-width="0.445322" stroke-linecap="round" stroke-linejoin="round"/>
<path d="M42.1362 45.9082C42.1362 45.9082 41.9877 45.9082 41.7969 45.9506" stroke="#602E2D" stroke-width="0.445322" stroke-linecap="round" stroke-linejoin="round"/>
<path d="M42.7031 54.1152L42.7243 53.9883" stroke="#602E2D" stroke-width="0.445322" stroke-linecap="round" stroke-linejoin="round"/>
<path d="M42.9219 54.9838C42.9219 54.9838 43.0703 54.9838 43.2612 54.9414" stroke="#602E2D" stroke-width="0.445322" stroke-linecap="round" stroke-linejoin="round"/>
<path d="M41.5413 53.6494C41.5413 53.6494 41.3292 53.9251 41.2656 53.9039" stroke="#602E2D" stroke-width="0.445322" stroke-linecap="round" stroke-linejoin="round"/>
<path d="M41.5938 55.2164C41.5938 55.2164 41.5938 55.0255 41.615 54.9619" stroke="#602E2D" stroke-width="0.445322" stroke-linecap="round" stroke-linejoin="round"/>
<path d="M43.3199 46.7363H43.1719" stroke="#602E2D" stroke-width="0.445322" stroke-linecap="round" stroke-linejoin="round"/>
<path d="M44.827 47.6034C44.827 47.6034 44.7422 47.4761 44.5938 47.3701" stroke="#602E2D" stroke-width="0.445322" stroke-linecap="round" stroke-linejoin="round"/>
<path d="M42.8047 48.6211C42.8047 48.6211 43.144 48.6211 43.1652 48.6635" stroke="#602E2D" stroke-width="0.445322" stroke-linecap="round" stroke-linejoin="round"/>
<path d="M45.9152 47.2461C45.9152 47.2461 45.7667 47.3733 45.7031 47.3733" stroke="#602E2D" stroke-width="0.445322" stroke-linecap="round" stroke-linejoin="round"/>
<path d="M59.8337 45.4648C59.8337 45.4648 60.0034 46.3343 59.3672 46.8644" stroke="#602E2D" stroke-width="0.445322" stroke-linecap="round" stroke-linejoin="round"/>
<path d="M60.8516 45.5479C60.8516 45.5479 60.8516 47.1383 59.6641 47.7533" stroke="#602E2D" stroke-width="0.445322" stroke-linecap="round" stroke-linejoin="round"/>
<path d="M42.1094 50.4241L42.173 51.1026C42.173 51.1026 50.5917 51.3359 54.4724 48.6852C56.6566 47.2008 57.3988 45.1438 57.3988 45.1438L59.689 39.4607C59.689 39.4607 60.41 38.0187 60.8129 37.4673L62.5306 35.1347L64.0362 31.5509L64.6299 31.254L65.6478 28.8153L60.4524 26.6523L59.4133 29.091L59.583 29.812L58.2258 33.2686L57.7593 36.2798C57.7593 36.2798 57.5048 37.5521 57.2503 38.1247C56.9958 38.6972 55.7023 41.9205 55.7023 41.9205C55.7023 41.9205 56.5929 42.6203 56.3809 43.8503C56.1688 45.0802 55.6811 47.5401 51.8216 48.8548C48.9376 49.8303 46.8807 50.212 42.1094 50.4877V50.4241Z" fill="#BFCAD3" stroke="#602E2D" stroke-width="0.466528" stroke-linecap="round" stroke-linejoin="round"/>
<path d="M59.24 32.9933L58.4766 32.6328" stroke="#602E2D" stroke-width="0.466528" stroke-linecap="round" stroke-linejoin="round"/>
<path d="M62.0391 34.0742L62.8237 34.4347" stroke="#602E2D" stroke-width="0.466528" stroke-linecap="round" stroke-linejoin="round"/>
<path d="M60.1753 34.6495C59.0726 34.1617 59.0938 33.4619 59.0938 33.4619L60.1541 30.8112C60.1541 30.8112 60.6206 30.2811 61.7657 30.7688C62.9108 31.2565 62.8896 31.9563 62.8896 31.9563L61.8293 34.5858C61.8293 34.5858 61.278 35.1372 60.1753 34.6707V34.6495Z" fill="#BFCAD3" stroke="#602E2D" stroke-width="0.466528" stroke-linecap="round" stroke-linejoin="round"/>
<path d="M66.3673 29.0711L59.8359 26.3567C61.0871 22.2428 62.1686 17.7472 63.0804 12.9971L73.4076 17.0262C70.6297 21.2673 68.085 25.3813 66.3673 29.0499V29.0711Z" fill="#89BEE7" stroke="#602E2D" stroke-width="0.360499" stroke-miterlimit="10"/>
</g>
<path d="M38.9004 76.6152C59.9228 76.6152 76.9648 59.5732 76.9648 38.5508C76.9648 17.5284 59.9228 0.486328 38.9004 0.486328C17.878 0.486328 0.835938 17.5284 0.835938 38.5508C0.835938 59.5732 17.878 76.6152 38.9004 76.6152Z" stroke="#FC1682" stroke-width="0.91185" stroke-miterlimit="10"/>
</svg>
