<svg width="78" height="78" viewBox="0 0 78 78" fill="none" xmlns="http://www.w3.org/2000/svg">
<path d="M38.9004 76.6777C59.9228 76.6777 76.9648 59.6357 76.9648 38.6132C76.9648 17.5908 59.9228 0.548828 38.9004 0.548828C17.878 0.548828 0.835938 17.5908 0.835938 38.6132C0.835938 59.6357 17.878 76.6777 38.9004 76.6777Z" fill="#F5FAFE"/>
<mask id="mask0_7036_44455" style="mask-type:luminance" maskUnits="userSpaceOnUse" x="0" y="0" width="77" height="77">
<path d="M38.8925 76.6767C59.9149 76.6767 76.957 59.6347 76.957 38.6123C76.957 17.5899 59.9149 0.547852 38.8925 0.547852C17.8701 0.547852 0.828125 17.5899 0.828125 38.6123C0.828125 59.6347 17.8701 76.6767 38.8925 76.6767Z" fill="white"/>
</mask>
<g mask="url(#mask0_7036_44455)">
<g opacity="0.1">
<path fill-rule="evenodd" clip-rule="evenodd" d="M84.9435 51.4844C84.9435 51.4844 59.5389 51.5268 54.1314 51.5904C53.6225 51.5904 54.4283 53.1808 54.8949 54.0927C56.04 56.2345 57.1851 59.9031 59.8994 63.7625C61.6383 66.2224 64.1406 66.795 65.7098 65.3106C67.1094 63.9746 66.9398 60.9422 66.9822 58.7156C67.0034 57.2948 67.0882 53.7534 69.5905 53.6262C72.0928 53.4989 72.326 56.2133 72.5169 58.0582C72.7289 60.0939 73.0258 63.3596 74.0649 64.738C74.8919 65.8407 76.3127 66.5405 78.4121 65.1409C80.5539 63.7201 82.9289 58.1006 84.0528 54.5592C84.6254 52.7991 84.9011 51.4844 84.9011 51.4844H84.9435Z" fill="#F19791"/>
<path fill-rule="evenodd" clip-rule="evenodd" d="M83.8165 51.5928L54.9766 51.6352C54.9766 51.6352 57.4788 59.7782 60.8718 63.468C62.5258 65.2493 63.9466 65.9491 65.0705 64.8252C66.2156 63.6801 65.9188 59.7782 66.152 57.5728C66.2793 56.3217 66.3429 52.5894 69.5449 52.547C72.4501 52.5046 72.8743 54.8797 73.1075 55.8551C73.5953 57.8485 73.7013 62.1957 74.5919 63.6801C75.419 65.1009 76.5005 65.525 78.1969 64.2526C81.0173 62.1745 83.8377 51.5928 83.8377 51.5928H83.8165Z" fill="#EF867F"/>
<path d="M76.2471 29.1357C73.8508 29.1357 71.4546 30.5565 69.44 30.5565C67.4255 30.5565 65.0292 29.1357 62.633 29.1357C57.8405 29.1357 54.6172 33.4193 54.6172 38.6784C54.6172 43.9374 59.0068 65.0372 63.7993 64.8887C67.892 64.7615 64.5839 53.2892 69.44 53.2892C74.2962 53.2892 72.324 64.3586 75.1656 64.4434C82.3332 64.6767 84.2417 43.9586 84.2417 38.6784C84.2417 33.3981 81.0184 29.1357 76.2259 29.1357H76.2471Z" fill="white" stroke="#602E2D" stroke-width="0.40291" stroke-linecap="round" stroke-linejoin="round"/>
<path fill-rule="evenodd" clip-rule="evenodd" d="M57.5247 50.9367C57.9064 54.0115 59.1363 58.4224 60.9388 61.2427C62.7201 64.0631 65.0951 65.8232 65.4132 61.3488C65.7525 56.6199 65.3072 52.7604 69.5908 52.5696C74.0228 52.3575 74.0652 58.698 74.2349 61.2427C74.4257 63.7874 76.0373 65.7384 78.6881 60.6914C81.6781 54.987 82.6536 48.0527 83.0353 43.4511C83.1625 41.8818 83.5018 38.086 82.9292 36.2835C82.3567 34.481 81.6781 32.5513 80.4906 31.7667C79.4939 31.1093 77.543 35.1596 77.2461 37.1529C76.9492 39.1463 75.0407 46.5683 69.0182 48.0103C62.9958 49.4523 56.9521 47.1409 57.355 50.3854L57.5247 50.9155V50.9367Z" fill="#E4EFF6"/>
<path fill-rule="evenodd" clip-rule="evenodd" d="M69.6584 32.3569C70.7823 32.2933 72.0547 32.1873 72.7545 31.6784C74.0268 30.7453 74.9387 31.0634 74.3449 31.9116C73.6875 32.8659 73.1574 33.6717 69.722 33.7989C66.4139 33.905 65.2476 32.9719 64.6326 32.1873C63.9116 31.2754 64.9507 31.0846 65.799 31.6147C66.9653 32.3145 68.5133 32.4206 69.6584 32.3569Z" fill="#F4F9FB"/>
<path fill-rule="evenodd" clip-rule="evenodd" d="M58.7038 34.1833C58.3645 34.7347 58.0888 35.5193 57.8131 36.4099C57.5587 37.3006 56.5408 38.2973 56.6044 36.1767C56.668 34.0561 57.7495 32.5293 58.7462 31.9567C59.7429 31.3842 61.1637 31.2569 61.3757 31.9991C61.5666 32.6565 61.1849 33.0806 60.3578 33.1442C59.5308 33.2291 59.1279 33.5259 58.7038 34.1833Z" fill="#E4EFF6"/>
</g>
<g opacity="0.1">
<path fill-rule="evenodd" clip-rule="evenodd" d="M23.0607 51.6133C23.0607 51.6133 -2.34389 51.6557 -7.75137 51.7193C-8.26031 51.7193 -7.45448 53.3097 -6.98796 54.2216C-5.84284 56.3634 -4.69773 60.032 -1.98339 63.8914C-0.244512 66.3513 2.25777 66.9239 3.827 65.4395C5.22659 64.1035 5.05694 61.0711 5.09935 58.8445C5.12056 57.4237 5.20538 53.8823 7.70767 53.7551C10.2099 53.6278 10.4432 56.3422 10.6341 58.1871C10.8461 60.2228 11.143 63.4885 12.1821 64.8669C13.0091 65.9696 14.4299 66.6694 16.5293 65.2698C18.6711 63.849 21.0461 58.2295 22.17 54.6881C22.7426 52.928 23.0183 51.6133 23.0183 51.6133H23.0607Z" fill="#F19791"/>
<path fill-rule="evenodd" clip-rule="evenodd" d="M21.9336 51.6133L-6.90625 51.6557C-6.90625 51.6557 -4.40396 59.7987 -1.01103 63.4885C0.643019 65.2698 2.06381 65.9696 3.18771 64.8457C4.33283 63.7006 4.03595 59.7987 4.26921 57.5933C4.39645 56.3422 4.46006 52.61 7.66214 52.5675C10.5673 52.5251 10.9915 54.9002 11.2247 55.8756C11.7125 57.869 11.8185 62.2162 12.7091 63.7006C13.5361 65.1214 14.6176 65.5455 16.3141 64.2732C19.1345 62.195 21.9549 51.6133 21.9549 51.6133H21.9336Z" fill="#EF867F"/>
<path d="M14.3955 29.2861C11.9993 29.2861 9.60303 30.7069 7.58848 30.7069C5.57393 30.7069 3.17768 29.2861 0.781422 29.2861C-4.01109 29.2861 -7.23438 33.5697 -7.23438 38.8287C-7.23438 44.0878 -2.84477 65.1876 1.94774 65.0391C6.04046 64.9119 2.73235 53.4395 7.58848 53.4395C12.4446 53.4395 10.4725 64.509 13.3141 64.5938C20.4816 64.8271 22.3901 44.109 22.3901 38.8287C22.3901 33.5485 19.1669 29.2861 14.3743 29.2861H14.3955Z" fill="white" stroke="#602E2D" stroke-width="0.40291" stroke-linecap="round" stroke-linejoin="round"/>
<path fill-rule="evenodd" clip-rule="evenodd" d="M-4.34252 51.0666C-3.96081 54.1414 -2.73088 58.5522 -0.928383 61.3726C0.852905 64.193 3.22796 65.9531 3.54604 61.4786C3.88534 56.7497 3.44001 52.8903 7.72359 52.6994C12.1556 52.4874 12.198 58.8279 12.3677 61.3726C12.5585 63.9173 14.1702 65.8682 16.8209 60.8213C19.8109 55.1169 20.7864 48.1826 21.1681 43.5809C21.2953 42.0117 21.6346 38.2159 21.062 36.4134C20.4895 34.6109 19.8109 32.6812 18.6234 31.8965C17.6267 31.2392 15.6758 35.2895 15.3789 37.2828C15.082 39.2762 13.1735 46.6982 7.15103 48.1402C1.12858 49.5822 -4.91507 47.2707 -4.51216 50.5152L-4.34252 51.0454V51.0666Z" fill="#E4EFF6"/>
<path fill-rule="evenodd" clip-rule="evenodd" d="M7.77561 32.4868C8.89952 32.4232 10.1719 32.3172 10.8717 31.8082C12.144 30.8752 13.0559 31.1933 12.4621 32.0415C11.8047 32.9958 11.2746 33.8016 7.83923 33.9288C4.53112 34.0349 3.3648 33.1018 2.74983 32.3172C2.02884 31.4053 3.06792 31.2145 3.91615 31.7446C5.08247 32.4444 6.63049 32.5504 7.77561 32.4868Z" fill="#F4F9FB"/>
</g>
<path fill-rule="evenodd" clip-rule="evenodd" d="M83.8133 51.5522C83.8133 51.5522 79.5297 52.1248 69.5206 52.5277C59.5114 52.9306 58.9813 52.6549 58.027 51.7855C57.0728 50.916 57.094 49.7285 55.3127 49.7285C53.5314 49.7285 53.8283 52.4429 53.8283 52.4429C53.8283 52.4429 52.4075 62.3036 46.6607 62.5368C44.1372 62.6429 50.6262 52.3368 50.6262 52.3368L28.7418 51.7219C28.7418 51.7219 34.7431 62.452 30.0566 61.2433C27.0029 60.4587 25.0096 52.7185 24.946 51.8915C24.8824 50.8312 24.6915 49.8133 23.3131 49.8982C21.341 50.0042 21.4046 51.7007 20.3655 52.252C18.9235 53.0154 15.1065 53.8636 9.699 52.9518C6.49693 52.4004 0.389656 52.7185 -6.52344 52.5701C-5.03903 61.3917 -4.08477 70.2557 -3.15171 80.6042C8.61751 80.2437 29.6749 83.1701 35.9094 83.1489C43.2678 83.1277 70.6445 88.0262 80.3355 82.852C87.9484 78.7805 83.8133 51.5946 83.8133 51.5946V51.5522Z" fill="#F6BDB6"/>
<mask id="mask1_7036_44455" style="mask-type:luminance" maskUnits="userSpaceOnUse" x="-7" y="49" width="92" height="37">
<path d="M83.8133 51.5503C83.8133 51.5503 79.5297 52.1228 69.5206 52.5257C59.5114 52.9286 58.9813 52.653 58.027 51.7835C57.0728 50.9141 57.094 49.7266 55.3127 49.7266C53.5314 49.7266 53.8283 52.4409 53.8283 52.4409C53.8283 52.4409 52.4075 62.3016 46.6607 62.5349C44.1372 62.6409 50.6262 52.3349 50.6262 52.3349L28.7418 51.7199C28.7418 51.7199 34.7431 62.45 30.0566 61.2413C27.0029 60.4567 25.0096 52.7166 24.946 51.8896C24.8824 50.8293 24.6915 49.8114 23.3131 49.8962C21.341 50.0022 21.4046 51.6987 20.3655 52.2501C18.9235 53.0135 15.1065 53.8617 9.699 52.9498C6.49693 52.3985 0.389656 52.7166 -6.52344 52.5681C-5.03903 61.3898 -4.08477 70.2538 -3.15171 80.6022C8.61751 80.2417 29.6749 83.1681 35.9094 83.1469C43.2678 83.1257 70.6445 88.0242 80.3355 82.85C87.9484 78.7785 83.8133 51.5927 83.8133 51.5927V51.5503Z" fill="white"/>
</mask>
<g mask="url(#mask1_7036_44455)">
<path fill-rule="evenodd" clip-rule="evenodd" d="M53.8418 48.8376C53.8418 48.8376 32.9117 49.1133 28.0131 49.1981C27.5466 49.1981 25.3412 53.1 25.8925 54.7964C26.3591 56.196 26.5075 60.7553 28.819 63.7453C30.1125 65.4206 33.6115 67.626 35.0535 66.2688C36.3258 65.0601 36.4318 61.9216 36.4742 59.8858C36.4955 58.5923 36.5591 55.369 38.8493 55.2418C41.1395 55.1145 41.3304 57.5956 41.5 59.2709C41.6909 61.137 41.9666 64.1058 42.9208 65.3569C43.6842 66.3536 44.4688 66.7353 46.4834 65.6114C48.6676 64.4027 51.2335 59.695 52.1453 56.2172C52.6331 54.3299 52.8451 53.312 52.8451 53.312L53.8418 48.8164V48.8376Z" fill="#F0928B"/>
<path fill-rule="evenodd" clip-rule="evenodd" d="M51.7584 53.3116L24.4453 49.0068L25.5056 53.354C25.5056 53.354 26.5235 60.7549 30.701 64.2962C32.1642 65.5262 33.6698 66.3956 34.6877 65.3565C35.7268 64.3174 35.4723 60.7761 35.6844 58.7403C35.8116 57.5952 35.854 54.2023 38.7592 54.1598C41.41 54.1174 41.7917 56.2804 42.0037 57.1711C42.449 58.9948 42.5551 62.939 43.3397 64.2962C44.1031 65.5898 44.9301 65.7382 46.6266 64.8264C50.1468 62.939 51.7584 53.3116 51.7584 53.3116Z" fill="#ED786F"/>
</g>
<path fill-rule="evenodd" clip-rule="evenodd" d="M83.8133 51.5522C83.8133 51.5522 79.5297 52.1248 69.5206 52.5277C59.5114 52.9306 58.9813 52.6549 58.027 51.7855C57.0728 50.916 57.094 49.7285 55.3127 49.7285C53.5314 49.7285 53.8283 52.4429 53.8283 52.4429C53.8283 52.4429 52.4075 62.3036 46.6607 62.5368C44.1372 62.6429 50.6262 52.3368 50.6262 52.3368L28.7418 51.7219C28.7418 51.7219 34.7431 62.452 30.0566 61.2433C27.0029 60.4587 25.0096 52.7185 24.946 51.8915C24.8824 50.8312 24.6915 49.8133 23.3131 49.8982C21.341 50.0042 21.4046 51.7007 20.3655 52.252C18.9235 53.0154 15.1065 53.8636 9.699 52.9518C6.49693 52.4004 0.389655 52.7185 -6.52344 52.5701C-5.03903 61.3917 -4.08477 70.2557 -3.15171 80.6042C8.61751 80.2437 29.6749 83.1701 35.9094 83.1489C43.2678 83.1277 70.6445 88.0262 80.3355 82.852C87.9484 78.7805 83.8133 51.5946 83.8133 51.5946V51.5522Z" stroke="#602E2D" stroke-width="0.360499" stroke-miterlimit="10"/>
<path fill-rule="evenodd" clip-rule="evenodd" d="M153.093 67.561V99.9635H-43.6328V75.1527C-43.6328 75.1527 -36.0623 69.5968 -24.6324 69.5968C-15.3443 69.5968 -12.2694 76.2342 -2.47234 75.9373C9.29688 75.5768 11.1418 67.2853 21.0025 67.1369C27.9368 67.0309 29.8029 74.2833 36.0162 74.262C43.3746 74.2408 51.0299 65.0587 57.837 69.83C76.6041 82.9564 76.5617 63.956 90.4939 70.1693C98.022 73.5198 103.684 75.598 113.375 70.4026C120.988 66.3311 129.258 75.6192 135.959 75.5344C147.177 75.386 152.627 68.2184 153.093 67.561Z" fill="#EB9394"/>
<path fill-rule="evenodd" clip-rule="evenodd" d="M153.093 67.561V99.9635H-43.6328V75.1527C-43.6328 75.1527 -36.0623 69.5968 -24.6324 69.5968C-15.3443 69.5968 -12.2694 76.2342 -2.47234 75.9373C9.29688 75.5768 11.1418 67.2853 20.9813 67.1369C27.9156 67.0309 29.7817 74.2833 35.995 74.262C43.3534 74.2408 51.0087 65.0587 57.8158 69.83C76.5829 82.9564 76.5405 63.956 90.4727 70.1693C98.0008 73.5198 103.663 75.598 113.354 70.4026C120.967 66.3311 129.237 75.6192 135.938 75.5344C147.156 75.386 152.606 68.2184 153.072 67.561H153.093Z" fill="#EB9394"/>
<path d="M45.3799 29.1357C42.9837 29.1357 40.5874 30.5565 38.5729 30.5565C36.5583 30.5565 34.162 29.1357 31.7658 29.1357C26.9733 29.1357 23.75 33.4193 23.75 38.6784C23.75 43.9374 28.1396 65.0372 32.9321 64.8887C37.0248 64.7615 33.7167 53.2892 38.5729 53.2892C43.429 53.2892 41.4568 64.3586 44.2984 64.4434C51.466 64.6767 53.3745 43.9586 53.3745 38.6784C53.3745 33.3981 50.1512 29.1357 45.3587 29.1357H45.3799Z" fill="white"/>
<mask id="mask2_7036_44455" style="mask-type:luminance" maskUnits="userSpaceOnUse" x="23" y="29" width="31" height="36">
<path d="M45.3877 29.1357C42.9915 29.1357 40.5952 30.5565 38.5807 30.5565C36.5661 30.5565 34.1699 29.1357 31.7736 29.1357C26.9811 29.1357 23.7578 33.4193 23.7578 38.6784C23.7578 43.9374 28.1474 65.0372 32.9399 64.8887C37.0326 64.7615 33.7245 53.2892 38.5807 53.2892C43.4368 53.2892 41.4647 64.3586 44.3062 64.4434C51.4738 64.6767 53.3823 43.9586 53.3823 38.6784C53.3823 33.3981 50.159 29.1357 45.3665 29.1357H45.3877Z" fill="white"/>
</mask>
<g mask="url(#mask2_7036_44455)">
<path fill-rule="evenodd" clip-rule="evenodd" d="M22.0198 46.7986C22.0198 46.7986 26.5578 44.2539 31.8805 45.293C37.2031 46.332 34.9341 46.1836 37.2031 46.332C39.4722 46.4805 37.3516 45.8231 40.3204 46.1836C43.2892 46.5441 41.6776 46.7774 43.5861 45.9079C45.4946 45.0385 46.3428 44.0418 49.757 44.4447C53.1711 44.8476 55.7582 47.4772 55.7582 47.4772C55.7582 47.4772 54.4223 56.9562 53.0863 57.4015C51.7503 57.8468 50.5628 59.31 48.0817 59.2888C45.6006 59.2676 44.3071 56.2776 42.7379 56.532C41.1686 56.7865 37.2031 57.5923 35.6975 57.4863C34.1919 57.3803 34.6372 56.9349 32.2834 57.7408C29.9296 58.5466 25.3491 59.7765 23.4194 58.2497C21.4896 56.7229 22.0198 46.7774 22.0198 46.7774V46.7986Z" fill="#F5CF73"/>
<path fill-rule="evenodd" clip-rule="evenodd" d="M23.3917 48.2402C23.3917 48.2402 24.6641 49.8094 26.0425 49.661C27.4208 49.5125 28.057 48.2402 28.5236 48.2402C28.9901 48.2402 29.6263 49.555 30.5805 49.555C31.5348 49.555 31.45 47.4556 33.0404 47.6676C34.6308 47.8797 35.2034 49.2793 36.4545 49.3641C37.7057 49.4489 38.9992 48.4735 40.1655 48.7915C41.3319 49.1096 42.4134 49.7034 43.0495 49.1096C43.6857 48.5159 45.361 46.8406 47.842 47.1375C50.3231 47.4344 53.8433 47.8373 54.7975 49.661C55.7518 51.4847 52.9526 56.8922 52.9526 56.8922C52.9526 56.8922 47.9693 54.8988 47.4815 54.2626C46.9938 53.6265 46.5061 54.2202 45.6578 54.2838C44.8096 54.3475 43.9826 53.8173 41.0986 54.1142C38.2146 54.4111 35.7547 55.3865 34.4188 55.3441C33.0828 55.3017 33.1676 54.6019 31.8317 54.6019C30.4957 54.6019 28.7992 55.7895 27.1664 55.6834C25.5335 55.5774 23.1797 53.8597 23.1797 52.8418C23.1797 51.824 23.413 48.2402 23.413 48.2402H23.3917Z" fill="#E08550"/>
</g>
<path d="M45.3799 29.1357C42.9837 29.1357 40.5874 30.5565 38.5729 30.5565C36.5583 30.5565 34.162 29.1357 31.7658 29.1357C26.9733 29.1357 23.75 33.4193 23.75 38.6784C23.75 43.9374 28.1396 65.0372 32.9321 64.8887C37.0248 64.7615 33.7167 53.2892 38.5729 53.2892C43.429 53.2892 41.4568 64.3586 44.2984 64.4434C51.466 64.6767 53.3745 43.9586 53.3745 38.6784C53.3745 33.3981 50.1512 29.1357 45.3587 29.1357H45.3799Z" stroke="#602E2D" stroke-width="0.487734" stroke-linecap="round" stroke-linejoin="round"/>
<path fill-rule="evenodd" clip-rule="evenodd" d="M38.7912 32.3569C39.9151 32.2933 41.1875 32.1873 41.8873 31.6784C43.1596 30.7453 44.0715 31.0634 43.4777 31.9116C42.8203 32.8659 42.2902 33.6717 38.8548 33.7989C35.5467 33.905 34.3804 32.9719 33.7655 32.1873C33.0445 31.2754 34.0835 31.0846 34.9318 31.6147C36.0981 32.3145 37.6461 32.4206 38.7912 32.3569Z" fill="#F4F9FB"/>
<path fill-rule="evenodd" clip-rule="evenodd" d="M27.8366 34.1833C27.4973 34.7347 27.2216 35.5193 26.946 36.4099C26.6915 37.3006 25.6736 38.2973 25.7372 36.1767C25.8008 34.0561 26.8823 32.5293 27.879 31.9567C28.8757 31.3842 30.2965 31.2569 30.5085 31.9991C30.6994 32.6565 30.3177 33.0806 29.4907 33.1442C28.6636 33.2291 28.2607 33.5259 27.8366 34.1833Z" fill="#E4EFF6"/>
<path d="M91.1158 35.3725L91.6247 37.1537L75.9961 41.5646C74.957 41.8614 73.8543 41.8402 72.8152 41.5009L59.3707 37.2174C59.1162 37.1325 58.8406 37.2598 58.7345 37.5142L51.3125 54.7758L57.4834 35.8178C57.6742 35.2452 58.2892 34.9271 58.8618 35.118L73.1333 39.656C73.9815 39.9317 74.9146 39.9529 75.784 39.6984L91.1582 35.3725H91.1158Z" fill="#BFCAD3" stroke="#602E2D" stroke-width="0.487734" stroke-linecap="round" stroke-linejoin="round"/>
<path d="M50.875 51.3176C50.875 51.3176 51.0653 51.2119 50.9807 51.1484" stroke="#602E2D" stroke-width="0.445322" stroke-linecap="round" stroke-linejoin="round"/>
<path d="M50.7578 47.2487L50.8636 47.1641" stroke="#602E2D" stroke-width="0.445322" stroke-linecap="round" stroke-linejoin="round"/>
<path d="M47.4141 48.0336C47.4141 48.0336 47.4141 47.8852 47.4353 47.6943" stroke="#602E2D" stroke-width="0.445322" stroke-linecap="round" stroke-linejoin="round"/>
<path d="M55.6425 48.498L55.5156 48.5192" stroke="#602E2D" stroke-width="0.445322" stroke-linecap="round" stroke-linejoin="round"/>
<path d="M56.5134 48.6885C56.5134 48.6885 56.5134 48.8369 56.4922 49.0278" stroke="#602E2D" stroke-width="0.445322" stroke-linecap="round" stroke-linejoin="round"/>
<path d="M55.1484 47.3323C55.1484 47.3323 55.4241 47.1203 55.4029 47.0566" stroke="#602E2D" stroke-width="0.445322" stroke-linecap="round" stroke-linejoin="round"/>
<path d="M56.7467 47.376C56.7467 47.376 56.5558 47.376 56.4922 47.4184" stroke="#602E2D" stroke-width="0.445322" stroke-linecap="round" stroke-linejoin="round"/>
<path d="M48.2578 49.1969V49.0488" stroke="#602E2D" stroke-width="0.445322" stroke-linecap="round" stroke-linejoin="round"/>
<path d="M49.1708 50.6825C49.1708 50.6825 49.0435 50.5977 48.9375 50.4492" stroke="#602E2D" stroke-width="0.445322" stroke-linecap="round" stroke-linejoin="round"/>
<path d="M50.1484 48.668C50.1484 48.668 50.1484 49.0073 50.1909 49.0285" stroke="#602E2D" stroke-width="0.445322" stroke-linecap="round" stroke-linejoin="round"/>
<path d="M48.7891 51.7873C48.7891 51.7873 48.9163 51.6388 48.9163 51.5752" stroke="#602E2D" stroke-width="0.445322" stroke-linecap="round" stroke-linejoin="round"/>
<path d="M57.1953 34.3731C57.1953 34.3731 57.7891 33.7157 58.5949 33.8854" stroke="#602E2D" stroke-width="0.445322" stroke-linecap="round" stroke-linejoin="round"/>
<path d="M56.6484 33.506C56.6484 33.506 57.8996 32.5306 59.1295 33.0819" stroke="#602E2D" stroke-width="0.445322" stroke-linecap="round" stroke-linejoin="round"/>
</g>
<path d="M38.9004 76.6777C59.9228 76.6777 76.9648 59.6357 76.9648 38.6132C76.9648 17.5908 59.9228 0.548828 38.9004 0.548828C17.878 0.548828 0.835938 17.5908 0.835938 38.6132C0.835938 59.6357 17.878 76.6777 38.9004 76.6777Z" stroke="#FC1682" stroke-width="0.91185" stroke-miterlimit="10"/>
</svg>
