<svg width="24" height="22" viewBox="0 0 24 22" fill="none" xmlns="http://www.w3.org/2000/svg">
<path d="M6.69424 0.0217711C6.63134 0.00699784 6.56923 0 6.50791 0C6.14799 0 5.82231 0.239482 5.73472 0.596371C5.48549 1.6095 5.48549 2.68017 5.73472 3.69253C5.82231 4.04942 6.14879 4.2889 6.50791 4.2889C6.56923 4.2889 6.63213 4.2819 6.69424 4.26713C7.12185 4.16682 7.38542 3.74695 7.2827 3.32942C7.09239 2.55421 7.09239 1.73469 7.2827 0.958704C7.38542 0.541166 7.12185 0.121296 6.69424 0.0209935V0.0217711Z" fill="white"/>
<path d="M17.8374 0.0217711C17.7745 0.00699784 17.7124 0 17.6511 0C17.2912 0 16.9655 0.239482 16.8779 0.596371C16.6287 1.6095 16.6287 2.68017 16.8779 3.69253C16.9655 4.04942 17.292 4.2889 17.6511 4.2889C17.7124 4.2889 17.7753 4.2819 17.8374 4.26713C18.265 4.16682 18.5286 3.74695 18.4259 3.32942C18.2356 2.55421 18.2356 1.73469 18.4259 0.958704C18.5286 0.541166 18.265 0.121296 17.8374 0.0209935V0.0217711Z" fill="white"/>
<path d="M21.3197 2.13074H19.2589C19.2772 2.3547 19.3083 2.57695 19.3577 2.79493C19.4668 3.28303 19.3927 3.78822 19.1482 4.21648C18.9038 4.64474 18.5184 4.94564 18.0637 5.06275C17.9291 5.0978 17.7914 5.11489 17.6536 5.11489C16.8406 5.11489 16.1407 4.52165 15.9512 3.67282C15.8381 3.16677 15.7704 2.64961 15.7481 2.12989H8.11573C8.13404 2.35385 8.1651 2.5761 8.21447 2.79408C8.32356 3.28217 8.2495 3.78737 8.00504 4.21563C7.76058 4.64389 7.37518 4.94478 6.92051 5.06189C6.78593 5.09694 6.64818 5.11404 6.51042 5.11404C5.69741 5.11404 4.99748 4.5208 4.80796 3.67197C4.69489 3.16592 4.62721 2.64876 4.60491 2.12903H2.68188C1.20239 2.13074 0 3.38219 0 4.91999V19.2107C0 20.7486 1.20239 22 2.68029 22H21.3197C22.7976 22 24 20.7486 24 19.2107V4.91999C24 3.38219 22.7976 2.13074 21.3197 2.13074ZM22.4074 19.2107C22.4074 19.8057 21.9193 20.2904 21.3197 20.2904H2.68029C2.08069 20.2904 1.59257 19.8057 1.59257 19.2107V7.43058H22.4074V19.2107Z" fill="white"/>
<path d="M15.4957 10.679C13.5684 8.74139 10.4316 8.74139 8.50429 10.679C6.577 12.6167 6.577 15.7704 8.50429 17.7081C10.4316 19.6457 13.5684 19.6457 15.4957 17.7081C17.423 15.7704 17.423 12.6167 15.4957 10.679ZM14.7315 13.1747L12.158 16.2649L12.1571 16.2658L12.1506 16.2742C12.146 16.2798 12.1404 16.2845 12.1357 16.2901C12.1246 16.3032 12.1144 16.3163 12.1013 16.3284C12.0985 16.3312 12.0958 16.3331 12.093 16.3359C12.0837 16.3452 12.0744 16.3527 12.0651 16.3611C12.053 16.3724 12.04 16.3836 12.027 16.3939C12.0167 16.4023 12.0065 16.4088 11.9963 16.4163C11.9823 16.4256 11.9693 16.435 11.9554 16.4443C11.9451 16.4509 11.934 16.4574 11.9238 16.463C11.9089 16.4714 11.894 16.4798 11.8791 16.4864C11.8689 16.4911 11.8587 16.4967 11.8475 16.5004C11.8317 16.507 11.815 16.5135 11.7983 16.52C11.788 16.5238 11.7787 16.5275 11.7685 16.5303C11.7508 16.5359 11.7332 16.5406 11.7146 16.5453C11.7053 16.5481 11.696 16.5499 11.6867 16.5518C11.6672 16.5556 11.6467 16.5584 11.6272 16.5621C11.6188 16.563 11.6114 16.5649 11.6039 16.5658C11.5761 16.5686 11.5482 16.5705 11.5203 16.5705C11.4952 16.5705 11.471 16.5696 11.4459 16.5668C11.4385 16.5668 11.431 16.5649 11.4236 16.564C11.4059 16.5621 11.3883 16.5593 11.3706 16.5565C11.3613 16.5546 11.3529 16.5528 11.3436 16.5509C11.3278 16.5471 11.312 16.5434 11.2971 16.5397C11.2878 16.5369 11.2776 16.5341 11.2683 16.5313C11.2544 16.5266 11.2404 16.5219 11.2256 16.5163C11.2153 16.5126 11.2051 16.5079 11.1949 16.5041C11.1819 16.4985 11.1688 16.4929 11.1558 16.4864C11.1456 16.4808 11.1344 16.4761 11.1242 16.4696C11.1121 16.463 11.101 16.4555 11.0889 16.449C11.0787 16.4425 11.0675 16.4359 11.0573 16.4294C11.0461 16.4219 11.035 16.4135 11.0238 16.4051C11.0136 16.3976 11.0043 16.3901 10.9941 16.3826L10.9903 16.3798C10.982 16.3733 10.9755 16.3658 10.9671 16.3583C10.9569 16.349 10.9466 16.3406 10.9364 16.3303L9.31593 14.7011C8.99518 14.3786 8.99518 13.8552 9.31593 13.5318C9.63668 13.2093 10.1573 13.2084 10.479 13.5318L11.4645 14.5226L13.4689 12.1157C13.7599 11.7652 14.2787 11.7194 14.6274 12.0129C14.9751 12.3054 15.0216 12.827 14.7296 13.1775L14.7315 13.1747Z" fill="white"/>
</svg>
