<svg width="50" height="50" viewBox="0 0 50 50" fill="none" xmlns="http://www.w3.org/2000/svg">
<circle cx="25" cy="25" r="22.5" fill="#FF9900" stroke="#FFCD81" stroke-width="5"/>
<path d="M14.1426 18.501C14.1426 18.6865 14.0107 18.9697 13.7471 19.3506H22.4043C22.8047 19.3506 23.0684 19.4727 23.1953 19.7168C23.2539 19.8242 23.2832 19.9463 23.2832 20.083C23.2832 20.2979 23.2197 20.4639 23.0928 20.5811C22.9561 20.7275 22.7412 20.8008 22.4482 20.8008H21.4961V23.0127H22.7705C23.2686 23.0127 23.5469 23.208 23.6055 23.5986C23.6152 23.6475 23.6201 23.6963 23.6201 23.7451C23.6201 23.9502 23.5615 24.1113 23.4443 24.2285C23.2979 24.375 23.0732 24.4482 22.7705 24.4482H21.4961V26.6895H22.4189C22.79 26.6895 23.0391 26.8066 23.166 27.041C23.2148 27.1484 23.2393 27.2705 23.2393 27.4072C23.2393 27.6221 23.1709 27.7979 23.0342 27.9346C22.9072 28.0615 22.7021 28.125 22.4189 28.125H11.0811C10.7979 28.125 10.5879 28.0615 10.4512 27.9346C10.3242 27.7979 10.2607 27.6221 10.2607 27.4072C10.2607 27.1924 10.3242 27.0215 10.4512 26.8945C10.5879 26.7578 10.7979 26.6895 11.0811 26.6895H12.0479V24.4482H10.7148C10.2949 24.4482 10.0312 24.3066 9.92383 24.0234C9.89453 23.9355 9.87988 23.8428 9.87988 23.7451C9.87988 23.5303 9.94336 23.3594 10.0703 23.2324C10.2168 23.0859 10.4316 23.0127 10.7148 23.0127H12.0479V21.46C11.4131 22.1338 10.9492 22.4951 10.6562 22.5439C10.627 22.5537 10.5977 22.5586 10.5684 22.5586C10.3535 22.5586 10.1826 22.5 10.0557 22.3828C9.93848 22.2559 9.87988 22.0654 9.87988 21.8115C9.87988 21.5869 10.1045 21.2842 10.5537 20.9033C11.2373 20.3076 11.8574 19.5557 12.4141 18.6475C12.7266 18.1299 13.0537 17.8711 13.3955 17.8711C13.7764 17.8711 14.0107 17.998 14.0986 18.252C14.1279 18.3301 14.1426 18.4131 14.1426 18.501ZM13.4688 23.0127H14.7139V20.8008H13.4688V23.0127ZM16.1201 23.0127H17.3652V20.8008H16.1201V23.0127ZM18.7861 23.0127H20.0752V20.8008H18.7861V23.0127ZM13.4688 26.6895H14.7139V24.4482H13.4688V26.6895ZM16.1201 26.6895H17.3652V24.4482H16.1201V26.6895ZM18.7861 26.6895H20.0752V24.4482H18.7861V26.6895ZM20.7197 28.9014C20.7197 28.4619 20.9932 28.2422 21.54 28.2422C21.7842 28.2422 22.0283 28.418 22.2725 28.7695C22.8193 29.5508 23.1562 30.0977 23.2832 30.4102C23.3223 30.4883 23.3418 30.5762 23.3418 30.6738C23.3418 30.7812 23.3223 30.8838 23.2832 30.9814C23.2539 31.0889 23.2051 31.1768 23.1367 31.2451C22.9902 31.3916 22.7803 31.4648 22.5068 31.4648C22.1943 31.4648 21.9453 31.2891 21.7598 30.9375C21.3496 30.1562 21.0713 29.6533 20.9248 29.4287C20.7881 29.1943 20.7197 29.0186 20.7197 28.9014ZM10.1729 30.7324C10.1729 30.6348 10.2168 30.5078 10.3047 30.3516C10.5195 29.9707 10.6807 29.6729 10.7881 29.458C10.8662 29.292 10.9639 29.0723 11.0811 28.7988C11.2275 28.457 11.4668 28.2861 11.7988 28.2861C12.0723 28.2861 12.2725 28.3496 12.3994 28.4766C12.5264 28.6035 12.5898 28.7646 12.5898 28.96C12.5898 29.3799 12.3066 30.0439 11.7402 30.9521C11.5254 31.3135 11.2666 31.4941 10.9639 31.4941C10.7002 31.4941 10.5 31.4258 10.3633 31.2891C10.2363 31.1621 10.1729 30.9766 10.1729 30.7324ZM18.0537 28.3301C18.3662 28.3301 18.6104 28.5059 18.7861 28.8574C19.2354 29.7852 19.46 30.3711 19.46 30.6152C19.46 30.8691 19.3916 31.0645 19.2549 31.2012C19.1182 31.3379 18.9326 31.4062 18.6982 31.4062C18.4736 31.4062 18.293 31.3379 18.1562 31.2012C18.0293 31.0742 17.9316 30.8984 17.8633 30.6738C17.7363 30.2539 17.6045 29.8877 17.4678 29.5752C17.3604 29.3408 17.3066 29.165 17.3066 29.0479C17.3066 28.8232 17.3701 28.6475 17.4971 28.5205C17.624 28.3936 17.8096 28.3301 18.0537 28.3301ZM14.0986 29.1504C14.0986 28.9258 14.1621 28.75 14.2891 28.623C14.416 28.4961 14.6016 28.4326 14.8457 28.4326C15.1875 28.4326 15.4512 28.6865 15.6367 29.1943C15.9102 29.917 16.0469 30.4004 16.0469 30.6445C16.0469 30.8984 15.9785 31.0889 15.8418 31.2158C15.7148 31.3525 15.5293 31.4209 15.2852 31.4209C15.041 31.4209 14.8457 31.3477 14.6992 31.2012C14.5918 31.0938 14.5137 30.9424 14.4648 30.7471L14.0986 29.165V29.1504ZM33.748 26.792C32.918 26.792 32.5029 26.4258 32.5029 25.6934C32.5029 25.6445 32.5029 25.5957 32.5029 25.5469V22.6172C32.5029 22.0898 32.6885 21.7334 33.0596 21.5479C33.2354 21.46 33.4502 21.416 33.7041 21.416H34.7002V19.8633H34.5098C33.9531 20.6543 33.5039 21.1523 33.1621 21.3574C33.0547 21.4355 32.9424 21.4746 32.8252 21.4746C32.6201 21.4746 32.4639 21.4209 32.3564 21.3135C32.2393 21.1963 32.1807 21.0303 32.1807 20.8154C32.1807 20.6494 32.2783 20.4639 32.4736 20.2588C33.1377 19.5459 33.6162 18.9062 33.9092 18.3398C34.0752 18.0273 34.3047 17.8711 34.5977 17.8711C34.8223 17.8711 34.9932 17.9297 35.1104 18.0469C35.2275 18.1641 35.2861 18.3057 35.2861 18.4717C35.2861 18.54 35.2666 18.6182 35.2275 18.7061H39.3145C39.5391 18.7061 39.7051 18.7646 39.8125 18.8818C39.9199 18.9795 39.9736 19.1211 39.9736 19.3066C39.9736 19.4727 39.9199 19.6094 39.8125 19.7168C39.7148 19.8145 39.5488 19.8633 39.3145 19.8633H35.9453V20.083H38.5674C38.7627 20.083 38.9092 20.1367 39.0068 20.2441C39.1143 20.3418 39.168 20.4736 39.168 20.6396C39.168 20.7959 39.1191 20.9229 39.0215 21.0205C38.9238 21.1182 38.7725 21.167 38.5674 21.167H35.9453V21.416H38.1719C38.6992 21.416 39.0557 21.6016 39.2412 21.9727C39.3291 22.1484 39.373 22.3633 39.373 22.6172V25.5908C39.373 25.9814 39.2705 26.2793 39.0654 26.4844C38.8604 26.6895 38.5625 26.792 38.1719 26.792H33.748ZM28.123 26.748C27.2441 26.748 26.8047 26.3623 26.8047 25.5908C26.8047 25.5322 26.8047 25.4785 26.8047 25.4297V19.5557C26.8047 18.6865 27.1904 18.252 27.9619 18.252C28.0205 18.252 28.0742 18.252 28.123 18.252H32.0928C32.3271 18.252 32.5078 18.3105 32.6348 18.4277C32.7422 18.5449 32.7959 18.6963 32.7959 18.8818C32.7959 19.0674 32.7422 19.2188 32.6348 19.3359C32.5078 19.4531 32.3271 19.5117 32.0928 19.5117H30.8037V20.5957H31.1699C31.5605 20.5957 31.8584 20.6982 32.0635 20.9033C32.2686 21.1084 32.3711 21.4062 32.3711 21.7969V23.1006C32.3711 23.501 32.2686 23.8037 32.0635 24.0088C31.8682 24.2041 31.5801 24.3018 31.1992 24.3018H30.8037V25.4736H31.8438C32.0781 25.4736 32.2539 25.5322 32.3711 25.6494C32.4883 25.7666 32.5469 25.9229 32.5469 26.1182C32.5469 26.3037 32.4932 26.4502 32.3857 26.5576C32.2393 26.6846 32.0586 26.748 31.8438 26.748H28.123ZM29.4854 19.5117H28.416C28.3379 19.5117 28.2842 19.5264 28.2549 19.5557C28.2061 19.6045 28.1816 19.6729 28.1816 19.7607V20.5957H29.4854V19.5117ZM28.1816 21.8115V23.0859H30.8184C30.8965 23.0859 30.9502 23.0713 30.9795 23.042C31.0088 23.0127 31.0234 22.959 31.0234 22.8809V22.0166C31.0234 21.9385 31.0137 21.8896 30.9941 21.8701C30.9551 21.8311 30.8965 21.8115 30.8184 21.8115H28.1816ZM37.9229 22.5H33.9678C33.8994 22.5 33.8555 22.5098 33.8359 22.5293C33.7969 22.5684 33.7773 22.627 33.7773 22.7051V25.4883C33.7773 25.5859 33.8115 25.6543 33.8799 25.6934C33.8994 25.7031 33.9287 25.708 33.9678 25.708H37.9229C37.9814 25.708 38.0254 25.6934 38.0547 25.6641C38.084 25.6348 38.0986 25.5762 38.0986 25.4883V22.7051C38.0986 22.5879 38.0596 22.5195 37.9814 22.5C37.9619 22.5 37.9424 22.5 37.9229 22.5ZM35.1396 22.7197V22.6611C35.1396 22.5244 35.1787 22.417 35.2568 22.3389C35.3154 22.2803 35.4131 22.2363 35.5498 22.207H35.5645C35.6621 22.207 35.8232 22.2607 36.0479 22.3682C36.3994 22.5439 36.5801 22.7344 36.5898 22.9395V22.9688C36.5898 23.1055 36.541 23.2129 36.4434 23.291C36.3555 23.3691 36.248 23.4082 36.1211 23.4082C36.0039 23.4082 35.8086 23.3203 35.5352 23.1445C35.4082 23.0762 35.3154 23.0127 35.2568 22.9541C35.1982 22.8857 35.1592 22.8076 35.1396 22.7197ZM34.2021 22.3242C34.2314 22.3242 34.2705 22.3242 34.3193 22.3242L35.4619 23.0713L36.0186 23.4814C36.3408 23.1885 36.5898 22.9443 36.7656 22.749C37.0195 22.4561 37.2295 22.3096 37.3955 22.3096C37.5713 22.3096 37.7129 22.3633 37.8203 22.4707C37.8984 22.5488 37.9375 22.6465 37.9375 22.7637C37.9375 22.8613 37.9082 22.959 37.8496 23.0566C37.6738 23.3301 37.3418 23.6719 36.8535 24.082C37.4395 24.5312 37.8154 24.8535 37.9814 25.0488C38.0986 25.1953 38.1572 25.3223 38.1572 25.4297C38.1572 25.5859 38.1035 25.7178 37.9961 25.8252C37.8984 25.9229 37.7715 25.9717 37.6152 25.9717C37.498 25.9717 37.3711 25.9229 37.2344 25.8252C37.1562 25.7568 37.0684 25.6738 36.9707 25.5762C36.707 25.3125 36.3945 25.0391 36.0332 24.7559C35.5254 25.1465 35.125 25.4297 34.832 25.6055C34.5488 25.7812 34.334 25.8691 34.1875 25.8691C34.041 25.8691 33.9189 25.8252 33.8213 25.7373C33.7334 25.6396 33.6895 25.5078 33.6895 25.3418C33.6895 25.1758 33.8018 25.0195 34.0264 24.873C34.124 24.8145 34.2559 24.7461 34.4219 24.668C34.6172 24.5703 34.876 24.3994 35.1982 24.1553L34.2168 23.4814C34.1875 23.4521 34.1436 23.4229 34.085 23.3936C33.9678 23.3154 33.8848 23.2471 33.8359 23.1885C33.748 23.0811 33.7041 22.9639 33.7041 22.8369C33.7041 22.6904 33.7529 22.5684 33.8506 22.4707C33.9482 22.373 34.0654 22.3242 34.2021 22.3242ZM33.6016 23.833C33.6016 23.6475 33.6797 23.5205 33.8359 23.4521C33.8945 23.4229 33.9482 23.4082 33.9971 23.4082C34.0557 23.4082 34.0947 23.4131 34.1143 23.4229C34.1436 23.4229 34.168 23.4229 34.1875 23.4229C34.3145 23.4619 34.4805 23.5547 34.6855 23.7012C34.9102 23.8574 35.0225 24.0283 35.0225 24.2139C35.0225 24.3408 34.9736 24.4482 34.876 24.5361C34.7783 24.6143 34.6807 24.6533 34.583 24.6533C34.4854 24.6533 34.3828 24.6191 34.2754 24.5508C34.0508 24.4141 33.8799 24.292 33.7627 24.1846C33.6553 24.0674 33.6016 23.9502 33.6016 23.833ZM38.2451 24.4189C38.2451 24.5264 38.1963 24.624 38.0986 24.7119C38.0107 24.79 37.918 24.8291 37.8203 24.8291C37.7227 24.8291 37.6299 24.8047 37.542 24.7559C37.4541 24.6973 37.3613 24.6338 37.2637 24.5654C37.166 24.4873 37.0879 24.4238 37.0293 24.375C36.9121 24.2578 36.8535 24.1455 36.8535 24.0381C36.8535 23.8916 36.8975 23.7793 36.9854 23.7012C37.0732 23.623 37.1709 23.584 37.2783 23.584C37.3955 23.584 37.5176 23.623 37.6445 23.7012C37.8887 23.8477 38.0498 23.9746 38.1279 24.082C38.2061 24.1895 38.2451 24.3018 38.2451 24.4189ZM28.1816 25.2393C28.1816 25.3174 28.2012 25.376 28.2402 25.415C28.2793 25.4541 28.3379 25.4736 28.416 25.4736H29.4854V24.3018H28.1816V25.2393ZM36.8535 25.5322C36.8535 25.6592 36.8047 25.7617 36.707 25.8398C36.6191 25.918 36.5264 25.957 36.4287 25.957C36.2822 25.957 36.082 25.8594 35.8281 25.6641C35.7305 25.5957 35.6475 25.5225 35.5791 25.4443C35.501 25.3564 35.4619 25.2588 35.4619 25.1514C35.4619 25.0244 35.5059 24.9219 35.5938 24.8438C35.6816 24.7656 35.7842 24.7266 35.9014 24.7266C36.0771 24.7266 36.3164 24.8584 36.6191 25.1221C36.6582 25.1514 36.6973 25.1855 36.7363 25.2246C36.8145 25.3027 36.8535 25.4053 36.8535 25.5322ZM39.9004 30.0293C40.0273 30.1562 40.0908 30.3223 40.0908 30.5273C40.0908 30.7324 40.0273 30.8936 39.9004 31.0107C39.7734 31.1279 39.6025 31.1865 39.3877 31.1865H27.1123C26.8779 31.1865 26.6973 31.123 26.5703 30.9961C26.4531 30.8789 26.3945 30.7178 26.3945 30.5127C26.3945 30.3076 26.4531 30.1465 26.5703 30.0293C26.6875 29.9121 26.8682 29.8535 27.1123 29.8535H27.8594V28.4033C27.8594 28.0029 27.9668 27.6953 28.1816 27.4805C28.4062 27.2559 28.7188 27.1436 29.1191 27.1436H37.3662C37.7764 27.1436 38.0889 27.2559 38.3037 27.4805C38.5283 27.6953 38.6406 28.0029 38.6406 28.4033V29.8535H39.3877C39.6123 29.8535 39.7832 29.9121 39.9004 30.0293ZM31.0088 28.4326H29.6465C29.5391 28.4326 29.4561 28.4619 29.3975 28.5205C29.3486 28.5693 29.3242 28.6426 29.3242 28.7402V29.8535H31.0088V28.4326ZM34.085 28.4326H32.4004V29.8535H34.085V28.4326ZM37.1758 28.7402C37.1758 28.584 37.1221 28.4863 37.0146 28.4473C36.9756 28.4375 36.9268 28.4326 36.8682 28.4326H35.4619V29.8535H37.1758V28.7402Z" fill="white"/>
</svg>
