<svg width="78" height="78" viewBox="0 0 78 78" fill="none" xmlns="http://www.w3.org/2000/svg">
<path d="M38.9082 77.5077C59.9306 77.5077 76.9726 60.4657 76.9726 39.4433C76.9726 18.4209 59.9306 1.37891 38.9082 1.37891C17.8858 1.37891 0.84375 18.4209 0.84375 39.4433C0.84375 60.4657 17.8858 77.5077 38.9082 77.5077Z" fill="#F5FAFE"/>
<mask id="mask0_7036_44308" style="mask-type:luminance" maskUnits="userSpaceOnUse" x="0" y="1" width="77" height="77">
<path d="M38.916 77.5087C59.9384 77.5087 76.9804 60.4667 76.9804 39.4443C76.9804 18.4219 59.9384 1.37988 38.916 1.37988C17.8936 1.37988 0.851562 18.4219 0.851562 39.4443C0.851562 60.4667 17.8936 77.5087 38.916 77.5087Z" fill="white"/>
</mask>
<g mask="url(#mask0_7036_44308)">
<g opacity="0.1">
<path fill-rule="evenodd" clip-rule="evenodd" d="M84.9357 52.335C84.9357 52.335 59.5311 52.3774 54.1236 52.441C53.6147 52.441 54.4205 54.0314 54.887 54.9433C56.0322 57.0851 57.1773 60.7537 59.8916 64.6131C61.6305 67.073 64.1328 67.6456 65.702 66.1611C67.1016 64.8252 66.9319 61.7928 66.9744 59.5661C66.9956 58.1454 67.0804 54.604 69.5827 54.4767C72.085 54.3495 72.3182 57.0639 72.5091 58.9088C72.7211 60.9445 73.018 64.2102 74.0571 65.5886C74.8841 66.6913 76.3049 67.3911 78.4043 65.9915C80.5461 64.5707 82.9211 58.9512 84.045 55.4098C84.6176 53.6497 84.8933 52.335 84.8933 52.335H84.9357Z" fill="#F19791"/>
<path fill-rule="evenodd" clip-rule="evenodd" d="M83.8243 52.4219L54.9844 52.4643C54.9844 52.4643 57.4867 60.6073 60.8796 64.2971C62.5336 66.0784 63.9544 66.7782 65.0783 65.6543C66.2235 64.5092 65.9266 60.6073 66.1598 58.4019C66.2871 57.1508 66.3507 53.4185 69.5528 53.3761C72.458 53.3337 72.8821 55.7088 73.1153 56.6842C73.6031 58.6776 73.7091 63.0248 74.5997 64.5092C75.4268 65.93 76.5083 66.3541 78.2047 65.0817C81.0251 63.0036 83.8455 52.4219 83.8455 52.4219H83.8243Z" fill="#EF867F"/>
<path d="M76.2705 29.9863C73.8743 29.9863 71.478 31.4071 69.4635 31.4071C67.4489 31.4071 65.0527 29.9863 62.6564 29.9863C57.8639 29.9863 54.6406 34.2699 54.6406 39.5289C54.6406 44.788 59.0302 65.8878 63.8227 65.7393C67.9155 65.6121 64.6073 54.1397 69.4635 54.1397C74.3196 54.1397 72.3475 65.2092 75.189 65.294C82.3566 65.5273 84.2651 44.8092 84.2651 39.5289C84.2651 34.2487 81.0419 29.9863 76.2493 29.9863H76.2705Z" fill="white" stroke="#602E2D" stroke-width="0.40291" stroke-linecap="round" stroke-linejoin="round"/>
<path fill-rule="evenodd" clip-rule="evenodd" d="M57.5481 51.7668C57.9298 54.8416 59.1598 59.2524 60.9623 62.0728C62.7435 64.8932 65.1186 66.6533 65.4367 62.1788C65.776 57.4499 65.3306 53.5905 69.6142 53.3996C74.0462 53.1876 74.0886 59.5281 74.2583 62.0728C74.4491 64.6175 76.0608 66.5684 78.7115 61.5215C81.7015 55.8171 82.677 48.8828 83.0587 44.2811C83.1859 42.7119 83.5252 38.9161 82.9527 37.1136C82.3801 35.3111 81.7015 33.3813 80.514 32.5967C79.5173 31.9394 77.5664 35.9897 77.2695 37.983C76.9726 39.9764 75.0641 47.3984 69.0417 48.8404C63.0192 50.2824 56.9756 47.9709 57.3785 51.2154L57.5481 51.7456V51.7668Z" fill="#E4EFF6"/>
<path fill-rule="evenodd" clip-rule="evenodd" d="M69.6819 33.187C70.8058 33.1234 72.0781 33.0174 72.7779 32.5084C74.0503 31.5754 74.9621 31.8935 74.3683 32.7417C73.711 33.696 73.1808 34.5018 69.7455 34.629C66.4374 34.735 65.2711 33.802 64.6561 33.0174C63.9351 32.1055 64.9742 31.9147 65.8224 32.4448C66.9887 33.1446 68.5368 33.2506 69.6819 33.187Z" fill="#F4F9FB"/>
<path fill-rule="evenodd" clip-rule="evenodd" d="M58.7272 35.0339C58.3879 35.5853 58.1123 36.3699 57.8366 37.2605C57.5821 38.1512 56.5642 39.1478 56.6279 37.0273C56.6915 34.9067 57.773 33.3799 58.7696 32.8073C59.7663 32.2347 61.1871 32.1075 61.3992 32.8497C61.59 33.5071 61.2083 33.9312 60.3813 33.9948C59.5543 34.0797 59.1514 34.3765 58.7272 35.0339Z" fill="#E4EFF6"/>
</g>
<g opacity="0.1">
<path fill-rule="evenodd" clip-rule="evenodd" d="M23.0763 52.4414C23.0763 52.4414 -2.32826 52.4838 -7.73574 52.5474C-8.24468 52.5474 -7.43886 54.1379 -6.97233 55.0497C-5.82722 57.1915 -4.6821 60.8601 -1.96776 64.7196C-0.228883 67.1794 2.2734 67.752 3.84263 66.2676C5.24222 64.9316 5.07257 61.8992 5.11498 59.6726C5.13618 58.2518 5.22101 54.7104 7.72329 54.5832C10.2256 54.456 10.4588 57.1703 10.6497 59.0152C10.8618 61.051 11.1586 64.3167 12.1977 65.695C13.0247 66.7977 14.4455 67.4975 16.5449 66.0979C18.6867 64.6772 21.0617 59.0576 22.1856 55.5162C22.7582 53.7562 23.0339 52.4414 23.0339 52.4414H23.0763Z" fill="#F19791"/>
<path fill-rule="evenodd" clip-rule="evenodd" d="M21.9493 52.4414L-6.89062 52.4838C-6.89062 52.4838 -4.38834 60.6268 -0.995409 64.3167C0.658644 66.0979 2.07943 66.7977 3.20334 65.6738C4.34845 64.5287 4.05157 60.6268 4.28484 58.4214C4.41207 57.1703 4.47569 53.4381 7.67777 53.3957C10.583 53.3533 11.0071 55.7283 11.2403 56.7038C11.7281 58.6971 11.8341 63.0443 12.7247 64.5287C13.5518 65.9495 14.6333 66.3736 16.3297 65.1013C19.1501 63.0231 21.9705 52.4414 21.9705 52.4414H21.9493Z" fill="#EF867F"/>
<path d="M14.3799 30.1133C11.9837 30.1133 9.58741 31.5341 7.57286 31.5341C5.55831 31.5341 3.16205 30.1133 0.765797 30.1133C-4.02672 30.1133 -7.25 34.3969 -7.25 39.6559C-7.25 44.9149 -2.8604 66.0147 1.93211 65.8663C6.02483 65.739 2.71673 54.2667 7.57286 54.2667C12.429 54.2667 10.4569 65.3361 13.2984 65.421C20.466 65.6542 22.3745 44.9361 22.3745 39.6559C22.3745 34.3757 19.1512 30.1133 14.3587 30.1133H14.3799Z" fill="white" stroke="#602E2D" stroke-width="0.40291" stroke-linecap="round" stroke-linejoin="round"/>
<path fill-rule="evenodd" clip-rule="evenodd" d="M-4.34252 51.9142C-3.96081 54.9891 -2.73087 59.3999 -0.928379 62.2203C0.852909 65.0406 3.22796 66.8007 3.54604 62.3263C3.88534 57.5974 3.44002 53.7379 7.72359 53.5471C12.1556 53.335 12.198 59.6756 12.3677 62.2203C12.5585 64.765 14.1702 66.7159 16.8209 61.6689C19.8109 55.9646 20.7864 49.0303 21.1681 44.4286C21.2953 42.8594 21.6346 39.0635 21.062 37.261C20.4895 35.4585 19.8109 33.5288 18.6234 32.7442C17.6267 32.0868 15.6758 36.1371 15.3789 38.1305C15.082 40.1238 13.1735 47.5458 7.15103 48.9878C1.12858 50.4298 -4.91507 48.1184 -4.51216 51.3629L-4.34252 51.893V51.9142Z" fill="#E4EFF6"/>
<path fill-rule="evenodd" clip-rule="evenodd" d="M7.79123 33.3345C8.91514 33.2709 10.1875 33.1648 10.8873 32.6559C12.1596 31.7228 13.0715 32.0409 12.4777 32.8892C11.8203 33.8434 11.2902 34.6492 7.85485 34.7765C4.54675 34.8825 3.38043 33.9495 2.76546 33.1648C2.04446 32.253 3.08355 32.0621 3.93178 32.5923C5.0981 33.2921 6.64612 33.3981 7.79123 33.3345Z" fill="#F4F9FB"/>
</g>
<path fill-rule="evenodd" clip-rule="evenodd" d="M83.8233 52.3986C83.8233 52.3986 79.6034 53.0136 69.5942 53.4165C59.5851 53.8194 56.892 52.4198 56.892 52.4198C56.892 52.4198 56.1073 50.5537 54.3261 50.5537C52.5448 50.5537 51.845 52.441 51.845 52.441H26.0587C26.0587 52.441 25.3165 50.8082 23.3444 50.7446C21.3722 50.6809 20.9269 52.4622 20.9269 52.4622C20.9269 52.4622 20.5664 54.0527 9.73025 53.777L-6.49219 53.3953C-5.00778 62.2169 -4.05352 71.0809 -3.12046 81.4294C8.64876 81.0689 29.7061 83.9953 35.9406 83.9741C43.299 83.9529 70.6757 88.8514 80.3668 83.6772C87.9797 79.6057 83.8445 52.4198 83.8445 52.4198L83.8233 52.3986Z" fill="#F6BDB6"/>
<mask id="mask1_7036_44308" style="mask-type:luminance" maskUnits="userSpaceOnUse" x="-7" y="50" width="92" height="37">
<path d="M83.8233 52.3986C83.8233 52.3986 79.6034 53.0136 69.5942 53.4165C59.5851 53.8194 56.892 52.4198 56.892 52.4198C56.892 52.4198 56.1073 50.5537 54.3261 50.5537C52.5448 50.5537 51.845 52.441 51.845 52.441H26.0587C26.0587 52.441 25.3165 50.8082 23.3444 50.7446C21.3722 50.6809 20.9269 52.4622 20.9269 52.4622C20.9269 52.4622 20.5664 54.0527 9.73025 53.777L-6.49219 53.3953C-5.00778 62.2169 -4.05352 71.0809 -3.12046 81.4294C8.64876 81.0689 29.7061 83.9953 35.9406 83.9741C43.299 83.9529 70.6757 88.8514 80.3668 83.6772C87.9797 79.6057 83.8445 52.4198 83.8445 52.4198L83.8233 52.3986Z" fill="white"/>
</mask>
<g mask="url(#mask1_7036_44308)">
<path fill-rule="evenodd" clip-rule="evenodd" d="M53.8988 49.5603C53.8988 49.5603 28.9608 50.5994 24.0623 50.663C23.5957 50.663 24.7408 56.1129 25.3134 57.8305C25.7799 59.2301 26.5009 61.6052 28.8124 64.574C30.1059 66.2492 33.6049 68.4546 35.0469 67.0975C36.3192 65.8887 36.4252 62.7503 36.4677 60.7145C36.4889 59.421 36.5525 56.1977 38.8427 56.0705C41.1329 55.9432 41.3238 58.4243 41.4934 60.0996C41.6843 61.9657 41.96 64.9345 42.9142 66.1856C43.6776 67.1823 45.3741 67.5428 47.3886 66.4189C49.5728 65.2102 51.2269 60.5237 52.1387 57.0459C52.6265 55.1586 52.8385 54.1407 52.8385 54.1407L53.8988 49.5391V49.5603Z" fill="#F0928B"/>
<path fill-rule="evenodd" clip-rule="evenodd" d="M51.7662 54.1583L24.4531 49.8535L25.5134 54.2007C25.5134 54.2007 26.5313 61.6015 30.7088 65.1429C32.172 66.3728 33.6776 67.2423 34.6955 66.2032C35.7346 65.1641 35.4801 61.6227 35.6922 59.587C35.8194 58.4419 35.8618 55.0489 38.767 55.0065C41.4178 54.9641 41.7995 57.1271 42.0115 58.0178C42.4569 59.8415 42.5629 63.7857 43.3475 65.1429C44.1109 66.4365 44.9379 66.5849 46.6344 65.673C50.1546 63.7857 51.7662 54.1583 51.7662 54.1583Z" fill="#ED786F"/>
<path d="M23.3229 45.3809C23.3229 45.3809 22.8776 52.3788 23.3229 55.7929C23.7682 59.207 23.3229 62.5576 23.3229 62.5576H54.9196C54.9196 62.5576 55.2801 57.7651 54.9196 55.5596C54.5591 53.3542 54.9196 45.3809 54.9196 45.3809H23.3229Z" fill="#ED7270" stroke="#602E2D" stroke-width="0.40291" stroke-linecap="round" stroke-linejoin="round"/>
</g>
<path fill-rule="evenodd" clip-rule="evenodd" d="M83.8234 52.3986C83.8234 52.3986 79.6034 53.0136 69.5942 53.4165C59.5851 53.8194 56.892 52.4198 56.892 52.4198C56.892 52.4198 56.1074 50.5537 54.3261 50.5537C52.5448 50.5537 51.845 52.441 51.845 52.441H26.0587C26.0587 52.441 25.3165 50.8082 23.3444 50.7446C21.3722 50.6809 20.9269 52.4622 20.9269 52.4622C20.9269 52.4622 20.5664 54.0527 9.73025 53.777L-6.49219 53.3953C-5.00778 62.2169 -4.05352 71.0809 -3.12046 81.4294C8.64876 81.0689 29.7061 83.9953 35.9406 83.9741C43.299 83.9529 70.6757 88.8514 80.3668 83.6772C87.9797 79.6057 83.8445 52.4198 83.8445 52.4198L83.8234 52.3986Z" stroke="#602E2D" stroke-width="0.40291" stroke-linecap="round" stroke-linejoin="round"/>
<path fill-rule="evenodd" clip-rule="evenodd" d="M153.109 68.4116V100.814H-43.6172V76.0033C-43.6172 76.0033 -36.0467 70.4474 -24.6168 70.4474C-15.3286 70.4474 -12.2538 77.0848 -2.45672 76.7879C9.31251 76.4274 11.1574 68.1359 21.0181 67.9875C27.9524 67.8815 29.8185 75.1338 36.0318 75.1126C43.3902 75.0914 51.0455 65.9093 57.8526 70.6806C76.6197 83.807 76.5773 64.8066 90.5096 71.0199C98.0376 74.3704 103.7 76.4486 113.391 71.2532C121.003 67.1817 129.274 76.4698 135.975 76.385C147.193 76.2365 152.643 69.069 153.109 68.4116Z" fill="#EB9394"/>
<path fill-rule="evenodd" clip-rule="evenodd" d="M153.943 70.0844V102.487H-42.8047V77.6761C-42.8047 77.6761 -35.2342 72.1202 -23.8043 72.1202C-14.5161 72.1202 -11.4413 78.7576 -1.64422 78.4607C10.125 78.1002 11.9699 69.8088 21.8094 69.6603C28.7437 69.5543 30.6098 76.8067 36.8231 76.7855C44.1815 76.7643 51.8368 67.5822 58.6439 72.3535C77.411 85.4799 77.3686 66.4795 91.3008 72.6928C98.8289 76.0433 104.491 78.1215 114.182 72.926C121.795 68.8545 130.065 78.1427 136.766 78.0578C147.984 77.9094 153.434 70.7418 153.9 70.0844H153.943Z" fill="#EB9394"/>
<path d="M45.3799 29.9863C42.9837 29.9863 40.5874 31.4071 38.5729 31.4071C36.5583 31.4071 34.162 29.9863 31.7658 29.9863C26.9733 29.9863 23.75 34.2699 23.75 39.5289C23.75 44.788 28.1396 65.8878 32.9321 65.7393C37.0248 65.6121 33.7167 54.1397 38.5729 54.1397C43.429 54.1397 41.4568 65.2092 44.2984 65.294C51.466 65.5273 53.3745 44.8092 53.3745 39.5289C53.3745 34.2487 50.1512 29.9863 45.3587 29.9863H45.3799Z" fill="white"/>
<path d="M45.3799 29.9863C42.9837 29.9863 40.5874 31.4071 38.5729 31.4071C36.5583 31.4071 34.162 29.9863 31.7658 29.9863C26.9733 29.9863 23.75 34.2699 23.75 39.5289C23.75 44.788 28.1396 65.8878 32.9321 65.7393C37.0248 65.6121 33.7167 54.1397 38.5729 54.1397C43.429 54.1397 41.4568 65.2092 44.2984 65.294C51.466 65.5273 53.3745 44.8092 53.3745 39.5289C53.3745 34.2487 50.1512 29.9863 45.3587 29.9863H45.3799Z" stroke="#602E2D" stroke-width="0.487734" stroke-linecap="round" stroke-linejoin="round"/>
<path fill-rule="evenodd" clip-rule="evenodd" d="M38.7912 33.187C39.9151 33.1234 41.1875 33.0174 41.8873 32.5084C43.1596 31.5754 44.0715 31.8935 43.4777 32.7417C42.8203 33.696 42.2902 34.5018 38.8548 34.629C35.5467 34.735 34.3804 33.802 33.7655 33.0174C33.0445 32.1055 34.0835 31.9147 34.9318 32.4448C36.0981 33.1446 37.6461 33.2506 38.7912 33.187Z" fill="#F4F9FB"/>
<path fill-rule="evenodd" clip-rule="evenodd" d="M27.8366 35.0329C27.4973 35.5843 27.2216 36.3689 26.946 37.2595C26.6915 38.1502 25.6736 39.1469 25.7372 37.0263C25.8008 34.9057 26.8823 33.3789 27.879 32.8063C28.8757 32.2338 30.2965 32.1065 30.5085 32.8487C30.6994 33.5061 30.3177 33.9302 29.4907 33.9939C28.6636 34.0787 28.2607 34.3756 27.8366 35.0329Z" fill="#E4EFF6"/>
<path d="M23.4565 57.3192C23.6685 59.3974 22.9688 66.1197 22.9688 66.1197L54.9047 66.6074C54.9895 63.2781 55.3712 58.6976 54.9683 56.0893C54.9683 56.0893 54.417 55.0078 51.1725 56.1529C49.9213 56.5982 48.3945 56.6619 46.6768 57.0436C41.9692 58.0402 36.18 55.5804 33.7837 55.9833C29.076 56.7679 25.0257 55.3259 23.6049 55.7924C23.202 55.9197 23.4141 56.8527 23.4565 57.3192Z" fill="#FACE9C" stroke="#602E2D" stroke-width="0.40291" stroke-linecap="round" stroke-linejoin="round"/>
<path d="M24.6856 56.2398C24.4311 55.1159 24.007 52.9529 28.333 54.2464C31.6199 55.2431 32.6377 54.7342 33.3375 55.8793C33.9525 56.876 32.2984 56.7699 29.3296 57.3425C26.3608 57.915 24.9612 57.3637 24.7068 56.2398H24.6856Z" fill="#FEEEDE" stroke="#602E2D" stroke-width="0.40291" stroke-linecap="round" stroke-linejoin="round"/>
<path d="M39.8583 60.947C39.8583 61.3711 39.2858 61.7104 38.6072 61.7104C37.9286 61.7104 37.3984 61.1591 37.3984 60.7349C37.3984 60.3108 37.9074 60.1836 38.6072 60.1836C39.307 60.1836 39.8583 60.5229 39.8583 60.947Z" fill="#C49258" stroke="#602E2D" stroke-width="0.40291" stroke-linecap="round" stroke-linejoin="round"/>
<path d="M46.1697 59.8C46.0425 60.2029 45.067 60.3514 44.4097 60.1605C43.7523 59.9697 43.6463 59.4607 43.7735 59.0578C43.9007 58.6549 44.5369 58.5065 45.1943 58.7185C45.8517 58.9306 46.297 59.4183 46.1697 59.8212V59.8Z" fill="#C49258" stroke="#602E2D" stroke-width="0.40291" stroke-linecap="round" stroke-linejoin="round"/>
<path d="M32.9906 58.0841C33.0542 58.4658 32.7785 59.2292 32.2696 59.314C31.7606 59.3989 31.1881 58.8051 31.1245 58.4234C31.0608 58.0417 31.4213 57.66 31.9303 57.554C32.4392 57.4479 32.927 57.6812 32.9906 58.0629V58.0841Z" fill="#C49258" stroke="#602E2D" stroke-width="0.40291" stroke-linecap="round" stroke-linejoin="round"/>
<path d="M28.3256 59.6946C28.2196 60.0763 27.2865 60.3732 26.5656 60.1611C25.8446 59.9491 25.378 59.4613 25.5053 59.0796C25.6325 58.6979 26.2899 58.5919 26.9897 58.8039C27.6895 59.016 28.4317 59.3129 28.3256 59.6946Z" fill="#C49258" stroke="#602E2D" stroke-width="0.40291" stroke-linecap="round" stroke-linejoin="round"/>
<path d="M52.3391 60.1421C52.4028 60.5238 52.0423 60.9055 51.5333 61.0115C51.0244 61.1176 50.5367 60.8843 50.473 60.5026C50.4094 60.1209 51.0668 59.5695 51.5969 59.4635C52.1271 59.3575 52.2967 59.7604 52.3604 60.1421H52.3391Z" fill="#C49258" stroke="#602E2D" stroke-width="0.40291" stroke-linecap="round" stroke-linejoin="round"/>
<path d="M58.5902 77.2944C58.166 92.4989 58.4629 122.569 60.7107 145.111C60.8168 146.086 61.6862 146.871 62.6829 146.871C63.6371 146.871 64.4006 146.15 64.4218 145.238C64.9095 117.076 61.2621 85.0981 60.3714 77.8457C60.2442 76.7642 59.8625 75.7039 59.2687 74.7709C58.4205 73.4349 56.9361 71.3568 54.7519 69.0029C54.4762 68.6848 54.0097 69.0453 54.243 69.3846C56.1727 72.099 57.445 74.2195 58.1024 75.3859C58.4417 76.0008 58.6114 76.6794 58.5902 77.3368V77.2944Z" fill="#BFCAD3" stroke="#602E2D" stroke-width="0.40291" stroke-miterlimit="10" stroke-linecap="round"/>
<path d="M21.6741 72.2509L21.25 71.7419L32.9132 70.618L53.8857 70.3848L56.9394 71.7419L56.6637 72.3993C56.6637 72.3993 54.0766 73.2475 49.3689 72.4629C47.1635 72.1024 43.4949 72.7386 40.9714 72.6114C38.4479 72.4841 37.6633 73.1203 30.1564 72.1024C27.7602 71.7844 21.6529 72.2509 21.6529 72.2509H21.6741Z" fill="#ED7270" stroke="#602E2D" stroke-width="0.40291" stroke-linecap="round" stroke-linejoin="round"/>
<path d="M23.2435 62.8958C21.5895 64.8255 20.9533 68.1336 21.2502 71.7174C21.2502 71.7174 25.5338 70.9328 32.5529 71.7174C38.8934 72.4384 46.1034 71.2085 49.5387 71.7174C55.0523 72.5444 56.9396 71.7174 56.9396 71.7174C57.4697 68.685 56.4094 65.6314 54.9038 62.5565C54.9038 62.5565 51.8714 61.9627 44.8098 62.4717C37.7483 62.9806 36.0518 61.369 30.0294 62.0688C26.2336 62.5141 23.2223 62.8958 23.2223 62.8958H23.2435Z" fill="#F19B99" stroke="#602E2D" stroke-width="0.40291" stroke-linecap="round" stroke-linejoin="round"/>
<path d="M59.8558 74.5186C59.9194 90.2533 61.1918 121.256 64.1394 144.286C64.2666 145.282 65.1573 146.003 66.1752 145.897C67.1294 145.791 67.8504 144.986 67.8504 144.031C67.4475 114.937 62.7822 82.3012 61.6795 74.9003C61.5099 73.7976 61.107 72.7586 60.4708 71.8467C59.5802 70.5531 58.0533 68.5598 55.8055 66.3544C55.5086 66.0575 55.0633 66.4604 55.3178 66.7997C57.3111 69.408 58.6471 71.465 59.3469 72.5889C59.7074 73.1827 59.8982 73.8612 59.8982 74.561L59.8558 74.5186Z" fill="#BFCAD3" stroke="#602E2D" stroke-width="0.40291" stroke-miterlimit="10" stroke-linecap="round"/>
<path d="M6.79971 43.3052L8.59375 40.0566L-27.79 19.9634L-29.584 23.212L6.79971 43.3052Z" fill="#A8B5BE" stroke="#602E2D" stroke-width="0.40291" stroke-linecap="round" stroke-linejoin="round"/>
<path d="M7.27655 42.4528L8.11719 40.9307L-28.2666 20.8375L-29.1072 22.3596L7.27655 42.4528Z" fill="#BFCAD3" stroke="#602E2D" stroke-width="0.40291" stroke-linecap="round" stroke-linejoin="round"/>
<path d="M20.488 48.2852C21.7604 46.4615 14.3171 44.5318 13.5537 44.1076L12.9387 43.7684L9.67305 41.9659C8.33709 41.2237 8.59156 40.0361 8.59156 40.0361L6.78906 43.2806C6.78906 43.2806 7.6585 42.4324 8.99447 43.1746L12.2602 44.9771L12.8751 45.3164C13.7022 45.7617 13.9778 46.3979 14.0839 46.8008C14.1475 47.0977 14.3383 47.3733 14.614 47.5218C14.614 47.5218 18.219 51.5297 20.488 48.264V48.2852Z" fill="#D3D8DE" stroke="#602E2D" stroke-width="0.40291" stroke-linecap="round" stroke-linejoin="round"/>
<path d="M19.4504 47.5659C18.7082 48.4566 18.1356 48.3081 17.0117 47.884C15.8878 47.4599 15.1456 46.6329 15.3788 46.0391C15.6121 45.4454 16.6936 45.2969 17.8175 45.721C18.9414 46.1452 20.1926 46.6753 19.4504 47.5659Z" fill="#A8B5BE" stroke="#602E2D" stroke-width="0.40291" stroke-linecap="round" stroke-linejoin="round"/>
<path d="M52.2634 53.9905C50.9698 53.3544 48.6584 55.8778 43.7599 54.9236C38.8613 53.9693 32.9873 52.9302 32.2027 54.7539C31.6513 56.0475 33.8779 56.4716 35.6804 56.7261C36.5711 56.8533 37.3981 57.235 38.0979 57.8076C39.031 58.5922 41.8089 60.119 43.1661 58.7618C45.2443 56.6837 50.6729 57.3198 51.7757 56.9381C53.6206 56.2808 55.3382 55.5173 52.2634 53.9905Z" fill="#FEEEDE" stroke="#602E2D" stroke-width="0.40291" stroke-linecap="round" stroke-linejoin="round"/>
<path d="M14.8593 45.6143C14.8593 45.6143 13.8202 41.8821 16.8527 43.4937C18.4007 44.3207 19.9699 44.8721 19.7579 46.0172C19.5458 47.1623 19.3337 47.4804 18.3583 47.7773C16.4498 48.371 14.6473 46.7382 14.8805 45.6143H14.8593Z" fill="#FEEEDE" stroke="#602E2D" stroke-width="0.40291" stroke-linecap="round" stroke-linejoin="round"/>
</g>
<path d="M38.9082 77.5077C59.9306 77.5077 76.9726 60.4657 76.9726 39.4433C76.9726 18.4209 59.9306 1.37891 38.9082 1.37891C17.8858 1.37891 0.84375 18.4209 0.84375 39.4433C0.84375 60.4657 17.8858 77.5077 38.9082 77.5077Z" stroke="#00AEFF" stroke-width="0.91185" stroke-miterlimit="10"/>
</svg>
