<svg width="78" height="78" viewBox="0 0 78 78" fill="none" xmlns="http://www.w3.org/2000/svg">
<path d="M38.9082 76.955C59.9306 76.955 76.9726 59.913 76.9726 38.8906C76.9726 17.8682 59.9306 0.826172 38.9082 0.826172C17.8858 0.826172 0.84375 17.8682 0.84375 38.8906C0.84375 59.913 17.8858 76.955 38.9082 76.955Z" fill="#F5FAFE"/>
<mask id="mask0_7036_44112" style="mask-type:luminance" maskUnits="userSpaceOnUse" x="0" y="0" width="77" height="77">
<path d="M38.916 76.9531C59.9384 76.9531 76.9804 59.911 76.9804 38.8886C76.9804 17.8662 59.9384 0.824219 38.916 0.824219C17.8936 0.824219 0.851562 17.8662 0.851562 38.8886C0.851562 59.911 17.8936 76.9531 38.916 76.9531Z" fill="white"/>
</mask>
<g mask="url(#mask0_7036_44112)">
<g opacity="0.1">
<path fill-rule="evenodd" clip-rule="evenodd" d="M84.9435 51.7822C84.9435 51.7822 59.5389 51.8246 54.1314 51.8883C53.6225 51.8883 54.4283 53.4787 54.8949 54.3905C56.04 56.5323 57.1851 60.2009 59.8994 64.0604C61.6383 66.5203 64.1406 67.0928 65.7098 65.6084C67.1094 64.2724 66.9398 61.24 66.9822 59.0134C67.0034 57.5926 67.0882 54.0512 69.5905 53.924C72.0928 53.7968 72.326 56.5111 72.5169 58.356C72.7289 60.3918 73.0258 63.6575 74.0649 65.0359C74.8919 66.1386 76.3127 66.8384 78.4121 65.4388C80.5539 64.018 82.9289 58.3984 84.0528 54.8571C84.6254 53.097 84.9011 51.7822 84.9011 51.7822H84.9435Z" fill="#F19791"/>
<path fill-rule="evenodd" clip-rule="evenodd" d="M83.8165 51.8691L54.9766 51.9116C54.9766 51.9116 57.4788 60.0546 60.8718 63.7444C62.5258 65.5257 63.9466 66.2255 65.0705 65.1016C66.2156 63.9565 65.9188 60.0546 66.152 57.8492C66.2793 56.598 66.3429 52.8658 69.5449 52.8234C72.4501 52.781 72.8743 55.156 73.1075 56.1315C73.5953 58.1249 73.7013 62.472 74.5919 63.9565C75.419 65.3772 76.5005 65.8014 78.1969 64.529C81.0173 62.4508 83.8377 51.8691 83.8377 51.8691H83.8165Z" fill="#EF867F"/>
<path d="M76.2393 29.4336C73.843 29.4336 71.4468 30.8544 69.4322 30.8544C67.4177 30.8544 65.0214 29.4336 62.6252 29.4336C57.8327 29.4336 54.6094 33.7172 54.6094 38.9762C54.6094 44.2352 58.999 65.335 63.7915 65.1866C67.8842 65.0593 64.5761 53.587 69.4322 53.587C74.2884 53.587 72.3162 64.6564 75.1578 64.7413C82.3254 64.9745 84.2339 44.2565 84.2339 38.9762C84.2339 33.696 81.0106 29.4336 76.2181 29.4336H76.2393Z" fill="white" stroke="#602E2D" stroke-width="0.40291" stroke-linecap="round" stroke-linejoin="round"/>
<path fill-rule="evenodd" clip-rule="evenodd" d="M57.5169 51.2346C57.8986 54.3094 59.1285 58.7202 60.931 61.5406C62.7123 64.361 65.0873 66.121 65.4054 61.6466C65.7447 56.9177 65.2994 53.0583 69.583 52.8674C74.015 52.6553 74.0574 58.9959 74.227 61.5406C74.4179 64.0853 76.0295 66.0362 78.6803 60.9892C81.6703 55.2849 82.6457 48.3506 83.0274 43.7489C83.1547 42.1797 83.494 38.3838 82.9214 36.5813C82.3489 34.7789 81.6703 32.8491 80.4827 32.0645C79.4861 31.4071 77.5351 35.4574 77.2383 37.4508C76.9414 39.4441 75.0329 46.8662 69.0104 48.3082C62.988 49.7502 56.9443 47.4387 57.3472 50.6832L57.5169 51.2133V51.2346Z" fill="#E4EFF6"/>
<path fill-rule="evenodd" clip-rule="evenodd" d="M69.6506 32.6548C70.7745 32.5912 72.0469 32.4852 72.7467 31.9762C74.019 31.0432 74.9309 31.3612 74.3371 32.2095C73.6797 33.1637 73.1496 33.9696 69.7142 34.0968C66.4061 34.2028 65.2398 33.2698 64.6248 32.4851C63.9038 31.5733 64.9429 31.3824 65.7912 31.9126C66.9575 32.6124 68.5055 32.7184 69.6506 32.6548Z" fill="#F4F9FB"/>
<path fill-rule="evenodd" clip-rule="evenodd" d="M58.696 34.4812C58.3567 35.0325 58.081 35.8171 57.8053 36.7078C57.5509 37.5984 56.533 38.5951 56.5966 36.4745C56.6602 34.3539 57.7417 32.8271 58.7384 32.2546C59.7351 31.682 61.1559 31.5548 61.3679 32.297C61.5588 32.9544 61.1771 33.3785 60.35 33.4421C59.523 33.5269 59.1201 33.8238 58.696 34.4812Z" fill="#E4EFF6"/>
</g>
<g opacity="0.1">
<path fill-rule="evenodd" clip-rule="evenodd" d="M23.0685 51.9092C23.0685 51.9092 -2.33607 51.9516 -7.74355 52.0152C-8.25249 52.0152 -7.44667 53.6056 -6.98014 54.5175C-5.83503 56.6593 -4.68992 60.3279 -1.97558 64.1873C-0.2367 66.6472 2.26558 67.2198 3.83482 65.7354C5.2344 64.3994 5.06475 61.367 5.10716 59.1404C5.12837 57.7196 5.21319 54.1782 7.71548 54.051C10.2178 53.9237 10.451 56.6381 10.6419 58.483C10.8539 60.5187 11.1508 63.7844 12.1899 65.1628C13.0169 66.2655 14.4377 66.9653 16.5371 65.5657C18.6789 64.1449 21.0539 58.5254 22.1778 54.984C22.7504 53.2239 23.0261 51.9092 23.0261 51.9092H23.0685Z" fill="#F19791"/>
<path fill-rule="evenodd" clip-rule="evenodd" d="M21.9415 51.9092L-6.89844 51.9516C-6.89844 51.9516 -4.39615 60.0946 -1.00322 63.7844C0.650831 65.5657 2.07162 66.2655 3.19553 65.1416C4.34064 63.9965 4.04376 60.0946 4.27702 57.8892C4.40426 56.6381 4.46788 52.9059 7.66995 52.8634C10.5751 52.821 10.9993 55.1961 11.2325 56.1715C11.7203 58.1649 11.8263 62.5121 12.7169 63.9965C13.544 65.4173 14.6255 65.8414 16.3219 64.569C19.1423 62.4909 21.9627 51.9092 21.9627 51.9092H21.9415Z" fill="#EF867F"/>
<path d="M14.4034 29.5605C12.0071 29.5605 9.61085 30.9813 7.5963 30.9813C5.58174 30.9813 3.18549 29.5605 0.789234 29.5605C-4.00328 29.5605 -7.22656 33.8441 -7.22656 39.1032C-7.22656 44.3622 -2.83696 65.462 1.95555 65.3135C6.04827 65.1863 2.74017 53.714 7.5963 53.714C12.4524 53.714 10.4803 64.7834 13.3219 64.8682C20.4894 65.1015 22.3979 44.3834 22.3979 39.1032C22.3979 33.8229 19.1747 29.5605 14.3822 29.5605H14.4034Z" fill="white" stroke="#602E2D" stroke-width="0.40291" stroke-linecap="round" stroke-linejoin="round"/>
<path fill-rule="evenodd" clip-rule="evenodd" d="M-4.3347 51.3615C-3.953 54.4363 -2.72306 58.8472 -0.92057 61.6675C0.860717 64.4879 3.23577 66.248 3.55386 61.7736C3.89315 57.0447 3.44783 53.1852 7.7314 52.9944C12.1634 52.7823 12.2058 59.1228 12.3755 61.6675C12.5663 64.2122 14.178 66.1632 16.8287 61.1162C19.8187 55.4118 20.7942 48.4775 21.1759 43.8759C21.3031 42.3066 21.6424 38.5108 21.0699 36.7083C20.4973 34.9058 19.8187 32.9761 18.6312 32.1915C17.6345 31.5341 15.6836 35.5844 15.3867 37.5777C15.0898 39.5711 13.1813 46.9931 7.15884 48.4351C1.1364 49.8771 -4.90726 47.5657 -4.50435 50.8102L-4.3347 51.3403V51.3615Z" fill="#E4EFF6"/>
<path fill-rule="evenodd" clip-rule="evenodd" d="M7.78342 32.7817C8.90733 32.7181 10.1797 32.6121 10.8795 32.1032C12.1518 31.1701 13.0637 31.4882 12.4699 32.3364C11.8125 33.2907 11.2824 34.0965 7.84704 34.2237C4.53893 34.3298 3.37262 33.3967 2.75765 32.6121C2.03665 31.7003 3.07573 31.5094 3.92396 32.0395C5.09028 32.7393 6.63831 32.8454 7.78342 32.7817Z" fill="#F4F9FB"/>
</g>
<path fill-rule="evenodd" clip-rule="evenodd" d="M83.8155 51.8449C83.8155 51.8449 79.5956 52.4599 69.5864 52.8628C59.5773 53.2657 56.8842 51.8661 56.8842 51.8661C56.8842 51.8661 56.0995 50 54.3182 50C52.537 50 51.8372 51.8873 51.8372 51.8873H26.0509C26.0509 51.8873 25.3087 50.2545 23.3366 50.1909C21.3644 50.1272 20.9191 51.9085 20.9191 51.9085C20.9191 51.9085 20.5586 53.499 9.72244 53.2233C6.47795 53.1385 0.413093 52.99 -6.5 52.8416C-5.01559 61.6632 -4.06133 70.5272 -3.12828 80.8757C8.64095 80.5152 29.6983 83.4416 35.9328 83.4204C43.2912 83.3991 70.6679 88.2977 80.359 83.1235C87.9719 79.052 83.8367 51.8661 83.8367 51.8661L83.8155 51.8449Z" fill="#F6BDB6"/>
<mask id="mask1_7036_44112" style="mask-type:luminance" maskUnits="userSpaceOnUse" x="-7" y="50" width="92" height="36">
<path d="M83.8155 51.8459C83.8155 51.8459 79.5956 52.4609 69.5864 52.8638C59.5773 53.2667 56.8842 51.8671 56.8842 51.8671C56.8842 51.8671 56.0995 50.001 54.3182 50.001C52.537 50.001 51.8372 51.8883 51.8372 51.8883H26.0509C26.0509 51.8883 25.3087 50.2554 23.3366 50.1918C21.3644 50.1282 20.9191 51.9095 20.9191 51.9095C20.9191 51.9095 20.5586 53.4999 9.72244 53.2243C6.47795 53.1394 0.413093 52.991 -6.5 52.8426C-5.01559 61.6642 -4.06133 70.5282 -3.12828 80.8766C8.64095 80.5161 29.6983 83.4425 35.9328 83.4213C43.2912 83.4001 70.6679 88.2987 80.359 83.1244C87.9719 79.0529 83.8367 51.8671 83.8367 51.8671L83.8155 51.8459Z" fill="white"/>
</mask>
<g mask="url(#mask1_7036_44112)">
<path fill-rule="evenodd" clip-rule="evenodd" d="M53.891 49.0066C53.891 49.0066 28.953 50.0456 24.0544 50.1093C23.5879 50.1093 24.733 55.5592 25.3056 57.2768C25.7721 58.6764 26.4931 61.0515 28.8045 64.0203C30.0981 65.6955 33.5971 67.9009 35.0391 66.5438C36.3114 65.335 36.4174 62.1966 36.4598 60.1608C36.481 58.8673 36.5447 55.644 38.8349 55.5167C41.1251 55.3895 41.316 57.8706 41.4856 59.5458C41.6765 61.412 41.9522 64.3808 42.9064 65.6319C43.6698 66.6286 45.3663 66.9891 47.3808 65.8652C49.565 64.6564 51.2191 59.97 52.1309 56.4922C52.6187 54.6049 52.8307 53.587 52.8307 53.587L53.891 48.9854V49.0066Z" fill="#F0928B"/>
<path fill-rule="evenodd" clip-rule="evenodd" d="M51.7584 53.6046L24.4453 49.2998L25.5056 53.647C25.5056 53.647 26.5235 61.0478 30.701 64.5892C32.1642 65.8191 33.6698 66.6886 34.6877 65.6495C35.7268 64.6104 35.4723 61.069 35.6844 59.0333C35.8116 57.8882 35.854 54.4952 38.7592 54.4528C41.41 54.4104 41.7917 56.5734 42.0037 57.464C42.449 59.2877 42.5551 63.232 43.3397 64.5892C44.1031 65.8827 44.9301 66.0312 46.6266 65.1193C50.1468 63.232 51.7584 53.6046 51.7584 53.6046Z" fill="#ED786F"/>
<path d="M23.3151 44.8271C23.3151 44.8271 22.8698 51.8251 23.3151 55.2392C23.7604 58.6533 23.3151 62.0039 23.3151 62.0039H54.9118C54.9118 62.0039 55.2723 57.2113 54.9118 55.0059C54.5513 52.8005 54.9118 44.8271 54.9118 44.8271H23.3151Z" fill="#ED7270" stroke="#602E2D" stroke-width="0.40291" stroke-linecap="round" stroke-linejoin="round"/>
</g>
<path fill-rule="evenodd" clip-rule="evenodd" d="M83.8155 51.8449C83.8155 51.8449 79.5956 52.4599 69.5864 52.8628C59.5773 53.2657 56.8842 51.8661 56.8842 51.8661C56.8842 51.8661 56.0995 50 54.3183 50C52.537 50 51.8372 51.8873 51.8372 51.8873H26.0509C26.0509 51.8873 25.3087 50.2545 23.3366 50.1909C21.3644 50.1272 20.9191 51.9085 20.9191 51.9085C20.9191 51.9085 20.5586 53.499 9.72244 53.2233C6.47795 53.1385 0.413093 52.99 -6.5 52.8416C-5.01559 61.6632 -4.06133 70.5272 -3.12828 80.8757C8.64095 80.5152 29.6983 83.4416 35.9328 83.4204C43.2912 83.3991 70.6679 88.2977 80.359 83.1235C87.9719 79.052 83.8367 51.8661 83.8367 51.8661L83.8155 51.8449Z" stroke="#602E2D" stroke-width="0.40291" stroke-linecap="round" stroke-linejoin="round"/>
<path fill-rule="evenodd" clip-rule="evenodd" d="M153.101 67.8579V100.26H-43.625V75.4496C-43.625 75.4496 -36.0545 69.8936 -24.6246 69.8936C-15.3365 69.8936 -12.2616 76.5311 -2.46453 76.2342C9.3047 75.8737 11.1496 67.5822 21.0103 67.4338C27.9446 67.3277 29.8107 74.5801 36.024 74.5589C43.3824 74.5377 51.0377 65.3556 57.8448 70.1269C76.6119 83.2533 76.5695 64.2529 90.5017 70.4662C98.0298 73.8167 103.692 75.8949 113.383 70.6995C120.996 66.628 129.266 75.9161 135.967 75.8313C147.185 75.6828 152.635 68.5153 153.101 67.8579Z" fill="#EB9394"/>
<path fill-rule="evenodd" clip-rule="evenodd" d="M153.929 69.5307V101.933H-42.7969V77.1224C-42.7969 77.1224 -35.2264 71.5665 -23.7965 71.5665C-14.5083 71.5665 -11.4335 78.2039 -1.63641 77.907C10.1328 77.5465 11.9777 69.2551 21.8172 69.1066C28.7515 69.0006 30.6176 76.253 36.8309 76.2318C44.1893 76.2106 51.8446 67.0285 58.6517 71.7998C77.4188 84.9262 77.3764 65.9257 91.3087 72.1391C98.8367 75.4896 104.499 77.5677 114.19 72.3723C121.803 68.3008 130.073 77.5889 136.774 77.5041C147.992 77.3557 153.442 70.1881 153.908 69.5307H153.929Z" fill="#EB9394"/>
<path d="M45.3877 29.4326C42.9915 29.4326 40.5952 30.8534 38.5807 30.8534C36.5661 30.8534 34.1699 29.4326 31.7736 29.4326C26.9811 29.4326 23.7578 33.7162 23.7578 38.9752C23.7578 44.2343 28.1474 65.334 32.9399 65.1856C37.0326 65.0584 33.7245 53.586 38.5807 53.586C43.4368 53.586 41.4647 64.6555 44.3062 64.7403C51.4738 64.9736 53.3823 44.2555 53.3823 38.9752C53.3823 33.695 50.159 29.4326 45.3665 29.4326H45.3877Z" fill="white"/>
<mask id="mask2_7036_44112" style="mask-type:luminance" maskUnits="userSpaceOnUse" x="23" y="29" width="31" height="37">
<path d="M45.3877 29.4336C42.9915 29.4336 40.5952 30.8544 38.5807 30.8544C36.5661 30.8544 34.1699 29.4336 31.7736 29.4336C26.9811 29.4336 23.7578 33.7172 23.7578 38.9762C23.7578 44.2352 28.1474 65.335 32.9399 65.1866C37.0326 65.0593 33.7245 53.587 38.5807 53.587C43.4368 53.587 41.4647 64.6564 44.3062 64.7413C51.4738 64.9745 53.3823 44.2565 53.3823 38.9762C53.3823 33.696 50.159 29.4336 45.3665 29.4336H45.3877Z" fill="white"/>
</mask>
<g mask="url(#mask2_7036_44112)">
<path fill-rule="evenodd" clip-rule="evenodd" d="M22.0198 48.1154C22.0198 48.1154 26.6851 45.0406 31.8805 46.6098C35.4006 47.6701 34.9341 47.5005 37.2031 47.6489C39.4722 47.7973 39.2601 47.3944 40.3204 47.5005C43.2892 47.7761 42.9499 47.3096 43.5861 47.2248C45.6643 46.9703 46.3428 45.3587 49.757 45.7616C53.1711 46.1645 55.7582 48.794 55.7582 48.794C55.7582 48.794 54.4223 58.273 53.0863 58.7183C51.7503 59.1637 50.5628 60.6269 48.0817 60.6056C45.6006 60.5844 44.3071 57.5944 42.7379 57.8489C41.1686 58.1034 37.2031 58.9092 35.6975 58.8032C34.1919 58.6971 34.6372 58.2518 32.2834 59.0576C29.9296 59.8634 25.3491 61.0934 23.4194 59.5666C21.4896 58.0397 22.0198 48.0942 22.0198 48.0942V48.1154Z" fill="#F6DB9C"/>
<path fill-rule="evenodd" clip-rule="evenodd" d="M23.3917 49.5556C23.3917 49.5556 24.6641 51.1249 26.0425 50.9764C27.4208 50.828 28.057 49.5556 28.5236 49.5556C28.9901 49.5556 29.6263 50.8704 30.5805 50.8704C31.5348 50.8704 31.45 48.771 33.0404 48.9831C34.6308 49.1951 35.2034 50.5947 36.4545 50.6795C37.7057 50.7644 38.9992 49.7889 40.1655 50.107C41.3319 50.4251 42.4134 51.0188 43.0495 50.4251C43.6857 49.8313 45.361 48.156 47.842 48.4529C50.3231 48.7498 53.8433 49.1527 54.7975 50.9764C55.7518 52.8001 52.9526 58.2076 52.9526 58.2076C52.9526 58.2076 47.9693 56.2142 47.4815 55.5781C46.9938 54.9419 46.5061 55.5357 45.6578 55.5993C44.8096 55.6629 43.9826 55.1327 41.0986 55.4296C38.2146 55.7265 35.7547 56.702 34.4188 56.6596C33.0828 56.6172 33.1676 55.9174 31.8317 55.9174C30.4957 55.9174 28.7992 57.1049 27.1664 56.9989C25.5335 56.8928 23.1797 55.1752 23.1797 54.1573C23.1797 53.1394 23.413 49.5556 23.413 49.5556H23.3917Z" fill="#E19D76"/>
</g>
<path d="M45.3877 29.4326C42.9915 29.4326 40.5952 30.8534 38.5807 30.8534C36.5661 30.8534 34.1699 29.4326 31.7736 29.4326C26.9811 29.4326 23.7578 33.7162 23.7578 38.9752C23.7578 44.2343 28.1474 65.334 32.9399 65.1856C37.0326 65.0584 33.7245 53.586 38.5807 53.586C43.4368 53.586 41.4647 64.6555 44.3062 64.7403C51.4738 64.9736 53.3823 44.2555 53.3823 38.9752C53.3823 33.695 50.159 29.4326 45.3665 29.4326H45.3877Z" stroke="#602E2D" stroke-width="0.487734" stroke-linecap="round" stroke-linejoin="round"/>
<path fill-rule="evenodd" clip-rule="evenodd" d="M38.799 32.6528C39.923 32.5892 41.1953 32.4832 41.8951 31.9743C43.1674 31.0412 44.0793 31.3593 43.4855 32.2075C42.8281 33.1618 42.298 33.9676 38.8627 34.0948C35.5546 34.2009 34.3882 33.2678 33.7733 32.4832C33.0523 31.5713 34.0914 31.3805 34.9396 31.9106C36.1059 32.6104 37.6539 32.7165 38.799 32.6528Z" fill="#F4F9FB"/>
<path fill-rule="evenodd" clip-rule="evenodd" d="M27.8444 34.4792C27.5051 35.0306 27.2294 35.8152 26.9538 36.7058C26.6993 37.5965 25.6814 38.5932 25.745 36.4726C25.8087 34.352 26.8902 32.8252 27.8868 32.2526C28.8835 31.6801 30.3043 31.5528 30.5163 32.295C30.7072 32.9524 30.3255 33.3765 29.4985 33.4401C28.6714 33.525 28.2685 33.8218 27.8444 34.4792Z" fill="#E4EFF6"/>
<path d="M23.4643 56.7673C23.6764 58.8454 22.9766 65.5677 22.9766 65.5677L54.9125 66.0554C54.9973 62.7261 55.1034 59.1211 55.061 57.4035C55.061 57.4035 51.3711 55.4949 46.6847 56.4916C41.9982 57.4883 36.4847 55.2617 34.0884 55.6646C28.0023 56.6825 23.2522 54.7103 23.4643 56.7885V56.7673Z" fill="#FACE9C" stroke="#602E2D" stroke-width="0.40291" stroke-linecap="round" stroke-linejoin="round"/>
<path d="M39.8505 60.3923C39.8505 60.8164 39.2779 61.1557 38.5994 61.1557C37.9208 61.1557 37.3906 60.6044 37.3906 60.1803C37.3906 59.7561 37.8996 59.6289 38.5994 59.6289C39.2991 59.6289 39.8505 59.9682 39.8505 60.3923Z" fill="#C49258" stroke="#602E2D" stroke-width="0.40291" stroke-linecap="round" stroke-linejoin="round"/>
<path d="M46.1619 59.2492C46.0347 59.6521 45.0592 59.8006 44.4018 59.6097C43.7445 59.4189 43.6384 58.9099 43.7657 58.507C43.8929 58.1041 44.5291 57.9557 45.1865 58.1677C45.8438 58.3798 46.2892 58.8675 46.1619 59.2704V59.2492Z" fill="#C49258" stroke="#602E2D" stroke-width="0.40291" stroke-linecap="round" stroke-linejoin="round"/>
<path d="M33.0218 57.5499C33.0854 57.9316 32.8098 58.695 32.3008 58.7799C31.7919 58.8647 31.2193 58.2709 31.1557 57.8892C31.0921 57.5075 31.4526 57.1258 31.9615 57.0198C32.4705 56.9137 32.9582 57.147 33.0218 57.5287V57.5499Z" fill="#C49258" stroke="#602E2D" stroke-width="0.40291" stroke-linecap="round" stroke-linejoin="round"/>
<path d="M28.1538 57.8274C28.0477 58.2091 27.1147 58.506 26.3937 58.2939C25.6727 58.0819 25.2062 57.5941 25.3334 57.2124C25.4606 56.8307 26.118 56.7247 26.8178 56.9368C27.5176 57.1488 28.2598 57.4457 28.1538 57.8274Z" fill="#C49258" stroke="#602E2D" stroke-width="0.40291" stroke-linecap="round" stroke-linejoin="round"/>
<path d="M52.3548 59.5874C52.4184 59.9691 52.0579 60.3508 51.549 60.4568C51.04 60.5629 50.5523 60.3296 50.4887 59.9479C50.425 59.5662 51.0824 59.0149 51.6126 58.9088C52.1427 58.8028 52.3124 59.2057 52.376 59.5874H52.3548Z" fill="#C49258" stroke="#602E2D" stroke-width="0.40291" stroke-linecap="round" stroke-linejoin="round"/>
<path d="M119.743 81.7709L75.38 58.6354C74.8923 58.3809 74.4469 58.0628 74.0228 57.7023L61.1509 46.3572C61.1509 46.3572 60.1966 45.7422 58.7334 47.1418C57.3551 48.4778 57.758 49.5593 57.758 49.5593L68.9758 62.5796C69.6756 63.3855 70.5026 64.0853 71.4357 64.6154L115.417 89.8291C115.65 89.9563 115.925 89.8715 116.053 89.6383L119.912 82.3859C120.039 82.1526 119.955 81.8769 119.721 81.7709H119.743Z" fill="#BFCAD3" stroke="#602E2D" stroke-width="0.40291" stroke-miterlimit="10"/>
<path d="M53.5205 51.6953C53.6754 51.5524 53.2278 50.8155 52.5208 50.0496C51.8138 49.2837 51.1151 48.7788 50.9602 48.9218C50.8053 49.0647 51.2528 49.8016 51.9598 50.5675C52.6668 51.3334 53.3656 51.8383 53.5205 51.6953Z" fill="white" stroke="#602E2D" stroke-width="0.360499" stroke-miterlimit="10"/>
<path d="M50.4922 52.7813L54.1396 49.5581L53.0793 48.4766L49.75 52.0179L50.4922 52.7813Z" fill="#A8B5BE" stroke="#602E2D" stroke-width="0.40291" stroke-miterlimit="10"/>
<path d="M53.3064 52.4663L48.9804 56.4954C48.0686 57.28 45.0574 53.8871 45.8844 53.1661L50.2104 49.137C50.5497 48.8189 51.101 48.8401 51.4191 49.1794C51.822 50.2609 52.4582 50.9607 53.37 51.2576C53.6881 51.5969 53.6669 52.1482 53.3276 52.4663H53.3064Z" fill="white" stroke="#602E2D" stroke-width="0.381705" stroke-miterlimit="10"/>
<path d="M58.0389 49.6016L63.0222 44.7455C63.3827 44.385 63.3827 43.8124 63.0222 43.452L59.4597 39.8046C59.0992 39.4441 58.5266 39.4441 58.1661 39.8046L53.1828 44.6607C51.8256 45.9966 51.7832 48.1808 53.1191 49.5592C54.4551 50.9164 56.6393 50.9588 58.0177 49.6228L58.0389 49.6016Z" fill="#CCD4DA" stroke="#602E2D" stroke-width="0.40291" stroke-miterlimit="10"/>
<path d="M62.1158 45.6282L62.8594 44.9023L58.0303 39.9555L57.2868 40.6814L62.1158 45.6282Z" fill="#A8B5BE" stroke="#602E2D" stroke-width="0.40291" stroke-miterlimit="10"/>
<path d="M61.4029 46.3043L61.8125 45.9043L56.9826 40.9583L56.5729 41.3584L61.4029 46.3043Z" fill="#A8B5BE" stroke="#602E2D" stroke-width="0.40291" stroke-miterlimit="10"/>
<path d="M76.9956 59.4648L77.5894 59.7829L73.9844 66.0598L73.3906 65.7206L76.9956 59.4648Z" fill="#A8B5BE" stroke="#602E2D" stroke-width="0.40291" stroke-miterlimit="10"/>
<path d="M79.2568 60.6482L75.6094 66.9887L75.0156 66.6494L78.663 60.3301L79.2568 60.6482Z" fill="#A8B5BE" stroke="#602E2D" stroke-width="0.40291" stroke-miterlimit="10"/>
<path d="M80.9554 61.5176L77.2656 67.9429L76.6719 67.6037L80.3405 61.2207L80.9554 61.5176Z" fill="#A8B5BE" stroke="#602E2D" stroke-width="0.40291" stroke-miterlimit="10"/>
<path d="M62.9688 55.5835L67.0191 51.5332L67.528 51.9785L63.4141 56.1137L62.9688 55.5835Z" fill="#A8B5BE" stroke="#602E2D" stroke-width="0.40291" stroke-miterlimit="10"/>
<path d="M64.0781 56.8759L68.2981 52.6348L68.807 53.0801L64.5234 57.3849L64.0781 56.8759Z" fill="#A8B5BE" stroke="#602E2D" stroke-width="0.40291" stroke-miterlimit="10"/>
<path d="M65.1719 58.1464L69.5403 53.7568L70.0492 54.2022L65.6172 58.6554L65.1719 58.1464Z" fill="#A8B5BE" stroke="#602E2D" stroke-width="0.40291" stroke-miterlimit="10"/>
<path d="M66.2891 59.4176L70.8271 54.8584L71.336 55.3037L66.7344 59.9266L66.2891 59.4176Z" fill="#A8B5BE" stroke="#602E2D" stroke-width="0.40291" stroke-miterlimit="10"/>
<path d="M67.3984 60.693L72.0849 55.9854L72.6151 56.4307L67.8438 61.2232L67.3984 60.693Z" fill="#A8B5BE" stroke="#602E2D" stroke-width="0.40291" stroke-miterlimit="10"/>
<path d="M47.9799 50.0255C46.453 49.453 46.0077 51.0858 48.7857 52.9095" stroke="#602E2D" stroke-width="0.40291" stroke-linecap="round" stroke-linejoin="round"/>
<path d="M50.25 52.6348C50.25 52.6348 52.2858 54.7766 52.6463 53.7799" stroke="#602E2D" stroke-width="0.40291" stroke-linecap="round" stroke-linejoin="round"/>
<path d="M48.8906 55.7748C48.8906 55.7748 50.4811 57.0896 50.2478 55.584" stroke="#602E2D" stroke-width="0.40291" stroke-linecap="round" stroke-linejoin="round"/>
<path d="M58.5902 76.7407C58.166 91.9452 58.4629 122.015 60.7107 144.557C60.8168 145.532 61.6862 146.317 62.6829 146.317C63.6371 146.317 64.4006 145.596 64.4218 144.684C64.9095 116.523 61.2621 84.5444 60.3714 77.292C60.2442 76.2105 59.8625 75.1502 59.2687 74.2172C58.4205 72.8812 56.9361 70.803 54.7519 68.4492C54.4762 68.1311 54.0097 68.4916 54.243 68.8309C56.1727 71.5452 57.445 73.6658 58.1024 74.8322C58.4417 75.4471 58.6114 76.1257 58.5902 76.7831V76.7407Z" fill="#BFCAD3" stroke="#602E2D" stroke-width="0.40291" stroke-miterlimit="10" stroke-linecap="round"/>
<path d="M21.6976 71.6962L21.2734 71.1872L32.9366 70.0633L53.9092 69.8301L56.9628 71.1872L56.6871 71.8446C56.6871 71.8446 54.1 72.6929 49.3923 71.9082C47.1869 71.5477 43.5183 72.1839 40.9948 72.0567C38.4713 71.9295 37.6867 72.5656 30.1799 71.5478C27.7836 71.2297 21.6763 71.6962 21.6763 71.6962H21.6976Z" fill="#ED7270" stroke="#602E2D" stroke-width="0.40291" stroke-linecap="round" stroke-linejoin="round"/>
<path d="M23.2357 62.345C21.5817 64.2747 20.9455 67.5829 21.2424 71.1666C21.2424 71.1666 25.526 70.382 32.5451 71.1666C38.8856 71.8876 46.0956 70.6577 49.5309 71.1666C55.0444 71.9937 56.9318 71.1666 56.9318 71.1666C57.4619 68.1342 56.4016 65.0806 54.896 62.0057C54.896 62.0057 51.8636 61.412 44.802 61.9209C37.7405 62.4298 36.044 60.8182 30.0216 61.518C26.2257 61.9633 23.2145 62.345 23.2145 62.345H23.2357Z" fill="#F19B99" stroke="#602E2D" stroke-width="0.40291" stroke-linecap="round" stroke-linejoin="round"/>
<path d="M59.5824 74.0723C59.646 89.8071 60.9184 120.81 63.866 143.839C63.9932 144.836 64.8838 145.557 65.9017 145.451C66.856 145.345 67.577 144.539 67.577 143.585C67.1741 114.491 62.5088 81.8549 61.4061 74.454C61.2364 73.3513 60.8335 72.3123 60.1974 71.4004C59.3067 70.1069 57.7799 68.1135 55.5321 65.9081C55.2352 65.6112 54.7899 66.0141 55.0443 66.3534C57.0377 68.9617 58.3737 71.0187 59.0735 72.1426C59.4339 72.7364 59.6248 73.415 59.6248 74.1148L59.5824 74.0723Z" fill="#BFCAD3" stroke="#602E2D" stroke-width="0.40291" stroke-miterlimit="10" stroke-linecap="round"/>
<path d="M12.2372 51.0308L14.0312 47.7822L-22.3525 27.689L-24.1465 30.9376L12.2372 51.0308Z" fill="#A8B5BE" stroke="#602E2D" stroke-width="0.40291" stroke-linecap="round" stroke-linejoin="round"/>
<path d="M12.7297 50.1579L13.5703 48.6357L-22.8134 28.5425L-23.6541 30.0647L12.7297 50.1579Z" fill="#BFCAD3" stroke="#602E2D" stroke-width="0.40291" stroke-linecap="round" stroke-linejoin="round"/>
<path d="M28.0405 55.5569C26.5985 54.3482 21.7848 52.058 21.7848 52.058C21.4667 51.8883 21.1062 51.8671 20.7669 52.0156C20.3852 52.1852 19.7702 52.27 19.0068 51.8459L18.3919 51.5066L15.1262 49.7041C13.7902 48.9619 14.0447 47.7744 14.0447 47.7744L12.2422 51.0189C12.2422 51.0189 13.1116 50.1707 14.4476 50.9129L17.7133 52.7154L18.3283 53.0547C19.1553 53.5 19.431 54.1362 19.537 54.5391C19.6006 54.8359 19.7915 55.1116 20.0671 55.2601C20.0671 55.2601 24.3083 58.5682 26.9378 59.1407C29.0372 59.6073 29.5673 59.2255 29.843 58.8651C30.1187 58.5046 30.0127 57.2322 28.0405 55.5569Z" fill="#D3D8DE" stroke="#602E2D" stroke-width="0.40291" stroke-linecap="round" stroke-linejoin="round"/>
<path d="M45.0391 55.1542C45.0391 55.1542 45.2506 55.1119 45.1871 55.0273" stroke="#602E2D" stroke-width="0.445322" stroke-linecap="round" stroke-linejoin="round"/>
<path d="M46.1562 51.251L46.2831 51.1875" stroke="#602E2D" stroke-width="0.445322" stroke-linecap="round" stroke-linejoin="round"/>
<path d="M45.5703 56.0853C45.5703 56.0853 45.7188 56.0428 45.9096 56.0853" stroke="#602E2D" stroke-width="0.445322" stroke-linecap="round" stroke-linejoin="round"/>
<path d="M52.6113 54.9821L52.4844 54.9609" stroke="#602E2D" stroke-width="0.445322" stroke-linecap="round" stroke-linejoin="round"/>
<path d="M53.4007 55.4492C53.4007 55.4492 53.3795 55.5977 53.2734 55.7673" stroke="#602E2D" stroke-width="0.445322" stroke-linecap="round" stroke-linejoin="round"/>
<path d="M51.9375 57.4877C51.9375 57.4877 52.2556 57.3605 52.2556 57.2969" stroke="#602E2D" stroke-width="0.445322" stroke-linecap="round" stroke-linejoin="round"/>
<path d="M53.9911 54.2407C53.9911 54.2407 53.8002 54.1982 53.7578 54.1982" stroke="#602E2D" stroke-width="0.445322" stroke-linecap="round" stroke-linejoin="round"/>
<path d="M43.1719 52.3541L43.2142 52.2061" stroke="#602E2D" stroke-width="0.445322" stroke-linecap="round" stroke-linejoin="round"/>
<path d="M43.6016 54.0527C43.6016 54.0527 43.4955 53.9467 43.4531 53.7559" stroke="#602E2D" stroke-width="0.445322" stroke-linecap="round" stroke-linejoin="round"/>
<path d="M45.1518 52.418C45.1518 52.418 45.0457 52.7361 45.0881 52.7785" stroke="#602E2D" stroke-width="0.445322" stroke-linecap="round" stroke-linejoin="round"/>
<path d="M42.9219 54.9607C42.9219 54.9607 43.0915 54.8546 43.1127 54.791" stroke="#602E2D" stroke-width="0.445322" stroke-linecap="round" stroke-linejoin="round"/>
</g>
<path d="M38.9082 76.955C59.9306 76.955 76.9726 59.913 76.9726 38.8906C76.9726 17.8682 59.9306 0.826172 38.9082 0.826172C17.8858 0.826172 0.84375 17.8682 0.84375 38.8906C0.84375 59.913 17.8858 76.955 38.9082 76.955Z" stroke="#00AEFF" stroke-width="0.91185" stroke-miterlimit="10"/>
</svg>
