<svg width="87" height="87" viewBox="0 0 87 87" fill="none" xmlns="http://www.w3.org/2000/svg">
<g filter="url(#filter0_d_8752_39957)">
<path d="M41.5 81.5928C63.8675 81.5928 82 63.4588 82 41.0894C82 18.7199 63.8675 0.585938 41.5 0.585938C19.1325 0.585938 1 18.7199 1 41.0894C1 63.4588 19.1325 81.5928 41.5 81.5928Z" fill="white" stroke="#FC1682" stroke-miterlimit="10"/>
<path d="M58.2455 23.1782C59.4566 21.9361 60.6677 20.694 61.8789 19.4596C62.0177 19.313 62.172 19.1819 62.3186 19.043C62.9203 18.4567 63.6069 18.3949 64.3475 18.7035C65.0726 19.0044 65.5046 19.529 65.5817 20.3236C65.5972 20.5088 65.6049 20.694 65.6049 20.8869C65.6049 25.3384 65.6049 29.7899 65.6049 34.2337C65.6049 35.7381 64.8258 36.5327 63.3446 36.5327C58.8626 36.5327 54.3806 36.5327 49.8986 36.5327C48.618 36.5327 47.9623 36.0544 47.6615 34.9126C47.5149 34.3649 47.5843 33.848 47.9855 33.4237C48.726 32.6368 49.482 31.873 50.238 31.1092C50.9863 30.3531 51.7346 29.6125 52.506 28.841C51.3412 27.7377 50.0683 26.8505 48.672 26.1562C45.9566 24.8061 43.0638 24.3046 40.0783 24.6441C34.9252 25.2304 30.8752 27.6992 28.0826 32.1121C26.4626 34.6657 25.6449 37.474 25.6526 40.4905C25.6603 44.5023 27.0103 48.0435 29.6332 51.0678C31.9397 53.7294 34.848 55.4498 38.2809 56.1442C44.028 57.3014 49.0269 55.7584 53.1617 51.5692C53.5243 51.2066 53.8329 50.79 54.1723 50.4043C54.6737 49.8334 55.2986 49.7793 55.8386 50.3193C57.2272 51.6926 58.6003 53.0813 59.9658 54.4777C60.4286 54.9483 60.4286 55.4498 59.9889 55.9822C58.2763 58.0421 56.2706 59.7624 53.964 61.128C49.8523 63.5582 45.4012 64.7848 40.6415 64.4917C32.1249 63.9671 25.5215 60.0788 21.0318 52.7727C19.1726 49.7408 18.0849 46.4156 17.7455 42.8668C17.3289 38.4615 18.054 34.2491 19.9826 30.2682C23.2843 23.4636 28.6457 19.0662 35.9512 17.284C44.0512 15.309 51.2949 17.3226 57.6206 22.7154C57.7595 22.8388 57.8983 22.9622 58.0449 23.0857C58.068 23.1011 58.0989 23.1087 58.1297 23.1242C58.1683 23.1473 58.2069 23.1705 58.2532 23.1937L58.2455 23.1782Z" fill="#FC1682"/>
</g>
<defs>
<filter id="filter0_d_8752_39957" x="0.5" y="0.0859375" width="86" height="86.0078" filterUnits="userSpaceOnUse" color-interpolation-filters="sRGB">
<feFlood flood-opacity="0" result="BackgroundImageFix"/>
<feColorMatrix in="SourceAlpha" type="matrix" values="0 0 0 0 0 0 0 0 0 0 0 0 0 0 0 0 0 0 127 0" result="hardAlpha"/>
<feOffset dx="4" dy="4"/>
<feComposite in2="hardAlpha" operator="out"/>
<feColorMatrix type="matrix" values="0 0 0 0 0.992157 0 0 0 0 0.827451 0 0 0 0 0.890196 0 0 0 1 0"/>
<feBlend mode="normal" in2="BackgroundImageFix" result="effect1_dropShadow_8752_39957"/>
<feBlend mode="normal" in="SourceGraphic" in2="effect1_dropShadow_8752_39957" result="shape"/>
</filter>
</defs>
</svg>
